G04 (created by PCBNEW-RS274X (2011-05-25)-stable) date Sat 12 Oct 2013 14:49:29 BST*
G01*
G70*
G90*
%MOIN*%
G04 Gerber Fmt 3.4, Leading zero omitted, Abs format*
%FSLAX34Y34*%
G04 APERTURE LIST*
%ADD10C,0.006000*%
%ADD11C,0.015000*%
%ADD12R,0.050000X0.040000*%
%ADD13R,0.045000X0.065000*%
%ADD14R,0.065000X0.045000*%
%ADD15C,0.067500*%
%ADD16R,0.101000X0.047500*%
%ADD17R,0.047500X0.067200*%
%ADD18R,0.067200X0.047500*%
%ADD19R,0.044000X0.055000*%
%ADD20R,0.067200X0.067200*%
G04 APERTURE END LIST*
G54D10*
G54D11*
X51181Y-31417D02*
X51575Y-31023D01*
X51181Y-44409D02*
X51181Y-31417D01*
X53937Y-47165D02*
X51181Y-44409D01*
X58662Y-47165D02*
X53937Y-47165D01*
X61418Y-44409D02*
X58662Y-47165D01*
X61418Y-31417D02*
X61418Y-44409D01*
X61024Y-31023D02*
X61418Y-31417D01*
X51575Y-31023D02*
X61024Y-31023D01*
G54D12*
X57941Y-31829D03*
X57941Y-32579D03*
X56941Y-31829D03*
X57941Y-32204D03*
X56941Y-32579D03*
X60284Y-33994D03*
X60284Y-34744D03*
X59284Y-33994D03*
X60284Y-34369D03*
X59284Y-34744D03*
G54D13*
X52938Y-38425D03*
X52338Y-38425D03*
G54D14*
X52047Y-37219D03*
X52047Y-37819D03*
X58721Y-34069D03*
X58721Y-34669D03*
X54803Y-31786D03*
X54803Y-32386D03*
G54D13*
X54434Y-42126D03*
X53834Y-42126D03*
X52771Y-42126D03*
X53371Y-42126D03*
X55842Y-31889D03*
X56442Y-31889D03*
G54D14*
X58071Y-34669D03*
X58071Y-34069D03*
G54D13*
X52505Y-36220D03*
X51905Y-36220D03*
G54D14*
X55433Y-34345D03*
X55433Y-34945D03*
G54D13*
X52505Y-32126D03*
X51905Y-32126D03*
X53322Y-32126D03*
X53922Y-32126D03*
G54D14*
X60867Y-34670D03*
X60867Y-34070D03*
X58543Y-32504D03*
X58543Y-31904D03*
G54D13*
X56442Y-32559D03*
X55842Y-32559D03*
G54D14*
X56496Y-34355D03*
X56496Y-33755D03*
G54D13*
X53962Y-43385D03*
X53362Y-43385D03*
X53962Y-42755D03*
X53362Y-42755D03*
G54D15*
X57086Y-46378D03*
X54724Y-46378D03*
X55512Y-46378D03*
X56298Y-46378D03*
X57873Y-46377D03*
G54D16*
X53614Y-34858D03*
X53614Y-34358D03*
X53614Y-33858D03*
X53614Y-33358D03*
X53614Y-32858D03*
X52214Y-32858D03*
X52214Y-33358D03*
X52214Y-33858D03*
X52214Y-34358D03*
X52214Y-34858D03*
G54D13*
X51905Y-35590D03*
X52505Y-35590D03*
X57259Y-41535D03*
X57859Y-41535D03*
X57259Y-40905D03*
X57859Y-40905D03*
X55773Y-40905D03*
X55173Y-40905D03*
X55773Y-41535D03*
X55173Y-41535D03*
G54D17*
X59055Y-39960D03*
X58661Y-39960D03*
X58267Y-39960D03*
X57874Y-39960D03*
X57480Y-39960D03*
X57086Y-39960D03*
X56692Y-39960D03*
X56299Y-39960D03*
X55905Y-39960D03*
X55511Y-39960D03*
X55118Y-39960D03*
X54724Y-39960D03*
G54D18*
X54330Y-39487D03*
X54330Y-39094D03*
X54330Y-38700D03*
X54330Y-38306D03*
X54330Y-37913D03*
X54330Y-37519D03*
X54330Y-37125D03*
X54330Y-36732D03*
G54D17*
X54724Y-36260D03*
X55118Y-36260D03*
X55511Y-36260D03*
X55905Y-36260D03*
X56299Y-36260D03*
X56692Y-36260D03*
X57086Y-36260D03*
X57480Y-36260D03*
X57874Y-36260D03*
X58267Y-36260D03*
X58661Y-36260D03*
X59055Y-36260D03*
G54D18*
X59094Y-36732D03*
X59094Y-37125D03*
X59094Y-37519D03*
X59094Y-37913D03*
X59094Y-38306D03*
X59094Y-38700D03*
X59094Y-39094D03*
X59094Y-39487D03*
G54D19*
X59625Y-33255D03*
X60375Y-33255D03*
X60000Y-32255D03*
G54D20*
X58957Y-33307D03*
X57815Y-33307D03*
G54D13*
X56442Y-33228D03*
X55842Y-33228D03*
M02*
