M48
;DRILL file {PCBnew (2011-05-25)-stable} date Sat 12 Oct 2013 14:50:21 BST
;FORMAT={-:-/ absolute / inch / decimal}
FMAT,2
INCH,TZ
T1C0.015
T2C0.025
T3C0.028
%
G90
G05
M72
T1
X5.594Y4.255
X5.594Y4.295
X5.594Y4.335
X5.634Y4.255
X5.634Y4.295
X5.634Y4.335
X5.674Y4.255
X5.674Y4.295
X5.674Y4.335
T2
X5.185Y3.929
X5.193Y3.681
X5.256Y3.925
X5.256Y4.146
X5.272Y3.732
X5.272Y3.780
X5.287Y3.394
X5.299Y3.681
X5.303Y3.929
X5.303Y4.386
X5.307Y4.146
X5.382Y4.039
X5.398Y3.528
X5.405Y4.405
X5.405Y4.449
X5.413Y4.079
X5.433Y3.315
X5.449Y4.106
X5.457Y3.378
X5.469Y4.311
X5.480Y3.339
X5.480Y3.441
X5.480Y4.055
X5.524Y4.461
X5.539Y3.283
X5.567Y3.685
X5.567Y3.732
X5.571Y4.461
X5.571Y3.803
X5.598Y3.437
X5.602Y3.764
X5.602Y3.839
X5.612Y4.055
X5.638Y3.803
X5.669Y3.862
X5.675Y4.110
X5.724Y3.323
X5.744Y3.405
X5.764Y4.429
X5.799Y4.343
X5.807Y3.516
X5.835Y4.315
X6.071Y3.268
X6.095Y3.358
T3
X5.472Y4.638
X5.551Y4.638
X5.630Y4.638
X5.709Y4.638
X5.787Y4.638
T0
M30
