G04 (created by PCBNEW-RS274X (2011-05-25)-stable) date Sat 12 Oct 2013 14:49:29 BST*
G01*
G70*
G90*
%MOIN*%
G04 Gerber Fmt 3.4, Leading zero omitted, Abs format*
%FSLAX34Y34*%
G04 APERTURE LIST*
%ADD10C,0.006000*%
%ADD11C,0.010000*%
%ADD12C,0.015000*%
%ADD13C,0.005000*%
%ADD14C,0.008000*%
%ADD15C,0.007000*%
%ADD16C,0.002600*%
%ADD17C,0.003900*%
%ADD18C,0.004500*%
G04 APERTURE END LIST*
G54D10*
G54D11*
X57675Y-45977D02*
X57675Y-45748D01*
X58075Y-45863D02*
X57675Y-45863D01*
X57675Y-45653D02*
X58075Y-45386D01*
X57675Y-45386D02*
X58075Y-45653D01*
X58075Y-45234D02*
X57675Y-45234D01*
X57675Y-45081D01*
X57694Y-45043D01*
X57713Y-45024D01*
X57751Y-45005D01*
X57808Y-45005D01*
X57846Y-45024D01*
X57865Y-45043D01*
X57884Y-45081D01*
X57884Y-45234D01*
X56888Y-45986D02*
X56888Y-45757D01*
X57288Y-45872D02*
X56888Y-45872D01*
X56888Y-45662D02*
X57288Y-45395D01*
X56888Y-45395D02*
X57288Y-45662D01*
X57288Y-45243D02*
X56888Y-45243D01*
X57288Y-45014D01*
X56888Y-45014D01*
X56501Y-45921D02*
X56101Y-45921D01*
X56501Y-45731D02*
X56101Y-45731D01*
X56501Y-45502D01*
X56101Y-45502D01*
X56501Y-45312D02*
X56101Y-45312D01*
X56101Y-45159D01*
X56120Y-45121D01*
X56139Y-45102D01*
X56177Y-45083D01*
X56234Y-45083D01*
X56272Y-45102D01*
X56291Y-45121D01*
X56310Y-45159D01*
X56310Y-45312D01*
X54545Y-45737D02*
X54526Y-45775D01*
X54526Y-45832D01*
X54545Y-45890D01*
X54583Y-45928D01*
X54621Y-45947D01*
X54697Y-45966D01*
X54754Y-45966D01*
X54831Y-45947D01*
X54869Y-45928D01*
X54907Y-45890D01*
X54926Y-45832D01*
X54926Y-45794D01*
X54907Y-45737D01*
X54888Y-45718D01*
X54754Y-45718D01*
X54754Y-45794D01*
X54926Y-45547D02*
X54526Y-45547D01*
X54926Y-45318D01*
X54526Y-45318D01*
X54926Y-45128D02*
X54526Y-45128D01*
X54526Y-45033D01*
X54545Y-44975D01*
X54583Y-44937D01*
X54621Y-44918D01*
X54697Y-44899D01*
X54754Y-44899D01*
X54831Y-44918D01*
X54869Y-44937D01*
X54907Y-44975D01*
X54926Y-45033D01*
X54926Y-45128D01*
X55713Y-45931D02*
X55313Y-45931D01*
X55713Y-45741D02*
X55313Y-45741D01*
X55713Y-45512D01*
X55313Y-45512D01*
X55713Y-45322D02*
X55313Y-45322D01*
X55713Y-45093D01*
X55313Y-45093D01*
G54D12*
X51181Y-31417D02*
X51575Y-31023D01*
X51181Y-44409D02*
X51181Y-31417D01*
X53937Y-47165D02*
X51181Y-44409D01*
X58662Y-47165D02*
X53937Y-47165D01*
X61418Y-44409D02*
X58662Y-47165D01*
X61418Y-31417D02*
X61418Y-44409D01*
X61024Y-31023D02*
X61418Y-31417D01*
X51575Y-31023D02*
X61024Y-31023D01*
G54D13*
X57091Y-32804D02*
X57791Y-32804D01*
X57791Y-32804D02*
X57791Y-31604D01*
X57791Y-31604D02*
X57091Y-31604D01*
X57091Y-31604D02*
X57091Y-32804D01*
X59434Y-34969D02*
X60134Y-34969D01*
X60134Y-34969D02*
X60134Y-33769D01*
X60134Y-33769D02*
X59434Y-33769D01*
X59434Y-33769D02*
X59434Y-34969D01*
X53088Y-38175D02*
X52188Y-38175D01*
X52188Y-38175D02*
X52188Y-38675D01*
X52188Y-38675D02*
X53088Y-38675D01*
X53088Y-38675D02*
X53088Y-38175D01*
X51797Y-37069D02*
X51797Y-37969D01*
X51797Y-37969D02*
X52297Y-37969D01*
X52297Y-37969D02*
X52297Y-37069D01*
X52297Y-37069D02*
X51797Y-37069D01*
X58471Y-33919D02*
X58471Y-34819D01*
X58471Y-34819D02*
X58971Y-34819D01*
X58971Y-34819D02*
X58971Y-33919D01*
X58971Y-33919D02*
X58471Y-33919D01*
X54553Y-31636D02*
X54553Y-32536D01*
X54553Y-32536D02*
X55053Y-32536D01*
X55053Y-32536D02*
X55053Y-31636D01*
X55053Y-31636D02*
X54553Y-31636D01*
X54584Y-41876D02*
X53684Y-41876D01*
X53684Y-41876D02*
X53684Y-42376D01*
X53684Y-42376D02*
X54584Y-42376D01*
X54584Y-42376D02*
X54584Y-41876D01*
X52621Y-42376D02*
X53521Y-42376D01*
X53521Y-42376D02*
X53521Y-41876D01*
X53521Y-41876D02*
X52621Y-41876D01*
X52621Y-41876D02*
X52621Y-42376D01*
X55692Y-32139D02*
X56592Y-32139D01*
X56592Y-32139D02*
X56592Y-31639D01*
X56592Y-31639D02*
X55692Y-31639D01*
X55692Y-31639D02*
X55692Y-32139D01*
X58321Y-34819D02*
X58321Y-33919D01*
X58321Y-33919D02*
X57821Y-33919D01*
X57821Y-33919D02*
X57821Y-34819D01*
X57821Y-34819D02*
X58321Y-34819D01*
X52655Y-35970D02*
X51755Y-35970D01*
X51755Y-35970D02*
X51755Y-36470D01*
X51755Y-36470D02*
X52655Y-36470D01*
X52655Y-36470D02*
X52655Y-35970D01*
X55183Y-34195D02*
X55183Y-35095D01*
X55183Y-35095D02*
X55683Y-35095D01*
X55683Y-35095D02*
X55683Y-34195D01*
X55683Y-34195D02*
X55183Y-34195D01*
X52655Y-31876D02*
X51755Y-31876D01*
X51755Y-31876D02*
X51755Y-32376D01*
X51755Y-32376D02*
X52655Y-32376D01*
X52655Y-32376D02*
X52655Y-31876D01*
X53172Y-32376D02*
X54072Y-32376D01*
X54072Y-32376D02*
X54072Y-31876D01*
X54072Y-31876D02*
X53172Y-31876D01*
X53172Y-31876D02*
X53172Y-32376D01*
X61117Y-34820D02*
X61117Y-33920D01*
X61117Y-33920D02*
X60617Y-33920D01*
X60617Y-33920D02*
X60617Y-34820D01*
X60617Y-34820D02*
X61117Y-34820D01*
X58793Y-32654D02*
X58793Y-31754D01*
X58793Y-31754D02*
X58293Y-31754D01*
X58293Y-31754D02*
X58293Y-32654D01*
X58293Y-32654D02*
X58793Y-32654D01*
X56592Y-32309D02*
X55692Y-32309D01*
X55692Y-32309D02*
X55692Y-32809D01*
X55692Y-32809D02*
X56592Y-32809D01*
X56592Y-32809D02*
X56592Y-32309D01*
X56746Y-34505D02*
X56746Y-33605D01*
X56746Y-33605D02*
X56246Y-33605D01*
X56246Y-33605D02*
X56246Y-34505D01*
X56246Y-34505D02*
X56746Y-34505D01*
X54112Y-43135D02*
X53212Y-43135D01*
X53212Y-43135D02*
X53212Y-43635D01*
X53212Y-43635D02*
X54112Y-43635D01*
X54112Y-43635D02*
X54112Y-43135D01*
X54112Y-42505D02*
X53212Y-42505D01*
X53212Y-42505D02*
X53212Y-43005D01*
X53212Y-43005D02*
X54112Y-43005D01*
X54112Y-43005D02*
X54112Y-42505D01*
G54D14*
X59055Y-48779D02*
X58267Y-48779D01*
X54134Y-46378D02*
X53858Y-46378D01*
X53858Y-46378D02*
X53858Y-45866D01*
X53858Y-45866D02*
X53543Y-45866D01*
X53543Y-45866D02*
X53543Y-48779D01*
X53543Y-48779D02*
X58267Y-48779D01*
X59055Y-48779D02*
X59055Y-45866D01*
X59055Y-45866D02*
X58740Y-45866D01*
X58740Y-45866D02*
X58740Y-46378D01*
X58740Y-46378D02*
X58464Y-46378D01*
G54D15*
X52214Y-32708D02*
X52214Y-32458D01*
X52214Y-32458D02*
X53614Y-32458D01*
X53614Y-32458D02*
X53614Y-32708D01*
X52214Y-35008D02*
X52214Y-35258D01*
X52214Y-35258D02*
X53614Y-35258D01*
X53614Y-35258D02*
X53614Y-35008D01*
G54D13*
X51755Y-35840D02*
X52655Y-35840D01*
X52655Y-35840D02*
X52655Y-35340D01*
X52655Y-35340D02*
X51755Y-35340D01*
X51755Y-35340D02*
X51755Y-35840D01*
X57109Y-41785D02*
X58009Y-41785D01*
X58009Y-41785D02*
X58009Y-41285D01*
X58009Y-41285D02*
X57109Y-41285D01*
X57109Y-41285D02*
X57109Y-41785D01*
X57109Y-41155D02*
X58009Y-41155D01*
X58009Y-41155D02*
X58009Y-40655D01*
X58009Y-40655D02*
X57109Y-40655D01*
X57109Y-40655D02*
X57109Y-41155D01*
X55923Y-40655D02*
X55023Y-40655D01*
X55023Y-40655D02*
X55023Y-41155D01*
X55023Y-41155D02*
X55923Y-41155D01*
X55923Y-41155D02*
X55923Y-40655D01*
X55923Y-41285D02*
X55023Y-41285D01*
X55023Y-41285D02*
X55023Y-41785D01*
X55023Y-41785D02*
X55923Y-41785D01*
X55923Y-41785D02*
X55923Y-41285D01*
G54D12*
X59370Y-40039D02*
X60984Y-40039D01*
X60984Y-40039D02*
X60984Y-36181D01*
X60984Y-36181D02*
X59370Y-36181D01*
X54213Y-36496D02*
X54213Y-36181D01*
X54213Y-36181D02*
X54449Y-36181D01*
X54449Y-36181D02*
X54488Y-36181D01*
X54488Y-40039D02*
X54213Y-40039D01*
X54213Y-40039D02*
X54213Y-39763D01*
G54D16*
X54685Y-39606D02*
X54685Y-36614D01*
X54685Y-36614D02*
X58700Y-36614D01*
X58700Y-39606D02*
X58700Y-36614D01*
X54685Y-39606D02*
X58700Y-39606D01*
G54D17*
X60905Y-40058D02*
X60944Y-40058D01*
X60944Y-40058D02*
X61003Y-40058D01*
X61003Y-40058D02*
X61003Y-39999D01*
X61003Y-39999D02*
X61003Y-39960D01*
X60944Y-40058D02*
X61003Y-39999D01*
X60905Y-40058D02*
X61003Y-39960D01*
G54D10*
X60236Y-33109D02*
X59764Y-33109D01*
X60512Y-32401D02*
X60118Y-32401D01*
X59488Y-32401D02*
X59882Y-32401D01*
X60591Y-32401D02*
X60512Y-32401D01*
X60591Y-32401D02*
X60591Y-33109D01*
X60591Y-33109D02*
X60512Y-33109D01*
X59409Y-33109D02*
X59488Y-33109D01*
X59409Y-32401D02*
X59488Y-32401D01*
X59409Y-33109D02*
X59409Y-32401D01*
G54D15*
X58622Y-32874D02*
X58622Y-33740D01*
X58662Y-33701D02*
X58977Y-33701D01*
X58977Y-33622D02*
X58662Y-33622D01*
X58662Y-33661D02*
X58977Y-33661D01*
X58977Y-33583D02*
X58662Y-33583D01*
X58977Y-33031D02*
X58662Y-33031D01*
X58662Y-32992D02*
X58977Y-32992D01*
X58977Y-32953D02*
X58662Y-32953D01*
X58662Y-32913D02*
X58977Y-32913D01*
X58662Y-32874D02*
X58662Y-33740D01*
X58977Y-33740D02*
X58977Y-33583D01*
X58977Y-32874D02*
X58977Y-33031D01*
X57795Y-32874D02*
X57795Y-33031D01*
X57795Y-33740D02*
X57795Y-33583D01*
X58977Y-33740D02*
X57795Y-33740D01*
X58977Y-32874D02*
X57795Y-32874D01*
G54D13*
X56592Y-32978D02*
X55692Y-32978D01*
X55692Y-32978D02*
X55692Y-33478D01*
X55692Y-33478D02*
X56592Y-33478D01*
X56592Y-33478D02*
X56592Y-32978D01*
G54D11*
X57746Y-31139D02*
X57746Y-31463D01*
X57727Y-31501D01*
X57708Y-31520D01*
X57670Y-31539D01*
X57593Y-31539D01*
X57555Y-31520D01*
X57536Y-31501D01*
X57517Y-31463D01*
X57517Y-31139D01*
X57136Y-31139D02*
X57327Y-31139D01*
X57346Y-31329D01*
X57327Y-31310D01*
X57289Y-31291D01*
X57193Y-31291D01*
X57155Y-31310D01*
X57136Y-31329D01*
X57117Y-31367D01*
X57117Y-31463D01*
X57136Y-31501D01*
X57155Y-31520D01*
X57193Y-31539D01*
X57289Y-31539D01*
X57327Y-31520D01*
X57346Y-31501D01*
X60071Y-35117D02*
X60071Y-35441D01*
X60052Y-35479D01*
X60033Y-35498D01*
X59995Y-35517D01*
X59918Y-35517D01*
X59880Y-35498D01*
X59861Y-35479D01*
X59842Y-35441D01*
X59842Y-35117D01*
X59442Y-35517D02*
X59671Y-35517D01*
X59557Y-35517D02*
X59557Y-35117D01*
X59595Y-35174D01*
X59633Y-35212D01*
X59671Y-35231D01*
G54D18*
X53415Y-38538D02*
X53475Y-38405D01*
X53518Y-38538D02*
X53518Y-38258D01*
X53450Y-38258D01*
X53432Y-38272D01*
X53424Y-38285D01*
X53415Y-38312D01*
X53415Y-38352D01*
X53424Y-38378D01*
X53432Y-38392D01*
X53450Y-38405D01*
X53518Y-38405D01*
X53355Y-38258D02*
X53235Y-38258D01*
X53312Y-38538D01*
X51628Y-37672D02*
X51628Y-37392D01*
X51585Y-37392D01*
X51560Y-37406D01*
X51542Y-37432D01*
X51534Y-37459D01*
X51525Y-37512D01*
X51525Y-37552D01*
X51534Y-37606D01*
X51542Y-37632D01*
X51560Y-37659D01*
X51585Y-37672D01*
X51628Y-37672D01*
X51457Y-37419D02*
X51448Y-37406D01*
X51431Y-37392D01*
X51388Y-37392D01*
X51371Y-37406D01*
X51362Y-37419D01*
X51354Y-37446D01*
X51354Y-37472D01*
X51362Y-37512D01*
X51465Y-37672D01*
X51354Y-37672D01*
X58731Y-35191D02*
X58817Y-35191D01*
X58817Y-34911D01*
X58577Y-35191D02*
X58680Y-35191D01*
X58628Y-35191D02*
X58628Y-34911D01*
X58645Y-34951D01*
X58663Y-34978D01*
X58680Y-34991D01*
X54832Y-31530D02*
X54918Y-31530D01*
X54918Y-31250D01*
X54789Y-31250D02*
X54678Y-31250D01*
X54738Y-31357D01*
X54712Y-31357D01*
X54695Y-31370D01*
X54686Y-31384D01*
X54678Y-31410D01*
X54678Y-31477D01*
X54686Y-31504D01*
X54695Y-31517D01*
X54712Y-31530D01*
X54764Y-31530D01*
X54781Y-31517D01*
X54789Y-31504D01*
X54911Y-42278D02*
X54997Y-42278D01*
X54997Y-41998D01*
X54774Y-42092D02*
X54774Y-42278D01*
X54817Y-41985D02*
X54860Y-42185D01*
X54748Y-42185D01*
X52410Y-42258D02*
X52496Y-42258D01*
X52496Y-41978D01*
X52264Y-41978D02*
X52350Y-41978D01*
X52359Y-42112D01*
X52350Y-42098D01*
X52333Y-42085D01*
X52290Y-42085D01*
X52273Y-42098D01*
X52264Y-42112D01*
X52256Y-42138D01*
X52256Y-42205D01*
X52264Y-42232D01*
X52273Y-42245D01*
X52290Y-42258D01*
X52333Y-42258D01*
X52350Y-42245D01*
X52359Y-42232D01*
X55462Y-32002D02*
X55522Y-31869D01*
X55565Y-32002D02*
X55565Y-31722D01*
X55497Y-31722D01*
X55479Y-31736D01*
X55471Y-31749D01*
X55462Y-31776D01*
X55462Y-31816D01*
X55471Y-31842D01*
X55479Y-31856D01*
X55497Y-31869D01*
X55565Y-31869D01*
X55291Y-32002D02*
X55394Y-32002D01*
X55342Y-32002D02*
X55342Y-31722D01*
X55359Y-31762D01*
X55377Y-31789D01*
X55394Y-31802D01*
X57588Y-34496D02*
X57597Y-34509D01*
X57623Y-34522D01*
X57640Y-34522D01*
X57665Y-34509D01*
X57683Y-34482D01*
X57691Y-34456D01*
X57700Y-34402D01*
X57700Y-34362D01*
X57691Y-34309D01*
X57683Y-34282D01*
X57665Y-34256D01*
X57640Y-34242D01*
X57623Y-34242D01*
X57597Y-34256D01*
X57588Y-34269D01*
X57417Y-34522D02*
X57520Y-34522D01*
X57468Y-34522D02*
X57468Y-34242D01*
X57485Y-34282D01*
X57503Y-34309D01*
X57520Y-34322D01*
X53107Y-36333D02*
X53167Y-36200D01*
X53210Y-36333D02*
X53210Y-36053D01*
X53142Y-36053D01*
X53124Y-36067D01*
X53116Y-36080D01*
X53107Y-36107D01*
X53107Y-36147D01*
X53116Y-36173D01*
X53124Y-36187D01*
X53142Y-36200D01*
X53210Y-36200D01*
X52936Y-36333D02*
X53039Y-36333D01*
X52987Y-36333D02*
X52987Y-36053D01*
X53004Y-36093D01*
X53022Y-36120D01*
X53039Y-36133D01*
X52825Y-36053D02*
X52808Y-36053D01*
X52791Y-36067D01*
X52782Y-36080D01*
X52773Y-36107D01*
X52765Y-36160D01*
X52765Y-36227D01*
X52773Y-36280D01*
X52782Y-36307D01*
X52791Y-36320D01*
X52808Y-36333D01*
X52825Y-36333D01*
X52842Y-36320D01*
X52851Y-36307D01*
X52859Y-36280D01*
X52868Y-36227D01*
X52868Y-36160D01*
X52859Y-36107D01*
X52851Y-36080D01*
X52842Y-36067D01*
X52825Y-36053D01*
X55548Y-34089D02*
X55608Y-33956D01*
X55651Y-34089D02*
X55651Y-33809D01*
X55583Y-33809D01*
X55565Y-33823D01*
X55557Y-33836D01*
X55548Y-33863D01*
X55548Y-33903D01*
X55557Y-33929D01*
X55565Y-33943D01*
X55583Y-33956D01*
X55651Y-33956D01*
X55377Y-34089D02*
X55480Y-34089D01*
X55428Y-34089D02*
X55428Y-33809D01*
X55445Y-33849D01*
X55463Y-33876D01*
X55480Y-33889D01*
X55206Y-34089D02*
X55309Y-34089D01*
X55257Y-34089D02*
X55257Y-33809D01*
X55274Y-33849D01*
X55292Y-33876D01*
X55309Y-33889D01*
X52320Y-31766D02*
X52380Y-31633D01*
X52423Y-31766D02*
X52423Y-31486D01*
X52355Y-31486D01*
X52337Y-31500D01*
X52329Y-31513D01*
X52320Y-31540D01*
X52320Y-31580D01*
X52329Y-31606D01*
X52337Y-31620D01*
X52355Y-31633D01*
X52423Y-31633D01*
X52149Y-31766D02*
X52252Y-31766D01*
X52200Y-31766D02*
X52200Y-31486D01*
X52217Y-31526D01*
X52235Y-31553D01*
X52252Y-31566D01*
X52081Y-31513D02*
X52072Y-31500D01*
X52055Y-31486D01*
X52012Y-31486D01*
X51995Y-31500D01*
X51986Y-31513D01*
X51978Y-31540D01*
X51978Y-31566D01*
X51986Y-31606D01*
X52089Y-31766D01*
X51978Y-31766D01*
X53737Y-31766D02*
X53797Y-31633D01*
X53840Y-31766D02*
X53840Y-31486D01*
X53772Y-31486D01*
X53754Y-31500D01*
X53746Y-31513D01*
X53737Y-31540D01*
X53737Y-31580D01*
X53746Y-31606D01*
X53754Y-31620D01*
X53772Y-31633D01*
X53840Y-31633D01*
X53566Y-31766D02*
X53669Y-31766D01*
X53617Y-31766D02*
X53617Y-31486D01*
X53634Y-31526D01*
X53652Y-31553D01*
X53669Y-31566D01*
X53506Y-31486D02*
X53395Y-31486D01*
X53455Y-31593D01*
X53429Y-31593D01*
X53412Y-31606D01*
X53403Y-31620D01*
X53395Y-31646D01*
X53395Y-31713D01*
X53403Y-31740D01*
X53412Y-31753D01*
X53429Y-31766D01*
X53481Y-31766D01*
X53498Y-31753D01*
X53506Y-31740D01*
X60896Y-35166D02*
X60905Y-35179D01*
X60931Y-35192D01*
X60948Y-35192D01*
X60973Y-35179D01*
X60991Y-35152D01*
X60999Y-35126D01*
X61008Y-35072D01*
X61008Y-35032D01*
X60999Y-34979D01*
X60991Y-34952D01*
X60973Y-34926D01*
X60948Y-34912D01*
X60931Y-34912D01*
X60905Y-34926D01*
X60896Y-34939D01*
X60733Y-34912D02*
X60819Y-34912D01*
X60828Y-35046D01*
X60819Y-35032D01*
X60802Y-35019D01*
X60759Y-35019D01*
X60742Y-35032D01*
X60733Y-35046D01*
X60725Y-35072D01*
X60725Y-35139D01*
X60733Y-35166D01*
X60742Y-35179D01*
X60759Y-35192D01*
X60802Y-35192D01*
X60819Y-35179D01*
X60828Y-35166D01*
X58572Y-31622D02*
X58581Y-31635D01*
X58607Y-31648D01*
X58624Y-31648D01*
X58649Y-31635D01*
X58667Y-31608D01*
X58675Y-31582D01*
X58684Y-31528D01*
X58684Y-31488D01*
X58675Y-31435D01*
X58667Y-31408D01*
X58649Y-31382D01*
X58624Y-31368D01*
X58607Y-31368D01*
X58581Y-31382D01*
X58572Y-31395D01*
X58512Y-31368D02*
X58392Y-31368D01*
X58469Y-31648D01*
X55470Y-32606D02*
X55479Y-32619D01*
X55505Y-32632D01*
X55522Y-32632D01*
X55547Y-32619D01*
X55565Y-32592D01*
X55573Y-32566D01*
X55582Y-32512D01*
X55582Y-32472D01*
X55573Y-32419D01*
X55565Y-32392D01*
X55547Y-32366D01*
X55522Y-32352D01*
X55505Y-32352D01*
X55479Y-32366D01*
X55470Y-32379D01*
X55299Y-32632D02*
X55402Y-32632D01*
X55350Y-32632D02*
X55350Y-32352D01*
X55367Y-32392D01*
X55385Y-32419D01*
X55402Y-32432D01*
X55128Y-32632D02*
X55231Y-32632D01*
X55179Y-32632D02*
X55179Y-32352D01*
X55196Y-32392D01*
X55214Y-32419D01*
X55231Y-32432D01*
X56611Y-34870D02*
X56620Y-34883D01*
X56646Y-34896D01*
X56663Y-34896D01*
X56688Y-34883D01*
X56706Y-34856D01*
X56714Y-34830D01*
X56723Y-34776D01*
X56723Y-34736D01*
X56714Y-34683D01*
X56706Y-34656D01*
X56688Y-34630D01*
X56663Y-34616D01*
X56646Y-34616D01*
X56620Y-34630D01*
X56611Y-34643D01*
X56440Y-34896D02*
X56543Y-34896D01*
X56491Y-34896D02*
X56491Y-34616D01*
X56508Y-34656D01*
X56526Y-34683D01*
X56543Y-34696D01*
X56372Y-34643D02*
X56363Y-34630D01*
X56346Y-34616D01*
X56303Y-34616D01*
X56286Y-34630D01*
X56277Y-34643D01*
X56269Y-34670D01*
X56269Y-34696D01*
X56277Y-34736D01*
X56380Y-34896D01*
X56269Y-34896D01*
X52970Y-43491D02*
X52979Y-43504D01*
X53005Y-43517D01*
X53022Y-43517D01*
X53047Y-43504D01*
X53065Y-43477D01*
X53073Y-43451D01*
X53082Y-43397D01*
X53082Y-43357D01*
X53073Y-43304D01*
X53065Y-43277D01*
X53047Y-43251D01*
X53022Y-43237D01*
X53005Y-43237D01*
X52979Y-43251D01*
X52970Y-43264D01*
X52799Y-43517D02*
X52902Y-43517D01*
X52850Y-43517D02*
X52850Y-43237D01*
X52867Y-43277D01*
X52885Y-43304D01*
X52902Y-43317D01*
X52739Y-43237D02*
X52619Y-43237D01*
X52696Y-43517D01*
X52989Y-42842D02*
X52998Y-42855D01*
X53024Y-42868D01*
X53041Y-42868D01*
X53066Y-42855D01*
X53084Y-42828D01*
X53092Y-42802D01*
X53101Y-42748D01*
X53101Y-42708D01*
X53092Y-42655D01*
X53084Y-42628D01*
X53066Y-42602D01*
X53041Y-42588D01*
X53024Y-42588D01*
X52998Y-42602D01*
X52989Y-42615D01*
X52818Y-42868D02*
X52921Y-42868D01*
X52869Y-42868D02*
X52869Y-42588D01*
X52886Y-42628D01*
X52904Y-42655D01*
X52921Y-42668D01*
X52715Y-42708D02*
X52733Y-42695D01*
X52741Y-42682D01*
X52750Y-42655D01*
X52750Y-42642D01*
X52741Y-42615D01*
X52733Y-42602D01*
X52715Y-42588D01*
X52681Y-42588D01*
X52664Y-42602D01*
X52655Y-42615D01*
X52647Y-42642D01*
X52647Y-42655D01*
X52655Y-42682D01*
X52664Y-42695D01*
X52681Y-42708D01*
X52715Y-42708D01*
X52733Y-42722D01*
X52741Y-42735D01*
X52750Y-42762D01*
X52750Y-42815D01*
X52741Y-42842D01*
X52733Y-42855D01*
X52715Y-42868D01*
X52681Y-42868D01*
X52664Y-42855D01*
X52655Y-42842D01*
X52647Y-42815D01*
X52647Y-42762D01*
X52655Y-42735D01*
X52664Y-42722D01*
X52681Y-42708D01*
G54D11*
X59744Y-45674D02*
X59744Y-45274D01*
X59591Y-45274D01*
X59553Y-45293D01*
X59534Y-45312D01*
X59515Y-45350D01*
X59515Y-45407D01*
X59534Y-45445D01*
X59553Y-45464D01*
X59591Y-45483D01*
X59744Y-45483D01*
X59363Y-45312D02*
X59344Y-45293D01*
X59306Y-45274D01*
X59210Y-45274D01*
X59172Y-45293D01*
X59153Y-45312D01*
X59134Y-45350D01*
X59134Y-45388D01*
X59153Y-45445D01*
X59382Y-45674D01*
X59134Y-45674D01*
G54D18*
X52943Y-35677D02*
X52952Y-35690D01*
X52978Y-35703D01*
X52995Y-35703D01*
X53020Y-35690D01*
X53038Y-35663D01*
X53046Y-35637D01*
X53055Y-35583D01*
X53055Y-35543D01*
X53046Y-35490D01*
X53038Y-35463D01*
X53020Y-35437D01*
X52995Y-35423D01*
X52978Y-35423D01*
X52952Y-35437D01*
X52943Y-35450D01*
X52875Y-35450D02*
X52866Y-35437D01*
X52849Y-35423D01*
X52806Y-35423D01*
X52789Y-35437D01*
X52780Y-35450D01*
X52772Y-35477D01*
X52772Y-35503D01*
X52780Y-35543D01*
X52883Y-35703D01*
X52772Y-35703D01*
X58296Y-41622D02*
X58305Y-41635D01*
X58331Y-41648D01*
X58348Y-41648D01*
X58373Y-41635D01*
X58391Y-41608D01*
X58399Y-41582D01*
X58408Y-41528D01*
X58408Y-41488D01*
X58399Y-41435D01*
X58391Y-41408D01*
X58373Y-41382D01*
X58348Y-41368D01*
X58331Y-41368D01*
X58305Y-41382D01*
X58296Y-41395D01*
X58236Y-41368D02*
X58125Y-41368D01*
X58185Y-41475D01*
X58159Y-41475D01*
X58142Y-41488D01*
X58133Y-41502D01*
X58125Y-41528D01*
X58125Y-41595D01*
X58133Y-41622D01*
X58142Y-41635D01*
X58159Y-41648D01*
X58211Y-41648D01*
X58228Y-41635D01*
X58236Y-41622D01*
X58296Y-40992D02*
X58305Y-41005D01*
X58331Y-41018D01*
X58348Y-41018D01*
X58373Y-41005D01*
X58391Y-40978D01*
X58399Y-40952D01*
X58408Y-40898D01*
X58408Y-40858D01*
X58399Y-40805D01*
X58391Y-40778D01*
X58373Y-40752D01*
X58348Y-40738D01*
X58331Y-40738D01*
X58305Y-40752D01*
X58296Y-40765D01*
X58142Y-40832D02*
X58142Y-41018D01*
X58185Y-40725D02*
X58228Y-40925D01*
X58116Y-40925D01*
X56210Y-40992D02*
X56219Y-41005D01*
X56245Y-41018D01*
X56262Y-41018D01*
X56287Y-41005D01*
X56305Y-40978D01*
X56313Y-40952D01*
X56322Y-40898D01*
X56322Y-40858D01*
X56313Y-40805D01*
X56305Y-40778D01*
X56287Y-40752D01*
X56262Y-40738D01*
X56245Y-40738D01*
X56219Y-40752D01*
X56210Y-40765D01*
X56056Y-40738D02*
X56090Y-40738D01*
X56107Y-40752D01*
X56116Y-40765D01*
X56133Y-40805D01*
X56142Y-40858D01*
X56142Y-40965D01*
X56133Y-40992D01*
X56125Y-41005D01*
X56107Y-41018D01*
X56073Y-41018D01*
X56056Y-41005D01*
X56047Y-40992D01*
X56039Y-40965D01*
X56039Y-40898D01*
X56047Y-40872D01*
X56056Y-40858D01*
X56073Y-40845D01*
X56107Y-40845D01*
X56125Y-40858D01*
X56133Y-40872D01*
X56142Y-40898D01*
X56210Y-41622D02*
X56219Y-41635D01*
X56245Y-41648D01*
X56262Y-41648D01*
X56287Y-41635D01*
X56305Y-41608D01*
X56313Y-41582D01*
X56322Y-41528D01*
X56322Y-41488D01*
X56313Y-41435D01*
X56305Y-41408D01*
X56287Y-41382D01*
X56262Y-41368D01*
X56245Y-41368D01*
X56219Y-41382D01*
X56210Y-41395D01*
X56107Y-41488D02*
X56125Y-41475D01*
X56133Y-41462D01*
X56142Y-41435D01*
X56142Y-41422D01*
X56133Y-41395D01*
X56125Y-41382D01*
X56107Y-41368D01*
X56073Y-41368D01*
X56056Y-41382D01*
X56047Y-41395D01*
X56039Y-41422D01*
X56039Y-41435D01*
X56047Y-41462D01*
X56056Y-41475D01*
X56073Y-41488D01*
X56107Y-41488D01*
X56125Y-41502D01*
X56133Y-41515D01*
X56142Y-41542D01*
X56142Y-41595D01*
X56133Y-41622D01*
X56125Y-41635D01*
X56107Y-41648D01*
X56073Y-41648D01*
X56056Y-41635D01*
X56047Y-41622D01*
X56039Y-41595D01*
X56039Y-41542D01*
X56047Y-41515D01*
X56056Y-41502D01*
X56073Y-41488D01*
G54D11*
X60463Y-40313D02*
X60463Y-40637D01*
X60444Y-40675D01*
X60425Y-40694D01*
X60387Y-40713D01*
X60310Y-40713D01*
X60272Y-40694D01*
X60253Y-40675D01*
X60234Y-40637D01*
X60234Y-40313D01*
X59872Y-40446D02*
X59872Y-40713D01*
X59968Y-40294D02*
X60063Y-40580D01*
X59815Y-40580D01*
X60038Y-31932D02*
X60076Y-31913D01*
X60114Y-31875D01*
X60171Y-31818D01*
X60210Y-31799D01*
X60248Y-31799D01*
X60229Y-31894D02*
X60267Y-31875D01*
X60305Y-31837D01*
X60324Y-31761D01*
X60324Y-31627D01*
X60305Y-31551D01*
X60267Y-31513D01*
X60229Y-31494D01*
X60152Y-31494D01*
X60114Y-31513D01*
X60076Y-31551D01*
X60057Y-31627D01*
X60057Y-31761D01*
X60076Y-31837D01*
X60114Y-31875D01*
X60152Y-31894D01*
X60229Y-31894D01*
X59676Y-31894D02*
X59905Y-31894D01*
X59791Y-31894D02*
X59791Y-31494D01*
X59829Y-31551D01*
X59867Y-31589D01*
X59905Y-31608D01*
G54D18*
X57416Y-33774D02*
X57416Y-33494D01*
X57373Y-33494D01*
X57348Y-33508D01*
X57330Y-33534D01*
X57322Y-33561D01*
X57313Y-33614D01*
X57313Y-33654D01*
X57322Y-33708D01*
X57330Y-33734D01*
X57348Y-33761D01*
X57373Y-33774D01*
X57416Y-33774D01*
X57142Y-33774D02*
X57245Y-33774D01*
X57193Y-33774D02*
X57193Y-33494D01*
X57210Y-33534D01*
X57228Y-33561D01*
X57245Y-33574D01*
X55462Y-33341D02*
X55522Y-33208D01*
X55565Y-33341D02*
X55565Y-33061D01*
X55497Y-33061D01*
X55479Y-33075D01*
X55471Y-33088D01*
X55462Y-33115D01*
X55462Y-33155D01*
X55471Y-33181D01*
X55479Y-33195D01*
X55497Y-33208D01*
X55565Y-33208D01*
X55394Y-33088D02*
X55385Y-33075D01*
X55368Y-33061D01*
X55325Y-33061D01*
X55308Y-33075D01*
X55299Y-33088D01*
X55291Y-33115D01*
X55291Y-33141D01*
X55299Y-33181D01*
X55402Y-33341D01*
X55291Y-33341D01*
M02*
