G04 (created by PCBNEW-RS274X (2011-05-25)-stable) date Sat 12 Oct 2013 14:49:29 BST*
G01*
G70*
G90*
%MOIN*%
G04 Gerber Fmt 3.4, Leading zero omitted, Abs format*
%FSLAX34Y34*%
G04 APERTURE LIST*
%ADD10C,0.006000*%
%ADD11C,0.015000*%
%ADD12R,0.030000X0.020000*%
%ADD13R,0.025000X0.045000*%
%ADD14R,0.045000X0.025000*%
%ADD15R,0.040000X0.040000*%
%ADD16C,0.047500*%
%ADD17R,0.081000X0.027500*%
%ADD18R,0.027500X0.047200*%
%ADD19R,0.047200X0.027500*%
%ADD20R,0.024000X0.035000*%
%ADD21R,0.047200X0.047200*%
%ADD22C,0.035000*%
%ADD23C,0.012000*%
%ADD24C,0.008000*%
%ADD25C,0.010000*%
G04 APERTURE END LIST*
G54D10*
G54D11*
X51181Y-31417D02*
X51575Y-31023D01*
X51181Y-44409D02*
X51181Y-31417D01*
X53937Y-47165D02*
X51181Y-44409D01*
X58662Y-47165D02*
X53937Y-47165D01*
X61418Y-44409D02*
X58662Y-47165D01*
X61418Y-31417D02*
X61418Y-44409D01*
X61024Y-31023D02*
X61418Y-31417D01*
X51575Y-31023D02*
X61024Y-31023D01*
G54D12*
X57941Y-31829D03*
X57941Y-32579D03*
X56941Y-31829D03*
X57941Y-32204D03*
X56941Y-32579D03*
X60284Y-33994D03*
X60284Y-34744D03*
X59284Y-33994D03*
X60284Y-34369D03*
X59284Y-34744D03*
G54D13*
X52938Y-38425D03*
X52338Y-38425D03*
G54D14*
X52047Y-37219D03*
X52047Y-37819D03*
X58721Y-34069D03*
X58721Y-34669D03*
X54803Y-31786D03*
X54803Y-32386D03*
G54D13*
X54434Y-42126D03*
X53834Y-42126D03*
X52771Y-42126D03*
X53371Y-42126D03*
X55842Y-31889D03*
X56442Y-31889D03*
G54D14*
X58071Y-34669D03*
X58071Y-34069D03*
G54D13*
X52505Y-36220D03*
X51905Y-36220D03*
G54D14*
X55433Y-34345D03*
X55433Y-34945D03*
G54D13*
X52505Y-32126D03*
X51905Y-32126D03*
X53322Y-32126D03*
X53922Y-32126D03*
G54D14*
X60867Y-34670D03*
X60867Y-34070D03*
X58543Y-32504D03*
X58543Y-31904D03*
G54D13*
X56442Y-32559D03*
X55842Y-32559D03*
G54D14*
X56496Y-34355D03*
X56496Y-33755D03*
G54D13*
X53962Y-43385D03*
X53362Y-43385D03*
X53962Y-42755D03*
X53362Y-42755D03*
G54D15*
X56338Y-42952D03*
X56338Y-42552D03*
X56338Y-43352D03*
X56738Y-43352D03*
X56738Y-42552D03*
X56738Y-42952D03*
X55938Y-42952D03*
X55938Y-42552D03*
X55938Y-43352D03*
G54D16*
X57086Y-46378D03*
X54724Y-46378D03*
X55512Y-46378D03*
X56298Y-46378D03*
X57873Y-46377D03*
G54D17*
X53614Y-34858D03*
X53614Y-34358D03*
X53614Y-33858D03*
X53614Y-33358D03*
X53614Y-32858D03*
X52214Y-32858D03*
X52214Y-33358D03*
X52214Y-33858D03*
X52214Y-34358D03*
X52214Y-34858D03*
G54D13*
X51905Y-35590D03*
X52505Y-35590D03*
X57259Y-41535D03*
X57859Y-41535D03*
X57259Y-40905D03*
X57859Y-40905D03*
X55773Y-40905D03*
X55173Y-40905D03*
X55773Y-41535D03*
X55173Y-41535D03*
G54D18*
X59055Y-39960D03*
X58661Y-39960D03*
X58267Y-39960D03*
X57874Y-39960D03*
X57480Y-39960D03*
X57086Y-39960D03*
X56692Y-39960D03*
X56299Y-39960D03*
X55905Y-39960D03*
X55511Y-39960D03*
X55118Y-39960D03*
X54724Y-39960D03*
G54D19*
X54330Y-39487D03*
X54330Y-39094D03*
X54330Y-38700D03*
X54330Y-38306D03*
X54330Y-37913D03*
X54330Y-37519D03*
X54330Y-37125D03*
X54330Y-36732D03*
G54D18*
X54724Y-36260D03*
X55118Y-36260D03*
X55511Y-36260D03*
X55905Y-36260D03*
X56299Y-36260D03*
X56692Y-36260D03*
X57086Y-36260D03*
X57480Y-36260D03*
X57874Y-36260D03*
X58267Y-36260D03*
X58661Y-36260D03*
X59055Y-36260D03*
G54D19*
X59094Y-36732D03*
X59094Y-37125D03*
X59094Y-37519D03*
X59094Y-37913D03*
X59094Y-38306D03*
X59094Y-38700D03*
X59094Y-39094D03*
X59094Y-39487D03*
G54D20*
X59625Y-33255D03*
X60375Y-33255D03*
X60000Y-32255D03*
G54D21*
X58957Y-33307D03*
X57815Y-33307D03*
G54D13*
X56442Y-33228D03*
X55842Y-33228D03*
G54D22*
X56378Y-38031D03*
X53032Y-39291D03*
X51851Y-39291D03*
X58071Y-35157D03*
X57638Y-44291D03*
X53032Y-43858D03*
X54685Y-43110D03*
X54488Y-41063D03*
X56122Y-40551D03*
X56752Y-41102D03*
X51929Y-36811D03*
X52874Y-33937D03*
X60945Y-33582D03*
X53977Y-35275D03*
X55669Y-36850D03*
X53070Y-41457D03*
X53819Y-40393D03*
X54055Y-44488D03*
X52717Y-37795D03*
X52992Y-36811D03*
X55709Y-38031D03*
X55669Y-37322D03*
X54803Y-33385D03*
X56024Y-37637D03*
X56024Y-38385D03*
X52717Y-37322D03*
X56693Y-38622D03*
X54331Y-33149D03*
X52559Y-41456D03*
X52559Y-39251D03*
X60709Y-32677D03*
X55394Y-32834D03*
X54803Y-40551D03*
X55984Y-34370D03*
X54567Y-33779D03*
X57441Y-34055D03*
X57244Y-33228D03*
X54803Y-34409D03*
X55236Y-44606D03*
X57992Y-43425D03*
X58346Y-43149D03*
X55708Y-44606D03*
X54134Y-40787D03*
X54055Y-44055D03*
G54D23*
X55773Y-41535D02*
X57259Y-41535D01*
X55773Y-40905D02*
X55773Y-41535D01*
X55511Y-39960D02*
X55511Y-40352D01*
X55773Y-40614D02*
X55773Y-40905D01*
X55511Y-40352D02*
X55773Y-40614D01*
X52047Y-37219D02*
X51614Y-37219D01*
X51905Y-36220D02*
X51890Y-36220D01*
X51614Y-38307D02*
X52165Y-38858D01*
X51614Y-36496D02*
X51614Y-37219D01*
X51614Y-37219D02*
X51614Y-38307D01*
X51890Y-36220D02*
X51614Y-36496D01*
X56378Y-38503D02*
X56378Y-38543D01*
X56378Y-38031D02*
X56378Y-38503D01*
X55511Y-39410D02*
X55511Y-39960D01*
X56378Y-38543D02*
X55511Y-39410D01*
X52362Y-38858D02*
X52165Y-38858D01*
X53032Y-39291D02*
X53032Y-39228D01*
X53032Y-39228D02*
X52662Y-38858D01*
X52662Y-38858D02*
X52362Y-38858D01*
X51851Y-39172D02*
X51851Y-39291D01*
X52165Y-38858D02*
X51851Y-39172D01*
X58071Y-35157D02*
X55645Y-35157D01*
X55645Y-35157D02*
X55433Y-34945D01*
X58071Y-34669D02*
X58071Y-35157D01*
X58721Y-34669D02*
X58071Y-34669D01*
X59284Y-34744D02*
X58796Y-34744D01*
X58796Y-34744D02*
X58721Y-34669D01*
X57638Y-44291D02*
X57638Y-42520D01*
X57638Y-42520D02*
X57259Y-42141D01*
X57259Y-42141D02*
X57259Y-41535D01*
X55511Y-39960D02*
X55118Y-39960D01*
X57086Y-39960D02*
X57086Y-40511D01*
X57259Y-40684D02*
X57259Y-40905D01*
X57086Y-40511D02*
X57259Y-40684D01*
X57259Y-41535D02*
X57259Y-40905D01*
X54434Y-42126D02*
X54434Y-42731D01*
X54331Y-43425D02*
X55118Y-44212D01*
X54331Y-42834D02*
X54331Y-43425D01*
X54434Y-42731D02*
X54331Y-42834D01*
X51905Y-32126D02*
X51905Y-31992D01*
X51905Y-31992D02*
X52205Y-31692D01*
X52205Y-31692D02*
X53622Y-31692D01*
X53622Y-31692D02*
X53922Y-31992D01*
X53922Y-31992D02*
X53922Y-32126D01*
X52214Y-34858D02*
X51866Y-34858D01*
X51378Y-32653D02*
X51905Y-32126D01*
X51378Y-34370D02*
X51378Y-32653D01*
X51866Y-34858D02*
X51378Y-34370D01*
X51905Y-36220D02*
X51905Y-35590D01*
X52214Y-34858D02*
X52214Y-35030D01*
X51905Y-35339D02*
X51905Y-35590D01*
X52214Y-35030D02*
X51905Y-35339D01*
X54449Y-44881D02*
X53937Y-44881D01*
X57638Y-44291D02*
X57559Y-44212D01*
X57559Y-44212D02*
X55118Y-44212D01*
X55118Y-44212D02*
X54449Y-44881D01*
X53032Y-43976D02*
X53032Y-43858D01*
X53937Y-44881D02*
X53032Y-43976D01*
G54D24*
X54685Y-43110D02*
X54685Y-41260D01*
X54685Y-41260D02*
X54488Y-41063D01*
X56122Y-40551D02*
X56673Y-41102D01*
X56673Y-41102D02*
X56752Y-41102D01*
G54D23*
X55173Y-40905D02*
X55173Y-41535D01*
X52205Y-35890D02*
X52505Y-35590D01*
X52205Y-36535D02*
X52205Y-35890D01*
X51929Y-36811D02*
X52205Y-36535D01*
X55842Y-31889D02*
X55842Y-31795D01*
X58543Y-31653D02*
X58543Y-31904D01*
X58386Y-31496D02*
X58543Y-31653D01*
X56141Y-31496D02*
X58386Y-31496D01*
X55842Y-31795D02*
X56141Y-31496D01*
X58543Y-31904D02*
X59182Y-31904D01*
X59182Y-31904D02*
X59433Y-31653D01*
X57941Y-32204D02*
X58071Y-32204D01*
X58071Y-32204D02*
X58371Y-31904D01*
X58371Y-31904D02*
X58543Y-31904D01*
X56496Y-34355D02*
X56442Y-34355D01*
X55842Y-33755D02*
X55842Y-33228D01*
X56442Y-34355D02*
X55842Y-33755D01*
X55842Y-32559D02*
X55842Y-33228D01*
X55842Y-31889D02*
X55842Y-32559D01*
X56496Y-34355D02*
X57112Y-34355D01*
X57938Y-34069D02*
X58071Y-34069D01*
X57559Y-34448D02*
X57938Y-34069D01*
X57205Y-34448D02*
X57559Y-34448D01*
X57112Y-34355D02*
X57205Y-34448D01*
X52214Y-33858D02*
X52795Y-33858D01*
X52795Y-33858D02*
X52874Y-33937D01*
X60867Y-34670D02*
X60960Y-34670D01*
X61260Y-33897D02*
X60945Y-33582D01*
X61260Y-34370D02*
X61260Y-33897D01*
X60960Y-34670D02*
X61260Y-34370D01*
X56496Y-34355D02*
X56496Y-34449D01*
X54449Y-35275D02*
X53977Y-35275D01*
X55079Y-34645D02*
X54449Y-35275D01*
X55748Y-34645D02*
X55079Y-34645D01*
X55906Y-34803D02*
X55748Y-34645D01*
X56142Y-34803D02*
X55906Y-34803D01*
X56496Y-34449D02*
X56142Y-34803D01*
X60284Y-34369D02*
X60472Y-34369D01*
X60773Y-34670D02*
X60867Y-34670D01*
X60472Y-34369D02*
X60773Y-34670D01*
X55669Y-36850D02*
X55354Y-36850D01*
X54685Y-37519D02*
X54330Y-37519D01*
X55354Y-36850D02*
X54685Y-37519D01*
X55905Y-36260D02*
X55905Y-36614D01*
X55905Y-36614D02*
X55669Y-36850D01*
X55827Y-36692D02*
X56102Y-36692D01*
X55669Y-36850D02*
X55827Y-36692D01*
X57086Y-36260D02*
X57086Y-36692D01*
X57874Y-36260D02*
X57874Y-36495D01*
X57677Y-36692D02*
X57086Y-36692D01*
X57086Y-36692D02*
X56102Y-36692D01*
X57874Y-36495D02*
X57677Y-36692D01*
X54330Y-37913D02*
X54330Y-37519D01*
X58267Y-36260D02*
X57874Y-36260D01*
X58661Y-36260D02*
X58267Y-36260D01*
X59055Y-36260D02*
X58661Y-36260D01*
X57874Y-39960D02*
X58267Y-39960D01*
X57859Y-40905D02*
X57859Y-41535D01*
X57874Y-39960D02*
X57874Y-40890D01*
X57874Y-40890D02*
X57859Y-40905D01*
X52771Y-42126D02*
X52401Y-42126D01*
X52284Y-42243D02*
X52284Y-43938D01*
X52284Y-43938D02*
X54724Y-46378D01*
X52401Y-42126D02*
X52284Y-42243D01*
X53070Y-41457D02*
X53070Y-41536D01*
X52771Y-41835D02*
X52771Y-42126D01*
X53070Y-41536D02*
X52771Y-41835D01*
X52771Y-42126D02*
X52771Y-42101D01*
X52214Y-33858D02*
X51812Y-33858D01*
X51787Y-32858D02*
X52214Y-32858D01*
X51614Y-33031D02*
X51787Y-32858D01*
X51614Y-33660D02*
X51614Y-33031D01*
X51812Y-33858D02*
X51614Y-33660D01*
X52214Y-34358D02*
X52214Y-33858D01*
X52505Y-35590D02*
X52505Y-35526D01*
X52665Y-34358D02*
X52214Y-34358D01*
X52874Y-34567D02*
X52665Y-34358D01*
X52874Y-35157D02*
X52874Y-34567D01*
X52505Y-35526D02*
X52874Y-35157D01*
X53371Y-42126D02*
X53371Y-41865D01*
X53543Y-40669D02*
X53819Y-40393D01*
X53543Y-41693D02*
X53543Y-40669D01*
X53371Y-41865D02*
X53543Y-41693D01*
X53362Y-42755D02*
X53362Y-42135D01*
X53362Y-42135D02*
X53371Y-42126D01*
X53362Y-43385D02*
X53362Y-42755D01*
X53362Y-43385D02*
X53362Y-43795D01*
X53362Y-43795D02*
X54055Y-44488D01*
G54D24*
X52717Y-37795D02*
X53425Y-37795D01*
X53936Y-38306D02*
X54330Y-38306D01*
X53425Y-37795D02*
X53936Y-38306D01*
X52717Y-37795D02*
X52797Y-37715D01*
X52992Y-36811D02*
X53032Y-36811D01*
X56299Y-36023D02*
X56299Y-36260D01*
X56063Y-35787D02*
X56299Y-36023D01*
X54056Y-35787D02*
X56063Y-35787D01*
X53032Y-36811D02*
X54056Y-35787D01*
X54567Y-39487D02*
X54330Y-39487D01*
X55394Y-38660D02*
X54567Y-39487D01*
X55394Y-38346D02*
X55394Y-38660D01*
X55709Y-38031D02*
X55394Y-38346D01*
G54D23*
X56941Y-31829D02*
X56502Y-31829D01*
X56502Y-31829D02*
X56442Y-31889D01*
G54D24*
X54606Y-38700D02*
X54330Y-38700D01*
X54961Y-38345D02*
X54606Y-38700D01*
X54961Y-38030D02*
X54961Y-38345D01*
X55669Y-37322D02*
X54961Y-38030D01*
X53720Y-33464D02*
X53614Y-33358D01*
X54724Y-33464D02*
X53720Y-33464D01*
X54803Y-33385D02*
X54724Y-33464D01*
X53614Y-33358D02*
X53280Y-33358D01*
X52992Y-32456D02*
X53322Y-32126D01*
X52992Y-33070D02*
X52992Y-32456D01*
X53280Y-33358D02*
X52992Y-33070D01*
X54606Y-39094D02*
X54330Y-39094D01*
X55158Y-38542D02*
X54606Y-39094D01*
X55158Y-38149D02*
X55158Y-38542D01*
X55653Y-37654D02*
X55158Y-38149D01*
X56007Y-37654D02*
X55653Y-37654D01*
X56024Y-37637D02*
X56007Y-37654D01*
X54724Y-39725D02*
X54724Y-39960D01*
X55630Y-38819D02*
X54724Y-39725D01*
X55630Y-38543D02*
X55630Y-38819D01*
X55748Y-38425D02*
X55630Y-38543D01*
X55984Y-38425D02*
X55748Y-38425D01*
X56024Y-38385D02*
X55984Y-38425D01*
X52677Y-36614D02*
X53701Y-35590D01*
X56692Y-36022D02*
X56692Y-36260D01*
X56260Y-35590D02*
X56692Y-36022D01*
X53701Y-35590D02*
X56260Y-35590D01*
X52677Y-37282D02*
X52677Y-36614D01*
X52677Y-36614D02*
X52677Y-36653D01*
X52717Y-37322D02*
X52677Y-37282D01*
X58661Y-39724D02*
X58661Y-39960D01*
X57637Y-38700D02*
X58661Y-39724D01*
X56692Y-38700D02*
X57637Y-38700D01*
X56693Y-38622D02*
X56692Y-38700D01*
X54040Y-32858D02*
X53614Y-32858D01*
X54331Y-33149D02*
X54040Y-32858D01*
X52559Y-39251D02*
X52559Y-41456D01*
X59284Y-33994D02*
X58796Y-33994D01*
X58796Y-33994D02*
X58721Y-34069D01*
G54D23*
X60000Y-32255D02*
X60287Y-32255D01*
X60287Y-32255D02*
X60709Y-32677D01*
X58543Y-32504D02*
X59751Y-32504D01*
X59751Y-32504D02*
X60000Y-32255D01*
X57941Y-32579D02*
X58468Y-32579D01*
X58468Y-32579D02*
X58543Y-32504D01*
X55394Y-32834D02*
X55251Y-32834D01*
X55251Y-32834D02*
X54803Y-32386D01*
G54D24*
X55394Y-32834D02*
X55394Y-32795D01*
X53543Y-39030D02*
X52938Y-38425D01*
X53543Y-39448D02*
X53543Y-39030D01*
X54606Y-40511D02*
X53543Y-39448D01*
X54763Y-40511D02*
X54606Y-40511D01*
X54803Y-40551D02*
X54763Y-40511D01*
X52047Y-37819D02*
X52047Y-38134D01*
X52047Y-38134D02*
X52338Y-38425D01*
G54D23*
X60284Y-34744D02*
X60099Y-34744D01*
X60100Y-33994D02*
X60284Y-33994D01*
X59882Y-34212D02*
X60100Y-33994D01*
X59882Y-34527D02*
X59882Y-34212D01*
X60099Y-34744D02*
X59882Y-34527D01*
X60284Y-33994D02*
X60791Y-33994D01*
X60791Y-33994D02*
X60867Y-34070D01*
X59625Y-33255D02*
X59634Y-33255D01*
X60284Y-33905D02*
X60284Y-33994D01*
X59634Y-33255D02*
X60284Y-33905D01*
X58957Y-33307D02*
X59573Y-33307D01*
X59573Y-33307D02*
X59625Y-33255D01*
G54D24*
X59573Y-33307D02*
X59625Y-33255D01*
X55984Y-34370D02*
X55984Y-34252D01*
X55787Y-34055D02*
X54724Y-34055D01*
X54724Y-34055D02*
X54421Y-34358D01*
X53614Y-34358D02*
X54421Y-34358D01*
X55959Y-34345D02*
X55984Y-34370D01*
X55959Y-34345D02*
X55433Y-34345D01*
X55984Y-34252D02*
X55787Y-34055D01*
X54567Y-33779D02*
X53693Y-33779D01*
X53693Y-33779D02*
X53614Y-33858D01*
X53614Y-33858D02*
X53308Y-33858D01*
X52830Y-32451D02*
X52505Y-32126D01*
X52830Y-33380D02*
X52830Y-32451D01*
X53308Y-33858D02*
X52830Y-33380D01*
X57244Y-33228D02*
X56442Y-33228D01*
X56442Y-33228D02*
X56442Y-33701D01*
X56442Y-33701D02*
X56496Y-33755D01*
X56442Y-32559D02*
X56442Y-33228D01*
X56941Y-32579D02*
X56462Y-32579D01*
X56462Y-32579D02*
X56442Y-32559D01*
G54D23*
X57244Y-33228D02*
X57244Y-33858D01*
X57244Y-33858D02*
X57441Y-34055D01*
X57244Y-33228D02*
X57736Y-33228D01*
X57736Y-33228D02*
X57815Y-33307D01*
X60375Y-33255D02*
X60375Y-33170D01*
X60375Y-33170D02*
X60079Y-32874D01*
X60079Y-32874D02*
X58248Y-32874D01*
X58248Y-32874D02*
X57815Y-33307D01*
G54D24*
X53614Y-34858D02*
X53614Y-35283D01*
X52677Y-36220D02*
X52505Y-36220D01*
X53614Y-35283D02*
X52677Y-36220D01*
X54354Y-34858D02*
X53614Y-34858D01*
X54803Y-34409D02*
X54354Y-34858D01*
X55512Y-44882D02*
X55512Y-46378D01*
X55236Y-44606D02*
X55512Y-44882D01*
X57992Y-43425D02*
X57992Y-45472D01*
X57992Y-45472D02*
X57086Y-46378D01*
X58346Y-43740D02*
X58346Y-45904D01*
X58346Y-43149D02*
X58346Y-43740D01*
X58346Y-45904D02*
X57873Y-46377D01*
X56299Y-46121D02*
X56299Y-46377D01*
X55708Y-44606D02*
X56300Y-45198D01*
X56300Y-45198D02*
X56299Y-46121D01*
X56299Y-46377D02*
X56298Y-46378D01*
G54D23*
X53834Y-42126D02*
X53834Y-41087D01*
X53834Y-41087D02*
X54134Y-40787D01*
X53834Y-42126D02*
X53834Y-42627D01*
X53834Y-42627D02*
X53962Y-42755D01*
X53962Y-43385D02*
X53962Y-42755D01*
X53962Y-43385D02*
X53962Y-43962D01*
X53962Y-43962D02*
X54055Y-44055D01*
G54D10*
G36*
X52312Y-32484D02*
X52264Y-32533D01*
X52264Y-32758D01*
X52264Y-32808D01*
X52264Y-32908D01*
X52164Y-32908D01*
X52164Y-32808D01*
X52164Y-32758D01*
X52164Y-32533D01*
X52110Y-32479D01*
X52115Y-32477D01*
X52157Y-32435D01*
X52179Y-32380D01*
X52179Y-32321D01*
X52179Y-32014D01*
X52231Y-31962D01*
X52231Y-32381D01*
X52254Y-32436D01*
X52296Y-32478D01*
X52312Y-32484D01*
X52312Y-32484D01*
G37*
G54D25*
X52312Y-32484D02*
X52264Y-32533D01*
X52264Y-32758D01*
X52264Y-32808D01*
X52264Y-32908D01*
X52164Y-32908D01*
X52164Y-32808D01*
X52164Y-32758D01*
X52164Y-32533D01*
X52110Y-32479D01*
X52115Y-32477D01*
X52157Y-32435D01*
X52179Y-32380D01*
X52179Y-32321D01*
X52179Y-32014D01*
X52231Y-31962D01*
X52231Y-32381D01*
X52254Y-32436D01*
X52296Y-32478D01*
X52312Y-32484D01*
G54D10*
G36*
X52490Y-36594D02*
X52487Y-36614D01*
X52487Y-36653D01*
X52487Y-37092D01*
X52442Y-37137D01*
X52421Y-37187D01*
X52421Y-37064D01*
X52398Y-37009D01*
X52356Y-36967D01*
X52301Y-36945D01*
X52242Y-36945D01*
X51824Y-36945D01*
X51824Y-36594D01*
X52060Y-36594D01*
X52115Y-36571D01*
X52157Y-36529D01*
X52179Y-36474D01*
X52179Y-36415D01*
X52179Y-35966D01*
X52231Y-36018D01*
X52231Y-36025D01*
X52231Y-36475D01*
X52254Y-36530D01*
X52296Y-36572D01*
X52351Y-36594D01*
X52410Y-36594D01*
X52490Y-36594D01*
X52490Y-36594D01*
G37*
G54D25*
X52490Y-36594D02*
X52487Y-36614D01*
X52487Y-36653D01*
X52487Y-37092D01*
X52442Y-37137D01*
X52421Y-37187D01*
X52421Y-37064D01*
X52398Y-37009D01*
X52356Y-36967D01*
X52301Y-36945D01*
X52242Y-36945D01*
X51824Y-36945D01*
X51824Y-36594D01*
X52060Y-36594D01*
X52115Y-36571D01*
X52157Y-36529D01*
X52179Y-36474D01*
X52179Y-36415D01*
X52179Y-35966D01*
X52231Y-36018D01*
X52231Y-36025D01*
X52231Y-36475D01*
X52254Y-36530D01*
X52296Y-36572D01*
X52351Y-36594D01*
X52410Y-36594D01*
X52490Y-36594D01*
G54D10*
G36*
X53424Y-35205D02*
X52879Y-35749D01*
X52880Y-35702D01*
X52818Y-35640D01*
X52605Y-35640D01*
X52555Y-35640D01*
X52455Y-35640D01*
X52455Y-35540D01*
X52555Y-35540D01*
X52605Y-35540D01*
X52818Y-35540D01*
X52880Y-35478D01*
X52879Y-35414D01*
X52879Y-35315D01*
X52841Y-35224D01*
X52771Y-35154D01*
X52697Y-35123D01*
X52704Y-35121D01*
X52746Y-35079D01*
X52768Y-35024D01*
X52768Y-34965D01*
X52768Y-34698D01*
X52830Y-34636D01*
X52868Y-34544D01*
X52869Y-34470D01*
X52869Y-34246D01*
X52868Y-34172D01*
X52841Y-34108D01*
X52868Y-34044D01*
X52869Y-33970D01*
X52807Y-33908D01*
X52264Y-33908D01*
X52264Y-34033D01*
X52264Y-34183D01*
X52264Y-34308D01*
X52807Y-34308D01*
X52869Y-34246D01*
X52869Y-34470D01*
X52807Y-34408D01*
X52314Y-34408D01*
X52264Y-34408D01*
X52164Y-34408D01*
X52164Y-34308D01*
X52164Y-34258D01*
X52164Y-34183D01*
X52164Y-34033D01*
X52164Y-33958D01*
X52164Y-33908D01*
X52164Y-33808D01*
X52264Y-33808D01*
X52314Y-33808D01*
X52807Y-33808D01*
X52869Y-33746D01*
X52868Y-33686D01*
X53060Y-33878D01*
X53060Y-34025D01*
X53083Y-34080D01*
X53111Y-34108D01*
X53082Y-34137D01*
X53060Y-34192D01*
X53060Y-34251D01*
X53060Y-34525D01*
X53083Y-34580D01*
X53111Y-34608D01*
X53082Y-34637D01*
X53060Y-34692D01*
X53060Y-34751D01*
X53060Y-35025D01*
X53083Y-35080D01*
X53125Y-35122D01*
X53180Y-35144D01*
X53239Y-35144D01*
X53424Y-35144D01*
X53424Y-35205D01*
X53424Y-35205D01*
G37*
G54D25*
X53424Y-35205D02*
X52879Y-35749D01*
X52880Y-35702D01*
X52818Y-35640D01*
X52605Y-35640D01*
X52555Y-35640D01*
X52455Y-35640D01*
X52455Y-35540D01*
X52555Y-35540D01*
X52605Y-35540D01*
X52818Y-35540D01*
X52880Y-35478D01*
X52879Y-35414D01*
X52879Y-35315D01*
X52841Y-35224D01*
X52771Y-35154D01*
X52697Y-35123D01*
X52704Y-35121D01*
X52746Y-35079D01*
X52768Y-35024D01*
X52768Y-34965D01*
X52768Y-34698D01*
X52830Y-34636D01*
X52868Y-34544D01*
X52869Y-34470D01*
X52869Y-34246D01*
X52868Y-34172D01*
X52841Y-34108D01*
X52868Y-34044D01*
X52869Y-33970D01*
X52807Y-33908D01*
X52264Y-33908D01*
X52264Y-34033D01*
X52264Y-34183D01*
X52264Y-34308D01*
X52807Y-34308D01*
X52869Y-34246D01*
X52869Y-34470D01*
X52807Y-34408D01*
X52314Y-34408D01*
X52264Y-34408D01*
X52164Y-34408D01*
X52164Y-34308D01*
X52164Y-34258D01*
X52164Y-34183D01*
X52164Y-34033D01*
X52164Y-33958D01*
X52164Y-33908D01*
X52164Y-33808D01*
X52264Y-33808D01*
X52314Y-33808D01*
X52807Y-33808D01*
X52869Y-33746D01*
X52868Y-33686D01*
X53060Y-33878D01*
X53060Y-34025D01*
X53083Y-34080D01*
X53111Y-34108D01*
X53082Y-34137D01*
X53060Y-34192D01*
X53060Y-34251D01*
X53060Y-34525D01*
X53083Y-34580D01*
X53111Y-34608D01*
X53082Y-34637D01*
X53060Y-34692D01*
X53060Y-34751D01*
X53060Y-35025D01*
X53083Y-35080D01*
X53125Y-35122D01*
X53180Y-35144D01*
X53239Y-35144D01*
X53424Y-35144D01*
X53424Y-35205D01*
G54D10*
G36*
X53902Y-40075D02*
X53884Y-40068D01*
X53755Y-40068D01*
X53635Y-40117D01*
X53544Y-40208D01*
X53494Y-40328D01*
X53494Y-40421D01*
X53395Y-40521D01*
X53349Y-40588D01*
X53346Y-40601D01*
X53333Y-40669D01*
X53333Y-41606D01*
X53223Y-41717D01*
X53192Y-41761D01*
X53161Y-41775D01*
X53127Y-41808D01*
X53107Y-41760D01*
X53037Y-41690D01*
X52945Y-41652D01*
X52883Y-41651D01*
X52871Y-41663D01*
X52871Y-41651D01*
X52824Y-41651D01*
X52834Y-41641D01*
X52884Y-41521D01*
X52884Y-41392D01*
X52835Y-41272D01*
X52749Y-41186D01*
X52749Y-39521D01*
X52775Y-39494D01*
X52847Y-39566D01*
X52967Y-39616D01*
X53096Y-39616D01*
X53216Y-39567D01*
X53307Y-39476D01*
X53353Y-39365D01*
X53353Y-39448D01*
X53367Y-39521D01*
X53409Y-39582D01*
X53902Y-40075D01*
X53902Y-40075D01*
G37*
G54D25*
X53902Y-40075D02*
X53884Y-40068D01*
X53755Y-40068D01*
X53635Y-40117D01*
X53544Y-40208D01*
X53494Y-40328D01*
X53494Y-40421D01*
X53395Y-40521D01*
X53349Y-40588D01*
X53346Y-40601D01*
X53333Y-40669D01*
X53333Y-41606D01*
X53223Y-41717D01*
X53192Y-41761D01*
X53161Y-41775D01*
X53127Y-41808D01*
X53107Y-41760D01*
X53037Y-41690D01*
X52945Y-41652D01*
X52883Y-41651D01*
X52871Y-41663D01*
X52871Y-41651D01*
X52824Y-41651D01*
X52834Y-41641D01*
X52884Y-41521D01*
X52884Y-41392D01*
X52835Y-41272D01*
X52749Y-41186D01*
X52749Y-39521D01*
X52775Y-39494D01*
X52847Y-39566D01*
X52967Y-39616D01*
X53096Y-39616D01*
X53216Y-39567D01*
X53307Y-39476D01*
X53353Y-39365D01*
X53353Y-39448D01*
X53367Y-39521D01*
X53409Y-39582D01*
X53902Y-40075D01*
G54D10*
G36*
X57428Y-44002D02*
X57087Y-44002D01*
X57087Y-43581D01*
X57087Y-43522D01*
X57087Y-43181D01*
X57087Y-43122D01*
X57087Y-42781D01*
X57087Y-42722D01*
X57087Y-42322D01*
X57064Y-42267D01*
X57022Y-42225D01*
X56967Y-42203D01*
X56908Y-42203D01*
X56567Y-42203D01*
X56508Y-42203D01*
X56167Y-42203D01*
X56108Y-42203D01*
X55708Y-42203D01*
X55653Y-42226D01*
X55611Y-42268D01*
X55589Y-42323D01*
X55589Y-42382D01*
X55589Y-42723D01*
X55589Y-42782D01*
X55589Y-43123D01*
X55589Y-43182D01*
X55589Y-43582D01*
X55612Y-43637D01*
X55654Y-43679D01*
X55709Y-43701D01*
X55768Y-43701D01*
X56109Y-43701D01*
X56168Y-43701D01*
X56509Y-43701D01*
X56568Y-43701D01*
X56968Y-43701D01*
X57023Y-43678D01*
X57065Y-43636D01*
X57087Y-43581D01*
X57087Y-44002D01*
X55204Y-44002D01*
X54637Y-43435D01*
X54749Y-43435D01*
X54869Y-43386D01*
X54960Y-43295D01*
X55010Y-43175D01*
X55010Y-43046D01*
X54961Y-42926D01*
X54875Y-42840D01*
X54875Y-41939D01*
X54907Y-41971D01*
X54999Y-42009D01*
X55061Y-42010D01*
X55123Y-41948D01*
X55123Y-41635D01*
X55123Y-41585D01*
X55123Y-41485D01*
X55123Y-41435D01*
X55123Y-41318D01*
X55123Y-41122D01*
X55123Y-40955D01*
X54860Y-40955D01*
X54813Y-41002D01*
X54813Y-40999D01*
X54764Y-40879D01*
X54761Y-40876D01*
X54867Y-40876D01*
X54918Y-40855D01*
X55123Y-40855D01*
X55123Y-40628D01*
X55128Y-40616D01*
X55128Y-40487D01*
X55079Y-40367D01*
X55057Y-40345D01*
X55285Y-40345D01*
X55301Y-40338D01*
X55301Y-40352D01*
X55314Y-40419D01*
X55316Y-40430D01*
X55285Y-40430D01*
X55223Y-40492D01*
X55223Y-40805D01*
X55223Y-40855D01*
X55223Y-40955D01*
X55223Y-41005D01*
X55223Y-41122D01*
X55223Y-41318D01*
X55223Y-41435D01*
X55223Y-41485D01*
X55223Y-41585D01*
X55223Y-41635D01*
X55223Y-41948D01*
X55285Y-42010D01*
X55347Y-42009D01*
X55439Y-41971D01*
X55509Y-41901D01*
X55529Y-41852D01*
X55564Y-41887D01*
X55619Y-41909D01*
X55678Y-41909D01*
X55928Y-41909D01*
X55983Y-41886D01*
X56025Y-41844D01*
X56047Y-41789D01*
X56047Y-41745D01*
X56985Y-41745D01*
X56985Y-41790D01*
X57008Y-41845D01*
X57049Y-41886D01*
X57049Y-42141D01*
X57062Y-42208D01*
X57065Y-42222D01*
X57111Y-42289D01*
X57428Y-42606D01*
X57428Y-44002D01*
X57428Y-44002D01*
G37*
G54D25*
X57428Y-44002D02*
X57087Y-44002D01*
X57087Y-43581D01*
X57087Y-43522D01*
X57087Y-43181D01*
X57087Y-43122D01*
X57087Y-42781D01*
X57087Y-42722D01*
X57087Y-42322D01*
X57064Y-42267D01*
X57022Y-42225D01*
X56967Y-42203D01*
X56908Y-42203D01*
X56567Y-42203D01*
X56508Y-42203D01*
X56167Y-42203D01*
X56108Y-42203D01*
X55708Y-42203D01*
X55653Y-42226D01*
X55611Y-42268D01*
X55589Y-42323D01*
X55589Y-42382D01*
X55589Y-42723D01*
X55589Y-42782D01*
X55589Y-43123D01*
X55589Y-43182D01*
X55589Y-43582D01*
X55612Y-43637D01*
X55654Y-43679D01*
X55709Y-43701D01*
X55768Y-43701D01*
X56109Y-43701D01*
X56168Y-43701D01*
X56509Y-43701D01*
X56568Y-43701D01*
X56968Y-43701D01*
X57023Y-43678D01*
X57065Y-43636D01*
X57087Y-43581D01*
X57087Y-44002D01*
X55204Y-44002D01*
X54637Y-43435D01*
X54749Y-43435D01*
X54869Y-43386D01*
X54960Y-43295D01*
X55010Y-43175D01*
X55010Y-43046D01*
X54961Y-42926D01*
X54875Y-42840D01*
X54875Y-41939D01*
X54907Y-41971D01*
X54999Y-42009D01*
X55061Y-42010D01*
X55123Y-41948D01*
X55123Y-41635D01*
X55123Y-41585D01*
X55123Y-41485D01*
X55123Y-41435D01*
X55123Y-41318D01*
X55123Y-41122D01*
X55123Y-40955D01*
X54860Y-40955D01*
X54813Y-41002D01*
X54813Y-40999D01*
X54764Y-40879D01*
X54761Y-40876D01*
X54867Y-40876D01*
X54918Y-40855D01*
X55123Y-40855D01*
X55123Y-40628D01*
X55128Y-40616D01*
X55128Y-40487D01*
X55079Y-40367D01*
X55057Y-40345D01*
X55285Y-40345D01*
X55301Y-40338D01*
X55301Y-40352D01*
X55314Y-40419D01*
X55316Y-40430D01*
X55285Y-40430D01*
X55223Y-40492D01*
X55223Y-40805D01*
X55223Y-40855D01*
X55223Y-40955D01*
X55223Y-41005D01*
X55223Y-41122D01*
X55223Y-41318D01*
X55223Y-41435D01*
X55223Y-41485D01*
X55223Y-41585D01*
X55223Y-41635D01*
X55223Y-41948D01*
X55285Y-42010D01*
X55347Y-42009D01*
X55439Y-41971D01*
X55509Y-41901D01*
X55529Y-41852D01*
X55564Y-41887D01*
X55619Y-41909D01*
X55678Y-41909D01*
X55928Y-41909D01*
X55983Y-41886D01*
X56025Y-41844D01*
X56047Y-41789D01*
X56047Y-41745D01*
X56985Y-41745D01*
X56985Y-41790D01*
X57008Y-41845D01*
X57049Y-41886D01*
X57049Y-42141D01*
X57062Y-42208D01*
X57065Y-42222D01*
X57111Y-42289D01*
X57428Y-42606D01*
X57428Y-44002D01*
G54D10*
G36*
X59005Y-35774D02*
X58955Y-35774D01*
X58955Y-35786D01*
X58943Y-35774D01*
X58869Y-35775D01*
X58858Y-35779D01*
X58847Y-35775D01*
X58773Y-35774D01*
X58711Y-35836D01*
X58711Y-35879D01*
X58707Y-35883D01*
X58669Y-35974D01*
X58669Y-36073D01*
X58668Y-36148D01*
X58711Y-36191D01*
X58711Y-36210D01*
X58711Y-36310D01*
X58711Y-36329D01*
X58668Y-36372D01*
X58669Y-36447D01*
X58669Y-36546D01*
X58707Y-36637D01*
X58709Y-36639D01*
X58709Y-36899D01*
X58721Y-36928D01*
X58709Y-36959D01*
X58709Y-37018D01*
X58709Y-37292D01*
X58721Y-37321D01*
X58709Y-37353D01*
X58709Y-37412D01*
X58709Y-37686D01*
X58721Y-37715D01*
X58709Y-37747D01*
X58709Y-37806D01*
X58709Y-38080D01*
X58721Y-38109D01*
X58709Y-38140D01*
X58709Y-38199D01*
X58709Y-38473D01*
X58721Y-38502D01*
X58709Y-38534D01*
X58709Y-38593D01*
X58709Y-38867D01*
X58721Y-38896D01*
X58709Y-38928D01*
X58709Y-38987D01*
X58709Y-39261D01*
X58721Y-39290D01*
X58709Y-39321D01*
X58709Y-39380D01*
X58709Y-39504D01*
X58654Y-39449D01*
X58654Y-36372D01*
X58654Y-36148D01*
X58653Y-36073D01*
X58653Y-35974D01*
X58615Y-35883D01*
X58611Y-35879D01*
X58611Y-35836D01*
X58549Y-35774D01*
X58475Y-35775D01*
X58464Y-35779D01*
X58453Y-35775D01*
X58379Y-35774D01*
X58317Y-35836D01*
X58317Y-35879D01*
X58313Y-35883D01*
X58275Y-35974D01*
X58275Y-36073D01*
X58274Y-36148D01*
X58317Y-36191D01*
X58317Y-36210D01*
X58336Y-36210D01*
X58592Y-36210D01*
X58611Y-36210D01*
X58611Y-36191D01*
X58654Y-36148D01*
X58654Y-36372D01*
X58611Y-36329D01*
X58611Y-36310D01*
X58592Y-36310D01*
X58336Y-36310D01*
X58317Y-36310D01*
X58317Y-36329D01*
X58274Y-36372D01*
X58275Y-36447D01*
X58275Y-36546D01*
X58313Y-36637D01*
X58317Y-36641D01*
X58317Y-36684D01*
X58379Y-36746D01*
X58453Y-36745D01*
X58464Y-36740D01*
X58475Y-36745D01*
X58549Y-36746D01*
X58611Y-36684D01*
X58611Y-36641D01*
X58615Y-36637D01*
X58653Y-36546D01*
X58653Y-36447D01*
X58654Y-36372D01*
X58654Y-39449D01*
X58261Y-39056D01*
X58261Y-36372D01*
X58261Y-36148D01*
X58260Y-36073D01*
X58260Y-35974D01*
X58222Y-35883D01*
X58217Y-35878D01*
X58217Y-35836D01*
X58155Y-35774D01*
X58081Y-35775D01*
X58070Y-35779D01*
X58060Y-35775D01*
X57986Y-35774D01*
X57924Y-35836D01*
X57924Y-35878D01*
X57919Y-35883D01*
X57881Y-35974D01*
X57881Y-36073D01*
X57880Y-36148D01*
X57924Y-36192D01*
X57924Y-36210D01*
X57942Y-36210D01*
X58199Y-36210D01*
X58217Y-36210D01*
X58217Y-36192D01*
X58261Y-36148D01*
X58261Y-36372D01*
X58217Y-36328D01*
X58217Y-36310D01*
X58199Y-36310D01*
X57942Y-36310D01*
X57924Y-36310D01*
X57924Y-36328D01*
X57880Y-36372D01*
X57881Y-36447D01*
X57881Y-36546D01*
X57919Y-36637D01*
X57924Y-36642D01*
X57924Y-36684D01*
X57986Y-36746D01*
X58060Y-36745D01*
X58070Y-36740D01*
X58081Y-36745D01*
X58155Y-36746D01*
X58217Y-36684D01*
X58217Y-36642D01*
X58222Y-36637D01*
X58260Y-36546D01*
X58260Y-36447D01*
X58261Y-36372D01*
X58261Y-39056D01*
X57824Y-38619D01*
X57824Y-36684D01*
X57824Y-36360D01*
X57824Y-36310D01*
X57824Y-36210D01*
X57824Y-36160D01*
X57824Y-35836D01*
X57762Y-35774D01*
X57688Y-35775D01*
X57596Y-35813D01*
X57534Y-35875D01*
X57426Y-35875D01*
X57364Y-35813D01*
X57272Y-35775D01*
X57198Y-35774D01*
X57136Y-35836D01*
X57136Y-36160D01*
X57136Y-36210D01*
X57136Y-36310D01*
X57136Y-36360D01*
X57136Y-36684D01*
X57198Y-36746D01*
X57272Y-36745D01*
X57364Y-36707D01*
X57426Y-36645D01*
X57534Y-36645D01*
X57596Y-36707D01*
X57688Y-36745D01*
X57762Y-36746D01*
X57824Y-36684D01*
X57824Y-38619D01*
X57771Y-38566D01*
X57710Y-38524D01*
X57637Y-38510D01*
X56998Y-38510D01*
X56969Y-38438D01*
X56878Y-38347D01*
X56758Y-38297D01*
X56629Y-38297D01*
X56588Y-38313D01*
X56588Y-38281D01*
X56653Y-38216D01*
X56703Y-38096D01*
X56703Y-37967D01*
X56654Y-37847D01*
X56563Y-37756D01*
X56443Y-37706D01*
X56347Y-37706D01*
X56349Y-37702D01*
X56349Y-37573D01*
X56300Y-37453D01*
X56209Y-37362D01*
X56089Y-37312D01*
X55994Y-37312D01*
X55994Y-37258D01*
X55945Y-37138D01*
X55854Y-37047D01*
X55734Y-36997D01*
X55605Y-36997D01*
X55485Y-37046D01*
X55394Y-37137D01*
X55344Y-37257D01*
X55344Y-37378D01*
X54827Y-37896D01*
X54816Y-37911D01*
X54816Y-37813D01*
X54804Y-37813D01*
X54816Y-37801D01*
X54815Y-37727D01*
X54810Y-37716D01*
X54815Y-37705D01*
X54816Y-37631D01*
X54754Y-37569D01*
X54711Y-37569D01*
X54707Y-37565D01*
X54616Y-37527D01*
X54517Y-37527D01*
X54442Y-37526D01*
X54399Y-37569D01*
X54380Y-37569D01*
X54380Y-37588D01*
X54380Y-37813D01*
X54380Y-37844D01*
X54380Y-37863D01*
X54380Y-37963D01*
X54280Y-37963D01*
X54280Y-37863D01*
X54280Y-37844D01*
X54280Y-37588D01*
X54280Y-37569D01*
X54261Y-37569D01*
X54218Y-37526D01*
X54143Y-37527D01*
X54044Y-37527D01*
X53953Y-37565D01*
X53949Y-37569D01*
X53906Y-37569D01*
X53844Y-37631D01*
X53845Y-37705D01*
X53849Y-37716D01*
X53845Y-37727D01*
X53844Y-37801D01*
X53906Y-37863D01*
X53949Y-37863D01*
X53953Y-37867D01*
X54044Y-37905D01*
X54143Y-37905D01*
X54218Y-37906D01*
X54261Y-37863D01*
X54280Y-37863D01*
X54280Y-37963D01*
X54230Y-37963D01*
X53906Y-37963D01*
X53883Y-37985D01*
X53559Y-37661D01*
X53498Y-37619D01*
X53425Y-37605D01*
X52987Y-37605D01*
X52940Y-37558D01*
X52992Y-37507D01*
X53042Y-37387D01*
X53042Y-37258D01*
X52993Y-37138D01*
X52991Y-37136D01*
X53056Y-37136D01*
X53176Y-37087D01*
X53267Y-36996D01*
X53317Y-36876D01*
X53317Y-36794D01*
X54134Y-35977D01*
X54445Y-35977D01*
X54438Y-35995D01*
X54438Y-36054D01*
X54438Y-36446D01*
X54064Y-36446D01*
X54009Y-36469D01*
X53967Y-36511D01*
X53945Y-36566D01*
X53945Y-36625D01*
X53945Y-36899D01*
X53957Y-36928D01*
X53945Y-36959D01*
X53945Y-37018D01*
X53945Y-37179D01*
X53883Y-37241D01*
X53845Y-37333D01*
X53844Y-37407D01*
X53906Y-37469D01*
X54230Y-37469D01*
X54280Y-37469D01*
X54380Y-37469D01*
X54430Y-37469D01*
X54754Y-37469D01*
X54816Y-37407D01*
X54815Y-37333D01*
X54777Y-37241D01*
X54715Y-37179D01*
X54715Y-36958D01*
X54702Y-36928D01*
X54715Y-36898D01*
X54715Y-36839D01*
X54715Y-36645D01*
X54891Y-36645D01*
X54920Y-36632D01*
X54952Y-36645D01*
X55011Y-36645D01*
X55285Y-36645D01*
X55314Y-36632D01*
X55345Y-36645D01*
X55404Y-36645D01*
X55565Y-36645D01*
X55627Y-36707D01*
X55719Y-36745D01*
X55793Y-36746D01*
X55855Y-36684D01*
X55855Y-36360D01*
X55855Y-36310D01*
X55855Y-36210D01*
X55955Y-36210D01*
X55955Y-36310D01*
X55955Y-36360D01*
X55955Y-36684D01*
X56017Y-36746D01*
X56091Y-36745D01*
X56183Y-36707D01*
X56245Y-36645D01*
X56466Y-36645D01*
X56495Y-36632D01*
X56526Y-36645D01*
X56585Y-36645D01*
X56746Y-36645D01*
X56808Y-36707D01*
X56900Y-36745D01*
X56974Y-36746D01*
X57036Y-36684D01*
X57036Y-36360D01*
X57036Y-36310D01*
X57036Y-36210D01*
X57036Y-36160D01*
X57036Y-35836D01*
X56974Y-35774D01*
X56900Y-35775D01*
X56808Y-35813D01*
X56779Y-35841D01*
X56394Y-35456D01*
X56333Y-35414D01*
X56260Y-35400D01*
X53759Y-35400D01*
X53790Y-35356D01*
X53803Y-35283D01*
X53804Y-35283D01*
X53804Y-35144D01*
X54049Y-35144D01*
X54104Y-35121D01*
X54146Y-35079D01*
X54158Y-35048D01*
X54354Y-35048D01*
X54427Y-35034D01*
X54488Y-34992D01*
X54746Y-34734D01*
X54867Y-34734D01*
X54987Y-34685D01*
X55078Y-34594D01*
X55090Y-34563D01*
X55124Y-34597D01*
X55179Y-34619D01*
X55238Y-34619D01*
X55688Y-34619D01*
X55743Y-34596D01*
X55746Y-34592D01*
X55799Y-34645D01*
X55919Y-34695D01*
X56048Y-34695D01*
X56109Y-34670D01*
X56130Y-34691D01*
X56221Y-34729D01*
X56320Y-34729D01*
X56384Y-34730D01*
X56446Y-34668D01*
X56446Y-34455D01*
X56446Y-34405D01*
X56446Y-34305D01*
X56546Y-34305D01*
X56596Y-34305D01*
X56909Y-34305D01*
X56971Y-34243D01*
X56970Y-34181D01*
X56932Y-34089D01*
X56862Y-34019D01*
X56813Y-33998D01*
X56848Y-33964D01*
X56870Y-33909D01*
X56870Y-33850D01*
X56870Y-33600D01*
X56847Y-33545D01*
X56805Y-33503D01*
X56750Y-33481D01*
X56716Y-33481D01*
X56716Y-33423D01*
X56716Y-33418D01*
X56974Y-33418D01*
X57034Y-33478D01*
X57034Y-33858D01*
X57047Y-33925D01*
X57050Y-33939D01*
X57096Y-34006D01*
X57116Y-34026D01*
X57116Y-34119D01*
X57165Y-34239D01*
X57256Y-34330D01*
X57376Y-34380D01*
X57505Y-34380D01*
X57625Y-34331D01*
X57630Y-34325D01*
X57635Y-34335D01*
X57705Y-34405D01*
X57753Y-34425D01*
X57719Y-34460D01*
X57697Y-34515D01*
X57697Y-34574D01*
X57697Y-34824D01*
X57720Y-34879D01*
X57762Y-34921D01*
X57817Y-34943D01*
X57825Y-34943D01*
X57821Y-34947D01*
X56971Y-34947D01*
X56971Y-34467D01*
X56909Y-34405D01*
X56546Y-34405D01*
X56546Y-34668D01*
X56608Y-34730D01*
X56672Y-34729D01*
X56771Y-34729D01*
X56862Y-34691D01*
X56932Y-34621D01*
X56970Y-34529D01*
X56971Y-34467D01*
X56971Y-34947D01*
X55807Y-34947D01*
X55807Y-34790D01*
X55784Y-34735D01*
X55742Y-34693D01*
X55687Y-34671D01*
X55628Y-34671D01*
X55178Y-34671D01*
X55123Y-34694D01*
X55081Y-34736D01*
X55059Y-34791D01*
X55059Y-34850D01*
X55059Y-35100D01*
X55082Y-35155D01*
X55124Y-35197D01*
X55179Y-35219D01*
X55238Y-35219D01*
X55410Y-35219D01*
X55496Y-35305D01*
X55497Y-35305D01*
X55542Y-35335D01*
X55564Y-35350D01*
X55565Y-35351D01*
X55644Y-35366D01*
X55645Y-35367D01*
X57821Y-35367D01*
X57886Y-35432D01*
X58006Y-35482D01*
X58135Y-35482D01*
X58255Y-35433D01*
X58346Y-35342D01*
X58396Y-35222D01*
X58396Y-35093D01*
X58347Y-34973D01*
X58317Y-34943D01*
X58326Y-34943D01*
X58381Y-34920D01*
X58396Y-34905D01*
X58412Y-34921D01*
X58467Y-34943D01*
X58526Y-34943D01*
X58741Y-34943D01*
X58742Y-34943D01*
X58796Y-34954D01*
X59005Y-34954D01*
X59005Y-35774D01*
X59005Y-35774D01*
G37*
G54D25*
X59005Y-35774D02*
X58955Y-35774D01*
X58955Y-35786D01*
X58943Y-35774D01*
X58869Y-35775D01*
X58858Y-35779D01*
X58847Y-35775D01*
X58773Y-35774D01*
X58711Y-35836D01*
X58711Y-35879D01*
X58707Y-35883D01*
X58669Y-35974D01*
X58669Y-36073D01*
X58668Y-36148D01*
X58711Y-36191D01*
X58711Y-36210D01*
X58711Y-36310D01*
X58711Y-36329D01*
X58668Y-36372D01*
X58669Y-36447D01*
X58669Y-36546D01*
X58707Y-36637D01*
X58709Y-36639D01*
X58709Y-36899D01*
X58721Y-36928D01*
X58709Y-36959D01*
X58709Y-37018D01*
X58709Y-37292D01*
X58721Y-37321D01*
X58709Y-37353D01*
X58709Y-37412D01*
X58709Y-37686D01*
X58721Y-37715D01*
X58709Y-37747D01*
X58709Y-37806D01*
X58709Y-38080D01*
X58721Y-38109D01*
X58709Y-38140D01*
X58709Y-38199D01*
X58709Y-38473D01*
X58721Y-38502D01*
X58709Y-38534D01*
X58709Y-38593D01*
X58709Y-38867D01*
X58721Y-38896D01*
X58709Y-38928D01*
X58709Y-38987D01*
X58709Y-39261D01*
X58721Y-39290D01*
X58709Y-39321D01*
X58709Y-39380D01*
X58709Y-39504D01*
X58654Y-39449D01*
X58654Y-36372D01*
X58654Y-36148D01*
X58653Y-36073D01*
X58653Y-35974D01*
X58615Y-35883D01*
X58611Y-35879D01*
X58611Y-35836D01*
X58549Y-35774D01*
X58475Y-35775D01*
X58464Y-35779D01*
X58453Y-35775D01*
X58379Y-35774D01*
X58317Y-35836D01*
X58317Y-35879D01*
X58313Y-35883D01*
X58275Y-35974D01*
X58275Y-36073D01*
X58274Y-36148D01*
X58317Y-36191D01*
X58317Y-36210D01*
X58336Y-36210D01*
X58592Y-36210D01*
X58611Y-36210D01*
X58611Y-36191D01*
X58654Y-36148D01*
X58654Y-36372D01*
X58611Y-36329D01*
X58611Y-36310D01*
X58592Y-36310D01*
X58336Y-36310D01*
X58317Y-36310D01*
X58317Y-36329D01*
X58274Y-36372D01*
X58275Y-36447D01*
X58275Y-36546D01*
X58313Y-36637D01*
X58317Y-36641D01*
X58317Y-36684D01*
X58379Y-36746D01*
X58453Y-36745D01*
X58464Y-36740D01*
X58475Y-36745D01*
X58549Y-36746D01*
X58611Y-36684D01*
X58611Y-36641D01*
X58615Y-36637D01*
X58653Y-36546D01*
X58653Y-36447D01*
X58654Y-36372D01*
X58654Y-39449D01*
X58261Y-39056D01*
X58261Y-36372D01*
X58261Y-36148D01*
X58260Y-36073D01*
X58260Y-35974D01*
X58222Y-35883D01*
X58217Y-35878D01*
X58217Y-35836D01*
X58155Y-35774D01*
X58081Y-35775D01*
X58070Y-35779D01*
X58060Y-35775D01*
X57986Y-35774D01*
X57924Y-35836D01*
X57924Y-35878D01*
X57919Y-35883D01*
X57881Y-35974D01*
X57881Y-36073D01*
X57880Y-36148D01*
X57924Y-36192D01*
X57924Y-36210D01*
X57942Y-36210D01*
X58199Y-36210D01*
X58217Y-36210D01*
X58217Y-36192D01*
X58261Y-36148D01*
X58261Y-36372D01*
X58217Y-36328D01*
X58217Y-36310D01*
X58199Y-36310D01*
X57942Y-36310D01*
X57924Y-36310D01*
X57924Y-36328D01*
X57880Y-36372D01*
X57881Y-36447D01*
X57881Y-36546D01*
X57919Y-36637D01*
X57924Y-36642D01*
X57924Y-36684D01*
X57986Y-36746D01*
X58060Y-36745D01*
X58070Y-36740D01*
X58081Y-36745D01*
X58155Y-36746D01*
X58217Y-36684D01*
X58217Y-36642D01*
X58222Y-36637D01*
X58260Y-36546D01*
X58260Y-36447D01*
X58261Y-36372D01*
X58261Y-39056D01*
X57824Y-38619D01*
X57824Y-36684D01*
X57824Y-36360D01*
X57824Y-36310D01*
X57824Y-36210D01*
X57824Y-36160D01*
X57824Y-35836D01*
X57762Y-35774D01*
X57688Y-35775D01*
X57596Y-35813D01*
X57534Y-35875D01*
X57426Y-35875D01*
X57364Y-35813D01*
X57272Y-35775D01*
X57198Y-35774D01*
X57136Y-35836D01*
X57136Y-36160D01*
X57136Y-36210D01*
X57136Y-36310D01*
X57136Y-36360D01*
X57136Y-36684D01*
X57198Y-36746D01*
X57272Y-36745D01*
X57364Y-36707D01*
X57426Y-36645D01*
X57534Y-36645D01*
X57596Y-36707D01*
X57688Y-36745D01*
X57762Y-36746D01*
X57824Y-36684D01*
X57824Y-38619D01*
X57771Y-38566D01*
X57710Y-38524D01*
X57637Y-38510D01*
X56998Y-38510D01*
X56969Y-38438D01*
X56878Y-38347D01*
X56758Y-38297D01*
X56629Y-38297D01*
X56588Y-38313D01*
X56588Y-38281D01*
X56653Y-38216D01*
X56703Y-38096D01*
X56703Y-37967D01*
X56654Y-37847D01*
X56563Y-37756D01*
X56443Y-37706D01*
X56347Y-37706D01*
X56349Y-37702D01*
X56349Y-37573D01*
X56300Y-37453D01*
X56209Y-37362D01*
X56089Y-37312D01*
X55994Y-37312D01*
X55994Y-37258D01*
X55945Y-37138D01*
X55854Y-37047D01*
X55734Y-36997D01*
X55605Y-36997D01*
X55485Y-37046D01*
X55394Y-37137D01*
X55344Y-37257D01*
X55344Y-37378D01*
X54827Y-37896D01*
X54816Y-37911D01*
X54816Y-37813D01*
X54804Y-37813D01*
X54816Y-37801D01*
X54815Y-37727D01*
X54810Y-37716D01*
X54815Y-37705D01*
X54816Y-37631D01*
X54754Y-37569D01*
X54711Y-37569D01*
X54707Y-37565D01*
X54616Y-37527D01*
X54517Y-37527D01*
X54442Y-37526D01*
X54399Y-37569D01*
X54380Y-37569D01*
X54380Y-37588D01*
X54380Y-37813D01*
X54380Y-37844D01*
X54380Y-37863D01*
X54380Y-37963D01*
X54280Y-37963D01*
X54280Y-37863D01*
X54280Y-37844D01*
X54280Y-37588D01*
X54280Y-37569D01*
X54261Y-37569D01*
X54218Y-37526D01*
X54143Y-37527D01*
X54044Y-37527D01*
X53953Y-37565D01*
X53949Y-37569D01*
X53906Y-37569D01*
X53844Y-37631D01*
X53845Y-37705D01*
X53849Y-37716D01*
X53845Y-37727D01*
X53844Y-37801D01*
X53906Y-37863D01*
X53949Y-37863D01*
X53953Y-37867D01*
X54044Y-37905D01*
X54143Y-37905D01*
X54218Y-37906D01*
X54261Y-37863D01*
X54280Y-37863D01*
X54280Y-37963D01*
X54230Y-37963D01*
X53906Y-37963D01*
X53883Y-37985D01*
X53559Y-37661D01*
X53498Y-37619D01*
X53425Y-37605D01*
X52987Y-37605D01*
X52940Y-37558D01*
X52992Y-37507D01*
X53042Y-37387D01*
X53042Y-37258D01*
X52993Y-37138D01*
X52991Y-37136D01*
X53056Y-37136D01*
X53176Y-37087D01*
X53267Y-36996D01*
X53317Y-36876D01*
X53317Y-36794D01*
X54134Y-35977D01*
X54445Y-35977D01*
X54438Y-35995D01*
X54438Y-36054D01*
X54438Y-36446D01*
X54064Y-36446D01*
X54009Y-36469D01*
X53967Y-36511D01*
X53945Y-36566D01*
X53945Y-36625D01*
X53945Y-36899D01*
X53957Y-36928D01*
X53945Y-36959D01*
X53945Y-37018D01*
X53945Y-37179D01*
X53883Y-37241D01*
X53845Y-37333D01*
X53844Y-37407D01*
X53906Y-37469D01*
X54230Y-37469D01*
X54280Y-37469D01*
X54380Y-37469D01*
X54430Y-37469D01*
X54754Y-37469D01*
X54816Y-37407D01*
X54815Y-37333D01*
X54777Y-37241D01*
X54715Y-37179D01*
X54715Y-36958D01*
X54702Y-36928D01*
X54715Y-36898D01*
X54715Y-36839D01*
X54715Y-36645D01*
X54891Y-36645D01*
X54920Y-36632D01*
X54952Y-36645D01*
X55011Y-36645D01*
X55285Y-36645D01*
X55314Y-36632D01*
X55345Y-36645D01*
X55404Y-36645D01*
X55565Y-36645D01*
X55627Y-36707D01*
X55719Y-36745D01*
X55793Y-36746D01*
X55855Y-36684D01*
X55855Y-36360D01*
X55855Y-36310D01*
X55855Y-36210D01*
X55955Y-36210D01*
X55955Y-36310D01*
X55955Y-36360D01*
X55955Y-36684D01*
X56017Y-36746D01*
X56091Y-36745D01*
X56183Y-36707D01*
X56245Y-36645D01*
X56466Y-36645D01*
X56495Y-36632D01*
X56526Y-36645D01*
X56585Y-36645D01*
X56746Y-36645D01*
X56808Y-36707D01*
X56900Y-36745D01*
X56974Y-36746D01*
X57036Y-36684D01*
X57036Y-36360D01*
X57036Y-36310D01*
X57036Y-36210D01*
X57036Y-36160D01*
X57036Y-35836D01*
X56974Y-35774D01*
X56900Y-35775D01*
X56808Y-35813D01*
X56779Y-35841D01*
X56394Y-35456D01*
X56333Y-35414D01*
X56260Y-35400D01*
X53759Y-35400D01*
X53790Y-35356D01*
X53803Y-35283D01*
X53804Y-35283D01*
X53804Y-35144D01*
X54049Y-35144D01*
X54104Y-35121D01*
X54146Y-35079D01*
X54158Y-35048D01*
X54354Y-35048D01*
X54427Y-35034D01*
X54488Y-34992D01*
X54746Y-34734D01*
X54867Y-34734D01*
X54987Y-34685D01*
X55078Y-34594D01*
X55090Y-34563D01*
X55124Y-34597D01*
X55179Y-34619D01*
X55238Y-34619D01*
X55688Y-34619D01*
X55743Y-34596D01*
X55746Y-34592D01*
X55799Y-34645D01*
X55919Y-34695D01*
X56048Y-34695D01*
X56109Y-34670D01*
X56130Y-34691D01*
X56221Y-34729D01*
X56320Y-34729D01*
X56384Y-34730D01*
X56446Y-34668D01*
X56446Y-34455D01*
X56446Y-34405D01*
X56446Y-34305D01*
X56546Y-34305D01*
X56596Y-34305D01*
X56909Y-34305D01*
X56971Y-34243D01*
X56970Y-34181D01*
X56932Y-34089D01*
X56862Y-34019D01*
X56813Y-33998D01*
X56848Y-33964D01*
X56870Y-33909D01*
X56870Y-33850D01*
X56870Y-33600D01*
X56847Y-33545D01*
X56805Y-33503D01*
X56750Y-33481D01*
X56716Y-33481D01*
X56716Y-33423D01*
X56716Y-33418D01*
X56974Y-33418D01*
X57034Y-33478D01*
X57034Y-33858D01*
X57047Y-33925D01*
X57050Y-33939D01*
X57096Y-34006D01*
X57116Y-34026D01*
X57116Y-34119D01*
X57165Y-34239D01*
X57256Y-34330D01*
X57376Y-34380D01*
X57505Y-34380D01*
X57625Y-34331D01*
X57630Y-34325D01*
X57635Y-34335D01*
X57705Y-34405D01*
X57753Y-34425D01*
X57719Y-34460D01*
X57697Y-34515D01*
X57697Y-34574D01*
X57697Y-34824D01*
X57720Y-34879D01*
X57762Y-34921D01*
X57817Y-34943D01*
X57825Y-34943D01*
X57821Y-34947D01*
X56971Y-34947D01*
X56971Y-34467D01*
X56909Y-34405D01*
X56546Y-34405D01*
X56546Y-34668D01*
X56608Y-34730D01*
X56672Y-34729D01*
X56771Y-34729D01*
X56862Y-34691D01*
X56932Y-34621D01*
X56970Y-34529D01*
X56971Y-34467D01*
X56971Y-34947D01*
X55807Y-34947D01*
X55807Y-34790D01*
X55784Y-34735D01*
X55742Y-34693D01*
X55687Y-34671D01*
X55628Y-34671D01*
X55178Y-34671D01*
X55123Y-34694D01*
X55081Y-34736D01*
X55059Y-34791D01*
X55059Y-34850D01*
X55059Y-35100D01*
X55082Y-35155D01*
X55124Y-35197D01*
X55179Y-35219D01*
X55238Y-35219D01*
X55410Y-35219D01*
X55496Y-35305D01*
X55497Y-35305D01*
X55542Y-35335D01*
X55564Y-35350D01*
X55565Y-35351D01*
X55644Y-35366D01*
X55645Y-35367D01*
X57821Y-35367D01*
X57886Y-35432D01*
X58006Y-35482D01*
X58135Y-35482D01*
X58255Y-35433D01*
X58346Y-35342D01*
X58396Y-35222D01*
X58396Y-35093D01*
X58347Y-34973D01*
X58317Y-34943D01*
X58326Y-34943D01*
X58381Y-34920D01*
X58396Y-34905D01*
X58412Y-34921D01*
X58467Y-34943D01*
X58526Y-34943D01*
X58741Y-34943D01*
X58742Y-34943D01*
X58796Y-34954D01*
X59005Y-34954D01*
X59005Y-35774D01*
G54D10*
G36*
X59977Y-34910D02*
X59568Y-34910D01*
X59583Y-34873D01*
X59583Y-34814D01*
X59583Y-34614D01*
X59560Y-34559D01*
X59518Y-34517D01*
X59463Y-34495D01*
X59404Y-34495D01*
X59104Y-34495D01*
X59089Y-34501D01*
X59072Y-34459D01*
X59030Y-34417D01*
X58975Y-34395D01*
X58916Y-34395D01*
X58466Y-34395D01*
X58411Y-34418D01*
X58396Y-34433D01*
X58388Y-34425D01*
X58437Y-34405D01*
X58499Y-34343D01*
X58526Y-34343D01*
X58976Y-34343D01*
X59031Y-34320D01*
X59073Y-34278D01*
X59089Y-34236D01*
X59105Y-34243D01*
X59164Y-34243D01*
X59464Y-34243D01*
X59519Y-34220D01*
X59561Y-34178D01*
X59583Y-34123D01*
X59583Y-34064D01*
X59583Y-33864D01*
X59560Y-33809D01*
X59518Y-33767D01*
X59463Y-33745D01*
X59404Y-33745D01*
X59104Y-33745D01*
X59049Y-33768D01*
X59013Y-33804D01*
X58997Y-33804D01*
X58975Y-33795D01*
X58916Y-33795D01*
X58499Y-33795D01*
X58437Y-33733D01*
X58346Y-33695D01*
X58247Y-33695D01*
X58183Y-33694D01*
X58121Y-33756D01*
X58121Y-33969D01*
X58121Y-34019D01*
X58121Y-34119D01*
X58021Y-34119D01*
X58021Y-34019D01*
X58021Y-33969D01*
X58021Y-33756D01*
X57959Y-33694D01*
X57895Y-33695D01*
X57796Y-33695D01*
X57705Y-33733D01*
X57642Y-33796D01*
X57626Y-33780D01*
X57506Y-33730D01*
X57454Y-33730D01*
X57454Y-33629D01*
X57495Y-33670D01*
X57550Y-33692D01*
X57609Y-33692D01*
X58081Y-33692D01*
X58136Y-33669D01*
X58178Y-33627D01*
X58200Y-33572D01*
X58200Y-33513D01*
X58200Y-33218D01*
X58334Y-33084D01*
X58572Y-33084D01*
X58572Y-33101D01*
X58572Y-33573D01*
X58595Y-33628D01*
X58637Y-33670D01*
X58692Y-33692D01*
X58751Y-33692D01*
X59223Y-33692D01*
X59278Y-33669D01*
X59320Y-33627D01*
X59342Y-33572D01*
X59342Y-33517D01*
X59381Y-33517D01*
X59421Y-33557D01*
X59476Y-33579D01*
X59535Y-33579D01*
X59661Y-33579D01*
X59939Y-33857D01*
X59734Y-34064D01*
X59688Y-34131D01*
X59685Y-34144D01*
X59672Y-34212D01*
X59672Y-34527D01*
X59685Y-34594D01*
X59688Y-34608D01*
X59734Y-34675D01*
X59950Y-34892D01*
X59951Y-34892D01*
X59977Y-34910D01*
X59977Y-34910D01*
G37*
G54D25*
X59977Y-34910D02*
X59568Y-34910D01*
X59583Y-34873D01*
X59583Y-34814D01*
X59583Y-34614D01*
X59560Y-34559D01*
X59518Y-34517D01*
X59463Y-34495D01*
X59404Y-34495D01*
X59104Y-34495D01*
X59089Y-34501D01*
X59072Y-34459D01*
X59030Y-34417D01*
X58975Y-34395D01*
X58916Y-34395D01*
X58466Y-34395D01*
X58411Y-34418D01*
X58396Y-34433D01*
X58388Y-34425D01*
X58437Y-34405D01*
X58499Y-34343D01*
X58526Y-34343D01*
X58976Y-34343D01*
X59031Y-34320D01*
X59073Y-34278D01*
X59089Y-34236D01*
X59105Y-34243D01*
X59164Y-34243D01*
X59464Y-34243D01*
X59519Y-34220D01*
X59561Y-34178D01*
X59583Y-34123D01*
X59583Y-34064D01*
X59583Y-33864D01*
X59560Y-33809D01*
X59518Y-33767D01*
X59463Y-33745D01*
X59404Y-33745D01*
X59104Y-33745D01*
X59049Y-33768D01*
X59013Y-33804D01*
X58997Y-33804D01*
X58975Y-33795D01*
X58916Y-33795D01*
X58499Y-33795D01*
X58437Y-33733D01*
X58346Y-33695D01*
X58247Y-33695D01*
X58183Y-33694D01*
X58121Y-33756D01*
X58121Y-33969D01*
X58121Y-34019D01*
X58121Y-34119D01*
X58021Y-34119D01*
X58021Y-34019D01*
X58021Y-33969D01*
X58021Y-33756D01*
X57959Y-33694D01*
X57895Y-33695D01*
X57796Y-33695D01*
X57705Y-33733D01*
X57642Y-33796D01*
X57626Y-33780D01*
X57506Y-33730D01*
X57454Y-33730D01*
X57454Y-33629D01*
X57495Y-33670D01*
X57550Y-33692D01*
X57609Y-33692D01*
X58081Y-33692D01*
X58136Y-33669D01*
X58178Y-33627D01*
X58200Y-33572D01*
X58200Y-33513D01*
X58200Y-33218D01*
X58334Y-33084D01*
X58572Y-33084D01*
X58572Y-33101D01*
X58572Y-33573D01*
X58595Y-33628D01*
X58637Y-33670D01*
X58692Y-33692D01*
X58751Y-33692D01*
X59223Y-33692D01*
X59278Y-33669D01*
X59320Y-33627D01*
X59342Y-33572D01*
X59342Y-33517D01*
X59381Y-33517D01*
X59421Y-33557D01*
X59476Y-33579D01*
X59535Y-33579D01*
X59661Y-33579D01*
X59939Y-33857D01*
X59734Y-34064D01*
X59688Y-34131D01*
X59685Y-34144D01*
X59672Y-34212D01*
X59672Y-34527D01*
X59685Y-34594D01*
X59688Y-34608D01*
X59734Y-34675D01*
X59950Y-34892D01*
X59951Y-34892D01*
X59977Y-34910D01*
G54D10*
G36*
X60334Y-34419D02*
X60234Y-34419D01*
X60234Y-34319D01*
X60334Y-34319D01*
X60334Y-34419D01*
X60334Y-34419D01*
G37*
G54D25*
X60334Y-34419D02*
X60234Y-34419D01*
X60234Y-34319D01*
X60334Y-34319D01*
X60334Y-34419D01*
G54D10*
G36*
X60917Y-34720D02*
X60817Y-34720D01*
X60817Y-34620D01*
X60917Y-34620D01*
X60917Y-34720D01*
X60917Y-34720D01*
G37*
G54D25*
X60917Y-34720D02*
X60817Y-34720D01*
X60817Y-34620D01*
X60917Y-34620D01*
X60917Y-34720D01*
G54D10*
G36*
X61193Y-33835D02*
X61176Y-33818D01*
X61121Y-33796D01*
X61062Y-33796D01*
X60851Y-33796D01*
X60791Y-33784D01*
X60535Y-33784D01*
X60518Y-33767D01*
X60463Y-33745D01*
X60420Y-33745D01*
X60254Y-33579D01*
X60285Y-33579D01*
X60525Y-33579D01*
X60580Y-33556D01*
X60622Y-33514D01*
X60644Y-33459D01*
X60644Y-33400D01*
X60644Y-33050D01*
X60621Y-32995D01*
X60616Y-32990D01*
X60644Y-33002D01*
X60773Y-33002D01*
X60893Y-32953D01*
X60984Y-32862D01*
X61034Y-32742D01*
X61034Y-32613D01*
X60985Y-32493D01*
X60894Y-32402D01*
X60774Y-32352D01*
X60680Y-32352D01*
X60435Y-32107D01*
X60368Y-32061D01*
X60354Y-32058D01*
X60287Y-32045D01*
X60266Y-32045D01*
X60246Y-31995D01*
X60204Y-31953D01*
X60149Y-31931D01*
X60090Y-31931D01*
X59850Y-31931D01*
X59795Y-31954D01*
X59753Y-31996D01*
X59731Y-32051D01*
X59731Y-32110D01*
X59731Y-32227D01*
X59664Y-32294D01*
X58894Y-32294D01*
X58860Y-32260D01*
X58909Y-32240D01*
X58979Y-32170D01*
X59017Y-32078D01*
X59018Y-32016D01*
X59018Y-31792D01*
X59017Y-31730D01*
X58979Y-31638D01*
X58909Y-31568D01*
X58818Y-31530D01*
X58719Y-31530D01*
X58655Y-31529D01*
X58593Y-31591D01*
X58593Y-31854D01*
X58956Y-31854D01*
X59018Y-31792D01*
X59018Y-32016D01*
X58956Y-31954D01*
X58643Y-31954D01*
X58593Y-31954D01*
X58493Y-31954D01*
X58493Y-31854D01*
X58493Y-31804D01*
X58493Y-31591D01*
X58431Y-31529D01*
X58367Y-31530D01*
X58268Y-31530D01*
X58177Y-31568D01*
X58152Y-31592D01*
X58120Y-31580D01*
X58061Y-31580D01*
X57761Y-31580D01*
X57706Y-31603D01*
X57664Y-31645D01*
X57642Y-31700D01*
X57642Y-31759D01*
X57642Y-31901D01*
X57580Y-31963D01*
X57542Y-32055D01*
X57541Y-32092D01*
X57603Y-32154D01*
X57841Y-32154D01*
X57891Y-32154D01*
X57991Y-32154D01*
X57991Y-32254D01*
X57891Y-32254D01*
X57841Y-32254D01*
X57603Y-32254D01*
X57541Y-32316D01*
X57542Y-32353D01*
X57580Y-32445D01*
X57642Y-32507D01*
X57642Y-32509D01*
X57642Y-32709D01*
X57665Y-32764D01*
X57707Y-32806D01*
X57762Y-32828D01*
X57821Y-32828D01*
X57997Y-32828D01*
X57903Y-32922D01*
X57549Y-32922D01*
X57494Y-32945D01*
X57457Y-32981D01*
X57429Y-32953D01*
X57309Y-32903D01*
X57180Y-32903D01*
X57060Y-32952D01*
X56974Y-33038D01*
X56716Y-33038D01*
X56716Y-32973D01*
X56693Y-32918D01*
X56668Y-32893D01*
X56694Y-32868D01*
X56716Y-32813D01*
X56716Y-32809D01*
X56762Y-32828D01*
X56821Y-32828D01*
X57121Y-32828D01*
X57176Y-32805D01*
X57218Y-32763D01*
X57240Y-32708D01*
X57240Y-32649D01*
X57240Y-32449D01*
X57217Y-32394D01*
X57175Y-32352D01*
X57120Y-32330D01*
X57061Y-32330D01*
X56761Y-32330D01*
X56716Y-32348D01*
X56716Y-32304D01*
X56693Y-32249D01*
X56668Y-32224D01*
X56694Y-32198D01*
X56716Y-32143D01*
X56716Y-32084D01*
X56716Y-32059D01*
X56762Y-32078D01*
X56821Y-32078D01*
X57121Y-32078D01*
X57176Y-32055D01*
X57218Y-32013D01*
X57240Y-31958D01*
X57240Y-31899D01*
X57240Y-31699D01*
X57217Y-31644D01*
X57175Y-31602D01*
X57120Y-31580D01*
X57061Y-31580D01*
X56761Y-31580D01*
X56706Y-31603D01*
X56703Y-31605D01*
X56693Y-31579D01*
X56651Y-31537D01*
X56596Y-31515D01*
X56537Y-31515D01*
X56287Y-31515D01*
X56232Y-31538D01*
X56198Y-31571D01*
X56178Y-31523D01*
X56108Y-31453D01*
X56016Y-31415D01*
X55954Y-31414D01*
X55892Y-31476D01*
X55892Y-31789D01*
X55892Y-31839D01*
X55892Y-31939D01*
X55892Y-31989D01*
X55892Y-32146D01*
X55892Y-32302D01*
X55892Y-32459D01*
X55892Y-32509D01*
X55892Y-32609D01*
X55892Y-32659D01*
X55892Y-32815D01*
X55892Y-32972D01*
X55892Y-33128D01*
X55892Y-33178D01*
X55892Y-33278D01*
X55892Y-33328D01*
X55892Y-33641D01*
X55954Y-33703D01*
X56016Y-33702D01*
X56108Y-33664D01*
X56122Y-33650D01*
X56122Y-33660D01*
X56122Y-33910D01*
X56145Y-33965D01*
X56178Y-33998D01*
X56130Y-34019D01*
X56087Y-34061D01*
X56049Y-34045D01*
X56045Y-34045D01*
X55921Y-33921D01*
X55860Y-33879D01*
X55792Y-33865D01*
X55792Y-33641D01*
X55792Y-33278D01*
X55792Y-33178D01*
X55792Y-32972D01*
X55792Y-32815D01*
X55792Y-32659D01*
X55792Y-32609D01*
X55792Y-32509D01*
X55792Y-32459D01*
X55792Y-32302D01*
X55792Y-32146D01*
X55792Y-31939D01*
X55792Y-31839D01*
X55792Y-31476D01*
X55730Y-31414D01*
X55668Y-31415D01*
X55576Y-31453D01*
X55506Y-31523D01*
X55468Y-31614D01*
X55468Y-31713D01*
X55467Y-31777D01*
X55529Y-31839D01*
X55792Y-31839D01*
X55792Y-31939D01*
X55529Y-31939D01*
X55467Y-32001D01*
X55468Y-32065D01*
X55468Y-32164D01*
X55493Y-32224D01*
X55468Y-32284D01*
X55468Y-32383D01*
X55467Y-32447D01*
X55479Y-32459D01*
X55467Y-32459D01*
X55467Y-32512D01*
X55459Y-32509D01*
X55330Y-32509D01*
X55253Y-32540D01*
X55177Y-32463D01*
X55177Y-32231D01*
X55154Y-32176D01*
X55120Y-32142D01*
X55169Y-32122D01*
X55239Y-32052D01*
X55277Y-31960D01*
X55278Y-31898D01*
X55278Y-31674D01*
X55277Y-31612D01*
X55239Y-31520D01*
X55169Y-31450D01*
X55078Y-31412D01*
X54979Y-31412D01*
X54915Y-31411D01*
X54853Y-31473D01*
X54853Y-31736D01*
X55216Y-31736D01*
X55278Y-31674D01*
X55278Y-31898D01*
X55216Y-31836D01*
X54903Y-31836D01*
X54853Y-31836D01*
X54753Y-31836D01*
X54753Y-31736D01*
X54753Y-31473D01*
X54691Y-31411D01*
X54627Y-31412D01*
X54528Y-31412D01*
X54437Y-31450D01*
X54367Y-31520D01*
X54329Y-31612D01*
X54328Y-31674D01*
X54390Y-31736D01*
X54753Y-31736D01*
X54753Y-31836D01*
X54703Y-31836D01*
X54390Y-31836D01*
X54328Y-31898D01*
X54329Y-31960D01*
X54367Y-32052D01*
X54437Y-32122D01*
X54485Y-32142D01*
X54451Y-32177D01*
X54429Y-32232D01*
X54429Y-32291D01*
X54429Y-32541D01*
X54452Y-32596D01*
X54494Y-32638D01*
X54549Y-32660D01*
X54608Y-32660D01*
X54780Y-32660D01*
X55102Y-32982D01*
X55103Y-32982D01*
X55103Y-32983D01*
X55118Y-33018D01*
X55209Y-33109D01*
X55329Y-33159D01*
X55458Y-33159D01*
X55494Y-33143D01*
X55529Y-33178D01*
X55792Y-33178D01*
X55792Y-33278D01*
X55529Y-33278D01*
X55467Y-33340D01*
X55468Y-33404D01*
X55468Y-33503D01*
X55506Y-33594D01*
X55576Y-33664D01*
X55668Y-33702D01*
X55730Y-33703D01*
X55792Y-33641D01*
X55792Y-33865D01*
X55787Y-33865D01*
X54883Y-33865D01*
X54892Y-33844D01*
X54892Y-33715D01*
X54886Y-33701D01*
X54987Y-33661D01*
X55078Y-33570D01*
X55128Y-33450D01*
X55128Y-33321D01*
X55079Y-33201D01*
X54988Y-33110D01*
X54868Y-33060D01*
X54739Y-33060D01*
X54656Y-33093D01*
X54656Y-33085D01*
X54607Y-32965D01*
X54516Y-32874D01*
X54396Y-32824D01*
X54274Y-32824D01*
X54174Y-32724D01*
X54168Y-32719D01*
X54168Y-32691D01*
X54145Y-32636D01*
X54103Y-32594D01*
X54048Y-32572D01*
X53989Y-32572D01*
X53182Y-32572D01*
X53182Y-32534D01*
X53216Y-32500D01*
X53227Y-32500D01*
X53477Y-32500D01*
X53532Y-32477D01*
X53574Y-32435D01*
X53596Y-32380D01*
X53596Y-32321D01*
X53596Y-31962D01*
X53648Y-32014D01*
X53648Y-32381D01*
X53671Y-32436D01*
X53713Y-32478D01*
X53768Y-32500D01*
X53827Y-32500D01*
X54077Y-32500D01*
X54132Y-32477D01*
X54174Y-32435D01*
X54196Y-32380D01*
X54196Y-32321D01*
X54196Y-31871D01*
X54173Y-31816D01*
X54131Y-31774D01*
X54076Y-31752D01*
X54017Y-31752D01*
X53978Y-31752D01*
X53770Y-31544D01*
X53703Y-31498D01*
X53689Y-31495D01*
X53622Y-31482D01*
X52205Y-31482D01*
X52137Y-31495D01*
X52124Y-31498D01*
X52056Y-31544D01*
X51848Y-31752D01*
X51750Y-31752D01*
X51695Y-31775D01*
X51653Y-31817D01*
X51631Y-31872D01*
X51631Y-31931D01*
X51631Y-32103D01*
X51406Y-32328D01*
X51406Y-31510D01*
X51668Y-31248D01*
X60931Y-31248D01*
X61193Y-31510D01*
X61193Y-33835D01*
X61193Y-33835D01*
G37*
G54D25*
X61193Y-33835D02*
X61176Y-33818D01*
X61121Y-33796D01*
X61062Y-33796D01*
X60851Y-33796D01*
X60791Y-33784D01*
X60535Y-33784D01*
X60518Y-33767D01*
X60463Y-33745D01*
X60420Y-33745D01*
X60254Y-33579D01*
X60285Y-33579D01*
X60525Y-33579D01*
X60580Y-33556D01*
X60622Y-33514D01*
X60644Y-33459D01*
X60644Y-33400D01*
X60644Y-33050D01*
X60621Y-32995D01*
X60616Y-32990D01*
X60644Y-33002D01*
X60773Y-33002D01*
X60893Y-32953D01*
X60984Y-32862D01*
X61034Y-32742D01*
X61034Y-32613D01*
X60985Y-32493D01*
X60894Y-32402D01*
X60774Y-32352D01*
X60680Y-32352D01*
X60435Y-32107D01*
X60368Y-32061D01*
X60354Y-32058D01*
X60287Y-32045D01*
X60266Y-32045D01*
X60246Y-31995D01*
X60204Y-31953D01*
X60149Y-31931D01*
X60090Y-31931D01*
X59850Y-31931D01*
X59795Y-31954D01*
X59753Y-31996D01*
X59731Y-32051D01*
X59731Y-32110D01*
X59731Y-32227D01*
X59664Y-32294D01*
X58894Y-32294D01*
X58860Y-32260D01*
X58909Y-32240D01*
X58979Y-32170D01*
X59017Y-32078D01*
X59018Y-32016D01*
X59018Y-31792D01*
X59017Y-31730D01*
X58979Y-31638D01*
X58909Y-31568D01*
X58818Y-31530D01*
X58719Y-31530D01*
X58655Y-31529D01*
X58593Y-31591D01*
X58593Y-31854D01*
X58956Y-31854D01*
X59018Y-31792D01*
X59018Y-32016D01*
X58956Y-31954D01*
X58643Y-31954D01*
X58593Y-31954D01*
X58493Y-31954D01*
X58493Y-31854D01*
X58493Y-31804D01*
X58493Y-31591D01*
X58431Y-31529D01*
X58367Y-31530D01*
X58268Y-31530D01*
X58177Y-31568D01*
X58152Y-31592D01*
X58120Y-31580D01*
X58061Y-31580D01*
X57761Y-31580D01*
X57706Y-31603D01*
X57664Y-31645D01*
X57642Y-31700D01*
X57642Y-31759D01*
X57642Y-31901D01*
X57580Y-31963D01*
X57542Y-32055D01*
X57541Y-32092D01*
X57603Y-32154D01*
X57841Y-32154D01*
X57891Y-32154D01*
X57991Y-32154D01*
X57991Y-32254D01*
X57891Y-32254D01*
X57841Y-32254D01*
X57603Y-32254D01*
X57541Y-32316D01*
X57542Y-32353D01*
X57580Y-32445D01*
X57642Y-32507D01*
X57642Y-32509D01*
X57642Y-32709D01*
X57665Y-32764D01*
X57707Y-32806D01*
X57762Y-32828D01*
X57821Y-32828D01*
X57997Y-32828D01*
X57903Y-32922D01*
X57549Y-32922D01*
X57494Y-32945D01*
X57457Y-32981D01*
X57429Y-32953D01*
X57309Y-32903D01*
X57180Y-32903D01*
X57060Y-32952D01*
X56974Y-33038D01*
X56716Y-33038D01*
X56716Y-32973D01*
X56693Y-32918D01*
X56668Y-32893D01*
X56694Y-32868D01*
X56716Y-32813D01*
X56716Y-32809D01*
X56762Y-32828D01*
X56821Y-32828D01*
X57121Y-32828D01*
X57176Y-32805D01*
X57218Y-32763D01*
X57240Y-32708D01*
X57240Y-32649D01*
X57240Y-32449D01*
X57217Y-32394D01*
X57175Y-32352D01*
X57120Y-32330D01*
X57061Y-32330D01*
X56761Y-32330D01*
X56716Y-32348D01*
X56716Y-32304D01*
X56693Y-32249D01*
X56668Y-32224D01*
X56694Y-32198D01*
X56716Y-32143D01*
X56716Y-32084D01*
X56716Y-32059D01*
X56762Y-32078D01*
X56821Y-32078D01*
X57121Y-32078D01*
X57176Y-32055D01*
X57218Y-32013D01*
X57240Y-31958D01*
X57240Y-31899D01*
X57240Y-31699D01*
X57217Y-31644D01*
X57175Y-31602D01*
X57120Y-31580D01*
X57061Y-31580D01*
X56761Y-31580D01*
X56706Y-31603D01*
X56703Y-31605D01*
X56693Y-31579D01*
X56651Y-31537D01*
X56596Y-31515D01*
X56537Y-31515D01*
X56287Y-31515D01*
X56232Y-31538D01*
X56198Y-31571D01*
X56178Y-31523D01*
X56108Y-31453D01*
X56016Y-31415D01*
X55954Y-31414D01*
X55892Y-31476D01*
X55892Y-31789D01*
X55892Y-31839D01*
X55892Y-31939D01*
X55892Y-31989D01*
X55892Y-32146D01*
X55892Y-32302D01*
X55892Y-32459D01*
X55892Y-32509D01*
X55892Y-32609D01*
X55892Y-32659D01*
X55892Y-32815D01*
X55892Y-32972D01*
X55892Y-33128D01*
X55892Y-33178D01*
X55892Y-33278D01*
X55892Y-33328D01*
X55892Y-33641D01*
X55954Y-33703D01*
X56016Y-33702D01*
X56108Y-33664D01*
X56122Y-33650D01*
X56122Y-33660D01*
X56122Y-33910D01*
X56145Y-33965D01*
X56178Y-33998D01*
X56130Y-34019D01*
X56087Y-34061D01*
X56049Y-34045D01*
X56045Y-34045D01*
X55921Y-33921D01*
X55860Y-33879D01*
X55792Y-33865D01*
X55792Y-33641D01*
X55792Y-33278D01*
X55792Y-33178D01*
X55792Y-32972D01*
X55792Y-32815D01*
X55792Y-32659D01*
X55792Y-32609D01*
X55792Y-32509D01*
X55792Y-32459D01*
X55792Y-32302D01*
X55792Y-32146D01*
X55792Y-31939D01*
X55792Y-31839D01*
X55792Y-31476D01*
X55730Y-31414D01*
X55668Y-31415D01*
X55576Y-31453D01*
X55506Y-31523D01*
X55468Y-31614D01*
X55468Y-31713D01*
X55467Y-31777D01*
X55529Y-31839D01*
X55792Y-31839D01*
X55792Y-31939D01*
X55529Y-31939D01*
X55467Y-32001D01*
X55468Y-32065D01*
X55468Y-32164D01*
X55493Y-32224D01*
X55468Y-32284D01*
X55468Y-32383D01*
X55467Y-32447D01*
X55479Y-32459D01*
X55467Y-32459D01*
X55467Y-32512D01*
X55459Y-32509D01*
X55330Y-32509D01*
X55253Y-32540D01*
X55177Y-32463D01*
X55177Y-32231D01*
X55154Y-32176D01*
X55120Y-32142D01*
X55169Y-32122D01*
X55239Y-32052D01*
X55277Y-31960D01*
X55278Y-31898D01*
X55278Y-31674D01*
X55277Y-31612D01*
X55239Y-31520D01*
X55169Y-31450D01*
X55078Y-31412D01*
X54979Y-31412D01*
X54915Y-31411D01*
X54853Y-31473D01*
X54853Y-31736D01*
X55216Y-31736D01*
X55278Y-31674D01*
X55278Y-31898D01*
X55216Y-31836D01*
X54903Y-31836D01*
X54853Y-31836D01*
X54753Y-31836D01*
X54753Y-31736D01*
X54753Y-31473D01*
X54691Y-31411D01*
X54627Y-31412D01*
X54528Y-31412D01*
X54437Y-31450D01*
X54367Y-31520D01*
X54329Y-31612D01*
X54328Y-31674D01*
X54390Y-31736D01*
X54753Y-31736D01*
X54753Y-31836D01*
X54703Y-31836D01*
X54390Y-31836D01*
X54328Y-31898D01*
X54329Y-31960D01*
X54367Y-32052D01*
X54437Y-32122D01*
X54485Y-32142D01*
X54451Y-32177D01*
X54429Y-32232D01*
X54429Y-32291D01*
X54429Y-32541D01*
X54452Y-32596D01*
X54494Y-32638D01*
X54549Y-32660D01*
X54608Y-32660D01*
X54780Y-32660D01*
X55102Y-32982D01*
X55103Y-32982D01*
X55103Y-32983D01*
X55118Y-33018D01*
X55209Y-33109D01*
X55329Y-33159D01*
X55458Y-33159D01*
X55494Y-33143D01*
X55529Y-33178D01*
X55792Y-33178D01*
X55792Y-33278D01*
X55529Y-33278D01*
X55467Y-33340D01*
X55468Y-33404D01*
X55468Y-33503D01*
X55506Y-33594D01*
X55576Y-33664D01*
X55668Y-33702D01*
X55730Y-33703D01*
X55792Y-33641D01*
X55792Y-33865D01*
X55787Y-33865D01*
X54883Y-33865D01*
X54892Y-33844D01*
X54892Y-33715D01*
X54886Y-33701D01*
X54987Y-33661D01*
X55078Y-33570D01*
X55128Y-33450D01*
X55128Y-33321D01*
X55079Y-33201D01*
X54988Y-33110D01*
X54868Y-33060D01*
X54739Y-33060D01*
X54656Y-33093D01*
X54656Y-33085D01*
X54607Y-32965D01*
X54516Y-32874D01*
X54396Y-32824D01*
X54274Y-32824D01*
X54174Y-32724D01*
X54168Y-32719D01*
X54168Y-32691D01*
X54145Y-32636D01*
X54103Y-32594D01*
X54048Y-32572D01*
X53989Y-32572D01*
X53182Y-32572D01*
X53182Y-32534D01*
X53216Y-32500D01*
X53227Y-32500D01*
X53477Y-32500D01*
X53532Y-32477D01*
X53574Y-32435D01*
X53596Y-32380D01*
X53596Y-32321D01*
X53596Y-31962D01*
X53648Y-32014D01*
X53648Y-32381D01*
X53671Y-32436D01*
X53713Y-32478D01*
X53768Y-32500D01*
X53827Y-32500D01*
X54077Y-32500D01*
X54132Y-32477D01*
X54174Y-32435D01*
X54196Y-32380D01*
X54196Y-32321D01*
X54196Y-31871D01*
X54173Y-31816D01*
X54131Y-31774D01*
X54076Y-31752D01*
X54017Y-31752D01*
X53978Y-31752D01*
X53770Y-31544D01*
X53703Y-31498D01*
X53689Y-31495D01*
X53622Y-31482D01*
X52205Y-31482D01*
X52137Y-31495D01*
X52124Y-31498D01*
X52056Y-31544D01*
X51848Y-31752D01*
X51750Y-31752D01*
X51695Y-31775D01*
X51653Y-31817D01*
X51631Y-31872D01*
X51631Y-31931D01*
X51631Y-32103D01*
X51406Y-32328D01*
X51406Y-31510D01*
X51668Y-31248D01*
X60931Y-31248D01*
X61193Y-31510D01*
X61193Y-33835D01*
G54D10*
G36*
X61193Y-44315D02*
X58568Y-46940D01*
X54987Y-46940D01*
X54987Y-46712D01*
X54724Y-46449D01*
X54653Y-46520D01*
X54653Y-46378D01*
X54390Y-46115D01*
X54303Y-46134D01*
X54242Y-46314D01*
X54254Y-46502D01*
X54303Y-46622D01*
X54390Y-46641D01*
X54653Y-46378D01*
X54653Y-46520D01*
X54461Y-46712D01*
X54480Y-46799D01*
X54660Y-46860D01*
X54848Y-46848D01*
X54968Y-46799D01*
X54987Y-46712D01*
X54987Y-46940D01*
X54030Y-46940D01*
X51406Y-44315D01*
X51406Y-38317D01*
X51417Y-38374D01*
X51420Y-38388D01*
X51466Y-38455D01*
X51868Y-38858D01*
X51742Y-38984D01*
X51667Y-39015D01*
X51576Y-39106D01*
X51526Y-39226D01*
X51526Y-39355D01*
X51575Y-39475D01*
X51666Y-39566D01*
X51786Y-39616D01*
X51915Y-39616D01*
X52035Y-39567D01*
X52126Y-39476D01*
X52176Y-39356D01*
X52176Y-39227D01*
X52151Y-39167D01*
X52251Y-39068D01*
X52283Y-39068D01*
X52234Y-39186D01*
X52234Y-39315D01*
X52283Y-39435D01*
X52369Y-39521D01*
X52369Y-41186D01*
X52284Y-41271D01*
X52234Y-41391D01*
X52234Y-41520D01*
X52283Y-41640D01*
X52374Y-41731D01*
X52437Y-41757D01*
X52435Y-41760D01*
X52397Y-41851D01*
X52397Y-41950D01*
X52396Y-42014D01*
X52458Y-42076D01*
X52671Y-42076D01*
X52721Y-42076D01*
X52821Y-42076D01*
X52821Y-42176D01*
X52821Y-42226D01*
X52821Y-42539D01*
X52883Y-42601D01*
X52945Y-42600D01*
X53037Y-42562D01*
X53088Y-42511D01*
X53088Y-42560D01*
X53088Y-43010D01*
X53111Y-43065D01*
X53116Y-43070D01*
X53110Y-43076D01*
X53088Y-43131D01*
X53088Y-43190D01*
X53088Y-43533D01*
X52968Y-43533D01*
X52848Y-43582D01*
X52757Y-43673D01*
X52721Y-43759D01*
X52721Y-42539D01*
X52721Y-42176D01*
X52458Y-42176D01*
X52396Y-42238D01*
X52397Y-42302D01*
X52397Y-42401D01*
X52435Y-42492D01*
X52505Y-42562D01*
X52597Y-42600D01*
X52659Y-42601D01*
X52721Y-42539D01*
X52721Y-43759D01*
X52707Y-43793D01*
X52707Y-43922D01*
X52756Y-44042D01*
X52847Y-44133D01*
X52925Y-44165D01*
X53788Y-45029D01*
X53789Y-45029D01*
X53834Y-45059D01*
X53856Y-45074D01*
X53857Y-45075D01*
X53936Y-45090D01*
X53937Y-45091D01*
X54449Y-45091D01*
X54449Y-45090D01*
X54516Y-45077D01*
X54529Y-45075D01*
X54530Y-45075D01*
X54597Y-45029D01*
X54924Y-44702D01*
X54960Y-44790D01*
X55051Y-44881D01*
X55171Y-44931D01*
X55292Y-44931D01*
X55322Y-44960D01*
X55322Y-46038D01*
X55293Y-46051D01*
X55185Y-46160D01*
X55170Y-46195D01*
X55145Y-46134D01*
X55058Y-46115D01*
X54987Y-46186D01*
X54987Y-46044D01*
X54968Y-45957D01*
X54788Y-45896D01*
X54600Y-45908D01*
X54480Y-45957D01*
X54461Y-46044D01*
X54724Y-46307D01*
X54987Y-46044D01*
X54987Y-46186D01*
X54795Y-46378D01*
X55058Y-46641D01*
X55145Y-46622D01*
X55167Y-46555D01*
X55185Y-46597D01*
X55294Y-46705D01*
X55435Y-46764D01*
X55589Y-46764D01*
X55731Y-46705D01*
X55839Y-46596D01*
X55898Y-46455D01*
X55898Y-46301D01*
X55839Y-46159D01*
X55730Y-46051D01*
X55702Y-46039D01*
X55702Y-44931D01*
X55764Y-44931D01*
X56110Y-45277D01*
X56109Y-46038D01*
X56079Y-46051D01*
X55971Y-46160D01*
X55912Y-46301D01*
X55912Y-46455D01*
X55971Y-46597D01*
X56080Y-46705D01*
X56221Y-46764D01*
X56375Y-46764D01*
X56517Y-46705D01*
X56625Y-46596D01*
X56684Y-46455D01*
X56684Y-46301D01*
X56625Y-46159D01*
X56516Y-46051D01*
X56489Y-46039D01*
X56491Y-45198D01*
X56477Y-45125D01*
X56435Y-45064D01*
X56434Y-45063D01*
X56033Y-44662D01*
X56033Y-44542D01*
X55984Y-44422D01*
X57340Y-44422D01*
X57362Y-44475D01*
X57453Y-44566D01*
X57573Y-44616D01*
X57702Y-44616D01*
X57802Y-44575D01*
X57802Y-45393D01*
X57191Y-46004D01*
X57163Y-45992D01*
X57009Y-45992D01*
X56867Y-46051D01*
X56759Y-46160D01*
X56700Y-46301D01*
X56700Y-46455D01*
X56759Y-46597D01*
X56868Y-46705D01*
X57009Y-46764D01*
X57163Y-46764D01*
X57305Y-46705D01*
X57413Y-46596D01*
X57472Y-46455D01*
X57472Y-46301D01*
X57460Y-46272D01*
X57526Y-46206D01*
X57487Y-46300D01*
X57487Y-46454D01*
X57546Y-46596D01*
X57655Y-46704D01*
X57796Y-46763D01*
X57950Y-46763D01*
X58092Y-46704D01*
X58200Y-46595D01*
X58259Y-46454D01*
X58259Y-46300D01*
X58247Y-46271D01*
X58480Y-46039D01*
X58480Y-46038D01*
X58496Y-46013D01*
X58521Y-45977D01*
X58522Y-45977D01*
X58535Y-45905D01*
X58536Y-45904D01*
X58536Y-43740D01*
X58536Y-43419D01*
X58621Y-43334D01*
X58671Y-43214D01*
X58671Y-43085D01*
X58622Y-42965D01*
X58531Y-42874D01*
X58411Y-42824D01*
X58282Y-42824D01*
X58261Y-42832D01*
X58261Y-40072D01*
X58217Y-40028D01*
X58217Y-40010D01*
X58199Y-40010D01*
X57942Y-40010D01*
X57924Y-40010D01*
X57924Y-40028D01*
X57880Y-40072D01*
X57881Y-40147D01*
X57881Y-40246D01*
X57919Y-40337D01*
X57924Y-40342D01*
X57924Y-40384D01*
X57970Y-40430D01*
X57909Y-40492D01*
X57909Y-40855D01*
X58172Y-40855D01*
X58234Y-40793D01*
X58233Y-40729D01*
X58233Y-40630D01*
X58195Y-40539D01*
X58125Y-40469D01*
X58063Y-40443D01*
X58070Y-40440D01*
X58081Y-40445D01*
X58155Y-40446D01*
X58217Y-40384D01*
X58217Y-40342D01*
X58222Y-40337D01*
X58260Y-40246D01*
X58260Y-40147D01*
X58261Y-40072D01*
X58261Y-42832D01*
X58234Y-42843D01*
X58234Y-41647D01*
X58234Y-41423D01*
X58233Y-41359D01*
X58233Y-41260D01*
X58216Y-41220D01*
X58233Y-41180D01*
X58233Y-41081D01*
X58234Y-41017D01*
X58172Y-40955D01*
X57909Y-40955D01*
X57909Y-41122D01*
X57909Y-41318D01*
X57909Y-41485D01*
X58172Y-41485D01*
X58234Y-41423D01*
X58234Y-41647D01*
X58172Y-41585D01*
X57909Y-41585D01*
X57909Y-41948D01*
X57971Y-42010D01*
X58033Y-42009D01*
X58125Y-41971D01*
X58195Y-41901D01*
X58233Y-41810D01*
X58233Y-41711D01*
X58234Y-41647D01*
X58234Y-42843D01*
X58162Y-42873D01*
X58071Y-42964D01*
X58021Y-43084D01*
X58021Y-43100D01*
X57928Y-43100D01*
X57848Y-43132D01*
X57848Y-42520D01*
X57847Y-42519D01*
X57832Y-42440D01*
X57831Y-42439D01*
X57816Y-42417D01*
X57786Y-42372D01*
X57786Y-42371D01*
X57469Y-42054D01*
X57469Y-41886D01*
X57502Y-41852D01*
X57523Y-41901D01*
X57593Y-41971D01*
X57685Y-42009D01*
X57747Y-42010D01*
X57809Y-41948D01*
X57809Y-41635D01*
X57809Y-41585D01*
X57809Y-41485D01*
X57809Y-41435D01*
X57809Y-41318D01*
X57809Y-41122D01*
X57809Y-41005D01*
X57809Y-40955D01*
X57809Y-40855D01*
X57809Y-40805D01*
X57809Y-40492D01*
X57762Y-40445D01*
X57824Y-40384D01*
X57824Y-40060D01*
X57824Y-40010D01*
X57824Y-39910D01*
X57824Y-39860D01*
X57824Y-39536D01*
X57762Y-39474D01*
X57688Y-39475D01*
X57596Y-39513D01*
X57534Y-39575D01*
X57313Y-39575D01*
X57283Y-39587D01*
X57252Y-39575D01*
X57193Y-39575D01*
X56919Y-39575D01*
X56889Y-39587D01*
X56858Y-39575D01*
X56799Y-39575D01*
X56525Y-39575D01*
X56495Y-39587D01*
X56465Y-39575D01*
X56406Y-39575D01*
X56132Y-39575D01*
X56102Y-39587D01*
X56071Y-39575D01*
X56012Y-39575D01*
X55738Y-39575D01*
X55721Y-39582D01*
X55721Y-39496D01*
X56415Y-38802D01*
X56417Y-38806D01*
X56508Y-38897D01*
X56628Y-38947D01*
X56757Y-38947D01*
X56877Y-38898D01*
X56885Y-38890D01*
X57559Y-38890D01*
X58143Y-39474D01*
X58081Y-39475D01*
X58070Y-39479D01*
X58060Y-39475D01*
X57986Y-39474D01*
X57924Y-39536D01*
X57924Y-39578D01*
X57919Y-39583D01*
X57881Y-39674D01*
X57881Y-39773D01*
X57880Y-39848D01*
X57924Y-39892D01*
X57924Y-39910D01*
X57942Y-39910D01*
X58167Y-39910D01*
X58199Y-39910D01*
X58217Y-39910D01*
X58317Y-39910D01*
X58317Y-40010D01*
X58317Y-40060D01*
X58317Y-40384D01*
X58379Y-40446D01*
X58453Y-40445D01*
X58545Y-40407D01*
X58607Y-40345D01*
X58828Y-40345D01*
X58857Y-40332D01*
X58889Y-40345D01*
X58948Y-40345D01*
X59005Y-40345D01*
X59005Y-41309D01*
X61193Y-41309D01*
X61193Y-44315D01*
X61193Y-44315D01*
G37*
G54D25*
X61193Y-44315D02*
X58568Y-46940D01*
X54987Y-46940D01*
X54987Y-46712D01*
X54724Y-46449D01*
X54653Y-46520D01*
X54653Y-46378D01*
X54390Y-46115D01*
X54303Y-46134D01*
X54242Y-46314D01*
X54254Y-46502D01*
X54303Y-46622D01*
X54390Y-46641D01*
X54653Y-46378D01*
X54653Y-46520D01*
X54461Y-46712D01*
X54480Y-46799D01*
X54660Y-46860D01*
X54848Y-46848D01*
X54968Y-46799D01*
X54987Y-46712D01*
X54987Y-46940D01*
X54030Y-46940D01*
X51406Y-44315D01*
X51406Y-38317D01*
X51417Y-38374D01*
X51420Y-38388D01*
X51466Y-38455D01*
X51868Y-38858D01*
X51742Y-38984D01*
X51667Y-39015D01*
X51576Y-39106D01*
X51526Y-39226D01*
X51526Y-39355D01*
X51575Y-39475D01*
X51666Y-39566D01*
X51786Y-39616D01*
X51915Y-39616D01*
X52035Y-39567D01*
X52126Y-39476D01*
X52176Y-39356D01*
X52176Y-39227D01*
X52151Y-39167D01*
X52251Y-39068D01*
X52283Y-39068D01*
X52234Y-39186D01*
X52234Y-39315D01*
X52283Y-39435D01*
X52369Y-39521D01*
X52369Y-41186D01*
X52284Y-41271D01*
X52234Y-41391D01*
X52234Y-41520D01*
X52283Y-41640D01*
X52374Y-41731D01*
X52437Y-41757D01*
X52435Y-41760D01*
X52397Y-41851D01*
X52397Y-41950D01*
X52396Y-42014D01*
X52458Y-42076D01*
X52671Y-42076D01*
X52721Y-42076D01*
X52821Y-42076D01*
X52821Y-42176D01*
X52821Y-42226D01*
X52821Y-42539D01*
X52883Y-42601D01*
X52945Y-42600D01*
X53037Y-42562D01*
X53088Y-42511D01*
X53088Y-42560D01*
X53088Y-43010D01*
X53111Y-43065D01*
X53116Y-43070D01*
X53110Y-43076D01*
X53088Y-43131D01*
X53088Y-43190D01*
X53088Y-43533D01*
X52968Y-43533D01*
X52848Y-43582D01*
X52757Y-43673D01*
X52721Y-43759D01*
X52721Y-42539D01*
X52721Y-42176D01*
X52458Y-42176D01*
X52396Y-42238D01*
X52397Y-42302D01*
X52397Y-42401D01*
X52435Y-42492D01*
X52505Y-42562D01*
X52597Y-42600D01*
X52659Y-42601D01*
X52721Y-42539D01*
X52721Y-43759D01*
X52707Y-43793D01*
X52707Y-43922D01*
X52756Y-44042D01*
X52847Y-44133D01*
X52925Y-44165D01*
X53788Y-45029D01*
X53789Y-45029D01*
X53834Y-45059D01*
X53856Y-45074D01*
X53857Y-45075D01*
X53936Y-45090D01*
X53937Y-45091D01*
X54449Y-45091D01*
X54449Y-45090D01*
X54516Y-45077D01*
X54529Y-45075D01*
X54530Y-45075D01*
X54597Y-45029D01*
X54924Y-44702D01*
X54960Y-44790D01*
X55051Y-44881D01*
X55171Y-44931D01*
X55292Y-44931D01*
X55322Y-44960D01*
X55322Y-46038D01*
X55293Y-46051D01*
X55185Y-46160D01*
X55170Y-46195D01*
X55145Y-46134D01*
X55058Y-46115D01*
X54987Y-46186D01*
X54987Y-46044D01*
X54968Y-45957D01*
X54788Y-45896D01*
X54600Y-45908D01*
X54480Y-45957D01*
X54461Y-46044D01*
X54724Y-46307D01*
X54987Y-46044D01*
X54987Y-46186D01*
X54795Y-46378D01*
X55058Y-46641D01*
X55145Y-46622D01*
X55167Y-46555D01*
X55185Y-46597D01*
X55294Y-46705D01*
X55435Y-46764D01*
X55589Y-46764D01*
X55731Y-46705D01*
X55839Y-46596D01*
X55898Y-46455D01*
X55898Y-46301D01*
X55839Y-46159D01*
X55730Y-46051D01*
X55702Y-46039D01*
X55702Y-44931D01*
X55764Y-44931D01*
X56110Y-45277D01*
X56109Y-46038D01*
X56079Y-46051D01*
X55971Y-46160D01*
X55912Y-46301D01*
X55912Y-46455D01*
X55971Y-46597D01*
X56080Y-46705D01*
X56221Y-46764D01*
X56375Y-46764D01*
X56517Y-46705D01*
X56625Y-46596D01*
X56684Y-46455D01*
X56684Y-46301D01*
X56625Y-46159D01*
X56516Y-46051D01*
X56489Y-46039D01*
X56491Y-45198D01*
X56477Y-45125D01*
X56435Y-45064D01*
X56434Y-45063D01*
X56033Y-44662D01*
X56033Y-44542D01*
X55984Y-44422D01*
X57340Y-44422D01*
X57362Y-44475D01*
X57453Y-44566D01*
X57573Y-44616D01*
X57702Y-44616D01*
X57802Y-44575D01*
X57802Y-45393D01*
X57191Y-46004D01*
X57163Y-45992D01*
X57009Y-45992D01*
X56867Y-46051D01*
X56759Y-46160D01*
X56700Y-46301D01*
X56700Y-46455D01*
X56759Y-46597D01*
X56868Y-46705D01*
X57009Y-46764D01*
X57163Y-46764D01*
X57305Y-46705D01*
X57413Y-46596D01*
X57472Y-46455D01*
X57472Y-46301D01*
X57460Y-46272D01*
X57526Y-46206D01*
X57487Y-46300D01*
X57487Y-46454D01*
X57546Y-46596D01*
X57655Y-46704D01*
X57796Y-46763D01*
X57950Y-46763D01*
X58092Y-46704D01*
X58200Y-46595D01*
X58259Y-46454D01*
X58259Y-46300D01*
X58247Y-46271D01*
X58480Y-46039D01*
X58480Y-46038D01*
X58496Y-46013D01*
X58521Y-45977D01*
X58522Y-45977D01*
X58535Y-45905D01*
X58536Y-45904D01*
X58536Y-43740D01*
X58536Y-43419D01*
X58621Y-43334D01*
X58671Y-43214D01*
X58671Y-43085D01*
X58622Y-42965D01*
X58531Y-42874D01*
X58411Y-42824D01*
X58282Y-42824D01*
X58261Y-42832D01*
X58261Y-40072D01*
X58217Y-40028D01*
X58217Y-40010D01*
X58199Y-40010D01*
X57942Y-40010D01*
X57924Y-40010D01*
X57924Y-40028D01*
X57880Y-40072D01*
X57881Y-40147D01*
X57881Y-40246D01*
X57919Y-40337D01*
X57924Y-40342D01*
X57924Y-40384D01*
X57970Y-40430D01*
X57909Y-40492D01*
X57909Y-40855D01*
X58172Y-40855D01*
X58234Y-40793D01*
X58233Y-40729D01*
X58233Y-40630D01*
X58195Y-40539D01*
X58125Y-40469D01*
X58063Y-40443D01*
X58070Y-40440D01*
X58081Y-40445D01*
X58155Y-40446D01*
X58217Y-40384D01*
X58217Y-40342D01*
X58222Y-40337D01*
X58260Y-40246D01*
X58260Y-40147D01*
X58261Y-40072D01*
X58261Y-42832D01*
X58234Y-42843D01*
X58234Y-41647D01*
X58234Y-41423D01*
X58233Y-41359D01*
X58233Y-41260D01*
X58216Y-41220D01*
X58233Y-41180D01*
X58233Y-41081D01*
X58234Y-41017D01*
X58172Y-40955D01*
X57909Y-40955D01*
X57909Y-41122D01*
X57909Y-41318D01*
X57909Y-41485D01*
X58172Y-41485D01*
X58234Y-41423D01*
X58234Y-41647D01*
X58172Y-41585D01*
X57909Y-41585D01*
X57909Y-41948D01*
X57971Y-42010D01*
X58033Y-42009D01*
X58125Y-41971D01*
X58195Y-41901D01*
X58233Y-41810D01*
X58233Y-41711D01*
X58234Y-41647D01*
X58234Y-42843D01*
X58162Y-42873D01*
X58071Y-42964D01*
X58021Y-43084D01*
X58021Y-43100D01*
X57928Y-43100D01*
X57848Y-43132D01*
X57848Y-42520D01*
X57847Y-42519D01*
X57832Y-42440D01*
X57831Y-42439D01*
X57816Y-42417D01*
X57786Y-42372D01*
X57786Y-42371D01*
X57469Y-42054D01*
X57469Y-41886D01*
X57502Y-41852D01*
X57523Y-41901D01*
X57593Y-41971D01*
X57685Y-42009D01*
X57747Y-42010D01*
X57809Y-41948D01*
X57809Y-41635D01*
X57809Y-41585D01*
X57809Y-41485D01*
X57809Y-41435D01*
X57809Y-41318D01*
X57809Y-41122D01*
X57809Y-41005D01*
X57809Y-40955D01*
X57809Y-40855D01*
X57809Y-40805D01*
X57809Y-40492D01*
X57762Y-40445D01*
X57824Y-40384D01*
X57824Y-40060D01*
X57824Y-40010D01*
X57824Y-39910D01*
X57824Y-39860D01*
X57824Y-39536D01*
X57762Y-39474D01*
X57688Y-39475D01*
X57596Y-39513D01*
X57534Y-39575D01*
X57313Y-39575D01*
X57283Y-39587D01*
X57252Y-39575D01*
X57193Y-39575D01*
X56919Y-39575D01*
X56889Y-39587D01*
X56858Y-39575D01*
X56799Y-39575D01*
X56525Y-39575D01*
X56495Y-39587D01*
X56465Y-39575D01*
X56406Y-39575D01*
X56132Y-39575D01*
X56102Y-39587D01*
X56071Y-39575D01*
X56012Y-39575D01*
X55738Y-39575D01*
X55721Y-39582D01*
X55721Y-39496D01*
X56415Y-38802D01*
X56417Y-38806D01*
X56508Y-38897D01*
X56628Y-38947D01*
X56757Y-38947D01*
X56877Y-38898D01*
X56885Y-38890D01*
X57559Y-38890D01*
X58143Y-39474D01*
X58081Y-39475D01*
X58070Y-39479D01*
X58060Y-39475D01*
X57986Y-39474D01*
X57924Y-39536D01*
X57924Y-39578D01*
X57919Y-39583D01*
X57881Y-39674D01*
X57881Y-39773D01*
X57880Y-39848D01*
X57924Y-39892D01*
X57924Y-39910D01*
X57942Y-39910D01*
X58167Y-39910D01*
X58199Y-39910D01*
X58217Y-39910D01*
X58317Y-39910D01*
X58317Y-40010D01*
X58317Y-40060D01*
X58317Y-40384D01*
X58379Y-40446D01*
X58453Y-40445D01*
X58545Y-40407D01*
X58607Y-40345D01*
X58828Y-40345D01*
X58857Y-40332D01*
X58889Y-40345D01*
X58948Y-40345D01*
X59005Y-40345D01*
X59005Y-41309D01*
X61193Y-41309D01*
X61193Y-44315D01*
M02*
