G04 (created by PCBNEW-RS274X (2011-05-25)-stable) date Thu 04 Jul 2013 09:49:36 BST*
G01*
G70*
G90*
%MOIN*%
G04 Gerber Fmt 3.4, Leading zero omitted, Abs format*
%FSLAX34Y34*%
G04 APERTURE LIST*
%ADD10C,0.006000*%
%ADD11C,0.015000*%
%ADD12R,0.050000X0.040000*%
%ADD13R,0.065000X0.045000*%
%ADD14R,0.045000X0.065000*%
%ADD15R,0.075000X0.030500*%
%ADD16R,0.030500X0.075000*%
%ADD17R,0.060000X0.060000*%
%ADD18R,0.031000X0.051000*%
%ADD19R,0.051000X0.031000*%
%ADD20R,0.065300X0.033800*%
%ADD21R,0.043600X0.043600*%
%ADD22R,0.051400X0.035700*%
%ADD23R,0.079000X0.114400*%
%ADD24R,0.052400X0.031800*%
%ADD25C,0.055400*%
%ADD26C,0.094000*%
%ADD27R,0.039600X0.079000*%
G04 APERTURE END LIST*
G54D10*
G54D11*
X51968Y-48425D02*
X51968Y-48622D01*
X64173Y-48425D02*
X64173Y-48622D01*
X61810Y-31890D02*
X61810Y-33071D01*
X60039Y-31890D02*
X60039Y-33071D01*
X52362Y-25197D02*
X52328Y-25199D01*
X52294Y-25203D01*
X52261Y-25211D01*
X52228Y-25221D01*
X52196Y-25234D01*
X52166Y-25250D01*
X52137Y-25269D01*
X52109Y-25290D01*
X52084Y-25313D01*
X52061Y-25338D01*
X52040Y-25366D01*
X52021Y-25395D01*
X52005Y-25425D01*
X51992Y-25457D01*
X51982Y-25490D01*
X51974Y-25523D01*
X51970Y-25557D01*
X51968Y-25591D01*
X64173Y-25591D02*
X64171Y-25557D01*
X64167Y-25523D01*
X64159Y-25490D01*
X64149Y-25457D01*
X64136Y-25425D01*
X64120Y-25395D01*
X64101Y-25366D01*
X64080Y-25338D01*
X64057Y-25313D01*
X64032Y-25290D01*
X64004Y-25269D01*
X63976Y-25250D01*
X63945Y-25234D01*
X63913Y-25221D01*
X63880Y-25211D01*
X63847Y-25203D01*
X63813Y-25199D01*
X63779Y-25197D01*
X63779Y-31890D02*
X63813Y-31888D01*
X63847Y-31884D01*
X63880Y-31876D01*
X63913Y-31866D01*
X63945Y-31853D01*
X63976Y-31837D01*
X64004Y-31818D01*
X64032Y-31797D01*
X64057Y-31774D01*
X64080Y-31749D01*
X64101Y-31721D01*
X64120Y-31692D01*
X64136Y-31662D01*
X64149Y-31630D01*
X64159Y-31597D01*
X64167Y-31564D01*
X64171Y-31530D01*
X64173Y-31496D01*
X51968Y-31496D02*
X51970Y-31530D01*
X51974Y-31564D01*
X51982Y-31597D01*
X51992Y-31630D01*
X52005Y-31662D01*
X52021Y-31692D01*
X52040Y-31721D01*
X52061Y-31749D01*
X52084Y-31774D01*
X52109Y-31797D01*
X52137Y-31818D01*
X52166Y-31837D01*
X52196Y-31853D01*
X52228Y-31866D01*
X52261Y-31876D01*
X52294Y-31884D01*
X52328Y-31888D01*
X52362Y-31890D01*
X52362Y-33071D02*
X52328Y-33073D01*
X52294Y-33077D01*
X52261Y-33085D01*
X52228Y-33095D01*
X52196Y-33108D01*
X52166Y-33124D01*
X52137Y-33143D01*
X52109Y-33164D01*
X52084Y-33187D01*
X52061Y-33212D01*
X52040Y-33240D01*
X52021Y-33269D01*
X52005Y-33299D01*
X51992Y-33331D01*
X51982Y-33364D01*
X51974Y-33397D01*
X51970Y-33431D01*
X51968Y-33465D01*
X64173Y-33465D02*
X64171Y-33431D01*
X64167Y-33397D01*
X64159Y-33364D01*
X64149Y-33331D01*
X64136Y-33299D01*
X64120Y-33269D01*
X64101Y-33240D01*
X64080Y-33212D01*
X64057Y-33187D01*
X64032Y-33164D01*
X64004Y-33143D01*
X63976Y-33124D01*
X63945Y-33108D01*
X63913Y-33095D01*
X63880Y-33085D01*
X63847Y-33077D01*
X63813Y-33073D01*
X63779Y-33071D01*
X63779Y-49016D02*
X63813Y-49014D01*
X63847Y-49010D01*
X63880Y-49002D01*
X63913Y-48992D01*
X63945Y-48979D01*
X63976Y-48963D01*
X64004Y-48944D01*
X64032Y-48923D01*
X64057Y-48900D01*
X64080Y-48875D01*
X64101Y-48847D01*
X64120Y-48818D01*
X64136Y-48788D01*
X64149Y-48756D01*
X64159Y-48723D01*
X64167Y-48690D01*
X64171Y-48656D01*
X64173Y-48622D01*
X51968Y-48622D02*
X51970Y-48656D01*
X51974Y-48690D01*
X51982Y-48723D01*
X51992Y-48756D01*
X52005Y-48788D01*
X52021Y-48818D01*
X52040Y-48847D01*
X52061Y-48875D01*
X52084Y-48900D01*
X52109Y-48923D01*
X52137Y-48944D01*
X52166Y-48963D01*
X52196Y-48979D01*
X52228Y-48992D01*
X52261Y-49002D01*
X52294Y-49010D01*
X52328Y-49014D01*
X52362Y-49016D01*
X64173Y-31496D02*
X64173Y-25591D01*
X52362Y-25197D02*
X63779Y-25197D01*
X51968Y-31496D02*
X51968Y-25591D01*
X61810Y-31890D02*
X63779Y-31890D01*
X60039Y-31890D02*
X52362Y-31890D01*
X61810Y-33071D02*
X63779Y-33071D01*
X52362Y-33071D02*
X60039Y-33071D01*
X51968Y-48425D02*
X51968Y-33465D01*
X64173Y-48425D02*
X64173Y-33465D01*
X52362Y-49016D02*
X63779Y-49016D01*
G54D12*
X56464Y-46792D03*
X56464Y-46042D03*
X55464Y-46792D03*
X56464Y-46417D03*
X55464Y-46042D03*
G54D13*
X59586Y-37347D03*
X59586Y-36747D03*
X60236Y-37347D03*
X60236Y-36747D03*
X54901Y-46717D03*
X54901Y-46117D03*
G54D14*
X58548Y-43346D03*
X57948Y-43346D03*
G54D13*
X56062Y-39602D03*
X56062Y-40202D03*
X56732Y-39936D03*
X56732Y-40536D03*
X54251Y-46117D03*
X54251Y-46717D03*
G54D14*
X56389Y-28074D03*
X55789Y-28074D03*
X57389Y-28074D03*
X56789Y-28074D03*
X58339Y-28074D03*
X58939Y-28074D03*
X60439Y-28074D03*
X59839Y-28074D03*
G54D13*
X60929Y-47500D03*
X60929Y-46900D03*
G54D14*
X57948Y-42657D03*
X58548Y-42657D03*
X59010Y-34094D03*
X59610Y-34094D03*
X58193Y-34075D03*
X57593Y-34075D03*
X57544Y-46417D03*
X56944Y-46417D03*
G54D13*
X56220Y-36924D03*
X56220Y-37524D03*
G54D14*
X53685Y-42283D03*
X53085Y-42283D03*
G54D13*
X58936Y-37347D03*
X58936Y-36747D03*
X60279Y-47500D03*
X60279Y-46900D03*
X62229Y-46900D03*
X62229Y-47500D03*
X61579Y-47500D03*
X61579Y-46900D03*
X59479Y-45600D03*
X59479Y-46200D03*
X63079Y-45750D03*
X63079Y-46350D03*
X63129Y-44200D03*
X63129Y-43600D03*
X59479Y-44000D03*
X59479Y-43400D03*
G54D15*
X63009Y-40887D03*
G54D16*
X62343Y-38053D03*
G54D15*
X59509Y-38719D03*
G54D16*
X60175Y-41553D03*
G54D15*
X63009Y-40690D03*
G54D16*
X62146Y-38053D03*
G54D15*
X59509Y-38916D03*
G54D16*
X60372Y-41553D03*
G54D15*
X63009Y-40493D03*
G54D16*
X61949Y-38053D03*
G54D15*
X59509Y-39113D03*
G54D16*
X60569Y-41553D03*
G54D15*
X63009Y-40296D03*
G54D16*
X61752Y-38053D03*
G54D15*
X59509Y-39310D03*
G54D16*
X60766Y-41553D03*
G54D15*
X63009Y-40099D03*
G54D16*
X61555Y-38053D03*
G54D15*
X59509Y-39507D03*
G54D16*
X60963Y-41553D03*
G54D15*
X63009Y-39902D03*
G54D16*
X61358Y-38053D03*
G54D15*
X59509Y-39704D03*
G54D16*
X61160Y-41553D03*
G54D15*
X63009Y-39705D03*
G54D16*
X61161Y-38053D03*
G54D15*
X59509Y-39901D03*
G54D16*
X61357Y-41553D03*
G54D15*
X63009Y-39508D03*
G54D16*
X60964Y-38053D03*
G54D15*
X59509Y-40098D03*
G54D16*
X61554Y-41553D03*
G54D15*
X63009Y-39311D03*
G54D16*
X60767Y-38053D03*
G54D15*
X59509Y-40295D03*
G54D16*
X61751Y-41553D03*
G54D15*
X63009Y-39114D03*
G54D16*
X60570Y-38053D03*
G54D15*
X59509Y-40492D03*
G54D16*
X61948Y-41553D03*
G54D15*
X63009Y-38917D03*
G54D16*
X60373Y-38053D03*
G54D15*
X59509Y-40689D03*
G54D16*
X62145Y-41553D03*
G54D15*
X63009Y-38720D03*
G54D16*
X60176Y-38053D03*
G54D15*
X59509Y-40886D03*
G54D16*
X62342Y-41553D03*
G54D17*
X61259Y-44803D03*
X61259Y-44403D03*
X61259Y-45203D03*
X61659Y-45203D03*
X61659Y-44403D03*
X61659Y-44803D03*
G54D18*
X60372Y-45983D03*
G54D19*
X62439Y-45690D03*
G54D18*
X62146Y-43623D03*
G54D19*
X60079Y-43916D03*
G54D18*
X60569Y-45983D03*
G54D19*
X62439Y-45493D03*
G54D18*
X61949Y-43623D03*
G54D19*
X60079Y-44113D03*
G54D18*
X60766Y-45983D03*
G54D19*
X62439Y-45296D03*
G54D18*
X61752Y-43623D03*
G54D19*
X60079Y-44310D03*
G54D18*
X60963Y-45983D03*
G54D19*
X62439Y-45099D03*
G54D18*
X61555Y-43623D03*
G54D19*
X60079Y-44507D03*
G54D18*
X61160Y-45983D03*
G54D19*
X62439Y-44902D03*
G54D18*
X61358Y-43623D03*
G54D19*
X60079Y-44704D03*
G54D18*
X61357Y-45983D03*
G54D19*
X62439Y-44705D03*
G54D18*
X61161Y-43623D03*
G54D19*
X60079Y-44901D03*
G54D18*
X61554Y-45983D03*
G54D19*
X62439Y-44508D03*
G54D18*
X60964Y-43623D03*
G54D19*
X60079Y-45098D03*
G54D18*
X61751Y-45983D03*
G54D19*
X62439Y-44311D03*
G54D18*
X60767Y-43623D03*
G54D19*
X60079Y-45295D03*
G54D18*
X61948Y-45983D03*
G54D19*
X62439Y-44114D03*
G54D18*
X60570Y-43623D03*
G54D19*
X60079Y-45492D03*
G54D18*
X62145Y-45983D03*
G54D19*
X62439Y-43917D03*
G54D18*
X60373Y-43623D03*
G54D19*
X60079Y-45689D03*
G54D17*
X60859Y-44803D03*
X60859Y-44403D03*
X60859Y-45203D03*
G54D20*
X58927Y-36308D03*
X58927Y-36058D03*
X58927Y-35808D03*
X58927Y-35558D03*
X58927Y-35308D03*
X58927Y-35058D03*
X58927Y-34808D03*
X58927Y-34558D03*
X56819Y-34558D03*
X56819Y-34808D03*
X56819Y-35058D03*
X56819Y-35308D03*
X56819Y-35558D03*
X56819Y-35808D03*
X56819Y-36058D03*
X56819Y-36308D03*
G54D21*
X55590Y-36693D03*
X55196Y-36339D03*
X55590Y-35984D03*
X55196Y-35630D03*
X55590Y-35276D03*
X55196Y-34921D03*
X55590Y-34567D03*
X55236Y-34075D03*
X54881Y-34469D03*
X54527Y-34075D03*
X54173Y-34469D03*
X53818Y-34075D03*
X53464Y-34567D03*
X53858Y-34921D03*
X53464Y-35276D03*
X53858Y-35630D03*
X53464Y-35984D03*
X53858Y-36339D03*
X53464Y-36693D03*
X53818Y-37185D03*
X54173Y-36791D03*
X54527Y-37185D03*
X54881Y-36791D03*
X55236Y-37185D03*
X53110Y-37185D03*
X53110Y-34075D03*
X52401Y-37185D03*
X52401Y-34075D03*
G54D22*
X52756Y-40906D03*
X52756Y-41299D03*
X52756Y-41692D03*
X53936Y-41692D03*
X53936Y-41299D03*
X53936Y-40906D03*
G54D23*
X53346Y-41299D03*
G54D24*
X56157Y-41732D03*
X56157Y-41535D03*
X56157Y-41339D03*
X56157Y-41143D03*
X56157Y-40946D03*
X55181Y-40946D03*
X55181Y-41143D03*
X55181Y-41339D03*
X55181Y-41535D03*
X55181Y-41732D03*
G54D25*
X54652Y-42228D03*
X54652Y-40475D03*
G54D26*
X54139Y-27174D03*
X54139Y-26174D03*
X55139Y-27174D03*
X55139Y-26174D03*
X56139Y-27174D03*
X56139Y-26174D03*
X57139Y-27174D03*
X57139Y-26174D03*
X58139Y-27174D03*
X58139Y-26174D03*
X59139Y-27174D03*
X59139Y-26174D03*
X60139Y-27174D03*
X60139Y-26174D03*
X61139Y-27174D03*
X61139Y-26174D03*
X62139Y-27174D03*
X62139Y-26174D03*
X63139Y-27174D03*
X63139Y-26174D03*
G54D14*
X56185Y-38622D03*
X55585Y-38622D03*
X54748Y-37953D03*
X54148Y-37953D03*
G54D27*
X54714Y-38685D03*
X54222Y-38685D03*
X53730Y-38685D03*
X53238Y-38685D03*
X53238Y-39661D03*
X53730Y-39661D03*
X54222Y-39661D03*
X54714Y-39661D03*
M02*
