G04 (created by PCBNEW-RS274X (2011-05-25)-stable) date Sat 12 Oct 2013 14:49:29 BST*
G01*
G70*
G90*
%MOIN*%
G04 Gerber Fmt 3.4, Leading zero omitted, Abs format*
%FSLAX34Y34*%
G04 APERTURE LIST*
%ADD10C,0.006000*%
%ADD11C,0.015000*%
%ADD12R,0.118400X0.067200*%
%ADD13R,0.065000X0.045000*%
%ADD14R,0.045000X0.065000*%
%ADD15R,0.060000X0.060000*%
%ADD16R,0.031000X0.051000*%
%ADD17R,0.051000X0.031000*%
%ADD18R,0.067200X0.075100*%
%ADD19R,0.035700X0.051400*%
%ADD20R,0.114400X0.079000*%
%ADD21R,0.052400X0.031800*%
%ADD22R,0.080000X0.029800*%
%ADD23O,0.080000X0.029800*%
%ADD24O,0.029800X0.080000*%
%ADD25C,0.075000*%
%ADD26R,0.033700X0.075100*%
%ADD27R,0.090800X0.094800*%
G04 APERTURE END LIST*
G54D10*
G54D11*
X51181Y-31417D02*
X51575Y-31023D01*
X51181Y-44409D02*
X51181Y-31417D01*
X53937Y-47165D02*
X51181Y-44409D01*
X58662Y-47165D02*
X53937Y-47165D01*
X61418Y-44409D02*
X58662Y-47165D01*
X61418Y-31417D02*
X61418Y-44409D01*
X61024Y-31023D02*
X61418Y-31417D01*
X51575Y-31023D02*
X61024Y-31023D01*
G54D12*
X60020Y-32166D03*
X60020Y-33150D03*
X60020Y-34134D03*
G54D13*
X58976Y-33607D03*
X58976Y-33007D03*
X58268Y-34001D03*
X58268Y-33401D03*
X51851Y-38243D03*
X51851Y-38843D03*
X52796Y-38243D03*
X52796Y-38843D03*
X56008Y-45649D03*
X56008Y-45049D03*
X54016Y-34109D03*
X54016Y-34709D03*
G54D14*
X53253Y-43268D03*
X52653Y-43268D03*
X52387Y-35984D03*
X51787Y-35984D03*
G54D13*
X55358Y-45649D03*
X55358Y-45049D03*
X57308Y-45049D03*
X57308Y-45649D03*
X56658Y-45649D03*
X56658Y-45049D03*
X54558Y-43749D03*
X54558Y-44349D03*
X58158Y-43899D03*
X58158Y-44499D03*
X58208Y-42349D03*
X58208Y-41749D03*
G54D14*
X52692Y-35314D03*
X53292Y-35314D03*
G54D13*
X54558Y-42149D03*
X54558Y-41549D03*
G54D15*
X56338Y-42952D03*
X56338Y-42552D03*
X56338Y-43352D03*
X56738Y-43352D03*
X56738Y-42552D03*
X56738Y-42952D03*
G54D16*
X55451Y-44132D03*
G54D17*
X57518Y-43839D03*
G54D16*
X57225Y-41772D03*
G54D17*
X55158Y-42065D03*
G54D16*
X55648Y-44132D03*
G54D17*
X57518Y-43642D03*
G54D16*
X57028Y-41772D03*
G54D17*
X55158Y-42262D03*
G54D16*
X55845Y-44132D03*
G54D17*
X57518Y-43445D03*
G54D16*
X56831Y-41772D03*
G54D17*
X55158Y-42459D03*
G54D16*
X56042Y-44132D03*
G54D17*
X57518Y-43248D03*
G54D16*
X56634Y-41772D03*
G54D17*
X55158Y-42656D03*
G54D16*
X56239Y-44132D03*
G54D17*
X57518Y-43051D03*
G54D16*
X56437Y-41772D03*
G54D17*
X55158Y-42853D03*
G54D16*
X56436Y-44132D03*
G54D17*
X57518Y-42854D03*
G54D16*
X56240Y-41772D03*
G54D17*
X55158Y-43050D03*
G54D16*
X56633Y-44132D03*
G54D17*
X57518Y-42657D03*
G54D16*
X56043Y-41772D03*
G54D17*
X55158Y-43247D03*
G54D16*
X56830Y-44132D03*
G54D17*
X57518Y-42460D03*
G54D16*
X55846Y-41772D03*
G54D17*
X55158Y-43444D03*
G54D16*
X57027Y-44132D03*
G54D17*
X57518Y-42263D03*
G54D16*
X55649Y-41772D03*
G54D17*
X55158Y-43641D03*
G54D16*
X57224Y-44132D03*
G54D17*
X57518Y-42066D03*
G54D16*
X55452Y-41772D03*
G54D17*
X55158Y-43838D03*
G54D15*
X55938Y-42952D03*
X55938Y-42552D03*
X55938Y-43352D03*
G54D18*
X52402Y-33385D03*
X52402Y-34567D03*
X53268Y-34567D03*
X53268Y-33385D03*
G54D19*
X52560Y-40944D03*
X52953Y-40944D03*
X53346Y-40944D03*
X53346Y-39764D03*
X52953Y-39764D03*
X52560Y-39764D03*
G54D20*
X52953Y-40354D03*
G54D21*
X53441Y-42715D03*
X53441Y-42518D03*
X53441Y-42322D03*
X53441Y-42126D03*
X53441Y-41929D03*
X52465Y-41929D03*
X52465Y-42126D03*
X52465Y-42322D03*
X52465Y-42518D03*
X52465Y-42715D03*
G54D22*
X58256Y-38877D03*
G54D23*
X58256Y-38680D03*
X58256Y-38483D03*
X58256Y-38286D03*
X58256Y-38089D03*
X58256Y-37893D03*
X58256Y-37696D03*
X58256Y-37499D03*
X58256Y-37302D03*
X58256Y-37105D03*
X58256Y-36908D03*
X58256Y-36712D03*
X58256Y-36515D03*
X58256Y-36318D03*
X58256Y-36121D03*
X58256Y-35924D03*
G54D24*
X57421Y-35026D03*
X57224Y-35026D03*
X57027Y-35026D03*
X56830Y-35026D03*
X56633Y-35026D03*
X56437Y-35026D03*
X56240Y-35026D03*
X56043Y-35026D03*
X55846Y-35026D03*
X55649Y-35026D03*
X55452Y-35026D03*
X55256Y-35026D03*
X55059Y-35026D03*
X54862Y-35026D03*
X54665Y-35026D03*
X54468Y-35026D03*
G54D23*
X53570Y-35924D03*
X53570Y-36121D03*
X53570Y-36318D03*
X53570Y-36515D03*
X53570Y-36712D03*
X53570Y-36908D03*
X53570Y-37105D03*
X53570Y-37302D03*
X53570Y-37499D03*
X53570Y-37696D03*
X53570Y-37893D03*
X53570Y-38089D03*
X53570Y-38286D03*
X53570Y-38483D03*
X53570Y-38680D03*
X53570Y-38877D03*
G54D24*
X54468Y-39712D03*
X54665Y-39712D03*
X55059Y-39712D03*
X54862Y-39719D03*
X55256Y-39712D03*
X55452Y-39712D03*
X55649Y-39712D03*
X55846Y-39712D03*
X56043Y-39712D03*
X56240Y-39712D03*
X56434Y-39712D03*
X56631Y-39712D03*
X56828Y-39712D03*
X57025Y-39712D03*
X57221Y-39712D03*
X57418Y-39712D03*
G54D25*
X58898Y-31496D03*
X53701Y-31496D03*
G54D26*
X56299Y-33247D03*
X56554Y-33247D03*
X55788Y-33247D03*
X56044Y-33247D03*
G54D27*
X57873Y-32204D03*
X54725Y-32204D03*
G54D26*
X56810Y-33247D03*
M02*
