M48
;DRILL file {PCBnew (2011-05-25)-stable} date Thu 04 Jul 2013 09:46:28 BST
;FORMAT={-:-/ absolute / inch / decimal}
FMAT,2
INCH,TZ
T1C0.015
T2C0.025
T3C0.028
T4C0.032
T5C0.040
%
G90
G05
M72
T1
X6.086Y4.440
X6.086Y4.480
X6.086Y4.520
X6.126Y4.440
X6.126Y4.480
X6.126Y4.520
X6.166Y4.440
X6.166Y4.480
X6.166Y4.520
T2
X5.343Y4.457
X5.346Y3.380
X5.346Y3.748
X5.382Y4.045
X5.415Y3.598
X5.415Y4.260
X5.459Y4.142
X5.486Y3.528
X5.527Y4.030
X5.579Y2.882
X5.616Y3.634
X5.618Y3.480
X5.620Y3.429
X5.628Y3.587
X5.659Y2.915
X5.669Y4.502
X5.685Y3.677
X5.691Y3.795
X5.705Y2.915
X5.707Y2.854
X5.713Y4.405
X5.732Y3.480
X5.734Y3.953
X5.734Y4.000
X5.738Y4.051
X5.742Y4.502
X5.750Y2.915
X5.785Y2.809
X5.795Y2.915
X5.823Y4.211
X5.860Y3.372
X5.862Y4.394
X5.866Y4.443
X5.868Y3.933
X5.876Y3.998
X5.898Y4.591
X5.898Y4.634
X5.902Y3.848
X5.939Y2.850
X5.955Y3.835
X5.963Y4.480
X5.980Y3.799
X5.982Y4.124
X5.992Y2.884
X5.994Y2.984
X6.000Y4.317
X6.014Y3.941
X6.016Y3.573
X6.016Y4.646
X6.018Y3.872
X6.045Y3.374
X6.045Y3.908
X6.053Y2.886
X6.063Y4.646
X6.069Y4.096
X6.102Y4.045
X6.104Y4.240
X6.108Y3.866
X6.157Y4.030
X6.167Y4.295
X6.187Y3.709
X6.193Y3.534
X6.236Y4.063
X6.246Y3.892
X6.246Y3.945
X6.285Y3.811
X6.291Y4.528
X6.309Y4.165
X6.327Y4.500
T3
X5.965Y4.823
X6.043Y4.823
X6.122Y4.823
X6.201Y4.823
X6.279Y4.823
T4
X5.465Y4.048
X5.465Y4.223
T5
X5.414Y2.617
X5.414Y2.717
X5.514Y2.617
X5.514Y2.717
X5.614Y2.617
X5.614Y2.717
X5.714Y2.617
X5.714Y2.717
X5.814Y2.617
X5.814Y2.717
X5.914Y2.617
X5.914Y2.717
X6.014Y2.617
X6.014Y2.717
X6.114Y2.617
X6.114Y2.717
X6.214Y2.617
X6.214Y2.717
X6.314Y2.617
X6.314Y2.717
T0
M30
