G04 (created by PCBNEW-RS274X (2011-05-25)-stable) date Sat 12 Oct 2013 14:49:29 BST*
G01*
G70*
G90*
%MOIN*%
G04 Gerber Fmt 3.4, Leading zero omitted, Abs format*
%FSLAX34Y34*%
G04 APERTURE LIST*
%ADD10C,0.006000*%
%ADD11C,0.015000*%
%ADD12C,0.012000*%
%ADD13C,0.005000*%
%ADD14C,0.008000*%
%ADD15C,0.010000*%
%ADD16C,0.004500*%
G04 APERTURE END LIST*
G54D10*
G54D11*
X51181Y-31417D02*
X51575Y-31023D01*
X51181Y-44409D02*
X51181Y-31417D01*
X53937Y-47165D02*
X51181Y-44409D01*
X58662Y-47165D02*
X53937Y-47165D01*
X61418Y-44409D02*
X58662Y-47165D01*
X61418Y-31417D02*
X61418Y-44409D01*
X61024Y-31023D02*
X61418Y-31417D01*
X51575Y-31023D02*
X61024Y-31023D01*
X59055Y-34960D02*
X59055Y-36141D01*
X61024Y-34960D02*
X59055Y-34960D01*
X59055Y-41259D02*
X59055Y-40078D01*
X61024Y-41259D02*
X59055Y-41259D01*
X52559Y-31456D02*
X53149Y-31456D01*
X59725Y-31220D02*
X59725Y-31771D01*
X59450Y-31495D02*
X60001Y-31495D01*
G54D12*
X60331Y-39710D02*
X60331Y-39424D01*
X60560Y-39767D02*
X59760Y-39567D01*
X60560Y-39367D01*
X60484Y-38824D02*
X60522Y-38853D01*
X60560Y-38939D01*
X60560Y-38996D01*
X60522Y-39081D01*
X60446Y-39139D01*
X60369Y-39167D01*
X60217Y-39196D01*
X60103Y-39196D01*
X59950Y-39167D01*
X59874Y-39139D01*
X59798Y-39081D01*
X59760Y-38996D01*
X59760Y-38939D01*
X59798Y-38853D01*
X59836Y-38824D01*
X59760Y-38653D02*
X59760Y-38310D01*
X60560Y-38481D02*
X59760Y-38481D01*
X60560Y-37767D02*
X60179Y-37967D01*
X60560Y-38110D02*
X59760Y-38110D01*
X59760Y-37882D01*
X59798Y-37824D01*
X59836Y-37796D01*
X59912Y-37767D01*
X60026Y-37767D01*
X60103Y-37796D01*
X60141Y-37824D01*
X60179Y-37882D01*
X60179Y-38110D01*
X59760Y-37396D02*
X59760Y-37282D01*
X59798Y-37224D01*
X59874Y-37167D01*
X60026Y-37139D01*
X60293Y-37139D01*
X60446Y-37167D01*
X60522Y-37224D01*
X60560Y-37282D01*
X60560Y-37396D01*
X60522Y-37453D01*
X60446Y-37510D01*
X60293Y-37539D01*
X60026Y-37539D01*
X59874Y-37510D01*
X59798Y-37453D01*
X59760Y-37396D01*
X60560Y-36881D02*
X59760Y-36881D01*
X60560Y-36538D01*
X59760Y-36538D01*
G54D13*
X61790Y-31379D02*
X60414Y-31379D01*
X60414Y-34921D02*
X61790Y-34921D01*
X61790Y-34921D02*
X61790Y-33937D01*
X61790Y-33937D02*
X61790Y-33346D01*
X61790Y-33346D02*
X61790Y-31379D01*
X61790Y-33346D02*
X62578Y-33346D01*
X62578Y-33346D02*
X62578Y-33937D01*
X62578Y-33937D02*
X61790Y-33937D01*
G54D14*
X60414Y-31576D02*
X60414Y-31379D01*
X60414Y-31379D02*
X61790Y-31379D01*
X61790Y-31379D02*
X61790Y-34921D01*
X61790Y-34921D02*
X60414Y-34921D01*
X60414Y-34921D02*
X60414Y-34724D01*
G54D13*
X61226Y-31753D02*
X61223Y-31777D01*
X61216Y-31800D01*
X61205Y-31821D01*
X61189Y-31840D01*
X61171Y-31855D01*
X61150Y-31867D01*
X61126Y-31874D01*
X61102Y-31876D01*
X61079Y-31874D01*
X61056Y-31867D01*
X61035Y-31856D01*
X61016Y-31841D01*
X61000Y-31823D01*
X60989Y-31801D01*
X60981Y-31778D01*
X60979Y-31754D01*
X60981Y-31731D01*
X60987Y-31708D01*
X60998Y-31686D01*
X61013Y-31667D01*
X61032Y-31652D01*
X61053Y-31640D01*
X61076Y-31632D01*
X61100Y-31630D01*
X61123Y-31631D01*
X61146Y-31638D01*
X61168Y-31649D01*
X61187Y-31664D01*
X61203Y-31682D01*
X61215Y-31703D01*
X61222Y-31726D01*
X61225Y-31750D01*
X61226Y-31753D01*
X61102Y-31576D02*
X61102Y-31930D01*
X60925Y-31753D02*
X61279Y-31753D01*
X61226Y-34547D02*
X61223Y-34571D01*
X61216Y-34594D01*
X61205Y-34615D01*
X61189Y-34634D01*
X61171Y-34649D01*
X61150Y-34661D01*
X61126Y-34668D01*
X61102Y-34670D01*
X61079Y-34668D01*
X61056Y-34661D01*
X61035Y-34650D01*
X61016Y-34635D01*
X61000Y-34617D01*
X60989Y-34595D01*
X60981Y-34572D01*
X60979Y-34548D01*
X60981Y-34525D01*
X60987Y-34502D01*
X60998Y-34480D01*
X61013Y-34461D01*
X61032Y-34446D01*
X61053Y-34434D01*
X61076Y-34426D01*
X61100Y-34424D01*
X61123Y-34425D01*
X61146Y-34432D01*
X61168Y-34443D01*
X61187Y-34458D01*
X61203Y-34476D01*
X61215Y-34497D01*
X61222Y-34520D01*
X61225Y-34544D01*
X61226Y-34547D01*
X61102Y-34370D02*
X61102Y-34724D01*
X60925Y-34547D02*
X61279Y-34547D01*
X58726Y-33757D02*
X58726Y-32857D01*
X58726Y-32857D02*
X59226Y-32857D01*
X59226Y-32857D02*
X59226Y-33757D01*
X59226Y-33757D02*
X58726Y-33757D01*
X58018Y-34151D02*
X58018Y-33251D01*
X58018Y-33251D02*
X58518Y-33251D01*
X58518Y-33251D02*
X58518Y-34151D01*
X58518Y-34151D02*
X58018Y-34151D01*
X52101Y-38093D02*
X52101Y-38993D01*
X52101Y-38993D02*
X51601Y-38993D01*
X51601Y-38993D02*
X51601Y-38093D01*
X51601Y-38093D02*
X52101Y-38093D01*
X53046Y-38093D02*
X53046Y-38993D01*
X53046Y-38993D02*
X52546Y-38993D01*
X52546Y-38993D02*
X52546Y-38093D01*
X52546Y-38093D02*
X53046Y-38093D01*
X55758Y-45799D02*
X55758Y-44899D01*
X55758Y-44899D02*
X56258Y-44899D01*
X56258Y-44899D02*
X56258Y-45799D01*
X56258Y-45799D02*
X55758Y-45799D01*
X54266Y-33959D02*
X54266Y-34859D01*
X54266Y-34859D02*
X53766Y-34859D01*
X53766Y-34859D02*
X53766Y-33959D01*
X53766Y-33959D02*
X54266Y-33959D01*
X53403Y-43518D02*
X52503Y-43518D01*
X52503Y-43518D02*
X52503Y-43018D01*
X52503Y-43018D02*
X53403Y-43018D01*
X53403Y-43018D02*
X53403Y-43518D01*
X52537Y-36234D02*
X51637Y-36234D01*
X51637Y-36234D02*
X51637Y-35734D01*
X51637Y-35734D02*
X52537Y-35734D01*
X52537Y-35734D02*
X52537Y-36234D01*
X55108Y-45799D02*
X55108Y-44899D01*
X55108Y-44899D02*
X55608Y-44899D01*
X55608Y-44899D02*
X55608Y-45799D01*
X55608Y-45799D02*
X55108Y-45799D01*
X57558Y-44899D02*
X57558Y-45799D01*
X57558Y-45799D02*
X57058Y-45799D01*
X57058Y-45799D02*
X57058Y-44899D01*
X57058Y-44899D02*
X57558Y-44899D01*
X56408Y-45799D02*
X56408Y-44899D01*
X56408Y-44899D02*
X56908Y-44899D01*
X56908Y-44899D02*
X56908Y-45799D01*
X56908Y-45799D02*
X56408Y-45799D01*
X54808Y-43599D02*
X54808Y-44499D01*
X54808Y-44499D02*
X54308Y-44499D01*
X54308Y-44499D02*
X54308Y-43599D01*
X54308Y-43599D02*
X54808Y-43599D01*
X58408Y-43749D02*
X58408Y-44649D01*
X58408Y-44649D02*
X57908Y-44649D01*
X57908Y-44649D02*
X57908Y-43749D01*
X57908Y-43749D02*
X58408Y-43749D01*
X57958Y-42499D02*
X57958Y-41599D01*
X57958Y-41599D02*
X58458Y-41599D01*
X58458Y-41599D02*
X58458Y-42499D01*
X58458Y-42499D02*
X57958Y-42499D01*
X52542Y-35064D02*
X53442Y-35064D01*
X53442Y-35064D02*
X53442Y-35564D01*
X53442Y-35564D02*
X52542Y-35564D01*
X52542Y-35564D02*
X52542Y-35064D01*
X54308Y-42299D02*
X54308Y-41399D01*
X54308Y-41399D02*
X54808Y-41399D01*
X54808Y-41399D02*
X54808Y-42299D01*
X54808Y-42299D02*
X54308Y-42299D01*
G54D14*
X55158Y-44202D02*
X55156Y-44215D01*
X55152Y-44228D01*
X55146Y-44240D01*
X55137Y-44251D01*
X55127Y-44260D01*
X55115Y-44266D01*
X55102Y-44270D01*
X55088Y-44271D01*
X55075Y-44270D01*
X55062Y-44266D01*
X55050Y-44260D01*
X55040Y-44252D01*
X55031Y-44241D01*
X55024Y-44229D01*
X55020Y-44216D01*
X55019Y-44202D01*
X55020Y-44190D01*
X55023Y-44177D01*
X55030Y-44165D01*
X55038Y-44154D01*
X55049Y-44145D01*
X55060Y-44138D01*
X55073Y-44134D01*
X55087Y-44133D01*
X55100Y-44134D01*
X55113Y-44137D01*
X55125Y-44143D01*
X55136Y-44152D01*
X55145Y-44162D01*
X55151Y-44174D01*
X55156Y-44187D01*
X55157Y-44201D01*
X55158Y-44202D01*
X55354Y-44133D02*
X55157Y-43936D01*
X57519Y-43936D02*
X57519Y-44133D01*
X57519Y-44133D02*
X57322Y-44133D01*
X57519Y-41968D02*
X57519Y-41771D01*
X57519Y-41771D02*
X57322Y-41771D01*
X55354Y-41771D02*
X55157Y-41771D01*
X55157Y-41771D02*
X55157Y-41968D01*
G54D13*
X52035Y-32876D02*
X52033Y-32895D01*
X52027Y-32914D01*
X52018Y-32931D01*
X52005Y-32946D01*
X51990Y-32958D01*
X51973Y-32968D01*
X51955Y-32973D01*
X51935Y-32975D01*
X51917Y-32974D01*
X51898Y-32968D01*
X51881Y-32959D01*
X51866Y-32947D01*
X51853Y-32932D01*
X51844Y-32915D01*
X51838Y-32896D01*
X51836Y-32877D01*
X51837Y-32858D01*
X51843Y-32840D01*
X51851Y-32822D01*
X51864Y-32807D01*
X51878Y-32794D01*
X51895Y-32785D01*
X51914Y-32779D01*
X51933Y-32777D01*
X51952Y-32778D01*
X51971Y-32783D01*
X51988Y-32792D01*
X52003Y-32804D01*
X52016Y-32819D01*
X52026Y-32836D01*
X52032Y-32854D01*
X52034Y-32874D01*
X52035Y-32876D01*
G54D14*
X53464Y-33740D02*
X53464Y-34212D01*
X52953Y-34803D02*
X52717Y-34803D01*
X52206Y-34212D02*
X52206Y-33740D01*
X52953Y-33149D02*
X52717Y-33149D01*
G54D13*
X52253Y-41154D02*
X52251Y-41173D01*
X52245Y-41192D01*
X52236Y-41209D01*
X52223Y-41224D01*
X52208Y-41236D01*
X52191Y-41246D01*
X52173Y-41251D01*
X52153Y-41253D01*
X52135Y-41252D01*
X52116Y-41246D01*
X52099Y-41237D01*
X52084Y-41225D01*
X52071Y-41210D01*
X52062Y-41193D01*
X52056Y-41174D01*
X52054Y-41155D01*
X52055Y-41136D01*
X52061Y-41118D01*
X52069Y-41100D01*
X52082Y-41085D01*
X52096Y-41072D01*
X52113Y-41063D01*
X52132Y-41057D01*
X52151Y-41055D01*
X52170Y-41056D01*
X52189Y-41061D01*
X52206Y-41070D01*
X52221Y-41082D01*
X52234Y-41097D01*
X52244Y-41114D01*
X52250Y-41132D01*
X52252Y-41152D01*
X52253Y-41154D01*
X52378Y-40954D02*
X52428Y-40954D01*
X52378Y-39754D02*
X52428Y-39754D01*
X53528Y-40954D02*
X53478Y-40954D01*
X53528Y-39754D02*
X53478Y-39754D01*
X52363Y-39764D02*
X52363Y-40944D01*
X53543Y-40944D02*
X53543Y-39764D01*
X53553Y-42922D02*
X52353Y-42922D01*
X53553Y-41722D02*
X52353Y-41722D01*
X52353Y-41722D02*
X52353Y-41822D01*
X53553Y-41722D02*
X53553Y-41822D01*
X53553Y-42922D02*
X53553Y-42822D01*
X52353Y-42922D02*
X52353Y-42822D01*
X53753Y-43122D02*
X53751Y-43141D01*
X53745Y-43160D01*
X53736Y-43177D01*
X53723Y-43192D01*
X53708Y-43204D01*
X53691Y-43214D01*
X53673Y-43219D01*
X53653Y-43221D01*
X53635Y-43220D01*
X53616Y-43214D01*
X53599Y-43205D01*
X53584Y-43193D01*
X53571Y-43178D01*
X53562Y-43161D01*
X53556Y-43142D01*
X53554Y-43123D01*
X53555Y-43104D01*
X53561Y-43086D01*
X53569Y-43068D01*
X53582Y-43053D01*
X53596Y-43040D01*
X53613Y-43031D01*
X53632Y-43025D01*
X53651Y-43023D01*
X53670Y-43024D01*
X53689Y-43029D01*
X53706Y-43038D01*
X53721Y-43050D01*
X53734Y-43065D01*
X53744Y-43082D01*
X53750Y-43100D01*
X53752Y-43120D01*
X53753Y-43122D01*
G54D14*
X58163Y-39469D02*
X58160Y-39498D01*
X58151Y-39526D01*
X58137Y-39552D01*
X58119Y-39574D01*
X58096Y-39593D01*
X58071Y-39607D01*
X58043Y-39615D01*
X58014Y-39618D01*
X57985Y-39616D01*
X57957Y-39608D01*
X57931Y-39594D01*
X57909Y-39576D01*
X57890Y-39553D01*
X57876Y-39528D01*
X57867Y-39500D01*
X57864Y-39471D01*
X57866Y-39442D01*
X57874Y-39414D01*
X57887Y-39388D01*
X57906Y-39365D01*
X57928Y-39346D01*
X57953Y-39332D01*
X57981Y-39323D01*
X58010Y-39320D01*
X58039Y-39322D01*
X58067Y-39330D01*
X58093Y-39343D01*
X58116Y-39361D01*
X58135Y-39383D01*
X58150Y-39408D01*
X58159Y-39436D01*
X58162Y-39465D01*
X58163Y-39469D01*
X53913Y-35369D02*
X53913Y-39369D01*
X53913Y-39369D02*
X57663Y-39369D01*
X57663Y-39369D02*
X57913Y-39119D01*
X57913Y-39119D02*
X57913Y-35369D01*
X57913Y-35369D02*
X53913Y-35369D01*
G54D13*
X57637Y-31358D02*
X57480Y-31358D01*
X55118Y-31358D02*
X54961Y-31358D01*
X57637Y-31358D02*
X57637Y-31634D01*
X54961Y-33326D02*
X55433Y-33326D01*
X54961Y-31634D02*
X54961Y-31358D01*
X57637Y-31634D02*
X54961Y-31634D01*
G54D14*
X57637Y-32696D02*
X57637Y-33326D01*
X57637Y-33326D02*
X57165Y-33326D01*
X54961Y-33326D02*
X55433Y-33326D01*
X54961Y-32696D02*
X54961Y-33326D01*
X57637Y-31634D02*
X54961Y-31634D01*
G54D13*
X57165Y-32774D02*
X55433Y-32774D01*
X55433Y-32774D02*
X55433Y-33326D01*
X57165Y-32774D02*
X57165Y-33326D01*
X57637Y-33326D02*
X57165Y-33326D01*
G54D14*
X57165Y-33326D02*
X57165Y-32774D01*
X57165Y-32774D02*
X55433Y-32774D01*
X55433Y-32774D02*
X55433Y-33326D01*
X57637Y-31358D02*
X57873Y-31122D01*
X54961Y-31358D02*
X54725Y-31122D01*
G54D13*
X57480Y-31358D02*
X57480Y-31201D01*
X57401Y-31102D02*
X55217Y-31102D01*
X55118Y-31181D02*
X55118Y-31358D01*
X57479Y-31201D02*
X57479Y-31193D01*
X57479Y-31185D01*
X57478Y-31177D01*
X57476Y-31169D01*
X57473Y-31161D01*
X57470Y-31154D01*
X57466Y-31147D01*
X57461Y-31140D01*
X57456Y-31133D01*
X57450Y-31128D01*
X57444Y-31122D01*
X57438Y-31117D01*
X57431Y-31113D01*
X57423Y-31109D01*
X57416Y-31106D01*
X57408Y-31104D01*
X57401Y-31103D01*
X55217Y-31103D02*
X55209Y-31103D01*
X55201Y-31103D01*
X55193Y-31104D01*
X55185Y-31106D01*
X55177Y-31109D01*
X55170Y-31112D01*
X55163Y-31116D01*
X55156Y-31121D01*
X55149Y-31126D01*
X55144Y-31132D01*
X55138Y-31138D01*
X55133Y-31144D01*
X55129Y-31151D01*
X55125Y-31159D01*
X55122Y-31166D01*
X55120Y-31174D01*
X55119Y-31181D01*
G54D15*
X58365Y-32348D02*
X58422Y-32367D01*
X58518Y-32367D01*
X58556Y-32348D01*
X58575Y-32329D01*
X58594Y-32291D01*
X58594Y-32253D01*
X58575Y-32215D01*
X58556Y-32195D01*
X58518Y-32176D01*
X58441Y-32157D01*
X58403Y-32138D01*
X58384Y-32119D01*
X58365Y-32081D01*
X58365Y-32043D01*
X58384Y-32005D01*
X58403Y-31986D01*
X58441Y-31967D01*
X58537Y-31967D01*
X58594Y-31986D01*
X58727Y-31967D02*
X58822Y-32367D01*
X58899Y-32081D01*
X58975Y-32367D01*
X59070Y-31967D01*
X59432Y-32367D02*
X59203Y-32367D01*
X59317Y-32367D02*
X59317Y-31967D01*
X59279Y-32024D01*
X59241Y-32062D01*
X59203Y-32081D01*
G54D16*
X58947Y-34207D02*
X58887Y-34074D01*
X58844Y-34207D02*
X58844Y-33927D01*
X58912Y-33927D01*
X58930Y-33941D01*
X58938Y-33954D01*
X58947Y-33981D01*
X58947Y-34021D01*
X58938Y-34047D01*
X58930Y-34061D01*
X58912Y-34074D01*
X58844Y-34074D01*
X59007Y-33927D02*
X59118Y-33927D01*
X59058Y-34034D01*
X59084Y-34034D01*
X59101Y-34047D01*
X59110Y-34061D01*
X59118Y-34087D01*
X59118Y-34154D01*
X59110Y-34181D01*
X59101Y-34194D01*
X59084Y-34207D01*
X59032Y-34207D01*
X59015Y-34194D01*
X59007Y-34181D01*
X58239Y-33105D02*
X58179Y-32972D01*
X58136Y-33105D02*
X58136Y-32825D01*
X58204Y-32825D01*
X58222Y-32839D01*
X58230Y-32852D01*
X58239Y-32879D01*
X58239Y-32919D01*
X58230Y-32945D01*
X58222Y-32959D01*
X58204Y-32972D01*
X58136Y-32972D01*
X58393Y-32919D02*
X58393Y-33105D01*
X58350Y-32812D02*
X58307Y-33012D01*
X58419Y-33012D01*
X51625Y-37987D02*
X51565Y-37854D01*
X51522Y-37987D02*
X51522Y-37707D01*
X51590Y-37707D01*
X51608Y-37721D01*
X51616Y-37734D01*
X51625Y-37761D01*
X51625Y-37801D01*
X51616Y-37827D01*
X51608Y-37841D01*
X51590Y-37854D01*
X51522Y-37854D01*
X51788Y-37707D02*
X51702Y-37707D01*
X51693Y-37841D01*
X51702Y-37827D01*
X51719Y-37814D01*
X51762Y-37814D01*
X51779Y-37827D01*
X51788Y-37841D01*
X51796Y-37867D01*
X51796Y-37934D01*
X51788Y-37961D01*
X51779Y-37974D01*
X51762Y-37987D01*
X51719Y-37987D01*
X51702Y-37974D01*
X51693Y-37961D01*
X52294Y-37987D02*
X52234Y-37854D01*
X52191Y-37987D02*
X52191Y-37707D01*
X52259Y-37707D01*
X52277Y-37721D01*
X52285Y-37734D01*
X52294Y-37761D01*
X52294Y-37801D01*
X52285Y-37827D01*
X52277Y-37841D01*
X52259Y-37854D01*
X52191Y-37854D01*
X52448Y-37707D02*
X52414Y-37707D01*
X52397Y-37721D01*
X52388Y-37734D01*
X52371Y-37774D01*
X52362Y-37827D01*
X52362Y-37934D01*
X52371Y-37961D01*
X52379Y-37974D01*
X52397Y-37987D01*
X52431Y-37987D01*
X52448Y-37974D01*
X52457Y-37961D01*
X52465Y-37934D01*
X52465Y-37867D01*
X52457Y-37841D01*
X52448Y-37827D01*
X52431Y-37814D01*
X52397Y-37814D01*
X52379Y-37827D01*
X52371Y-37841D01*
X52362Y-37867D01*
X56026Y-44797D02*
X55966Y-44664D01*
X55923Y-44797D02*
X55923Y-44517D01*
X55991Y-44517D01*
X56009Y-44531D01*
X56017Y-44544D01*
X56026Y-44571D01*
X56026Y-44611D01*
X56017Y-44637D01*
X56009Y-44651D01*
X55991Y-44664D01*
X55923Y-44664D01*
X56197Y-44797D02*
X56094Y-44797D01*
X56146Y-44797D02*
X56146Y-44517D01*
X56129Y-44557D01*
X56111Y-44584D01*
X56094Y-44597D01*
X56351Y-44611D02*
X56351Y-44797D01*
X56308Y-44504D02*
X56265Y-44704D01*
X56377Y-44704D01*
X53901Y-33827D02*
X53892Y-33840D01*
X53866Y-33853D01*
X53849Y-33853D01*
X53824Y-33840D01*
X53806Y-33813D01*
X53798Y-33787D01*
X53789Y-33733D01*
X53789Y-33693D01*
X53798Y-33640D01*
X53806Y-33613D01*
X53824Y-33587D01*
X53849Y-33573D01*
X53866Y-33573D01*
X53892Y-33587D01*
X53901Y-33600D01*
X54072Y-33853D02*
X53969Y-33853D01*
X54021Y-33853D02*
X54021Y-33573D01*
X54004Y-33613D01*
X53986Y-33640D01*
X53969Y-33653D01*
X54235Y-33573D02*
X54149Y-33573D01*
X54140Y-33707D01*
X54149Y-33693D01*
X54166Y-33680D01*
X54209Y-33680D01*
X54226Y-33693D01*
X54235Y-33707D01*
X54243Y-33733D01*
X54243Y-33800D01*
X54235Y-33827D01*
X54226Y-33840D01*
X54209Y-33853D01*
X54166Y-33853D01*
X54149Y-33840D01*
X54140Y-33827D01*
X52051Y-43354D02*
X52042Y-43367D01*
X52016Y-43380D01*
X51999Y-43380D01*
X51974Y-43367D01*
X51956Y-43340D01*
X51948Y-43314D01*
X51939Y-43260D01*
X51939Y-43220D01*
X51948Y-43167D01*
X51956Y-43140D01*
X51974Y-43114D01*
X51999Y-43100D01*
X52016Y-43100D01*
X52042Y-43114D01*
X52051Y-43127D01*
X52222Y-43380D02*
X52119Y-43380D01*
X52171Y-43380D02*
X52171Y-43100D01*
X52154Y-43140D01*
X52136Y-43167D01*
X52119Y-43180D01*
X52307Y-43380D02*
X52342Y-43380D01*
X52359Y-43367D01*
X52367Y-43354D01*
X52385Y-43314D01*
X52393Y-43260D01*
X52393Y-43154D01*
X52385Y-43127D01*
X52376Y-43114D01*
X52359Y-43100D01*
X52325Y-43100D01*
X52307Y-43114D01*
X52299Y-43127D01*
X52290Y-43154D01*
X52290Y-43220D01*
X52299Y-43247D01*
X52307Y-43260D01*
X52325Y-43274D01*
X52359Y-43274D01*
X52376Y-43260D01*
X52385Y-43247D01*
X52393Y-43220D01*
X52798Y-36071D02*
X52789Y-36084D01*
X52763Y-36097D01*
X52746Y-36097D01*
X52721Y-36084D01*
X52703Y-36057D01*
X52695Y-36031D01*
X52686Y-35977D01*
X52686Y-35937D01*
X52695Y-35884D01*
X52703Y-35857D01*
X52721Y-35831D01*
X52746Y-35817D01*
X52763Y-35817D01*
X52789Y-35831D01*
X52798Y-35844D01*
X52866Y-35844D02*
X52875Y-35831D01*
X52892Y-35817D01*
X52935Y-35817D01*
X52952Y-35831D01*
X52961Y-35844D01*
X52969Y-35871D01*
X52969Y-35897D01*
X52961Y-35937D01*
X52858Y-36097D01*
X52969Y-36097D01*
X53080Y-35817D02*
X53097Y-35817D01*
X53114Y-35831D01*
X53123Y-35844D01*
X53132Y-35871D01*
X53140Y-35924D01*
X53140Y-35991D01*
X53132Y-36044D01*
X53123Y-36071D01*
X53114Y-36084D01*
X53097Y-36097D01*
X53080Y-36097D01*
X53063Y-36084D01*
X53054Y-36071D01*
X53046Y-36044D01*
X53037Y-35991D01*
X53037Y-35924D01*
X53046Y-35871D01*
X53054Y-35844D01*
X53063Y-35831D01*
X53080Y-35817D01*
X54649Y-45441D02*
X54640Y-45454D01*
X54614Y-45467D01*
X54597Y-45467D01*
X54572Y-45454D01*
X54554Y-45427D01*
X54546Y-45401D01*
X54537Y-45347D01*
X54537Y-45307D01*
X54546Y-45254D01*
X54554Y-45227D01*
X54572Y-45201D01*
X54597Y-45187D01*
X54614Y-45187D01*
X54640Y-45201D01*
X54649Y-45214D01*
X54717Y-45214D02*
X54726Y-45201D01*
X54743Y-45187D01*
X54786Y-45187D01*
X54803Y-45201D01*
X54812Y-45214D01*
X54820Y-45241D01*
X54820Y-45267D01*
X54812Y-45307D01*
X54709Y-45467D01*
X54820Y-45467D01*
X54991Y-45467D02*
X54888Y-45467D01*
X54940Y-45467D02*
X54940Y-45187D01*
X54923Y-45227D01*
X54905Y-45254D01*
X54888Y-45267D01*
X57798Y-45441D02*
X57789Y-45454D01*
X57763Y-45467D01*
X57746Y-45467D01*
X57721Y-45454D01*
X57703Y-45427D01*
X57695Y-45401D01*
X57686Y-45347D01*
X57686Y-45307D01*
X57695Y-45254D01*
X57703Y-45227D01*
X57721Y-45201D01*
X57746Y-45187D01*
X57763Y-45187D01*
X57789Y-45201D01*
X57798Y-45214D01*
X57866Y-45214D02*
X57875Y-45201D01*
X57892Y-45187D01*
X57935Y-45187D01*
X57952Y-45201D01*
X57961Y-45214D01*
X57969Y-45241D01*
X57969Y-45267D01*
X57961Y-45307D01*
X57858Y-45467D01*
X57969Y-45467D01*
X58037Y-45214D02*
X58046Y-45201D01*
X58063Y-45187D01*
X58106Y-45187D01*
X58123Y-45201D01*
X58132Y-45214D01*
X58140Y-45241D01*
X58140Y-45267D01*
X58132Y-45307D01*
X58029Y-45467D01*
X58140Y-45467D01*
X56696Y-44772D02*
X56687Y-44785D01*
X56661Y-44798D01*
X56644Y-44798D01*
X56619Y-44785D01*
X56601Y-44758D01*
X56593Y-44732D01*
X56584Y-44678D01*
X56584Y-44638D01*
X56593Y-44585D01*
X56601Y-44558D01*
X56619Y-44532D01*
X56644Y-44518D01*
X56661Y-44518D01*
X56687Y-44532D01*
X56696Y-44545D01*
X56764Y-44545D02*
X56773Y-44532D01*
X56790Y-44518D01*
X56833Y-44518D01*
X56850Y-44532D01*
X56859Y-44545D01*
X56867Y-44572D01*
X56867Y-44598D01*
X56859Y-44638D01*
X56756Y-44798D01*
X56867Y-44798D01*
X56927Y-44518D02*
X57038Y-44518D01*
X56978Y-44625D01*
X57004Y-44625D01*
X57021Y-44638D01*
X57030Y-44652D01*
X57038Y-44678D01*
X57038Y-44745D01*
X57030Y-44772D01*
X57021Y-44785D01*
X57004Y-44798D01*
X56952Y-44798D01*
X56935Y-44785D01*
X56927Y-44772D01*
X54452Y-44850D02*
X54443Y-44863D01*
X54417Y-44876D01*
X54400Y-44876D01*
X54375Y-44863D01*
X54357Y-44836D01*
X54349Y-44810D01*
X54340Y-44756D01*
X54340Y-44716D01*
X54349Y-44663D01*
X54357Y-44636D01*
X54375Y-44610D01*
X54400Y-44596D01*
X54417Y-44596D01*
X54443Y-44610D01*
X54452Y-44623D01*
X54520Y-44623D02*
X54529Y-44610D01*
X54546Y-44596D01*
X54589Y-44596D01*
X54606Y-44610D01*
X54615Y-44623D01*
X54623Y-44650D01*
X54623Y-44676D01*
X54615Y-44716D01*
X54512Y-44876D01*
X54623Y-44876D01*
X54777Y-44690D02*
X54777Y-44876D01*
X54734Y-44583D02*
X54691Y-44783D01*
X54803Y-44783D01*
X58625Y-44299D02*
X58616Y-44312D01*
X58590Y-44325D01*
X58573Y-44325D01*
X58548Y-44312D01*
X58530Y-44285D01*
X58522Y-44259D01*
X58513Y-44205D01*
X58513Y-44165D01*
X58522Y-44112D01*
X58530Y-44085D01*
X58548Y-44059D01*
X58573Y-44045D01*
X58590Y-44045D01*
X58616Y-44059D01*
X58625Y-44072D01*
X58693Y-44072D02*
X58702Y-44059D01*
X58719Y-44045D01*
X58762Y-44045D01*
X58779Y-44059D01*
X58788Y-44072D01*
X58796Y-44099D01*
X58796Y-44125D01*
X58788Y-44165D01*
X58685Y-44325D01*
X58796Y-44325D01*
X58959Y-44045D02*
X58873Y-44045D01*
X58864Y-44179D01*
X58873Y-44165D01*
X58890Y-44152D01*
X58933Y-44152D01*
X58950Y-44165D01*
X58959Y-44179D01*
X58967Y-44205D01*
X58967Y-44272D01*
X58959Y-44299D01*
X58950Y-44312D01*
X58933Y-44325D01*
X58890Y-44325D01*
X58873Y-44312D01*
X58864Y-44299D01*
X58704Y-42134D02*
X58695Y-42147D01*
X58669Y-42160D01*
X58652Y-42160D01*
X58627Y-42147D01*
X58609Y-42120D01*
X58601Y-42094D01*
X58592Y-42040D01*
X58592Y-42000D01*
X58601Y-41947D01*
X58609Y-41920D01*
X58627Y-41894D01*
X58652Y-41880D01*
X58669Y-41880D01*
X58695Y-41894D01*
X58704Y-41907D01*
X58772Y-41907D02*
X58781Y-41894D01*
X58798Y-41880D01*
X58841Y-41880D01*
X58858Y-41894D01*
X58867Y-41907D01*
X58875Y-41934D01*
X58875Y-41960D01*
X58867Y-42000D01*
X58764Y-42160D01*
X58875Y-42160D01*
X59029Y-41880D02*
X58995Y-41880D01*
X58978Y-41894D01*
X58969Y-41907D01*
X58952Y-41947D01*
X58943Y-42000D01*
X58943Y-42107D01*
X58952Y-42134D01*
X58960Y-42147D01*
X58978Y-42160D01*
X59012Y-42160D01*
X59029Y-42147D01*
X59038Y-42134D01*
X59046Y-42107D01*
X59046Y-42040D01*
X59038Y-42014D01*
X59029Y-42000D01*
X59012Y-41987D01*
X58978Y-41987D01*
X58960Y-42000D01*
X58952Y-42014D01*
X58943Y-42040D01*
X52090Y-35441D02*
X52081Y-35454D01*
X52055Y-35467D01*
X52038Y-35467D01*
X52013Y-35454D01*
X51995Y-35427D01*
X51987Y-35401D01*
X51978Y-35347D01*
X51978Y-35307D01*
X51987Y-35254D01*
X51995Y-35227D01*
X52013Y-35201D01*
X52038Y-35187D01*
X52055Y-35187D01*
X52081Y-35201D01*
X52090Y-35214D01*
X52261Y-35467D02*
X52158Y-35467D01*
X52210Y-35467D02*
X52210Y-35187D01*
X52193Y-35227D01*
X52175Y-35254D01*
X52158Y-35267D01*
X52415Y-35187D02*
X52381Y-35187D01*
X52364Y-35201D01*
X52355Y-35214D01*
X52338Y-35254D01*
X52329Y-35307D01*
X52329Y-35414D01*
X52338Y-35441D01*
X52346Y-35454D01*
X52364Y-35467D01*
X52398Y-35467D01*
X52415Y-35454D01*
X52424Y-35441D01*
X52432Y-35414D01*
X52432Y-35347D01*
X52424Y-35321D01*
X52415Y-35307D01*
X52398Y-35294D01*
X52364Y-35294D01*
X52346Y-35307D01*
X52338Y-35321D01*
X52329Y-35347D01*
X53862Y-41937D02*
X53853Y-41950D01*
X53827Y-41963D01*
X53810Y-41963D01*
X53785Y-41950D01*
X53767Y-41923D01*
X53759Y-41897D01*
X53750Y-41843D01*
X53750Y-41803D01*
X53759Y-41750D01*
X53767Y-41723D01*
X53785Y-41697D01*
X53810Y-41683D01*
X53827Y-41683D01*
X53853Y-41697D01*
X53862Y-41710D01*
X53930Y-41710D02*
X53939Y-41697D01*
X53956Y-41683D01*
X53999Y-41683D01*
X54016Y-41697D01*
X54025Y-41710D01*
X54033Y-41737D01*
X54033Y-41763D01*
X54025Y-41803D01*
X53922Y-41963D01*
X54033Y-41963D01*
X54118Y-41963D02*
X54153Y-41963D01*
X54170Y-41950D01*
X54178Y-41937D01*
X54196Y-41897D01*
X54204Y-41843D01*
X54204Y-41737D01*
X54196Y-41710D01*
X54187Y-41697D01*
X54170Y-41683D01*
X54136Y-41683D01*
X54118Y-41697D01*
X54110Y-41710D01*
X54101Y-41737D01*
X54101Y-41803D01*
X54110Y-41830D01*
X54118Y-41843D01*
X54136Y-41857D01*
X54170Y-41857D01*
X54187Y-41843D01*
X54196Y-41830D01*
X54204Y-41803D01*
G54D15*
X55450Y-40982D02*
X55450Y-41306D01*
X55469Y-41344D01*
X55488Y-41363D01*
X55526Y-41382D01*
X55603Y-41382D01*
X55641Y-41363D01*
X55660Y-41344D01*
X55679Y-41306D01*
X55679Y-40982D01*
X56079Y-41382D02*
X55850Y-41382D01*
X55964Y-41382D02*
X55964Y-40982D01*
X55926Y-41039D01*
X55888Y-41077D01*
X55850Y-41096D01*
X56212Y-40982D02*
X56460Y-40982D01*
X56326Y-41134D01*
X56384Y-41134D01*
X56422Y-41153D01*
X56441Y-41172D01*
X56460Y-41210D01*
X56460Y-41306D01*
X56441Y-41344D01*
X56422Y-41363D01*
X56384Y-41382D01*
X56269Y-41382D01*
X56231Y-41363D01*
X56212Y-41344D01*
X52511Y-32517D02*
X52778Y-32917D01*
X52778Y-32517D02*
X52511Y-32917D01*
X53140Y-32917D02*
X52911Y-32917D01*
X53025Y-32917D02*
X53025Y-32517D01*
X52987Y-32574D01*
X52949Y-32612D01*
X52911Y-32631D01*
X51770Y-40620D02*
X52094Y-40620D01*
X52132Y-40601D01*
X52151Y-40582D01*
X52170Y-40544D01*
X52170Y-40467D01*
X52151Y-40429D01*
X52132Y-40410D01*
X52094Y-40391D01*
X51770Y-40391D01*
X52170Y-40182D02*
X52170Y-40106D01*
X52151Y-40067D01*
X52132Y-40048D01*
X52075Y-40010D01*
X51998Y-39991D01*
X51846Y-39991D01*
X51808Y-40010D01*
X51789Y-40029D01*
X51770Y-40067D01*
X51770Y-40144D01*
X51789Y-40182D01*
X51808Y-40201D01*
X51846Y-40220D01*
X51941Y-40220D01*
X51979Y-40201D01*
X51998Y-40182D01*
X52018Y-40144D01*
X52018Y-40067D01*
X51998Y-40029D01*
X51979Y-40010D01*
X51941Y-39991D01*
X51691Y-42817D02*
X52015Y-42817D01*
X52053Y-42798D01*
X52072Y-42779D01*
X52091Y-42741D01*
X52091Y-42664D01*
X52072Y-42626D01*
X52053Y-42607D01*
X52015Y-42588D01*
X51691Y-42588D01*
X52091Y-42188D02*
X52091Y-42417D01*
X52091Y-42303D02*
X51691Y-42303D01*
X51748Y-42341D01*
X51786Y-42379D01*
X51805Y-42417D01*
X52091Y-41807D02*
X52091Y-42036D01*
X52091Y-41922D02*
X51691Y-41922D01*
X51748Y-41960D01*
X51786Y-41998D01*
X51805Y-42036D01*
X57687Y-34368D02*
X57687Y-34692D01*
X57706Y-34730D01*
X57725Y-34749D01*
X57763Y-34768D01*
X57840Y-34768D01*
X57878Y-34749D01*
X57897Y-34730D01*
X57916Y-34692D01*
X57916Y-34368D01*
X58087Y-34406D02*
X58106Y-34387D01*
X58144Y-34368D01*
X58240Y-34368D01*
X58278Y-34387D01*
X58297Y-34406D01*
X58316Y-34444D01*
X58316Y-34482D01*
X58297Y-34539D01*
X58068Y-34768D01*
X58316Y-34768D01*
X53765Y-31966D02*
X53765Y-32252D01*
X53745Y-32309D01*
X53707Y-32347D01*
X53650Y-32366D01*
X53612Y-32366D01*
X54165Y-32366D02*
X53936Y-32366D01*
X54050Y-32366D02*
X54050Y-31966D01*
X54012Y-32023D01*
X53974Y-32061D01*
X53936Y-32080D01*
M02*
