G04 (created by PCBNEW-RS274X (2011-05-25)-stable) date Thu 04 Jul 2013 09:49:36 BST*
G01*
G70*
G90*
%MOIN*%
G04 Gerber Fmt 3.4, Leading zero omitted, Abs format*
%FSLAX34Y34*%
G04 APERTURE LIST*
%ADD10C,0.006000*%
%ADD11C,0.015000*%
%ADD12C,0.005000*%
%ADD13C,0.008000*%
%ADD14C,0.010000*%
%ADD15C,0.004500*%
%ADD16C,0.003500*%
G04 APERTURE END LIST*
G54D10*
G54D11*
X51968Y-48425D02*
X51968Y-48622D01*
X64173Y-48425D02*
X64173Y-48622D01*
X61810Y-31890D02*
X61810Y-33071D01*
X60039Y-31890D02*
X60039Y-33071D01*
X52362Y-25197D02*
X52328Y-25199D01*
X52294Y-25203D01*
X52261Y-25211D01*
X52228Y-25221D01*
X52196Y-25234D01*
X52166Y-25250D01*
X52137Y-25269D01*
X52109Y-25290D01*
X52084Y-25313D01*
X52061Y-25338D01*
X52040Y-25366D01*
X52021Y-25395D01*
X52005Y-25425D01*
X51992Y-25457D01*
X51982Y-25490D01*
X51974Y-25523D01*
X51970Y-25557D01*
X51968Y-25591D01*
X64173Y-25591D02*
X64171Y-25557D01*
X64167Y-25523D01*
X64159Y-25490D01*
X64149Y-25457D01*
X64136Y-25425D01*
X64120Y-25395D01*
X64101Y-25366D01*
X64080Y-25338D01*
X64057Y-25313D01*
X64032Y-25290D01*
X64004Y-25269D01*
X63976Y-25250D01*
X63945Y-25234D01*
X63913Y-25221D01*
X63880Y-25211D01*
X63847Y-25203D01*
X63813Y-25199D01*
X63779Y-25197D01*
X63779Y-31890D02*
X63813Y-31888D01*
X63847Y-31884D01*
X63880Y-31876D01*
X63913Y-31866D01*
X63945Y-31853D01*
X63976Y-31837D01*
X64004Y-31818D01*
X64032Y-31797D01*
X64057Y-31774D01*
X64080Y-31749D01*
X64101Y-31721D01*
X64120Y-31692D01*
X64136Y-31662D01*
X64149Y-31630D01*
X64159Y-31597D01*
X64167Y-31564D01*
X64171Y-31530D01*
X64173Y-31496D01*
X51968Y-31496D02*
X51970Y-31530D01*
X51974Y-31564D01*
X51982Y-31597D01*
X51992Y-31630D01*
X52005Y-31662D01*
X52021Y-31692D01*
X52040Y-31721D01*
X52061Y-31749D01*
X52084Y-31774D01*
X52109Y-31797D01*
X52137Y-31818D01*
X52166Y-31837D01*
X52196Y-31853D01*
X52228Y-31866D01*
X52261Y-31876D01*
X52294Y-31884D01*
X52328Y-31888D01*
X52362Y-31890D01*
X52362Y-33071D02*
X52328Y-33073D01*
X52294Y-33077D01*
X52261Y-33085D01*
X52228Y-33095D01*
X52196Y-33108D01*
X52166Y-33124D01*
X52137Y-33143D01*
X52109Y-33164D01*
X52084Y-33187D01*
X52061Y-33212D01*
X52040Y-33240D01*
X52021Y-33269D01*
X52005Y-33299D01*
X51992Y-33331D01*
X51982Y-33364D01*
X51974Y-33397D01*
X51970Y-33431D01*
X51968Y-33465D01*
X64173Y-33465D02*
X64171Y-33431D01*
X64167Y-33397D01*
X64159Y-33364D01*
X64149Y-33331D01*
X64136Y-33299D01*
X64120Y-33269D01*
X64101Y-33240D01*
X64080Y-33212D01*
X64057Y-33187D01*
X64032Y-33164D01*
X64004Y-33143D01*
X63976Y-33124D01*
X63945Y-33108D01*
X63913Y-33095D01*
X63880Y-33085D01*
X63847Y-33077D01*
X63813Y-33073D01*
X63779Y-33071D01*
X63779Y-49016D02*
X63813Y-49014D01*
X63847Y-49010D01*
X63880Y-49002D01*
X63913Y-48992D01*
X63945Y-48979D01*
X63976Y-48963D01*
X64004Y-48944D01*
X64032Y-48923D01*
X64057Y-48900D01*
X64080Y-48875D01*
X64101Y-48847D01*
X64120Y-48818D01*
X64136Y-48788D01*
X64149Y-48756D01*
X64159Y-48723D01*
X64167Y-48690D01*
X64171Y-48656D01*
X64173Y-48622D01*
X51968Y-48622D02*
X51970Y-48656D01*
X51974Y-48690D01*
X51982Y-48723D01*
X51992Y-48756D01*
X52005Y-48788D01*
X52021Y-48818D01*
X52040Y-48847D01*
X52061Y-48875D01*
X52084Y-48900D01*
X52109Y-48923D01*
X52137Y-48944D01*
X52166Y-48963D01*
X52196Y-48979D01*
X52228Y-48992D01*
X52261Y-49002D01*
X52294Y-49010D01*
X52328Y-49014D01*
X52362Y-49016D01*
X64173Y-31496D02*
X64173Y-25591D01*
X52362Y-25197D02*
X63779Y-25197D01*
X51968Y-31496D02*
X51968Y-25591D01*
X61810Y-31890D02*
X63779Y-31890D01*
X60039Y-31890D02*
X52362Y-31890D01*
X61810Y-33071D02*
X63779Y-33071D01*
X52362Y-33071D02*
X60039Y-33071D01*
X51968Y-48425D02*
X51968Y-33465D01*
X64173Y-48425D02*
X64173Y-33465D01*
X52362Y-49016D02*
X63779Y-49016D01*
G54D12*
X57628Y-42603D02*
X57628Y-43303D01*
X57628Y-43303D02*
X58828Y-43303D01*
X58828Y-43303D02*
X58828Y-42603D01*
X58828Y-42603D02*
X57628Y-42603D01*
X59321Y-35383D02*
X60021Y-35383D01*
X60021Y-35383D02*
X60021Y-34183D01*
X60021Y-34183D02*
X59321Y-34183D01*
X59321Y-34183D02*
X59321Y-35383D01*
X58321Y-34333D02*
X58321Y-35233D01*
X58321Y-35233D02*
X58821Y-35233D01*
X58821Y-35233D02*
X58821Y-34333D01*
X58821Y-34333D02*
X58321Y-34333D01*
X55022Y-38931D02*
X55922Y-38931D01*
X55922Y-38931D02*
X55922Y-38431D01*
X55922Y-38431D02*
X55022Y-38431D01*
X55022Y-38431D02*
X55022Y-38931D01*
X61420Y-43734D02*
X62320Y-43734D01*
X62320Y-43734D02*
X62320Y-43234D01*
X62320Y-43234D02*
X61420Y-43234D01*
X61420Y-43234D02*
X61420Y-43734D01*
X63343Y-43234D02*
X62443Y-43234D01*
X62443Y-43234D02*
X62443Y-43734D01*
X62443Y-43734D02*
X63343Y-43734D01*
X63343Y-43734D02*
X63343Y-43234D01*
X59462Y-43167D02*
X59462Y-42267D01*
X59462Y-42267D02*
X58962Y-42267D01*
X58962Y-42267D02*
X58962Y-43167D01*
X58962Y-43167D02*
X59462Y-43167D01*
X57851Y-40852D02*
X56951Y-40852D01*
X56951Y-40852D02*
X56951Y-41352D01*
X56951Y-41352D02*
X57851Y-41352D01*
X57851Y-41352D02*
X57851Y-40852D01*
X57851Y-41561D02*
X56951Y-41561D01*
X56951Y-41561D02*
X56951Y-42061D01*
X56951Y-42061D02*
X57851Y-42061D01*
X57851Y-42061D02*
X57851Y-41561D01*
X58146Y-35234D02*
X58146Y-34334D01*
X58146Y-34334D02*
X57646Y-34334D01*
X57646Y-34334D02*
X57646Y-35234D01*
X57646Y-35234D02*
X58146Y-35234D01*
X61456Y-34533D02*
X60556Y-34533D01*
X60556Y-34533D02*
X60556Y-35033D01*
X60556Y-35033D02*
X61456Y-35033D01*
X61456Y-35033D02*
X61456Y-34533D01*
X57423Y-44285D02*
X58323Y-44285D01*
X58323Y-44285D02*
X58323Y-43785D01*
X58323Y-43785D02*
X57423Y-43785D01*
X57423Y-43785D02*
X57423Y-44285D01*
X56285Y-42306D02*
X56285Y-43206D01*
X56285Y-43206D02*
X56785Y-43206D01*
X56785Y-43206D02*
X56785Y-42306D01*
X56785Y-42306D02*
X56285Y-42306D01*
X57454Y-43206D02*
X57454Y-42306D01*
X57454Y-42306D02*
X56954Y-42306D01*
X56954Y-42306D02*
X56954Y-43206D01*
X56954Y-43206D02*
X57454Y-43206D01*
X58290Y-37593D02*
X59190Y-37593D01*
X59190Y-37593D02*
X59190Y-37093D01*
X59190Y-37093D02*
X58290Y-37093D01*
X58290Y-37093D02*
X58290Y-37593D01*
X62030Y-44974D02*
X62930Y-44974D01*
X62930Y-44974D02*
X62930Y-44474D01*
X62930Y-44474D02*
X62030Y-44474D01*
X62030Y-44474D02*
X62030Y-44974D01*
X62030Y-44364D02*
X62930Y-44364D01*
X62930Y-44364D02*
X62930Y-43864D01*
X62930Y-43864D02*
X62030Y-43864D01*
X62030Y-43864D02*
X62030Y-44364D01*
X58107Y-37093D02*
X57207Y-37093D01*
X57207Y-37093D02*
X57207Y-37593D01*
X57207Y-37593D02*
X58107Y-37593D01*
X58107Y-37593D02*
X58107Y-37093D01*
X59388Y-37120D02*
X59386Y-37139D01*
X59380Y-37158D01*
X59371Y-37175D01*
X59358Y-37190D01*
X59343Y-37202D01*
X59326Y-37212D01*
X59308Y-37217D01*
X59288Y-37219D01*
X59270Y-37218D01*
X59251Y-37212D01*
X59234Y-37203D01*
X59219Y-37191D01*
X59206Y-37176D01*
X59197Y-37159D01*
X59191Y-37140D01*
X59189Y-37121D01*
X59190Y-37102D01*
X59196Y-37084D01*
X59204Y-37066D01*
X59217Y-37051D01*
X59231Y-37038D01*
X59248Y-37029D01*
X59267Y-37023D01*
X59286Y-37021D01*
X59305Y-37022D01*
X59324Y-37027D01*
X59341Y-37036D01*
X59356Y-37048D01*
X59369Y-37063D01*
X59379Y-37080D01*
X59385Y-37098D01*
X59387Y-37118D01*
X59388Y-37120D01*
G54D13*
X58424Y-35591D02*
X57952Y-35591D01*
X57361Y-36102D02*
X57361Y-36338D01*
X57952Y-36849D02*
X58424Y-36849D01*
X59015Y-36102D02*
X59015Y-36338D01*
X52066Y-42953D02*
X52854Y-42953D01*
X52854Y-39764D02*
X52066Y-39764D01*
X52066Y-42953D02*
X52066Y-39764D01*
X53887Y-39764D02*
X54970Y-39764D01*
X54970Y-42953D02*
X53887Y-42953D01*
X55827Y-40439D02*
X55827Y-40139D01*
X55827Y-42589D02*
X55827Y-42239D01*
G54D12*
X52711Y-41839D02*
X53961Y-41589D01*
X53961Y-41589D02*
X53961Y-41089D01*
X53961Y-41089D02*
X52711Y-40839D01*
X53711Y-40089D02*
X52711Y-40214D01*
X52711Y-40214D02*
X52711Y-40464D01*
X52711Y-40464D02*
X53711Y-40589D01*
X53711Y-42589D02*
X52711Y-42464D01*
X52711Y-42464D02*
X52711Y-42214D01*
X52711Y-42214D02*
X53711Y-42089D01*
G54D13*
X54488Y-47480D02*
X53110Y-47480D01*
X53110Y-47480D02*
X53110Y-47165D01*
X53110Y-47165D02*
X54094Y-47165D01*
X54094Y-47165D02*
X54094Y-46693D01*
X54094Y-45119D02*
X54094Y-44647D01*
X54094Y-44647D02*
X53110Y-44647D01*
X53110Y-44647D02*
X53110Y-44332D01*
X53110Y-44332D02*
X54488Y-44332D01*
X56062Y-45119D02*
X56062Y-46693D01*
X63976Y-50630D02*
X63188Y-50630D01*
X59055Y-48229D02*
X58779Y-48229D01*
X58779Y-48229D02*
X58779Y-47717D01*
X58779Y-47717D02*
X58464Y-47717D01*
X58464Y-47717D02*
X58464Y-50630D01*
X58464Y-50630D02*
X63188Y-50630D01*
X63976Y-50630D02*
X63976Y-47717D01*
X63976Y-47717D02*
X63661Y-47717D01*
X63661Y-47717D02*
X63661Y-48229D01*
X63661Y-48229D02*
X63385Y-48229D01*
G54D14*
X58651Y-41435D02*
X58651Y-41759D01*
X58632Y-41797D01*
X58613Y-41816D01*
X58575Y-41835D01*
X58498Y-41835D01*
X58460Y-41816D01*
X58441Y-41797D01*
X58422Y-41759D01*
X58422Y-41435D01*
X58041Y-41435D02*
X58232Y-41435D01*
X58251Y-41625D01*
X58232Y-41606D01*
X58194Y-41587D01*
X58098Y-41587D01*
X58060Y-41606D01*
X58041Y-41625D01*
X58022Y-41663D01*
X58022Y-41759D01*
X58041Y-41797D01*
X58060Y-41816D01*
X58098Y-41835D01*
X58194Y-41835D01*
X58232Y-41816D01*
X58251Y-41797D01*
X59990Y-33581D02*
X59990Y-33905D01*
X59971Y-33943D01*
X59952Y-33962D01*
X59914Y-33981D01*
X59837Y-33981D01*
X59799Y-33962D01*
X59780Y-33943D01*
X59761Y-33905D01*
X59761Y-33581D01*
X59590Y-33619D02*
X59571Y-33600D01*
X59533Y-33581D01*
X59437Y-33581D01*
X59399Y-33600D01*
X59380Y-33619D01*
X59361Y-33657D01*
X59361Y-33695D01*
X59380Y-33752D01*
X59609Y-33981D01*
X59361Y-33981D01*
G54D15*
X58591Y-34207D02*
X58677Y-34207D01*
X58677Y-33927D01*
X58540Y-33954D02*
X58531Y-33941D01*
X58514Y-33927D01*
X58471Y-33927D01*
X58454Y-33941D01*
X58445Y-33954D01*
X58437Y-33981D01*
X58437Y-34007D01*
X58445Y-34047D01*
X58548Y-34207D01*
X58437Y-34207D01*
X55501Y-38322D02*
X55587Y-38322D01*
X55587Y-38042D01*
X55458Y-38042D02*
X55347Y-38042D01*
X55407Y-38149D01*
X55381Y-38149D01*
X55364Y-38162D01*
X55355Y-38176D01*
X55347Y-38202D01*
X55347Y-38269D01*
X55355Y-38296D01*
X55364Y-38309D01*
X55381Y-38322D01*
X55433Y-38322D01*
X55450Y-38309D01*
X55458Y-38296D01*
X61199Y-43647D02*
X61285Y-43647D01*
X61285Y-43367D01*
X61062Y-43461D02*
X61062Y-43647D01*
X61105Y-43354D02*
X61148Y-43554D01*
X61036Y-43554D01*
X62922Y-43125D02*
X63008Y-43125D01*
X63008Y-42845D01*
X62776Y-42845D02*
X62862Y-42845D01*
X62871Y-42979D01*
X62862Y-42965D01*
X62845Y-42952D01*
X62802Y-42952D01*
X62785Y-42965D01*
X62776Y-42979D01*
X62768Y-43005D01*
X62768Y-43072D01*
X62776Y-43099D01*
X62785Y-43112D01*
X62802Y-43125D01*
X62845Y-43125D01*
X62862Y-43112D01*
X62871Y-43099D01*
X59241Y-42121D02*
X59301Y-41988D01*
X59344Y-42121D02*
X59344Y-41841D01*
X59276Y-41841D01*
X59258Y-41855D01*
X59250Y-41868D01*
X59241Y-41895D01*
X59241Y-41935D01*
X59250Y-41961D01*
X59258Y-41975D01*
X59276Y-41988D01*
X59344Y-41988D01*
X59070Y-42121D02*
X59173Y-42121D01*
X59121Y-42121D02*
X59121Y-41841D01*
X59138Y-41881D01*
X59156Y-41908D01*
X59173Y-41921D01*
X56730Y-41215D02*
X56790Y-41082D01*
X56833Y-41215D02*
X56833Y-40935D01*
X56765Y-40935D01*
X56747Y-40949D01*
X56739Y-40962D01*
X56730Y-40989D01*
X56730Y-41029D01*
X56739Y-41055D01*
X56747Y-41069D01*
X56765Y-41082D01*
X56833Y-41082D01*
X56670Y-40935D02*
X56559Y-40935D01*
X56619Y-41042D01*
X56593Y-41042D01*
X56576Y-41055D01*
X56567Y-41069D01*
X56559Y-41095D01*
X56559Y-41162D01*
X56567Y-41189D01*
X56576Y-41202D01*
X56593Y-41215D01*
X56645Y-41215D01*
X56662Y-41202D01*
X56670Y-41189D01*
X56730Y-41924D02*
X56790Y-41791D01*
X56833Y-41924D02*
X56833Y-41644D01*
X56765Y-41644D01*
X56747Y-41658D01*
X56739Y-41671D01*
X56730Y-41698D01*
X56730Y-41738D01*
X56739Y-41764D01*
X56747Y-41778D01*
X56765Y-41791D01*
X56833Y-41791D01*
X56576Y-41738D02*
X56576Y-41924D01*
X56619Y-41631D02*
X56662Y-41831D01*
X56550Y-41831D01*
X57942Y-34181D02*
X57951Y-34194D01*
X57977Y-34207D01*
X57994Y-34207D01*
X58019Y-34194D01*
X58037Y-34167D01*
X58045Y-34141D01*
X58054Y-34087D01*
X58054Y-34047D01*
X58045Y-33994D01*
X58037Y-33967D01*
X58019Y-33941D01*
X57994Y-33927D01*
X57977Y-33927D01*
X57951Y-33941D01*
X57942Y-33954D01*
X57874Y-33954D02*
X57865Y-33941D01*
X57848Y-33927D01*
X57805Y-33927D01*
X57788Y-33941D01*
X57779Y-33954D01*
X57771Y-33981D01*
X57771Y-34007D01*
X57779Y-34047D01*
X57882Y-34207D01*
X57771Y-34207D01*
X61032Y-34398D02*
X61041Y-34411D01*
X61067Y-34424D01*
X61084Y-34424D01*
X61109Y-34411D01*
X61127Y-34384D01*
X61135Y-34358D01*
X61144Y-34304D01*
X61144Y-34264D01*
X61135Y-34211D01*
X61127Y-34184D01*
X61109Y-34158D01*
X61084Y-34144D01*
X61067Y-34144D01*
X61041Y-34158D01*
X61032Y-34171D01*
X60878Y-34144D02*
X60912Y-34144D01*
X60929Y-34158D01*
X60938Y-34171D01*
X60955Y-34211D01*
X60964Y-34264D01*
X60964Y-34371D01*
X60955Y-34398D01*
X60947Y-34411D01*
X60929Y-34424D01*
X60895Y-34424D01*
X60878Y-34411D01*
X60869Y-34398D01*
X60861Y-34371D01*
X60861Y-34304D01*
X60869Y-34278D01*
X60878Y-34264D01*
X60895Y-34251D01*
X60929Y-34251D01*
X60947Y-34264D01*
X60955Y-34278D01*
X60964Y-34304D01*
X57902Y-44674D02*
X57911Y-44687D01*
X57937Y-44700D01*
X57954Y-44700D01*
X57979Y-44687D01*
X57997Y-44660D01*
X58005Y-44634D01*
X58014Y-44580D01*
X58014Y-44540D01*
X58005Y-44487D01*
X57997Y-44460D01*
X57979Y-44434D01*
X57954Y-44420D01*
X57937Y-44420D01*
X57911Y-44434D01*
X57902Y-44447D01*
X57842Y-44420D02*
X57722Y-44420D01*
X57799Y-44700D01*
X56650Y-43543D02*
X56659Y-43556D01*
X56685Y-43569D01*
X56702Y-43569D01*
X56727Y-43556D01*
X56745Y-43529D01*
X56753Y-43503D01*
X56762Y-43449D01*
X56762Y-43409D01*
X56753Y-43356D01*
X56745Y-43329D01*
X56727Y-43303D01*
X56702Y-43289D01*
X56685Y-43289D01*
X56659Y-43303D01*
X56650Y-43316D01*
X56479Y-43569D02*
X56582Y-43569D01*
X56530Y-43569D02*
X56530Y-43289D01*
X56547Y-43329D01*
X56565Y-43356D01*
X56582Y-43369D01*
X56308Y-43569D02*
X56411Y-43569D01*
X56359Y-43569D02*
X56359Y-43289D01*
X56376Y-43329D01*
X56394Y-43356D01*
X56411Y-43369D01*
X57319Y-43571D02*
X57328Y-43584D01*
X57354Y-43597D01*
X57371Y-43597D01*
X57396Y-43584D01*
X57414Y-43557D01*
X57422Y-43531D01*
X57431Y-43477D01*
X57431Y-43437D01*
X57422Y-43384D01*
X57414Y-43357D01*
X57396Y-43331D01*
X57371Y-43317D01*
X57354Y-43317D01*
X57328Y-43331D01*
X57319Y-43344D01*
X57148Y-43597D02*
X57251Y-43597D01*
X57199Y-43597D02*
X57199Y-43317D01*
X57216Y-43357D01*
X57234Y-43384D01*
X57251Y-43397D01*
X57080Y-43344D02*
X57071Y-43331D01*
X57054Y-43317D01*
X57011Y-43317D01*
X56994Y-43331D01*
X56985Y-43344D01*
X56977Y-43371D01*
X56977Y-43397D01*
X56985Y-43437D01*
X57088Y-43597D01*
X56977Y-43597D01*
X58855Y-37962D02*
X58864Y-37975D01*
X58890Y-37988D01*
X58907Y-37988D01*
X58932Y-37975D01*
X58950Y-37948D01*
X58958Y-37922D01*
X58967Y-37868D01*
X58967Y-37828D01*
X58958Y-37775D01*
X58950Y-37748D01*
X58932Y-37722D01*
X58907Y-37708D01*
X58890Y-37708D01*
X58864Y-37722D01*
X58855Y-37735D01*
X58684Y-37988D02*
X58787Y-37988D01*
X58735Y-37988D02*
X58735Y-37708D01*
X58752Y-37748D01*
X58770Y-37775D01*
X58787Y-37788D01*
X58521Y-37708D02*
X58607Y-37708D01*
X58616Y-37842D01*
X58607Y-37828D01*
X58590Y-37815D01*
X58547Y-37815D01*
X58530Y-37828D01*
X58521Y-37842D01*
X58513Y-37868D01*
X58513Y-37935D01*
X58521Y-37962D01*
X58530Y-37975D01*
X58547Y-37988D01*
X58590Y-37988D01*
X58607Y-37975D01*
X58616Y-37962D01*
X63402Y-44792D02*
X63411Y-44805D01*
X63437Y-44818D01*
X63454Y-44818D01*
X63479Y-44805D01*
X63497Y-44778D01*
X63505Y-44752D01*
X63514Y-44698D01*
X63514Y-44658D01*
X63505Y-44605D01*
X63497Y-44578D01*
X63479Y-44552D01*
X63454Y-44538D01*
X63437Y-44538D01*
X63411Y-44552D01*
X63402Y-44565D01*
X63231Y-44818D02*
X63334Y-44818D01*
X63282Y-44818D02*
X63282Y-44538D01*
X63299Y-44578D01*
X63317Y-44605D01*
X63334Y-44618D01*
X63171Y-44538D02*
X63051Y-44538D01*
X63128Y-44818D01*
X63422Y-44201D02*
X63431Y-44214D01*
X63457Y-44227D01*
X63474Y-44227D01*
X63499Y-44214D01*
X63517Y-44187D01*
X63525Y-44161D01*
X63534Y-44107D01*
X63534Y-44067D01*
X63525Y-44014D01*
X63517Y-43987D01*
X63499Y-43961D01*
X63474Y-43947D01*
X63457Y-43947D01*
X63431Y-43961D01*
X63422Y-43974D01*
X63251Y-44227D02*
X63354Y-44227D01*
X63302Y-44227D02*
X63302Y-43947D01*
X63319Y-43987D01*
X63337Y-44014D01*
X63354Y-44027D01*
X63148Y-44067D02*
X63166Y-44054D01*
X63174Y-44041D01*
X63183Y-44014D01*
X63183Y-44001D01*
X63174Y-43974D01*
X63166Y-43961D01*
X63148Y-43947D01*
X63114Y-43947D01*
X63097Y-43961D01*
X63088Y-43974D01*
X63080Y-44001D01*
X63080Y-44014D01*
X63088Y-44041D01*
X63097Y-44054D01*
X63114Y-44067D01*
X63148Y-44067D01*
X63166Y-44081D01*
X63174Y-44094D01*
X63183Y-44121D01*
X63183Y-44174D01*
X63174Y-44201D01*
X63166Y-44214D01*
X63148Y-44227D01*
X63114Y-44227D01*
X63097Y-44214D01*
X63088Y-44201D01*
X63080Y-44174D01*
X63080Y-44121D01*
X63088Y-44094D01*
X63097Y-44081D01*
X63114Y-44067D01*
X57792Y-37961D02*
X57801Y-37974D01*
X57827Y-37987D01*
X57844Y-37987D01*
X57869Y-37974D01*
X57887Y-37947D01*
X57895Y-37921D01*
X57904Y-37867D01*
X57904Y-37827D01*
X57895Y-37774D01*
X57887Y-37747D01*
X57869Y-37721D01*
X57844Y-37707D01*
X57827Y-37707D01*
X57801Y-37721D01*
X57792Y-37734D01*
X57621Y-37987D02*
X57724Y-37987D01*
X57672Y-37987D02*
X57672Y-37707D01*
X57689Y-37747D01*
X57707Y-37774D01*
X57724Y-37787D01*
X57467Y-37707D02*
X57501Y-37707D01*
X57518Y-37721D01*
X57527Y-37734D01*
X57544Y-37774D01*
X57553Y-37827D01*
X57553Y-37934D01*
X57544Y-37961D01*
X57536Y-37974D01*
X57518Y-37987D01*
X57484Y-37987D01*
X57467Y-37974D01*
X57458Y-37961D01*
X57450Y-37934D01*
X57450Y-37867D01*
X57458Y-37841D01*
X57467Y-37827D01*
X57484Y-37814D01*
X57518Y-37814D01*
X57536Y-37827D01*
X57544Y-37841D01*
X57553Y-37867D01*
G54D14*
X59930Y-35982D02*
X59663Y-36382D01*
X59663Y-35982D02*
X59930Y-36382D01*
X59301Y-36382D02*
X59530Y-36382D01*
X59416Y-36382D02*
X59416Y-35982D01*
X59454Y-36039D01*
X59492Y-36077D01*
X59530Y-36096D01*
X54793Y-38797D02*
X54793Y-39121D01*
X54774Y-39159D01*
X54755Y-39178D01*
X54717Y-39197D01*
X54640Y-39197D01*
X54602Y-39178D01*
X54583Y-39159D01*
X54564Y-39121D01*
X54564Y-38797D01*
X54412Y-38797D02*
X54145Y-38797D01*
X54317Y-39197D01*
X56830Y-44532D02*
X56830Y-44132D01*
X56677Y-44132D01*
X56639Y-44151D01*
X56620Y-44170D01*
X56601Y-44208D01*
X56601Y-44265D01*
X56620Y-44303D01*
X56639Y-44322D01*
X56677Y-44341D01*
X56830Y-44341D01*
X56220Y-44532D02*
X56449Y-44532D01*
X56335Y-44532D02*
X56335Y-44132D01*
X56373Y-44189D01*
X56411Y-44227D01*
X56449Y-44246D01*
X57027Y-47295D02*
X56970Y-47314D01*
X56951Y-47333D01*
X56932Y-47372D01*
X56932Y-47429D01*
X56951Y-47467D01*
X56970Y-47486D01*
X57008Y-47505D01*
X57161Y-47505D01*
X57161Y-47105D01*
X57027Y-47105D01*
X56989Y-47124D01*
X56970Y-47143D01*
X56951Y-47181D01*
X56951Y-47219D01*
X56970Y-47257D01*
X56989Y-47276D01*
X57027Y-47295D01*
X57161Y-47295D01*
X56780Y-47391D02*
X56589Y-47391D01*
X56818Y-47505D02*
X56685Y-47105D01*
X56551Y-47505D01*
X56475Y-47105D02*
X56246Y-47105D01*
X56361Y-47505D02*
X56361Y-47105D01*
G54D16*
X52905Y-44731D02*
X52905Y-45112D01*
X53095Y-44922D02*
X52714Y-44922D01*
X52905Y-46779D02*
X52905Y-47160D01*
G54D14*
X63936Y-47465D02*
X63936Y-47065D01*
X63783Y-47065D01*
X63745Y-47084D01*
X63726Y-47103D01*
X63707Y-47141D01*
X63707Y-47198D01*
X63726Y-47236D01*
X63745Y-47255D01*
X63783Y-47274D01*
X63936Y-47274D01*
X63555Y-47103D02*
X63536Y-47084D01*
X63498Y-47065D01*
X63402Y-47065D01*
X63364Y-47084D01*
X63345Y-47103D01*
X63326Y-47141D01*
X63326Y-47179D01*
X63345Y-47236D01*
X63574Y-47465D01*
X63326Y-47465D01*
X59501Y-47445D02*
X59501Y-47045D01*
X59348Y-47045D01*
X59310Y-47064D01*
X59291Y-47083D01*
X59272Y-47121D01*
X59272Y-47178D01*
X59291Y-47216D01*
X59310Y-47235D01*
X59348Y-47254D01*
X59501Y-47254D01*
X59025Y-47045D02*
X58948Y-47045D01*
X58910Y-47064D01*
X58872Y-47102D01*
X58853Y-47178D01*
X58853Y-47312D01*
X58872Y-47388D01*
X58910Y-47426D01*
X58948Y-47445D01*
X59025Y-47445D01*
X59063Y-47426D01*
X59101Y-47388D01*
X59120Y-47312D01*
X59120Y-47178D01*
X59101Y-47102D01*
X59063Y-47064D01*
X59025Y-47045D01*
X58720Y-47045D02*
X58453Y-47445D01*
X58453Y-47045D02*
X58720Y-47445D01*
M02*
