G04 (created by PCBNEW-RS274X (2011-05-25)-stable) date Thu 04 Jul 2013 09:49:36 BST*
G01*
G70*
G90*
%MOIN*%
G04 Gerber Fmt 3.4, Leading zero omitted, Abs format*
%FSLAX34Y34*%
G04 APERTURE LIST*
%ADD10C,0.006000*%
%ADD11C,0.015000*%
%ADD12R,0.040000X0.050000*%
%ADD13R,0.050000X0.040000*%
%ADD14R,0.065000X0.045000*%
%ADD15R,0.045000X0.065000*%
%ADD16R,0.075100X0.067200*%
%ADD17R,0.120000X0.039600*%
%ADD18R,0.118400X0.098700*%
%ADD19R,0.100000X0.037000*%
%ADD20C,0.055400*%
%ADD21R,0.201100X0.059300*%
%ADD22R,0.082900X0.153800*%
%ADD23C,0.067500*%
G04 APERTURE END LIST*
G54D10*
G54D11*
X51968Y-48425D02*
X51968Y-48622D01*
X64173Y-48425D02*
X64173Y-48622D01*
X61810Y-31890D02*
X61810Y-33071D01*
X60039Y-31890D02*
X60039Y-33071D01*
X52362Y-25197D02*
X52328Y-25199D01*
X52294Y-25203D01*
X52261Y-25211D01*
X52228Y-25221D01*
X52196Y-25234D01*
X52166Y-25250D01*
X52137Y-25269D01*
X52109Y-25290D01*
X52084Y-25313D01*
X52061Y-25338D01*
X52040Y-25366D01*
X52021Y-25395D01*
X52005Y-25425D01*
X51992Y-25457D01*
X51982Y-25490D01*
X51974Y-25523D01*
X51970Y-25557D01*
X51968Y-25591D01*
X64173Y-25591D02*
X64171Y-25557D01*
X64167Y-25523D01*
X64159Y-25490D01*
X64149Y-25457D01*
X64136Y-25425D01*
X64120Y-25395D01*
X64101Y-25366D01*
X64080Y-25338D01*
X64057Y-25313D01*
X64032Y-25290D01*
X64004Y-25269D01*
X63976Y-25250D01*
X63945Y-25234D01*
X63913Y-25221D01*
X63880Y-25211D01*
X63847Y-25203D01*
X63813Y-25199D01*
X63779Y-25197D01*
X63779Y-31890D02*
X63813Y-31888D01*
X63847Y-31884D01*
X63880Y-31876D01*
X63913Y-31866D01*
X63945Y-31853D01*
X63976Y-31837D01*
X64004Y-31818D01*
X64032Y-31797D01*
X64057Y-31774D01*
X64080Y-31749D01*
X64101Y-31721D01*
X64120Y-31692D01*
X64136Y-31662D01*
X64149Y-31630D01*
X64159Y-31597D01*
X64167Y-31564D01*
X64171Y-31530D01*
X64173Y-31496D01*
X51968Y-31496D02*
X51970Y-31530D01*
X51974Y-31564D01*
X51982Y-31597D01*
X51992Y-31630D01*
X52005Y-31662D01*
X52021Y-31692D01*
X52040Y-31721D01*
X52061Y-31749D01*
X52084Y-31774D01*
X52109Y-31797D01*
X52137Y-31818D01*
X52166Y-31837D01*
X52196Y-31853D01*
X52228Y-31866D01*
X52261Y-31876D01*
X52294Y-31884D01*
X52328Y-31888D01*
X52362Y-31890D01*
X52362Y-33071D02*
X52328Y-33073D01*
X52294Y-33077D01*
X52261Y-33085D01*
X52228Y-33095D01*
X52196Y-33108D01*
X52166Y-33124D01*
X52137Y-33143D01*
X52109Y-33164D01*
X52084Y-33187D01*
X52061Y-33212D01*
X52040Y-33240D01*
X52021Y-33269D01*
X52005Y-33299D01*
X51992Y-33331D01*
X51982Y-33364D01*
X51974Y-33397D01*
X51970Y-33431D01*
X51968Y-33465D01*
X64173Y-33465D02*
X64171Y-33431D01*
X64167Y-33397D01*
X64159Y-33364D01*
X64149Y-33331D01*
X64136Y-33299D01*
X64120Y-33269D01*
X64101Y-33240D01*
X64080Y-33212D01*
X64057Y-33187D01*
X64032Y-33164D01*
X64004Y-33143D01*
X63976Y-33124D01*
X63945Y-33108D01*
X63913Y-33095D01*
X63880Y-33085D01*
X63847Y-33077D01*
X63813Y-33073D01*
X63779Y-33071D01*
X63779Y-49016D02*
X63813Y-49014D01*
X63847Y-49010D01*
X63880Y-49002D01*
X63913Y-48992D01*
X63945Y-48979D01*
X63976Y-48963D01*
X64004Y-48944D01*
X64032Y-48923D01*
X64057Y-48900D01*
X64080Y-48875D01*
X64101Y-48847D01*
X64120Y-48818D01*
X64136Y-48788D01*
X64149Y-48756D01*
X64159Y-48723D01*
X64167Y-48690D01*
X64171Y-48656D01*
X64173Y-48622D01*
X51968Y-48622D02*
X51970Y-48656D01*
X51974Y-48690D01*
X51982Y-48723D01*
X51992Y-48756D01*
X52005Y-48788D01*
X52021Y-48818D01*
X52040Y-48847D01*
X52061Y-48875D01*
X52084Y-48900D01*
X52109Y-48923D01*
X52137Y-48944D01*
X52166Y-48963D01*
X52196Y-48979D01*
X52228Y-48992D01*
X52261Y-49002D01*
X52294Y-49010D01*
X52328Y-49014D01*
X52362Y-49016D01*
X64173Y-31496D02*
X64173Y-25591D01*
X52362Y-25197D02*
X63779Y-25197D01*
X51968Y-31496D02*
X51968Y-25591D01*
X61810Y-31890D02*
X63779Y-31890D01*
X60039Y-31890D02*
X52362Y-31890D01*
X61810Y-33071D02*
X63779Y-33071D01*
X52362Y-33071D02*
X60039Y-33071D01*
X51968Y-48425D02*
X51968Y-33465D01*
X64173Y-48425D02*
X64173Y-33465D01*
X52362Y-49016D02*
X63779Y-49016D01*
G54D12*
X58603Y-43453D03*
X57853Y-43453D03*
X58603Y-42453D03*
X58228Y-43453D03*
X57853Y-42453D03*
G54D13*
X60171Y-34408D03*
X60171Y-35158D03*
X59171Y-34408D03*
X60171Y-34783D03*
X59171Y-35158D03*
G54D14*
X58571Y-34483D03*
X58571Y-35083D03*
G54D15*
X55172Y-38681D03*
X55772Y-38681D03*
X61570Y-43484D03*
X62170Y-43484D03*
X63193Y-43484D03*
X62593Y-43484D03*
G54D14*
X59212Y-43017D03*
X59212Y-42417D03*
G54D15*
X57701Y-41102D03*
X57101Y-41102D03*
X57701Y-41811D03*
X57101Y-41811D03*
G54D14*
X57896Y-35084D03*
X57896Y-34484D03*
G54D15*
X61306Y-34783D03*
X60706Y-34783D03*
X57573Y-44035D03*
X58173Y-44035D03*
G54D14*
X56535Y-42456D03*
X56535Y-43056D03*
X57204Y-43056D03*
X57204Y-42456D03*
G54D15*
X58440Y-37343D03*
X59040Y-37343D03*
X62180Y-44724D03*
X62780Y-44724D03*
X62180Y-44114D03*
X62780Y-44114D03*
X57957Y-37343D03*
X57357Y-37343D03*
G54D16*
X58779Y-36653D03*
X57597Y-36653D03*
X57597Y-35787D03*
X58779Y-35787D03*
G54D17*
X55551Y-41339D03*
X55551Y-41653D03*
X55551Y-40710D03*
G54D18*
X53346Y-43110D03*
X55511Y-43110D03*
X53346Y-39568D03*
X55511Y-39607D03*
G54D19*
X55527Y-41025D03*
G54D20*
X54652Y-42228D03*
X54652Y-40475D03*
G54D17*
X55551Y-41968D03*
G54D21*
X53425Y-46299D03*
X53425Y-45513D03*
G54D22*
X55471Y-47244D03*
X55471Y-44568D03*
G54D23*
X62007Y-48229D03*
X59645Y-48229D03*
X60433Y-48229D03*
X61219Y-48229D03*
X62794Y-48228D03*
M02*
