G04 (created by PCBNEW-RS274X (2011-05-25)-stable) date Thu 04 Jul 2013 09:49:36 BST*
G01*
G70*
G90*
%MOIN*%
G04 Gerber Fmt 3.4, Leading zero omitted, Abs format*
%FSLAX34Y34*%
G04 APERTURE LIST*
%ADD10C,0.006000*%
%ADD11C,0.015000*%
%ADD12C,0.005000*%
%ADD13C,0.008000*%
%ADD14C,0.002600*%
%ADD15C,0.010000*%
%ADD16C,0.004500*%
G04 APERTURE END LIST*
G54D10*
G54D11*
X53509Y-27933D02*
X53504Y-27976D01*
X53492Y-28017D01*
X53471Y-28055D01*
X53444Y-28089D01*
X53411Y-28117D01*
X53373Y-28137D01*
X53331Y-28150D01*
X53288Y-28154D01*
X53246Y-28151D01*
X53204Y-28138D01*
X53166Y-28118D01*
X53132Y-28091D01*
X53104Y-28058D01*
X53083Y-28020D01*
X53070Y-27979D01*
X53066Y-27936D01*
X53069Y-27893D01*
X53081Y-27852D01*
X53101Y-27813D01*
X53128Y-27779D01*
X53161Y-27751D01*
X53199Y-27730D01*
X53240Y-27717D01*
X53283Y-27712D01*
X53325Y-27715D01*
X53367Y-27727D01*
X53405Y-27746D01*
X53440Y-27773D01*
X53468Y-27806D01*
X53489Y-27843D01*
X53503Y-27884D01*
X53508Y-27927D01*
X53509Y-27933D01*
X51968Y-48425D02*
X51968Y-48622D01*
X64173Y-48425D02*
X64173Y-48622D01*
X61810Y-31890D02*
X61810Y-33071D01*
X60039Y-31890D02*
X60039Y-33071D01*
X52362Y-25197D02*
X52328Y-25199D01*
X52294Y-25203D01*
X52261Y-25211D01*
X52228Y-25221D01*
X52196Y-25234D01*
X52166Y-25250D01*
X52137Y-25269D01*
X52109Y-25290D01*
X52084Y-25313D01*
X52061Y-25338D01*
X52040Y-25366D01*
X52021Y-25395D01*
X52005Y-25425D01*
X51992Y-25457D01*
X51982Y-25490D01*
X51974Y-25523D01*
X51970Y-25557D01*
X51968Y-25591D01*
X64173Y-25591D02*
X64171Y-25557D01*
X64167Y-25523D01*
X64159Y-25490D01*
X64149Y-25457D01*
X64136Y-25425D01*
X64120Y-25395D01*
X64101Y-25366D01*
X64080Y-25338D01*
X64057Y-25313D01*
X64032Y-25290D01*
X64004Y-25269D01*
X63976Y-25250D01*
X63945Y-25234D01*
X63913Y-25221D01*
X63880Y-25211D01*
X63847Y-25203D01*
X63813Y-25199D01*
X63779Y-25197D01*
X63779Y-31890D02*
X63813Y-31888D01*
X63847Y-31884D01*
X63880Y-31876D01*
X63913Y-31866D01*
X63945Y-31853D01*
X63976Y-31837D01*
X64004Y-31818D01*
X64032Y-31797D01*
X64057Y-31774D01*
X64080Y-31749D01*
X64101Y-31721D01*
X64120Y-31692D01*
X64136Y-31662D01*
X64149Y-31630D01*
X64159Y-31597D01*
X64167Y-31564D01*
X64171Y-31530D01*
X64173Y-31496D01*
X51968Y-31496D02*
X51970Y-31530D01*
X51974Y-31564D01*
X51982Y-31597D01*
X51992Y-31630D01*
X52005Y-31662D01*
X52021Y-31692D01*
X52040Y-31721D01*
X52061Y-31749D01*
X52084Y-31774D01*
X52109Y-31797D01*
X52137Y-31818D01*
X52166Y-31837D01*
X52196Y-31853D01*
X52228Y-31866D01*
X52261Y-31876D01*
X52294Y-31884D01*
X52328Y-31888D01*
X52362Y-31890D01*
X52362Y-33071D02*
X52328Y-33073D01*
X52294Y-33077D01*
X52261Y-33085D01*
X52228Y-33095D01*
X52196Y-33108D01*
X52166Y-33124D01*
X52137Y-33143D01*
X52109Y-33164D01*
X52084Y-33187D01*
X52061Y-33212D01*
X52040Y-33240D01*
X52021Y-33269D01*
X52005Y-33299D01*
X51992Y-33331D01*
X51982Y-33364D01*
X51974Y-33397D01*
X51970Y-33431D01*
X51968Y-33465D01*
X64173Y-33465D02*
X64171Y-33431D01*
X64167Y-33397D01*
X64159Y-33364D01*
X64149Y-33331D01*
X64136Y-33299D01*
X64120Y-33269D01*
X64101Y-33240D01*
X64080Y-33212D01*
X64057Y-33187D01*
X64032Y-33164D01*
X64004Y-33143D01*
X63976Y-33124D01*
X63945Y-33108D01*
X63913Y-33095D01*
X63880Y-33085D01*
X63847Y-33077D01*
X63813Y-33073D01*
X63779Y-33071D01*
X63779Y-49016D02*
X63813Y-49014D01*
X63847Y-49010D01*
X63880Y-49002D01*
X63913Y-48992D01*
X63945Y-48979D01*
X63976Y-48963D01*
X64004Y-48944D01*
X64032Y-48923D01*
X64057Y-48900D01*
X64080Y-48875D01*
X64101Y-48847D01*
X64120Y-48818D01*
X64136Y-48788D01*
X64149Y-48756D01*
X64159Y-48723D01*
X64167Y-48690D01*
X64171Y-48656D01*
X64173Y-48622D01*
X51968Y-48622D02*
X51970Y-48656D01*
X51974Y-48690D01*
X51982Y-48723D01*
X51992Y-48756D01*
X52005Y-48788D01*
X52021Y-48818D01*
X52040Y-48847D01*
X52061Y-48875D01*
X52084Y-48900D01*
X52109Y-48923D01*
X52137Y-48944D01*
X52166Y-48963D01*
X52196Y-48979D01*
X52228Y-48992D01*
X52261Y-49002D01*
X52294Y-49010D01*
X52328Y-49014D01*
X52362Y-49016D01*
X64173Y-31496D02*
X64173Y-25591D01*
X52362Y-25197D02*
X63779Y-25197D01*
X51968Y-31496D02*
X51968Y-25591D01*
X61810Y-31890D02*
X63779Y-31890D01*
X60039Y-31890D02*
X52362Y-31890D01*
X61810Y-33071D02*
X63779Y-33071D01*
X52362Y-33071D02*
X60039Y-33071D01*
X51968Y-48425D02*
X51968Y-33465D01*
X64173Y-48425D02*
X64173Y-33465D01*
X52362Y-49016D02*
X63779Y-49016D01*
G54D12*
X55614Y-45817D02*
X56314Y-45817D01*
X56314Y-45817D02*
X56314Y-47017D01*
X56314Y-47017D02*
X55614Y-47017D01*
X55614Y-47017D02*
X55614Y-45817D01*
X59336Y-37497D02*
X59336Y-36597D01*
X59336Y-36597D02*
X59836Y-36597D01*
X59836Y-36597D02*
X59836Y-37497D01*
X59836Y-37497D02*
X59336Y-37497D01*
X59986Y-37497D02*
X59986Y-36597D01*
X59986Y-36597D02*
X60486Y-36597D01*
X60486Y-36597D02*
X60486Y-37497D01*
X60486Y-37497D02*
X59986Y-37497D01*
X54651Y-46867D02*
X54651Y-45967D01*
X54651Y-45967D02*
X55151Y-45967D01*
X55151Y-45967D02*
X55151Y-46867D01*
X55151Y-46867D02*
X54651Y-46867D01*
X58698Y-43596D02*
X57798Y-43596D01*
X57798Y-43596D02*
X57798Y-43096D01*
X57798Y-43096D02*
X58698Y-43096D01*
X58698Y-43096D02*
X58698Y-43596D01*
X56312Y-39452D02*
X56312Y-40352D01*
X56312Y-40352D02*
X55812Y-40352D01*
X55812Y-40352D02*
X55812Y-39452D01*
X55812Y-39452D02*
X56312Y-39452D01*
X56982Y-39786D02*
X56982Y-40686D01*
X56982Y-40686D02*
X56482Y-40686D01*
X56482Y-40686D02*
X56482Y-39786D01*
X56482Y-39786D02*
X56982Y-39786D01*
X54501Y-45967D02*
X54501Y-46867D01*
X54501Y-46867D02*
X54001Y-46867D01*
X54001Y-46867D02*
X54001Y-45967D01*
X54001Y-45967D02*
X54501Y-45967D01*
X56539Y-28324D02*
X55639Y-28324D01*
X55639Y-28324D02*
X55639Y-27824D01*
X55639Y-27824D02*
X56539Y-27824D01*
X56539Y-27824D02*
X56539Y-28324D01*
X57539Y-28324D02*
X56639Y-28324D01*
X56639Y-28324D02*
X56639Y-27824D01*
X56639Y-27824D02*
X57539Y-27824D01*
X57539Y-27824D02*
X57539Y-28324D01*
X58189Y-27824D02*
X59089Y-27824D01*
X59089Y-27824D02*
X59089Y-28324D01*
X59089Y-28324D02*
X58189Y-28324D01*
X58189Y-28324D02*
X58189Y-27824D01*
X60589Y-28324D02*
X59689Y-28324D01*
X59689Y-28324D02*
X59689Y-27824D01*
X59689Y-27824D02*
X60589Y-27824D01*
X60589Y-27824D02*
X60589Y-28324D01*
X60679Y-47650D02*
X60679Y-46750D01*
X60679Y-46750D02*
X61179Y-46750D01*
X61179Y-46750D02*
X61179Y-47650D01*
X61179Y-47650D02*
X60679Y-47650D01*
X57798Y-42407D02*
X58698Y-42407D01*
X58698Y-42407D02*
X58698Y-42907D01*
X58698Y-42907D02*
X57798Y-42907D01*
X57798Y-42907D02*
X57798Y-42407D01*
X58860Y-33844D02*
X59760Y-33844D01*
X59760Y-33844D02*
X59760Y-34344D01*
X59760Y-34344D02*
X58860Y-34344D01*
X58860Y-34344D02*
X58860Y-33844D01*
X58343Y-34325D02*
X57443Y-34325D01*
X57443Y-34325D02*
X57443Y-33825D01*
X57443Y-33825D02*
X58343Y-33825D01*
X58343Y-33825D02*
X58343Y-34325D01*
X57694Y-46667D02*
X56794Y-46667D01*
X56794Y-46667D02*
X56794Y-46167D01*
X56794Y-46167D02*
X57694Y-46167D01*
X57694Y-46167D02*
X57694Y-46667D01*
X56470Y-36774D02*
X56470Y-37674D01*
X56470Y-37674D02*
X55970Y-37674D01*
X55970Y-37674D02*
X55970Y-36774D01*
X55970Y-36774D02*
X56470Y-36774D01*
X53835Y-42533D02*
X52935Y-42533D01*
X52935Y-42533D02*
X52935Y-42033D01*
X52935Y-42033D02*
X53835Y-42033D01*
X53835Y-42033D02*
X53835Y-42533D01*
X58686Y-37497D02*
X58686Y-36597D01*
X58686Y-36597D02*
X59186Y-36597D01*
X59186Y-36597D02*
X59186Y-37497D01*
X59186Y-37497D02*
X58686Y-37497D01*
X60029Y-47650D02*
X60029Y-46750D01*
X60029Y-46750D02*
X60529Y-46750D01*
X60529Y-46750D02*
X60529Y-47650D01*
X60529Y-47650D02*
X60029Y-47650D01*
X62479Y-46750D02*
X62479Y-47650D01*
X62479Y-47650D02*
X61979Y-47650D01*
X61979Y-47650D02*
X61979Y-46750D01*
X61979Y-46750D02*
X62479Y-46750D01*
X61329Y-47650D02*
X61329Y-46750D01*
X61329Y-46750D02*
X61829Y-46750D01*
X61829Y-46750D02*
X61829Y-47650D01*
X61829Y-47650D02*
X61329Y-47650D01*
X59729Y-45450D02*
X59729Y-46350D01*
X59729Y-46350D02*
X59229Y-46350D01*
X59229Y-46350D02*
X59229Y-45450D01*
X59229Y-45450D02*
X59729Y-45450D01*
X63329Y-45600D02*
X63329Y-46500D01*
X63329Y-46500D02*
X62829Y-46500D01*
X62829Y-46500D02*
X62829Y-45600D01*
X62829Y-45600D02*
X63329Y-45600D01*
X62879Y-44350D02*
X62879Y-43450D01*
X62879Y-43450D02*
X63379Y-43450D01*
X63379Y-43450D02*
X63379Y-44350D01*
X63379Y-44350D02*
X62879Y-44350D01*
X59229Y-44150D02*
X59229Y-43250D01*
X59229Y-43250D02*
X59729Y-43250D01*
X59729Y-43250D02*
X59729Y-44150D01*
X59729Y-44150D02*
X59229Y-44150D01*
G54D13*
X62956Y-41338D02*
X62952Y-41369D01*
X62943Y-41399D01*
X62928Y-41427D01*
X62908Y-41452D01*
X62884Y-41472D01*
X62856Y-41487D01*
X62826Y-41496D01*
X62795Y-41499D01*
X62764Y-41497D01*
X62734Y-41488D01*
X62706Y-41473D01*
X62681Y-41453D01*
X62661Y-41429D01*
X62646Y-41401D01*
X62636Y-41371D01*
X62633Y-41340D01*
X62635Y-41309D01*
X62644Y-41279D01*
X62658Y-41251D01*
X62678Y-41226D01*
X62702Y-41205D01*
X62730Y-41190D01*
X62760Y-41180D01*
X62791Y-41177D01*
X62822Y-41179D01*
X62852Y-41187D01*
X62880Y-41202D01*
X62905Y-41221D01*
X62926Y-41245D01*
X62941Y-41273D01*
X62951Y-41303D01*
X62955Y-41334D01*
X62956Y-41338D01*
X62833Y-41338D02*
X62832Y-41345D01*
X62830Y-41352D01*
X62826Y-41359D01*
X62821Y-41365D01*
X62815Y-41370D01*
X62809Y-41373D01*
X62801Y-41376D01*
X62794Y-41376D01*
X62787Y-41376D01*
X62780Y-41374D01*
X62773Y-41370D01*
X62767Y-41365D01*
X62762Y-41360D01*
X62759Y-41353D01*
X62756Y-41346D01*
X62756Y-41338D01*
X62756Y-41331D01*
X62758Y-41324D01*
X62762Y-41317D01*
X62766Y-41311D01*
X62772Y-41306D01*
X62779Y-41303D01*
X62786Y-41300D01*
X62794Y-41300D01*
X62800Y-41300D01*
X62808Y-41302D01*
X62814Y-41306D01*
X62820Y-41310D01*
X62825Y-41316D01*
X62829Y-41323D01*
X62832Y-41330D01*
X62832Y-41337D01*
X62833Y-41338D01*
X62905Y-41338D02*
X62902Y-41359D01*
X62896Y-41380D01*
X62886Y-41399D01*
X62872Y-41416D01*
X62856Y-41430D01*
X62837Y-41440D01*
X62816Y-41446D01*
X62794Y-41448D01*
X62774Y-41447D01*
X62753Y-41440D01*
X62734Y-41430D01*
X62717Y-41417D01*
X62703Y-41400D01*
X62692Y-41381D01*
X62686Y-41361D01*
X62684Y-41339D01*
X62685Y-41318D01*
X62691Y-41298D01*
X62701Y-41278D01*
X62715Y-41261D01*
X62731Y-41247D01*
X62750Y-41237D01*
X62771Y-41230D01*
X62792Y-41228D01*
X62813Y-41229D01*
X62834Y-41235D01*
X62853Y-41245D01*
X62870Y-41258D01*
X62884Y-41275D01*
X62895Y-41293D01*
X62902Y-41314D01*
X62904Y-41335D01*
X62905Y-41338D01*
X62401Y-41181D02*
X59881Y-41181D01*
X59881Y-41181D02*
X59881Y-38425D01*
X59881Y-38425D02*
X62637Y-38425D01*
X62637Y-38425D02*
X62637Y-40945D01*
X62401Y-41181D02*
X62637Y-40945D01*
X60079Y-46053D02*
X60077Y-46066D01*
X60073Y-46079D01*
X60067Y-46091D01*
X60058Y-46102D01*
X60048Y-46111D01*
X60036Y-46117D01*
X60023Y-46121D01*
X60009Y-46122D01*
X59996Y-46121D01*
X59983Y-46117D01*
X59971Y-46111D01*
X59961Y-46103D01*
X59952Y-46092D01*
X59945Y-46080D01*
X59941Y-46067D01*
X59940Y-46053D01*
X59941Y-46041D01*
X59944Y-46028D01*
X59951Y-46016D01*
X59959Y-46005D01*
X59970Y-45996D01*
X59981Y-45989D01*
X59994Y-45985D01*
X60008Y-45984D01*
X60021Y-45985D01*
X60034Y-45988D01*
X60046Y-45994D01*
X60057Y-46003D01*
X60066Y-46013D01*
X60072Y-46025D01*
X60077Y-46038D01*
X60078Y-46052D01*
X60079Y-46053D01*
X60275Y-45984D02*
X60078Y-45787D01*
X62440Y-45787D02*
X62440Y-45984D01*
X62440Y-45984D02*
X62243Y-45984D01*
X62440Y-43819D02*
X62440Y-43622D01*
X62440Y-43622D02*
X62243Y-43622D01*
X60275Y-43622D02*
X60078Y-43622D01*
X60078Y-43622D02*
X60078Y-43819D01*
G54D12*
X57273Y-34133D02*
X57271Y-34152D01*
X57265Y-34171D01*
X57256Y-34188D01*
X57243Y-34203D01*
X57228Y-34215D01*
X57211Y-34225D01*
X57193Y-34230D01*
X57173Y-34232D01*
X57155Y-34231D01*
X57136Y-34225D01*
X57119Y-34216D01*
X57104Y-34204D01*
X57091Y-34189D01*
X57082Y-34172D01*
X57076Y-34153D01*
X57074Y-34134D01*
X57075Y-34115D01*
X57081Y-34097D01*
X57089Y-34079D01*
X57102Y-34064D01*
X57116Y-34051D01*
X57133Y-34042D01*
X57152Y-34036D01*
X57171Y-34034D01*
X57190Y-34035D01*
X57209Y-34040D01*
X57226Y-34049D01*
X57241Y-34061D01*
X57254Y-34076D01*
X57264Y-34093D01*
X57270Y-34111D01*
X57272Y-34131D01*
X57273Y-34133D01*
G54D10*
X58660Y-36417D02*
X58660Y-34449D01*
X58660Y-34449D02*
X57086Y-34449D01*
X57086Y-34449D02*
X57086Y-36417D01*
X57086Y-36417D02*
X58660Y-36417D01*
G54D12*
X52165Y-36614D02*
X53149Y-36614D01*
X53149Y-36614D02*
X53149Y-34646D01*
X53149Y-34646D02*
X52165Y-34646D01*
X52085Y-33858D02*
X55826Y-33858D01*
X55826Y-33858D02*
X55826Y-37402D01*
X55826Y-37402D02*
X52085Y-37402D01*
X52085Y-37402D02*
X52085Y-33858D01*
X52646Y-40499D02*
X52644Y-40518D01*
X52638Y-40537D01*
X52629Y-40554D01*
X52616Y-40569D01*
X52601Y-40581D01*
X52584Y-40591D01*
X52566Y-40596D01*
X52546Y-40598D01*
X52528Y-40597D01*
X52509Y-40591D01*
X52492Y-40582D01*
X52477Y-40570D01*
X52464Y-40555D01*
X52455Y-40538D01*
X52449Y-40519D01*
X52447Y-40500D01*
X52448Y-40481D01*
X52454Y-40463D01*
X52462Y-40445D01*
X52475Y-40430D01*
X52489Y-40417D01*
X52506Y-40408D01*
X52525Y-40402D01*
X52544Y-40400D01*
X52563Y-40401D01*
X52582Y-40406D01*
X52599Y-40415D01*
X52614Y-40427D01*
X52627Y-40442D01*
X52637Y-40459D01*
X52643Y-40477D01*
X52645Y-40497D01*
X52646Y-40499D01*
X52746Y-40724D02*
X52746Y-40774D01*
X53946Y-40724D02*
X53946Y-40774D01*
X52746Y-41874D02*
X52746Y-41824D01*
X53946Y-41874D02*
X53946Y-41824D01*
X53936Y-40709D02*
X52756Y-40709D01*
X52756Y-41889D02*
X53936Y-41889D01*
X56269Y-41939D02*
X55069Y-41939D01*
X56269Y-40739D02*
X55069Y-40739D01*
X55069Y-40739D02*
X55069Y-40839D01*
X56269Y-40739D02*
X56269Y-40839D01*
X56269Y-41939D02*
X56269Y-41839D01*
X55069Y-41939D02*
X55069Y-41839D01*
X56469Y-42139D02*
X56467Y-42158D01*
X56461Y-42177D01*
X56452Y-42194D01*
X56439Y-42209D01*
X56424Y-42221D01*
X56407Y-42231D01*
X56389Y-42236D01*
X56369Y-42238D01*
X56351Y-42237D01*
X56332Y-42231D01*
X56315Y-42222D01*
X56300Y-42210D01*
X56287Y-42195D01*
X56278Y-42178D01*
X56272Y-42159D01*
X56270Y-42140D01*
X56271Y-42121D01*
X56277Y-42103D01*
X56285Y-42085D01*
X56298Y-42070D01*
X56312Y-42057D01*
X56329Y-42048D01*
X56348Y-42042D01*
X56367Y-42040D01*
X56386Y-42041D01*
X56405Y-42046D01*
X56422Y-42055D01*
X56437Y-42067D01*
X56450Y-42082D01*
X56460Y-42099D01*
X56466Y-42117D01*
X56468Y-42137D01*
X56469Y-42139D01*
G54D14*
X54039Y-27274D02*
X54239Y-27274D01*
X54239Y-27274D02*
X54239Y-27074D01*
X54039Y-27074D02*
X54239Y-27074D01*
X54039Y-27274D02*
X54039Y-27074D01*
X54039Y-26274D02*
X54239Y-26274D01*
X54239Y-26274D02*
X54239Y-26074D01*
X54039Y-26074D02*
X54239Y-26074D01*
X54039Y-26274D02*
X54039Y-26074D01*
X55039Y-26274D02*
X55239Y-26274D01*
X55239Y-26274D02*
X55239Y-26074D01*
X55039Y-26074D02*
X55239Y-26074D01*
X55039Y-26274D02*
X55039Y-26074D01*
X55039Y-27274D02*
X55239Y-27274D01*
X55239Y-27274D02*
X55239Y-27074D01*
X55039Y-27074D02*
X55239Y-27074D01*
X55039Y-27274D02*
X55039Y-27074D01*
X56039Y-26274D02*
X56239Y-26274D01*
X56239Y-26274D02*
X56239Y-26074D01*
X56039Y-26074D02*
X56239Y-26074D01*
X56039Y-26274D02*
X56039Y-26074D01*
X56039Y-27274D02*
X56239Y-27274D01*
X56239Y-27274D02*
X56239Y-27074D01*
X56039Y-27074D02*
X56239Y-27074D01*
X56039Y-27274D02*
X56039Y-27074D01*
X57039Y-26274D02*
X57239Y-26274D01*
X57239Y-26274D02*
X57239Y-26074D01*
X57039Y-26074D02*
X57239Y-26074D01*
X57039Y-26274D02*
X57039Y-26074D01*
X58039Y-26274D02*
X58239Y-26274D01*
X58239Y-26274D02*
X58239Y-26074D01*
X58039Y-26074D02*
X58239Y-26074D01*
X58039Y-26274D02*
X58039Y-26074D01*
X59039Y-26274D02*
X59239Y-26274D01*
X59239Y-26274D02*
X59239Y-26074D01*
X59039Y-26074D02*
X59239Y-26074D01*
X59039Y-26274D02*
X59039Y-26074D01*
X57039Y-27274D02*
X57239Y-27274D01*
X57239Y-27274D02*
X57239Y-27074D01*
X57039Y-27074D02*
X57239Y-27074D01*
X57039Y-27274D02*
X57039Y-27074D01*
X58039Y-27274D02*
X58239Y-27274D01*
X58239Y-27274D02*
X58239Y-27074D01*
X58039Y-27074D02*
X58239Y-27074D01*
X58039Y-27274D02*
X58039Y-27074D01*
X59039Y-27274D02*
X59239Y-27274D01*
X59239Y-27274D02*
X59239Y-27074D01*
X59039Y-27074D02*
X59239Y-27074D01*
X59039Y-27274D02*
X59039Y-27074D01*
X60039Y-26274D02*
X60239Y-26274D01*
X60239Y-26274D02*
X60239Y-26074D01*
X60039Y-26074D02*
X60239Y-26074D01*
X60039Y-26274D02*
X60039Y-26074D01*
X60039Y-27274D02*
X60239Y-27274D01*
X60239Y-27274D02*
X60239Y-27074D01*
X60039Y-27074D02*
X60239Y-27074D01*
X60039Y-27274D02*
X60039Y-27074D01*
X61039Y-26274D02*
X61239Y-26274D01*
X61239Y-26274D02*
X61239Y-26074D01*
X61039Y-26074D02*
X61239Y-26074D01*
X61039Y-26274D02*
X61039Y-26074D01*
X61039Y-27274D02*
X61239Y-27274D01*
X61239Y-27274D02*
X61239Y-27074D01*
X61039Y-27074D02*
X61239Y-27074D01*
X61039Y-27274D02*
X61039Y-27074D01*
X62039Y-26274D02*
X62239Y-26274D01*
X62239Y-26274D02*
X62239Y-26074D01*
X62039Y-26074D02*
X62239Y-26074D01*
X62039Y-26274D02*
X62039Y-26074D01*
X62039Y-27274D02*
X62239Y-27274D01*
X62239Y-27274D02*
X62239Y-27074D01*
X62039Y-27074D02*
X62239Y-27074D01*
X62039Y-27274D02*
X62039Y-27074D01*
X63039Y-26274D02*
X63239Y-26274D01*
X63239Y-26274D02*
X63239Y-26074D01*
X63039Y-26074D02*
X63239Y-26074D01*
X63039Y-26274D02*
X63039Y-26074D01*
X63039Y-27274D02*
X63239Y-27274D01*
X63239Y-27274D02*
X63239Y-27074D01*
X63039Y-27074D02*
X63239Y-27074D01*
X63039Y-27274D02*
X63039Y-27074D01*
G54D10*
X53639Y-27424D02*
X53889Y-27674D01*
X54389Y-27674D02*
X54639Y-27424D01*
X54639Y-27424D02*
X54889Y-27674D01*
X55389Y-27674D02*
X55639Y-27424D01*
X55639Y-27424D02*
X55889Y-27674D01*
X56389Y-27674D02*
X56639Y-27424D01*
X56639Y-27424D02*
X56889Y-27674D01*
X57389Y-27674D02*
X57639Y-27424D01*
X57639Y-27424D02*
X57889Y-27674D01*
X58389Y-27674D02*
X58639Y-27424D01*
X58639Y-27424D02*
X58889Y-27674D01*
X59389Y-27674D02*
X59639Y-27424D01*
X53639Y-27424D02*
X53639Y-25924D01*
X53639Y-25924D02*
X53889Y-25674D01*
X53889Y-25674D02*
X54389Y-25674D01*
X54389Y-25674D02*
X54639Y-25924D01*
X54639Y-25924D02*
X54889Y-25674D01*
X54889Y-25674D02*
X55389Y-25674D01*
X55389Y-25674D02*
X55639Y-25924D01*
X55639Y-25924D02*
X55889Y-25674D01*
X55889Y-25674D02*
X56389Y-25674D01*
X56389Y-25674D02*
X56639Y-25924D01*
X56639Y-25924D02*
X56889Y-25674D01*
X56889Y-25674D02*
X57389Y-25674D01*
X57389Y-25674D02*
X57639Y-25924D01*
X57639Y-25924D02*
X57889Y-25674D01*
X57889Y-25674D02*
X58389Y-25674D01*
X58389Y-25674D02*
X58639Y-25924D01*
X58639Y-25924D02*
X58889Y-25674D01*
X58889Y-25674D02*
X59389Y-25674D01*
X59389Y-25674D02*
X59639Y-25924D01*
X59639Y-25924D02*
X59889Y-25674D01*
X59889Y-25674D02*
X60389Y-25674D01*
X60389Y-25674D02*
X60639Y-25924D01*
X60639Y-25924D02*
X60889Y-25674D01*
X60889Y-25674D02*
X61389Y-25674D01*
X61389Y-25674D02*
X61639Y-25924D01*
X61639Y-25924D02*
X61889Y-25674D01*
X61889Y-25674D02*
X62389Y-25674D01*
X62389Y-25674D02*
X62639Y-25924D01*
X62639Y-27424D02*
X62389Y-27674D01*
X61639Y-27424D02*
X61889Y-27674D01*
X61639Y-27424D02*
X61389Y-27674D01*
X60639Y-27424D02*
X60889Y-27674D01*
X60639Y-27424D02*
X60389Y-27674D01*
X59639Y-27424D02*
X59889Y-27674D01*
X54639Y-25924D02*
X54639Y-27424D01*
X55639Y-25924D02*
X55639Y-27424D01*
X56639Y-25924D02*
X56639Y-27424D01*
X57639Y-25924D02*
X57639Y-27424D01*
X58639Y-25924D02*
X58639Y-27424D01*
X59639Y-25924D02*
X59639Y-27424D01*
X60639Y-25924D02*
X60639Y-27424D01*
X61639Y-25924D02*
X61639Y-27424D01*
X62639Y-25924D02*
X62639Y-27424D01*
X61889Y-27674D02*
X62389Y-27674D01*
X60889Y-27674D02*
X61389Y-27674D01*
X59889Y-27674D02*
X60389Y-27674D01*
X58889Y-27674D02*
X59389Y-27674D01*
X57889Y-27674D02*
X58389Y-27674D01*
X56889Y-27674D02*
X57389Y-27674D01*
X55889Y-27674D02*
X56389Y-27674D01*
X54889Y-27674D02*
X55389Y-27674D01*
X53889Y-27674D02*
X54389Y-27674D01*
X62639Y-25924D02*
X62889Y-25674D01*
X62889Y-25674D02*
X63389Y-25674D01*
X63389Y-25674D02*
X63639Y-25924D01*
X63639Y-27424D02*
X63389Y-27674D01*
X62639Y-27424D02*
X62889Y-27674D01*
X63639Y-25924D02*
X63639Y-27424D01*
X62889Y-27674D02*
X63389Y-27674D01*
G54D12*
X56335Y-38872D02*
X55435Y-38872D01*
X55435Y-38872D02*
X55435Y-38372D01*
X55435Y-38372D02*
X56335Y-38372D01*
X56335Y-38372D02*
X56335Y-38872D01*
X54898Y-38203D02*
X53998Y-38203D01*
X53998Y-38203D02*
X53998Y-37703D01*
X53998Y-37703D02*
X54898Y-37703D01*
X54898Y-37703D02*
X54898Y-38203D01*
X55276Y-38373D02*
X55274Y-38392D01*
X55268Y-38411D01*
X55259Y-38428D01*
X55246Y-38443D01*
X55231Y-38455D01*
X55214Y-38465D01*
X55196Y-38470D01*
X55176Y-38472D01*
X55158Y-38471D01*
X55139Y-38465D01*
X55122Y-38456D01*
X55107Y-38444D01*
X55094Y-38429D01*
X55085Y-38412D01*
X55079Y-38393D01*
X55077Y-38374D01*
X55078Y-38355D01*
X55084Y-38337D01*
X55092Y-38319D01*
X55105Y-38304D01*
X55119Y-38291D01*
X55136Y-38282D01*
X55155Y-38276D01*
X55174Y-38274D01*
X55193Y-38275D01*
X55212Y-38280D01*
X55229Y-38289D01*
X55244Y-38301D01*
X55257Y-38316D01*
X55267Y-38333D01*
X55273Y-38351D01*
X55275Y-38371D01*
X55276Y-38373D01*
X53001Y-38573D02*
X53076Y-38573D01*
X53001Y-39773D02*
X53076Y-39773D01*
X54951Y-38573D02*
X54876Y-38573D01*
X54951Y-39773D02*
X54876Y-39773D01*
X52992Y-38583D02*
X52992Y-39763D01*
X54960Y-39763D02*
X54960Y-38583D01*
G54D15*
X55659Y-45234D02*
X55659Y-45558D01*
X55678Y-45596D01*
X55697Y-45615D01*
X55735Y-45634D01*
X55812Y-45634D01*
X55850Y-45615D01*
X55869Y-45596D01*
X55888Y-45558D01*
X55888Y-45234D01*
X56288Y-45634D02*
X56059Y-45634D01*
X56173Y-45634D02*
X56173Y-45234D01*
X56135Y-45291D01*
X56097Y-45329D01*
X56059Y-45348D01*
G54D16*
X59577Y-36471D02*
X59517Y-36338D01*
X59474Y-36471D02*
X59474Y-36191D01*
X59542Y-36191D01*
X59560Y-36205D01*
X59568Y-36218D01*
X59577Y-36245D01*
X59577Y-36285D01*
X59568Y-36311D01*
X59560Y-36325D01*
X59542Y-36338D01*
X59474Y-36338D01*
X59637Y-36191D02*
X59757Y-36191D01*
X59680Y-36471D01*
X60064Y-36471D02*
X60064Y-36191D01*
X60107Y-36191D01*
X60132Y-36205D01*
X60150Y-36231D01*
X60158Y-36258D01*
X60167Y-36311D01*
X60167Y-36351D01*
X60158Y-36405D01*
X60150Y-36431D01*
X60132Y-36458D01*
X60107Y-36471D01*
X60064Y-36471D01*
X60235Y-36218D02*
X60244Y-36205D01*
X60261Y-36191D01*
X60304Y-36191D01*
X60321Y-36205D01*
X60330Y-36218D01*
X60338Y-36245D01*
X60338Y-36271D01*
X60330Y-36311D01*
X60227Y-36471D01*
X60338Y-36471D01*
X60619Y-37082D02*
X60619Y-36802D01*
X60662Y-36802D01*
X60687Y-36816D01*
X60705Y-36842D01*
X60713Y-36869D01*
X60722Y-36922D01*
X60722Y-36962D01*
X60713Y-37016D01*
X60705Y-37042D01*
X60687Y-37069D01*
X60662Y-37082D01*
X60619Y-37082D01*
X60859Y-36936D02*
X60885Y-36949D01*
X60893Y-36962D01*
X60902Y-36989D01*
X60902Y-37029D01*
X60893Y-37056D01*
X60885Y-37069D01*
X60867Y-37082D01*
X60799Y-37082D01*
X60799Y-36802D01*
X60859Y-36802D01*
X60876Y-36816D01*
X60885Y-36829D01*
X60893Y-36856D01*
X60893Y-36882D01*
X60885Y-36909D01*
X60876Y-36922D01*
X60859Y-36936D01*
X60799Y-36936D01*
X61073Y-36816D02*
X61056Y-36802D01*
X61030Y-36802D01*
X61005Y-36816D01*
X60987Y-36842D01*
X60979Y-36869D01*
X60970Y-36922D01*
X60970Y-36962D01*
X60979Y-37016D01*
X60987Y-37042D01*
X61005Y-37069D01*
X61030Y-37082D01*
X61047Y-37082D01*
X61073Y-37069D01*
X61082Y-37056D01*
X61082Y-36962D01*
X61047Y-36962D01*
X54872Y-45861D02*
X54786Y-45861D01*
X54786Y-45581D01*
X55026Y-45861D02*
X54923Y-45861D01*
X54975Y-45861D02*
X54975Y-45581D01*
X54958Y-45621D01*
X54940Y-45648D01*
X54923Y-45661D01*
X58219Y-44011D02*
X58159Y-43878D01*
X58116Y-44011D02*
X58116Y-43731D01*
X58184Y-43731D01*
X58202Y-43745D01*
X58210Y-43758D01*
X58219Y-43785D01*
X58219Y-43825D01*
X58210Y-43851D01*
X58202Y-43865D01*
X58184Y-43878D01*
X58116Y-43878D01*
X58287Y-43758D02*
X58296Y-43745D01*
X58313Y-43731D01*
X58356Y-43731D01*
X58373Y-43745D01*
X58382Y-43758D01*
X58390Y-43785D01*
X58390Y-43811D01*
X58382Y-43851D01*
X58279Y-44011D01*
X58390Y-44011D01*
X56053Y-39345D02*
X55993Y-39212D01*
X55950Y-39345D02*
X55950Y-39065D01*
X56018Y-39065D01*
X56036Y-39079D01*
X56044Y-39092D01*
X56053Y-39119D01*
X56053Y-39159D01*
X56044Y-39185D01*
X56036Y-39199D01*
X56018Y-39212D01*
X55950Y-39212D01*
X56216Y-39065D02*
X56130Y-39065D01*
X56121Y-39199D01*
X56130Y-39185D01*
X56147Y-39172D01*
X56190Y-39172D01*
X56207Y-39185D01*
X56216Y-39199D01*
X56224Y-39225D01*
X56224Y-39292D01*
X56216Y-39319D01*
X56207Y-39332D01*
X56190Y-39345D01*
X56147Y-39345D01*
X56130Y-39332D01*
X56121Y-39319D01*
X56703Y-39680D02*
X56643Y-39547D01*
X56600Y-39680D02*
X56600Y-39400D01*
X56668Y-39400D01*
X56686Y-39414D01*
X56694Y-39427D01*
X56703Y-39454D01*
X56703Y-39494D01*
X56694Y-39520D01*
X56686Y-39534D01*
X56668Y-39547D01*
X56600Y-39547D01*
X56857Y-39400D02*
X56823Y-39400D01*
X56806Y-39414D01*
X56797Y-39427D01*
X56780Y-39467D01*
X56771Y-39520D01*
X56771Y-39627D01*
X56780Y-39654D01*
X56788Y-39667D01*
X56806Y-39680D01*
X56840Y-39680D01*
X56857Y-39667D01*
X56866Y-39654D01*
X56874Y-39627D01*
X56874Y-39560D01*
X56866Y-39534D01*
X56857Y-39520D01*
X56840Y-39507D01*
X56806Y-39507D01*
X56788Y-39520D01*
X56780Y-39534D01*
X56771Y-39560D01*
X54203Y-45835D02*
X54194Y-45848D01*
X54168Y-45861D01*
X54151Y-45861D01*
X54126Y-45848D01*
X54108Y-45821D01*
X54100Y-45795D01*
X54091Y-45741D01*
X54091Y-45701D01*
X54100Y-45648D01*
X54108Y-45621D01*
X54126Y-45595D01*
X54151Y-45581D01*
X54168Y-45581D01*
X54194Y-45595D01*
X54203Y-45608D01*
X54374Y-45861D02*
X54271Y-45861D01*
X54323Y-45861D02*
X54323Y-45581D01*
X54306Y-45621D01*
X54288Y-45648D01*
X54271Y-45661D01*
X55239Y-28676D02*
X55179Y-28543D01*
X55136Y-28676D02*
X55136Y-28396D01*
X55204Y-28396D01*
X55222Y-28410D01*
X55230Y-28423D01*
X55239Y-28450D01*
X55239Y-28490D01*
X55230Y-28516D01*
X55222Y-28530D01*
X55204Y-28543D01*
X55136Y-28543D01*
X55410Y-28676D02*
X55307Y-28676D01*
X55359Y-28676D02*
X55359Y-28396D01*
X55342Y-28436D01*
X55324Y-28463D01*
X55307Y-28476D01*
X55521Y-28396D02*
X55538Y-28396D01*
X55555Y-28410D01*
X55564Y-28423D01*
X55573Y-28450D01*
X55581Y-28503D01*
X55581Y-28570D01*
X55573Y-28623D01*
X55564Y-28650D01*
X55555Y-28663D01*
X55538Y-28676D01*
X55521Y-28676D01*
X55504Y-28663D01*
X55495Y-28650D01*
X55487Y-28623D01*
X55478Y-28570D01*
X55478Y-28503D01*
X55487Y-28450D01*
X55495Y-28423D01*
X55504Y-28410D01*
X55521Y-28396D01*
X57601Y-28696D02*
X57541Y-28563D01*
X57498Y-28696D02*
X57498Y-28416D01*
X57566Y-28416D01*
X57584Y-28430D01*
X57592Y-28443D01*
X57601Y-28470D01*
X57601Y-28510D01*
X57592Y-28536D01*
X57584Y-28550D01*
X57566Y-28563D01*
X57498Y-28563D01*
X57772Y-28696D02*
X57669Y-28696D01*
X57721Y-28696D02*
X57721Y-28416D01*
X57704Y-28456D01*
X57686Y-28483D01*
X57669Y-28496D01*
X57943Y-28696D02*
X57840Y-28696D01*
X57892Y-28696D02*
X57892Y-28416D01*
X57875Y-28456D01*
X57857Y-28483D01*
X57840Y-28496D01*
X58566Y-28696D02*
X58506Y-28563D01*
X58463Y-28696D02*
X58463Y-28416D01*
X58531Y-28416D01*
X58549Y-28430D01*
X58557Y-28443D01*
X58566Y-28470D01*
X58566Y-28510D01*
X58557Y-28536D01*
X58549Y-28550D01*
X58531Y-28563D01*
X58463Y-28563D01*
X58737Y-28696D02*
X58634Y-28696D01*
X58686Y-28696D02*
X58686Y-28416D01*
X58669Y-28456D01*
X58651Y-28483D01*
X58634Y-28496D01*
X58805Y-28443D02*
X58814Y-28430D01*
X58831Y-28416D01*
X58874Y-28416D01*
X58891Y-28430D01*
X58900Y-28443D01*
X58908Y-28470D01*
X58908Y-28496D01*
X58900Y-28536D01*
X58797Y-28696D01*
X58908Y-28696D01*
X60829Y-28223D02*
X60769Y-28090D01*
X60726Y-28223D02*
X60726Y-27943D01*
X60794Y-27943D01*
X60812Y-27957D01*
X60820Y-27970D01*
X60829Y-27997D01*
X60829Y-28037D01*
X60820Y-28063D01*
X60812Y-28077D01*
X60794Y-28090D01*
X60726Y-28090D01*
X61000Y-28223D02*
X60897Y-28223D01*
X60949Y-28223D02*
X60949Y-27943D01*
X60932Y-27983D01*
X60914Y-28010D01*
X60897Y-28023D01*
X61060Y-27943D02*
X61171Y-27943D01*
X61111Y-28050D01*
X61137Y-28050D01*
X61154Y-28063D01*
X61163Y-28077D01*
X61171Y-28103D01*
X61171Y-28170D01*
X61163Y-28197D01*
X61154Y-28210D01*
X61137Y-28223D01*
X61085Y-28223D01*
X61068Y-28210D01*
X61060Y-28197D01*
X60947Y-46648D02*
X60887Y-46515D01*
X60844Y-46648D02*
X60844Y-46368D01*
X60912Y-46368D01*
X60930Y-46382D01*
X60938Y-46395D01*
X60947Y-46422D01*
X60947Y-46462D01*
X60938Y-46488D01*
X60930Y-46502D01*
X60912Y-46515D01*
X60844Y-46515D01*
X61118Y-46648D02*
X61015Y-46648D01*
X61067Y-46648D02*
X61067Y-46368D01*
X61050Y-46408D01*
X61032Y-46435D01*
X61015Y-46448D01*
X61272Y-46462D02*
X61272Y-46648D01*
X61229Y-46355D02*
X61186Y-46555D01*
X61298Y-46555D01*
X57387Y-42790D02*
X57387Y-42510D01*
X57430Y-42510D01*
X57455Y-42524D01*
X57473Y-42550D01*
X57481Y-42577D01*
X57490Y-42630D01*
X57490Y-42670D01*
X57481Y-42724D01*
X57473Y-42750D01*
X57455Y-42777D01*
X57430Y-42790D01*
X57387Y-42790D01*
X57661Y-42790D02*
X57558Y-42790D01*
X57610Y-42790D02*
X57610Y-42510D01*
X57593Y-42550D01*
X57575Y-42577D01*
X57558Y-42590D01*
X58883Y-42644D02*
X58909Y-42657D01*
X58917Y-42670D01*
X58926Y-42697D01*
X58926Y-42737D01*
X58917Y-42764D01*
X58909Y-42777D01*
X58891Y-42790D01*
X58823Y-42790D01*
X58823Y-42510D01*
X58883Y-42510D01*
X58900Y-42524D01*
X58909Y-42537D01*
X58917Y-42564D01*
X58917Y-42590D01*
X58909Y-42617D01*
X58900Y-42630D01*
X58883Y-42644D01*
X58823Y-42644D01*
X58994Y-42710D02*
X59080Y-42710D01*
X58977Y-42790D02*
X59037Y-42510D01*
X59097Y-42790D01*
X59131Y-42510D02*
X59234Y-42510D01*
X59183Y-42790D02*
X59183Y-42510D01*
X59301Y-33709D02*
X59292Y-33722D01*
X59266Y-33735D01*
X59249Y-33735D01*
X59224Y-33722D01*
X59206Y-33695D01*
X59198Y-33669D01*
X59189Y-33615D01*
X59189Y-33575D01*
X59198Y-33522D01*
X59206Y-33495D01*
X59224Y-33469D01*
X59249Y-33455D01*
X59266Y-33455D01*
X59292Y-33469D01*
X59301Y-33482D01*
X59361Y-33455D02*
X59472Y-33455D01*
X59412Y-33562D01*
X59438Y-33562D01*
X59455Y-33575D01*
X59464Y-33589D01*
X59472Y-33615D01*
X59472Y-33682D01*
X59464Y-33709D01*
X59455Y-33722D01*
X59438Y-33735D01*
X59386Y-33735D01*
X59369Y-33722D01*
X59361Y-33709D01*
X57844Y-33689D02*
X57835Y-33702D01*
X57809Y-33715D01*
X57792Y-33715D01*
X57767Y-33702D01*
X57749Y-33675D01*
X57741Y-33649D01*
X57732Y-33595D01*
X57732Y-33555D01*
X57741Y-33502D01*
X57749Y-33475D01*
X57767Y-33449D01*
X57792Y-33435D01*
X57809Y-33435D01*
X57835Y-33449D01*
X57844Y-33462D01*
X57998Y-33529D02*
X57998Y-33715D01*
X57955Y-33422D02*
X57912Y-33622D01*
X58024Y-33622D01*
X57215Y-46032D02*
X57206Y-46045D01*
X57180Y-46058D01*
X57163Y-46058D01*
X57138Y-46045D01*
X57120Y-46018D01*
X57112Y-45992D01*
X57103Y-45938D01*
X57103Y-45898D01*
X57112Y-45845D01*
X57120Y-45818D01*
X57138Y-45792D01*
X57163Y-45778D01*
X57180Y-45778D01*
X57206Y-45792D01*
X57215Y-45805D01*
X57378Y-45778D02*
X57292Y-45778D01*
X57283Y-45912D01*
X57292Y-45898D01*
X57309Y-45885D01*
X57352Y-45885D01*
X57369Y-45898D01*
X57378Y-45912D01*
X57386Y-45938D01*
X57386Y-46005D01*
X57378Y-46032D01*
X57369Y-46045D01*
X57352Y-46058D01*
X57309Y-46058D01*
X57292Y-46045D01*
X57283Y-46032D01*
X56703Y-37311D02*
X56694Y-37324D01*
X56668Y-37337D01*
X56651Y-37337D01*
X56626Y-37324D01*
X56608Y-37297D01*
X56600Y-37271D01*
X56591Y-37217D01*
X56591Y-37177D01*
X56600Y-37124D01*
X56608Y-37097D01*
X56626Y-37071D01*
X56651Y-37057D01*
X56668Y-37057D01*
X56694Y-37071D01*
X56703Y-37084D01*
X56806Y-37177D02*
X56788Y-37164D01*
X56780Y-37151D01*
X56771Y-37124D01*
X56771Y-37111D01*
X56780Y-37084D01*
X56788Y-37071D01*
X56806Y-37057D01*
X56840Y-37057D01*
X56857Y-37071D01*
X56866Y-37084D01*
X56874Y-37111D01*
X56874Y-37124D01*
X56866Y-37151D01*
X56857Y-37164D01*
X56840Y-37177D01*
X56806Y-37177D01*
X56788Y-37191D01*
X56780Y-37204D01*
X56771Y-37231D01*
X56771Y-37284D01*
X56780Y-37311D01*
X56788Y-37324D01*
X56806Y-37337D01*
X56840Y-37337D01*
X56857Y-37324D01*
X56866Y-37311D01*
X56874Y-37284D01*
X56874Y-37231D01*
X56866Y-37204D01*
X56857Y-37191D01*
X56840Y-37177D01*
X53270Y-42882D02*
X53261Y-42895D01*
X53235Y-42908D01*
X53218Y-42908D01*
X53193Y-42895D01*
X53175Y-42868D01*
X53167Y-42842D01*
X53158Y-42788D01*
X53158Y-42748D01*
X53167Y-42695D01*
X53175Y-42668D01*
X53193Y-42642D01*
X53218Y-42628D01*
X53235Y-42628D01*
X53261Y-42642D01*
X53270Y-42655D01*
X53441Y-42908D02*
X53338Y-42908D01*
X53390Y-42908D02*
X53390Y-42628D01*
X53373Y-42668D01*
X53355Y-42695D01*
X53338Y-42708D01*
X53526Y-42908D02*
X53561Y-42908D01*
X53578Y-42895D01*
X53586Y-42882D01*
X53604Y-42842D01*
X53612Y-42788D01*
X53612Y-42682D01*
X53604Y-42655D01*
X53595Y-42642D01*
X53578Y-42628D01*
X53544Y-42628D01*
X53526Y-42642D01*
X53518Y-42655D01*
X53509Y-42682D01*
X53509Y-42748D01*
X53518Y-42775D01*
X53526Y-42788D01*
X53544Y-42802D01*
X53578Y-42802D01*
X53595Y-42788D01*
X53604Y-42775D01*
X53612Y-42748D01*
X58821Y-37902D02*
X58812Y-37915D01*
X58786Y-37928D01*
X58769Y-37928D01*
X58744Y-37915D01*
X58726Y-37888D01*
X58718Y-37862D01*
X58709Y-37808D01*
X58709Y-37768D01*
X58718Y-37715D01*
X58726Y-37688D01*
X58744Y-37662D01*
X58769Y-37648D01*
X58786Y-37648D01*
X58812Y-37662D01*
X58821Y-37675D01*
X58889Y-37675D02*
X58898Y-37662D01*
X58915Y-37648D01*
X58958Y-37648D01*
X58975Y-37662D01*
X58984Y-37675D01*
X58992Y-37702D01*
X58992Y-37728D01*
X58984Y-37768D01*
X58881Y-37928D01*
X58992Y-37928D01*
X59103Y-37648D02*
X59120Y-37648D01*
X59137Y-37662D01*
X59146Y-37675D01*
X59155Y-37702D01*
X59163Y-37755D01*
X59163Y-37822D01*
X59155Y-37875D01*
X59146Y-37902D01*
X59137Y-37915D01*
X59120Y-37928D01*
X59103Y-37928D01*
X59086Y-37915D01*
X59077Y-37902D01*
X59069Y-37875D01*
X59060Y-37822D01*
X59060Y-37755D01*
X59069Y-37702D01*
X59077Y-37675D01*
X59086Y-37662D01*
X59103Y-37648D01*
X59570Y-47292D02*
X59561Y-47305D01*
X59535Y-47318D01*
X59518Y-47318D01*
X59493Y-47305D01*
X59475Y-47278D01*
X59467Y-47252D01*
X59458Y-47198D01*
X59458Y-47158D01*
X59467Y-47105D01*
X59475Y-47078D01*
X59493Y-47052D01*
X59518Y-47038D01*
X59535Y-47038D01*
X59561Y-47052D01*
X59570Y-47065D01*
X59638Y-47065D02*
X59647Y-47052D01*
X59664Y-47038D01*
X59707Y-47038D01*
X59724Y-47052D01*
X59733Y-47065D01*
X59741Y-47092D01*
X59741Y-47118D01*
X59733Y-47158D01*
X59630Y-47318D01*
X59741Y-47318D01*
X59912Y-47318D02*
X59809Y-47318D01*
X59861Y-47318D02*
X59861Y-47038D01*
X59844Y-47078D01*
X59826Y-47105D01*
X59809Y-47118D01*
X62719Y-47292D02*
X62710Y-47305D01*
X62684Y-47318D01*
X62667Y-47318D01*
X62642Y-47305D01*
X62624Y-47278D01*
X62616Y-47252D01*
X62607Y-47198D01*
X62607Y-47158D01*
X62616Y-47105D01*
X62624Y-47078D01*
X62642Y-47052D01*
X62667Y-47038D01*
X62684Y-47038D01*
X62710Y-47052D01*
X62719Y-47065D01*
X62787Y-47065D02*
X62796Y-47052D01*
X62813Y-47038D01*
X62856Y-47038D01*
X62873Y-47052D01*
X62882Y-47065D01*
X62890Y-47092D01*
X62890Y-47118D01*
X62882Y-47158D01*
X62779Y-47318D01*
X62890Y-47318D01*
X62958Y-47065D02*
X62967Y-47052D01*
X62984Y-47038D01*
X63027Y-47038D01*
X63044Y-47052D01*
X63053Y-47065D01*
X63061Y-47092D01*
X63061Y-47118D01*
X63053Y-47158D01*
X62950Y-47318D01*
X63061Y-47318D01*
X61538Y-46622D02*
X61529Y-46635D01*
X61503Y-46648D01*
X61486Y-46648D01*
X61461Y-46635D01*
X61443Y-46608D01*
X61435Y-46582D01*
X61426Y-46528D01*
X61426Y-46488D01*
X61435Y-46435D01*
X61443Y-46408D01*
X61461Y-46382D01*
X61486Y-46368D01*
X61503Y-46368D01*
X61529Y-46382D01*
X61538Y-46395D01*
X61606Y-46395D02*
X61615Y-46382D01*
X61632Y-46368D01*
X61675Y-46368D01*
X61692Y-46382D01*
X61701Y-46395D01*
X61709Y-46422D01*
X61709Y-46448D01*
X61701Y-46488D01*
X61598Y-46648D01*
X61709Y-46648D01*
X61769Y-46368D02*
X61880Y-46368D01*
X61820Y-46475D01*
X61846Y-46475D01*
X61863Y-46488D01*
X61872Y-46502D01*
X61880Y-46528D01*
X61880Y-46595D01*
X61872Y-46622D01*
X61863Y-46635D01*
X61846Y-46648D01*
X61794Y-46648D01*
X61777Y-46635D01*
X61769Y-46622D01*
X59373Y-45323D02*
X59364Y-45336D01*
X59338Y-45349D01*
X59321Y-45349D01*
X59296Y-45336D01*
X59278Y-45309D01*
X59270Y-45283D01*
X59261Y-45229D01*
X59261Y-45189D01*
X59270Y-45136D01*
X59278Y-45109D01*
X59296Y-45083D01*
X59321Y-45069D01*
X59338Y-45069D01*
X59364Y-45083D01*
X59373Y-45096D01*
X59441Y-45096D02*
X59450Y-45083D01*
X59467Y-45069D01*
X59510Y-45069D01*
X59527Y-45083D01*
X59536Y-45096D01*
X59544Y-45123D01*
X59544Y-45149D01*
X59536Y-45189D01*
X59433Y-45349D01*
X59544Y-45349D01*
X59698Y-45163D02*
X59698Y-45349D01*
X59655Y-45056D02*
X59612Y-45256D01*
X59724Y-45256D01*
X62964Y-46887D02*
X62955Y-46900D01*
X62929Y-46913D01*
X62912Y-46913D01*
X62887Y-46900D01*
X62869Y-46873D01*
X62861Y-46847D01*
X62852Y-46793D01*
X62852Y-46753D01*
X62861Y-46700D01*
X62869Y-46673D01*
X62887Y-46647D01*
X62912Y-46633D01*
X62929Y-46633D01*
X62955Y-46647D01*
X62964Y-46660D01*
X63032Y-46660D02*
X63041Y-46647D01*
X63058Y-46633D01*
X63101Y-46633D01*
X63118Y-46647D01*
X63127Y-46660D01*
X63135Y-46687D01*
X63135Y-46713D01*
X63127Y-46753D01*
X63024Y-46913D01*
X63135Y-46913D01*
X63298Y-46633D02*
X63212Y-46633D01*
X63203Y-46767D01*
X63212Y-46753D01*
X63229Y-46740D01*
X63272Y-46740D01*
X63289Y-46753D01*
X63298Y-46767D01*
X63306Y-46793D01*
X63306Y-46860D01*
X63298Y-46887D01*
X63289Y-46900D01*
X63272Y-46913D01*
X63229Y-46913D01*
X63212Y-46900D01*
X63203Y-46887D01*
X63014Y-43287D02*
X63005Y-43300D01*
X62979Y-43313D01*
X62962Y-43313D01*
X62937Y-43300D01*
X62919Y-43273D01*
X62911Y-43247D01*
X62902Y-43193D01*
X62902Y-43153D01*
X62911Y-43100D01*
X62919Y-43073D01*
X62937Y-43047D01*
X62962Y-43033D01*
X62979Y-43033D01*
X63005Y-43047D01*
X63014Y-43060D01*
X63082Y-43060D02*
X63091Y-43047D01*
X63108Y-43033D01*
X63151Y-43033D01*
X63168Y-43047D01*
X63177Y-43060D01*
X63185Y-43087D01*
X63185Y-43113D01*
X63177Y-43153D01*
X63074Y-43313D01*
X63185Y-43313D01*
X63339Y-43033D02*
X63305Y-43033D01*
X63288Y-43047D01*
X63279Y-43060D01*
X63262Y-43100D01*
X63253Y-43153D01*
X63253Y-43260D01*
X63262Y-43287D01*
X63270Y-43300D01*
X63288Y-43313D01*
X63322Y-43313D01*
X63339Y-43300D01*
X63348Y-43287D01*
X63356Y-43260D01*
X63356Y-43193D01*
X63348Y-43167D01*
X63339Y-43153D01*
X63322Y-43140D01*
X63288Y-43140D01*
X63270Y-43153D01*
X63262Y-43167D01*
X63253Y-43193D01*
X59373Y-43118D02*
X59364Y-43131D01*
X59338Y-43144D01*
X59321Y-43144D01*
X59296Y-43131D01*
X59278Y-43104D01*
X59270Y-43078D01*
X59261Y-43024D01*
X59261Y-42984D01*
X59270Y-42931D01*
X59278Y-42904D01*
X59296Y-42878D01*
X59321Y-42864D01*
X59338Y-42864D01*
X59364Y-42878D01*
X59373Y-42891D01*
X59441Y-42891D02*
X59450Y-42878D01*
X59467Y-42864D01*
X59510Y-42864D01*
X59527Y-42878D01*
X59536Y-42891D01*
X59544Y-42918D01*
X59544Y-42944D01*
X59536Y-42984D01*
X59433Y-43144D01*
X59544Y-43144D01*
X59629Y-43144D02*
X59664Y-43144D01*
X59681Y-43131D01*
X59689Y-43118D01*
X59707Y-43078D01*
X59715Y-43024D01*
X59715Y-42918D01*
X59707Y-42891D01*
X59698Y-42878D01*
X59681Y-42864D01*
X59647Y-42864D01*
X59629Y-42878D01*
X59621Y-42891D01*
X59612Y-42918D01*
X59612Y-42984D01*
X59621Y-43011D01*
X59629Y-43024D01*
X59647Y-43038D01*
X59681Y-43038D01*
X59698Y-43024D01*
X59707Y-43011D01*
X59715Y-42984D01*
G54D15*
X60935Y-37183D02*
X60935Y-37507D01*
X60954Y-37545D01*
X60973Y-37564D01*
X61011Y-37583D01*
X61088Y-37583D01*
X61126Y-37564D01*
X61145Y-37545D01*
X61164Y-37507D01*
X61164Y-37183D01*
X61411Y-37354D02*
X61373Y-37335D01*
X61354Y-37316D01*
X61335Y-37278D01*
X61335Y-37259D01*
X61354Y-37221D01*
X61373Y-37202D01*
X61411Y-37183D01*
X61488Y-37183D01*
X61526Y-37202D01*
X61545Y-37221D01*
X61564Y-37259D01*
X61564Y-37278D01*
X61545Y-37316D01*
X61526Y-37335D01*
X61488Y-37354D01*
X61411Y-37354D01*
X61373Y-37373D01*
X61354Y-37392D01*
X61335Y-37431D01*
X61335Y-37507D01*
X61354Y-37545D01*
X61373Y-37564D01*
X61411Y-37583D01*
X61488Y-37583D01*
X61526Y-37564D01*
X61545Y-37545D01*
X61564Y-37507D01*
X61564Y-37431D01*
X61545Y-37392D01*
X61526Y-37373D01*
X61488Y-37354D01*
X60390Y-42774D02*
X60390Y-43098D01*
X60409Y-43136D01*
X60428Y-43155D01*
X60466Y-43174D01*
X60543Y-43174D01*
X60581Y-43155D01*
X60600Y-43136D01*
X60619Y-43098D01*
X60619Y-42774D01*
X61019Y-43174D02*
X60790Y-43174D01*
X60904Y-43174D02*
X60904Y-42774D01*
X60866Y-42831D01*
X60828Y-42869D01*
X60790Y-42888D01*
X61152Y-42774D02*
X61400Y-42774D01*
X61266Y-42926D01*
X61324Y-42926D01*
X61362Y-42945D01*
X61381Y-42964D01*
X61400Y-43002D01*
X61400Y-43098D01*
X61381Y-43136D01*
X61362Y-43155D01*
X61324Y-43174D01*
X61209Y-43174D01*
X61171Y-43155D01*
X61152Y-43136D01*
X57568Y-36573D02*
X57568Y-36897D01*
X57587Y-36935D01*
X57606Y-36954D01*
X57644Y-36973D01*
X57721Y-36973D01*
X57759Y-36954D01*
X57778Y-36935D01*
X57797Y-36897D01*
X57797Y-36573D01*
X57949Y-36573D02*
X58197Y-36573D01*
X58063Y-36725D01*
X58121Y-36725D01*
X58159Y-36744D01*
X58178Y-36763D01*
X58197Y-36801D01*
X58197Y-36897D01*
X58178Y-36935D01*
X58159Y-36954D01*
X58121Y-36973D01*
X58006Y-36973D01*
X57968Y-36954D01*
X57949Y-36935D01*
X52431Y-37597D02*
X52431Y-37921D01*
X52450Y-37959D01*
X52469Y-37978D01*
X52507Y-37997D01*
X52584Y-37997D01*
X52622Y-37978D01*
X52641Y-37959D01*
X52660Y-37921D01*
X52660Y-37597D01*
X53022Y-37730D02*
X53022Y-37997D01*
X52926Y-37578D02*
X52831Y-37864D01*
X53079Y-37864D01*
X52943Y-40175D02*
X52943Y-40499D01*
X52962Y-40537D01*
X52981Y-40556D01*
X53019Y-40575D01*
X53096Y-40575D01*
X53134Y-40556D01*
X53153Y-40537D01*
X53172Y-40499D01*
X53172Y-40175D01*
X53381Y-40575D02*
X53457Y-40575D01*
X53496Y-40556D01*
X53515Y-40537D01*
X53553Y-40480D01*
X53572Y-40403D01*
X53572Y-40251D01*
X53553Y-40213D01*
X53534Y-40194D01*
X53496Y-40175D01*
X53419Y-40175D01*
X53381Y-40194D01*
X53362Y-40213D01*
X53343Y-40251D01*
X53343Y-40346D01*
X53362Y-40384D01*
X53381Y-40403D01*
X53419Y-40423D01*
X53496Y-40423D01*
X53534Y-40403D01*
X53553Y-40384D01*
X53572Y-40346D01*
X55174Y-42124D02*
X55174Y-42448D01*
X55193Y-42486D01*
X55212Y-42505D01*
X55250Y-42524D01*
X55327Y-42524D01*
X55365Y-42505D01*
X55384Y-42486D01*
X55403Y-42448D01*
X55403Y-42124D01*
X55803Y-42524D02*
X55574Y-42524D01*
X55688Y-42524D02*
X55688Y-42124D01*
X55650Y-42181D01*
X55612Y-42219D01*
X55574Y-42238D01*
X56184Y-42524D02*
X55955Y-42524D01*
X56069Y-42524D02*
X56069Y-42124D01*
X56031Y-42181D01*
X55993Y-42219D01*
X55955Y-42238D01*
X62544Y-27936D02*
X62544Y-28260D01*
X62563Y-28298D01*
X62582Y-28317D01*
X62620Y-28336D01*
X62697Y-28336D01*
X62735Y-28317D01*
X62754Y-28298D01*
X62773Y-28260D01*
X62773Y-27936D01*
X63173Y-28336D02*
X62944Y-28336D01*
X63058Y-28336D02*
X63058Y-27936D01*
X63020Y-27993D01*
X62982Y-28031D01*
X62944Y-28050D01*
X63325Y-27974D02*
X63344Y-27955D01*
X63382Y-27936D01*
X63478Y-27936D01*
X63516Y-27955D01*
X63535Y-27974D01*
X63554Y-28012D01*
X63554Y-28050D01*
X63535Y-28107D01*
X63306Y-28336D01*
X63554Y-28336D01*
X53923Y-27936D02*
X53923Y-28222D01*
X53903Y-28279D01*
X53865Y-28317D01*
X53808Y-28336D01*
X53770Y-28336D01*
X54056Y-27936D02*
X54285Y-27936D01*
X54170Y-28336D02*
X54170Y-27936D01*
X54399Y-28222D02*
X54590Y-28222D01*
X54361Y-28336D02*
X54494Y-27936D01*
X54628Y-28336D01*
X54971Y-27955D02*
X54933Y-27936D01*
X54876Y-27936D01*
X54818Y-27955D01*
X54780Y-27993D01*
X54761Y-28031D01*
X54742Y-28107D01*
X54742Y-28164D01*
X54761Y-28241D01*
X54780Y-28279D01*
X54818Y-28317D01*
X54876Y-28336D01*
X54914Y-28336D01*
X54971Y-28317D01*
X54990Y-28298D01*
X54990Y-28164D01*
X54914Y-28164D01*
G54D16*
X55770Y-38256D02*
X55761Y-38269D01*
X55735Y-38282D01*
X55718Y-38282D01*
X55693Y-38269D01*
X55675Y-38242D01*
X55667Y-38216D01*
X55658Y-38162D01*
X55658Y-38122D01*
X55667Y-38069D01*
X55675Y-38042D01*
X55693Y-38016D01*
X55718Y-38002D01*
X55735Y-38002D01*
X55761Y-38016D01*
X55770Y-38029D01*
X55941Y-38282D02*
X55838Y-38282D01*
X55890Y-38282D02*
X55890Y-38002D01*
X55873Y-38042D01*
X55855Y-38069D01*
X55838Y-38082D01*
X56001Y-38002D02*
X56112Y-38002D01*
X56052Y-38109D01*
X56078Y-38109D01*
X56095Y-38122D01*
X56104Y-38136D01*
X56112Y-38162D01*
X56112Y-38229D01*
X56104Y-38256D01*
X56095Y-38269D01*
X56078Y-38282D01*
X56026Y-38282D01*
X56009Y-38269D01*
X56001Y-38256D01*
X53546Y-38040D02*
X53537Y-38053D01*
X53511Y-38066D01*
X53494Y-38066D01*
X53469Y-38053D01*
X53451Y-38026D01*
X53443Y-38000D01*
X53434Y-37946D01*
X53434Y-37906D01*
X53443Y-37853D01*
X53451Y-37826D01*
X53469Y-37800D01*
X53494Y-37786D01*
X53511Y-37786D01*
X53537Y-37800D01*
X53546Y-37813D01*
X53717Y-38066D02*
X53614Y-38066D01*
X53666Y-38066D02*
X53666Y-37786D01*
X53649Y-37826D01*
X53631Y-37853D01*
X53614Y-37866D01*
X53871Y-37880D02*
X53871Y-38066D01*
X53828Y-37773D02*
X53785Y-37973D01*
X53897Y-37973D01*
G54D15*
X52419Y-39629D02*
X52743Y-39629D01*
X52781Y-39610D01*
X52800Y-39591D01*
X52819Y-39553D01*
X52819Y-39476D01*
X52800Y-39438D01*
X52781Y-39419D01*
X52743Y-39400D01*
X52419Y-39400D01*
X52819Y-39000D02*
X52819Y-39229D01*
X52819Y-39115D02*
X52419Y-39115D01*
X52476Y-39153D01*
X52514Y-39191D01*
X52533Y-39229D01*
X52419Y-38753D02*
X52419Y-38714D01*
X52438Y-38676D01*
X52457Y-38657D01*
X52495Y-38638D01*
X52571Y-38619D01*
X52667Y-38619D01*
X52743Y-38638D01*
X52781Y-38657D01*
X52800Y-38676D01*
X52819Y-38714D01*
X52819Y-38753D01*
X52800Y-38791D01*
X52781Y-38810D01*
X52743Y-38829D01*
X52667Y-38848D01*
X52571Y-38848D01*
X52495Y-38829D01*
X52457Y-38810D01*
X52438Y-38791D01*
X52419Y-38753D01*
M02*
