G04 (created by PCBNEW-RS274X (2011-05-25)-stable) date Thu 04 Jul 2013 09:49:35 BST*
G01*
G70*
G90*
%MOIN*%
G04 Gerber Fmt 3.4, Leading zero omitted, Abs format*
%FSLAX34Y34*%
G04 APERTURE LIST*
%ADD10C,0.006000*%
%ADD11C,0.015000*%
%ADD12R,0.030000X0.020000*%
%ADD13R,0.045000X0.025000*%
%ADD14R,0.025000X0.045000*%
%ADD15R,0.055000X0.010500*%
%ADD16R,0.010500X0.055000*%
%ADD17R,0.040000X0.040000*%
%ADD18R,0.011000X0.031000*%
%ADD19R,0.031000X0.011000*%
%ADD20R,0.045300X0.013800*%
%ADD21R,0.023600X0.023600*%
%ADD22R,0.031400X0.015700*%
%ADD23R,0.059000X0.094400*%
%ADD24R,0.032400X0.011800*%
%ADD25C,0.035400*%
%ADD26C,0.074000*%
%ADD27C,0.047500*%
%ADD28R,0.019600X0.059000*%
%ADD29C,0.035000*%
%ADD30C,0.012000*%
%ADD31C,0.008000*%
%ADD32C,0.010000*%
G04 APERTURE END LIST*
G54D10*
G54D11*
X51968Y-48425D02*
X51968Y-48622D01*
X64173Y-48425D02*
X64173Y-48622D01*
X61810Y-31890D02*
X61810Y-33071D01*
X60039Y-31890D02*
X60039Y-33071D01*
X52362Y-25197D02*
X52328Y-25199D01*
X52294Y-25203D01*
X52261Y-25211D01*
X52228Y-25221D01*
X52196Y-25234D01*
X52166Y-25250D01*
X52137Y-25269D01*
X52109Y-25290D01*
X52084Y-25313D01*
X52061Y-25338D01*
X52040Y-25366D01*
X52021Y-25395D01*
X52005Y-25425D01*
X51992Y-25457D01*
X51982Y-25490D01*
X51974Y-25523D01*
X51970Y-25557D01*
X51968Y-25591D01*
X64173Y-25591D02*
X64171Y-25557D01*
X64167Y-25523D01*
X64159Y-25490D01*
X64149Y-25457D01*
X64136Y-25425D01*
X64120Y-25395D01*
X64101Y-25366D01*
X64080Y-25338D01*
X64057Y-25313D01*
X64032Y-25290D01*
X64004Y-25269D01*
X63976Y-25250D01*
X63945Y-25234D01*
X63913Y-25221D01*
X63880Y-25211D01*
X63847Y-25203D01*
X63813Y-25199D01*
X63779Y-25197D01*
X63779Y-31890D02*
X63813Y-31888D01*
X63847Y-31884D01*
X63880Y-31876D01*
X63913Y-31866D01*
X63945Y-31853D01*
X63976Y-31837D01*
X64004Y-31818D01*
X64032Y-31797D01*
X64057Y-31774D01*
X64080Y-31749D01*
X64101Y-31721D01*
X64120Y-31692D01*
X64136Y-31662D01*
X64149Y-31630D01*
X64159Y-31597D01*
X64167Y-31564D01*
X64171Y-31530D01*
X64173Y-31496D01*
X51968Y-31496D02*
X51970Y-31530D01*
X51974Y-31564D01*
X51982Y-31597D01*
X51992Y-31630D01*
X52005Y-31662D01*
X52021Y-31692D01*
X52040Y-31721D01*
X52061Y-31749D01*
X52084Y-31774D01*
X52109Y-31797D01*
X52137Y-31818D01*
X52166Y-31837D01*
X52196Y-31853D01*
X52228Y-31866D01*
X52261Y-31876D01*
X52294Y-31884D01*
X52328Y-31888D01*
X52362Y-31890D01*
X52362Y-33071D02*
X52328Y-33073D01*
X52294Y-33077D01*
X52261Y-33085D01*
X52228Y-33095D01*
X52196Y-33108D01*
X52166Y-33124D01*
X52137Y-33143D01*
X52109Y-33164D01*
X52084Y-33187D01*
X52061Y-33212D01*
X52040Y-33240D01*
X52021Y-33269D01*
X52005Y-33299D01*
X51992Y-33331D01*
X51982Y-33364D01*
X51974Y-33397D01*
X51970Y-33431D01*
X51968Y-33465D01*
X64173Y-33465D02*
X64171Y-33431D01*
X64167Y-33397D01*
X64159Y-33364D01*
X64149Y-33331D01*
X64136Y-33299D01*
X64120Y-33269D01*
X64101Y-33240D01*
X64080Y-33212D01*
X64057Y-33187D01*
X64032Y-33164D01*
X64004Y-33143D01*
X63976Y-33124D01*
X63945Y-33108D01*
X63913Y-33095D01*
X63880Y-33085D01*
X63847Y-33077D01*
X63813Y-33073D01*
X63779Y-33071D01*
X63779Y-49016D02*
X63813Y-49014D01*
X63847Y-49010D01*
X63880Y-49002D01*
X63913Y-48992D01*
X63945Y-48979D01*
X63976Y-48963D01*
X64004Y-48944D01*
X64032Y-48923D01*
X64057Y-48900D01*
X64080Y-48875D01*
X64101Y-48847D01*
X64120Y-48818D01*
X64136Y-48788D01*
X64149Y-48756D01*
X64159Y-48723D01*
X64167Y-48690D01*
X64171Y-48656D01*
X64173Y-48622D01*
X51968Y-48622D02*
X51970Y-48656D01*
X51974Y-48690D01*
X51982Y-48723D01*
X51992Y-48756D01*
X52005Y-48788D01*
X52021Y-48818D01*
X52040Y-48847D01*
X52061Y-48875D01*
X52084Y-48900D01*
X52109Y-48923D01*
X52137Y-48944D01*
X52166Y-48963D01*
X52196Y-48979D01*
X52228Y-48992D01*
X52261Y-49002D01*
X52294Y-49010D01*
X52328Y-49014D01*
X52362Y-49016D01*
X64173Y-31496D02*
X64173Y-25591D01*
X52362Y-25197D02*
X63779Y-25197D01*
X51968Y-31496D02*
X51968Y-25591D01*
X61810Y-31890D02*
X63779Y-31890D01*
X60039Y-31890D02*
X52362Y-31890D01*
X61810Y-33071D02*
X63779Y-33071D01*
X52362Y-33071D02*
X60039Y-33071D01*
X51968Y-48425D02*
X51968Y-33465D01*
X64173Y-48425D02*
X64173Y-33465D01*
X52362Y-49016D02*
X63779Y-49016D01*
G54D12*
X56464Y-46792D03*
X56464Y-46042D03*
X55464Y-46792D03*
X56464Y-46417D03*
X55464Y-46042D03*
G54D13*
X59586Y-37347D03*
X59586Y-36747D03*
X60236Y-37347D03*
X60236Y-36747D03*
X54901Y-46717D03*
X54901Y-46117D03*
G54D14*
X58548Y-43346D03*
X57948Y-43346D03*
G54D13*
X56062Y-39602D03*
X56062Y-40202D03*
X56732Y-39936D03*
X56732Y-40536D03*
X54251Y-46117D03*
X54251Y-46717D03*
G54D14*
X56389Y-28074D03*
X55789Y-28074D03*
X57389Y-28074D03*
X56789Y-28074D03*
X58339Y-28074D03*
X58939Y-28074D03*
X60439Y-28074D03*
X59839Y-28074D03*
G54D13*
X60929Y-47500D03*
X60929Y-46900D03*
G54D14*
X57948Y-42657D03*
X58548Y-42657D03*
X59010Y-34094D03*
X59610Y-34094D03*
X58193Y-34075D03*
X57593Y-34075D03*
X57544Y-46417D03*
X56944Y-46417D03*
G54D13*
X56220Y-36924D03*
X56220Y-37524D03*
G54D14*
X53685Y-42283D03*
X53085Y-42283D03*
G54D13*
X58936Y-37347D03*
X58936Y-36747D03*
X60279Y-47500D03*
X60279Y-46900D03*
X62229Y-46900D03*
X62229Y-47500D03*
X61579Y-47500D03*
X61579Y-46900D03*
X59479Y-45600D03*
X59479Y-46200D03*
X63079Y-45750D03*
X63079Y-46350D03*
X63129Y-44200D03*
X63129Y-43600D03*
X59479Y-44000D03*
X59479Y-43400D03*
G54D15*
X63009Y-40887D03*
G54D16*
X62343Y-38053D03*
G54D15*
X59509Y-38719D03*
G54D16*
X60175Y-41553D03*
G54D15*
X63009Y-40690D03*
G54D16*
X62146Y-38053D03*
G54D15*
X59509Y-38916D03*
G54D16*
X60372Y-41553D03*
G54D15*
X63009Y-40493D03*
G54D16*
X61949Y-38053D03*
G54D15*
X59509Y-39113D03*
G54D16*
X60569Y-41553D03*
G54D15*
X63009Y-40296D03*
G54D16*
X61752Y-38053D03*
G54D15*
X59509Y-39310D03*
G54D16*
X60766Y-41553D03*
G54D15*
X63009Y-40099D03*
G54D16*
X61555Y-38053D03*
G54D15*
X59509Y-39507D03*
G54D16*
X60963Y-41553D03*
G54D15*
X63009Y-39902D03*
G54D16*
X61358Y-38053D03*
G54D15*
X59509Y-39704D03*
G54D16*
X61160Y-41553D03*
G54D15*
X63009Y-39705D03*
G54D16*
X61161Y-38053D03*
G54D15*
X59509Y-39901D03*
G54D16*
X61357Y-41553D03*
G54D15*
X63009Y-39508D03*
G54D16*
X60964Y-38053D03*
G54D15*
X59509Y-40098D03*
G54D16*
X61554Y-41553D03*
G54D15*
X63009Y-39311D03*
G54D16*
X60767Y-38053D03*
G54D15*
X59509Y-40295D03*
G54D16*
X61751Y-41553D03*
G54D15*
X63009Y-39114D03*
G54D16*
X60570Y-38053D03*
G54D15*
X59509Y-40492D03*
G54D16*
X61948Y-41553D03*
G54D15*
X63009Y-38917D03*
G54D16*
X60373Y-38053D03*
G54D15*
X59509Y-40689D03*
G54D16*
X62145Y-41553D03*
G54D15*
X63009Y-38720D03*
G54D16*
X60176Y-38053D03*
G54D15*
X59509Y-40886D03*
G54D16*
X62342Y-41553D03*
G54D17*
X61259Y-44803D03*
X61259Y-44403D03*
X61259Y-45203D03*
X61659Y-45203D03*
X61659Y-44403D03*
X61659Y-44803D03*
G54D18*
X60372Y-45983D03*
G54D19*
X62439Y-45690D03*
G54D18*
X62146Y-43623D03*
G54D19*
X60079Y-43916D03*
G54D18*
X60569Y-45983D03*
G54D19*
X62439Y-45493D03*
G54D18*
X61949Y-43623D03*
G54D19*
X60079Y-44113D03*
G54D18*
X60766Y-45983D03*
G54D19*
X62439Y-45296D03*
G54D18*
X61752Y-43623D03*
G54D19*
X60079Y-44310D03*
G54D18*
X60963Y-45983D03*
G54D19*
X62439Y-45099D03*
G54D18*
X61555Y-43623D03*
G54D19*
X60079Y-44507D03*
G54D18*
X61160Y-45983D03*
G54D19*
X62439Y-44902D03*
G54D18*
X61358Y-43623D03*
G54D19*
X60079Y-44704D03*
G54D18*
X61357Y-45983D03*
G54D19*
X62439Y-44705D03*
G54D18*
X61161Y-43623D03*
G54D19*
X60079Y-44901D03*
G54D18*
X61554Y-45983D03*
G54D19*
X62439Y-44508D03*
G54D18*
X60964Y-43623D03*
G54D19*
X60079Y-45098D03*
G54D18*
X61751Y-45983D03*
G54D19*
X62439Y-44311D03*
G54D18*
X60767Y-43623D03*
G54D19*
X60079Y-45295D03*
G54D18*
X61948Y-45983D03*
G54D19*
X62439Y-44114D03*
G54D18*
X60570Y-43623D03*
G54D19*
X60079Y-45492D03*
G54D18*
X62145Y-45983D03*
G54D19*
X62439Y-43917D03*
G54D18*
X60373Y-43623D03*
G54D19*
X60079Y-45689D03*
G54D17*
X60859Y-44803D03*
X60859Y-44403D03*
X60859Y-45203D03*
G54D20*
X58927Y-36308D03*
X58927Y-36058D03*
X58927Y-35808D03*
X58927Y-35558D03*
X58927Y-35308D03*
X58927Y-35058D03*
X58927Y-34808D03*
X58927Y-34558D03*
X56819Y-34558D03*
X56819Y-34808D03*
X56819Y-35058D03*
X56819Y-35308D03*
X56819Y-35558D03*
X56819Y-35808D03*
X56819Y-36058D03*
X56819Y-36308D03*
G54D21*
X55590Y-36693D03*
X55196Y-36339D03*
X55590Y-35984D03*
X55196Y-35630D03*
X55590Y-35276D03*
X55196Y-34921D03*
X55590Y-34567D03*
X55236Y-34075D03*
X54881Y-34469D03*
X54527Y-34075D03*
X54173Y-34469D03*
X53818Y-34075D03*
X53464Y-34567D03*
X53858Y-34921D03*
X53464Y-35276D03*
X53858Y-35630D03*
X53464Y-35984D03*
X53858Y-36339D03*
X53464Y-36693D03*
X53818Y-37185D03*
X54173Y-36791D03*
X54527Y-37185D03*
X54881Y-36791D03*
X55236Y-37185D03*
X53110Y-37185D03*
X53110Y-34075D03*
X52401Y-37185D03*
X52401Y-34075D03*
G54D22*
X52756Y-40906D03*
X52756Y-41299D03*
X52756Y-41692D03*
X53936Y-41692D03*
X53936Y-41299D03*
X53936Y-40906D03*
G54D23*
X53346Y-41299D03*
G54D24*
X56157Y-41732D03*
X56157Y-41535D03*
X56157Y-41339D03*
X56157Y-41143D03*
X56157Y-40946D03*
X55181Y-40946D03*
X55181Y-41143D03*
X55181Y-41339D03*
X55181Y-41535D03*
X55181Y-41732D03*
G54D25*
X54652Y-42228D03*
X54652Y-40475D03*
G54D26*
X54139Y-27174D03*
X54139Y-26174D03*
X55139Y-27174D03*
X55139Y-26174D03*
X56139Y-27174D03*
X56139Y-26174D03*
X57139Y-27174D03*
X57139Y-26174D03*
X58139Y-27174D03*
X58139Y-26174D03*
X59139Y-27174D03*
X59139Y-26174D03*
X60139Y-27174D03*
X60139Y-26174D03*
X61139Y-27174D03*
X61139Y-26174D03*
X62139Y-27174D03*
X62139Y-26174D03*
X63139Y-27174D03*
X63139Y-26174D03*
G54D27*
X62007Y-48229D03*
X59645Y-48229D03*
X60433Y-48229D03*
X61219Y-48229D03*
X62794Y-48228D03*
G54D14*
X56185Y-38622D03*
X55585Y-38622D03*
X54748Y-37953D03*
X54148Y-37953D03*
G54D28*
X54714Y-38685D03*
X54222Y-38685D03*
X53730Y-38685D03*
X53238Y-38685D03*
X53238Y-39661D03*
X53730Y-39661D03*
X54222Y-39661D03*
X54714Y-39661D03*
G54D29*
X57322Y-34803D03*
X62854Y-38110D03*
X63090Y-41654D03*
X57421Y-45020D03*
X56692Y-45020D03*
X61870Y-37087D03*
X60157Y-35728D03*
X60688Y-40965D03*
X61082Y-38661D03*
X60452Y-39075D03*
X59999Y-43169D03*
X59940Y-29843D03*
X60530Y-28858D03*
X59389Y-28504D03*
X55789Y-28822D03*
X57066Y-28543D03*
X59625Y-44803D03*
X59822Y-41240D03*
X61673Y-42953D03*
X61043Y-42402D03*
X56200Y-34291D03*
X56161Y-36339D03*
X54862Y-35276D03*
X56181Y-34803D03*
X54153Y-42598D03*
X54586Y-41417D03*
X56593Y-29154D03*
X53425Y-44567D03*
X56909Y-37953D03*
X60452Y-33740D03*
X61929Y-35335D03*
X58661Y-44429D03*
X58602Y-33720D03*
X60177Y-38720D03*
X53464Y-37480D03*
X53464Y-33799D03*
X56850Y-36772D03*
X62460Y-38917D03*
X58976Y-46339D03*
X57853Y-28091D03*
X57499Y-29154D03*
X58228Y-42106D03*
X61023Y-40453D03*
X61574Y-40295D03*
X58681Y-39331D03*
X59015Y-38484D03*
X57381Y-40512D03*
X57125Y-44055D03*
X58622Y-43937D03*
X62362Y-40630D03*
X53818Y-40453D03*
X55275Y-40295D03*
X60137Y-39409D03*
X57342Y-39528D03*
X59547Y-38346D03*
X59803Y-37992D03*
X57046Y-29154D03*
X57952Y-29154D03*
X59920Y-28839D03*
X58759Y-39980D03*
X57342Y-40000D03*
X62913Y-45276D03*
X63267Y-45000D03*
X60629Y-46457D03*
X60157Y-46457D03*
X62460Y-39449D03*
X58976Y-45906D03*
X54153Y-35984D03*
X56279Y-35866D03*
G54D30*
X57322Y-34346D02*
X56747Y-34346D01*
X54822Y-33780D02*
X54527Y-34075D01*
X56181Y-33780D02*
X54822Y-33780D01*
X56747Y-34346D02*
X56181Y-33780D01*
X57322Y-34803D02*
X57322Y-34346D01*
X57322Y-34346D02*
X57593Y-34075D01*
X56819Y-34808D02*
X57317Y-34808D01*
X57317Y-34808D02*
X57322Y-34803D01*
X57283Y-34842D02*
X57322Y-34803D01*
X57136Y-36308D02*
X56819Y-36308D01*
X57283Y-36161D02*
X57283Y-34961D01*
X57136Y-36308D02*
X57283Y-36161D01*
X57283Y-34961D02*
X57283Y-34842D01*
X56220Y-37524D02*
X56668Y-37524D01*
X57115Y-36308D02*
X56819Y-36308D01*
X57263Y-36456D02*
X57115Y-36308D01*
X57263Y-36929D02*
X57263Y-36456D01*
X56668Y-37524D02*
X57263Y-36929D01*
X54527Y-37185D02*
X54527Y-37204D01*
X54847Y-37524D02*
X56220Y-37524D01*
X54527Y-37204D02*
X54847Y-37524D01*
X53464Y-35276D02*
X53956Y-35276D01*
X53956Y-35276D02*
X54527Y-34705D01*
X54527Y-34705D02*
X54527Y-34075D01*
X54822Y-41831D02*
X54351Y-41831D01*
X54351Y-41831D02*
X54351Y-41889D01*
X60314Y-31929D02*
X60314Y-31810D01*
X60047Y-33387D02*
X60314Y-33387D01*
X60314Y-32953D02*
X60314Y-31929D01*
X55789Y-28822D02*
X58345Y-31378D01*
X60314Y-33387D02*
X60314Y-32953D01*
X60047Y-33387D02*
X59610Y-33824D01*
X58621Y-31654D02*
X58345Y-31378D01*
X60158Y-31654D02*
X58621Y-31654D01*
X60314Y-31810D02*
X60158Y-31654D01*
X53238Y-39661D02*
X53238Y-39675D01*
X52362Y-44228D02*
X54251Y-46117D01*
X52362Y-40551D02*
X52362Y-44228D01*
X53238Y-39675D02*
X52362Y-40551D01*
X53685Y-42283D02*
X53977Y-42283D01*
X53977Y-42283D02*
X54351Y-41889D01*
X54351Y-41889D02*
X54351Y-41889D01*
X54351Y-41889D02*
X54350Y-41713D01*
X54133Y-41299D02*
X53936Y-41299D01*
X54350Y-41713D02*
X54350Y-41713D01*
X54350Y-41713D02*
X54133Y-41299D01*
X53406Y-39154D02*
X53406Y-39172D01*
X53238Y-39340D02*
X53238Y-39661D01*
X53406Y-39172D02*
X53238Y-39340D01*
X54714Y-38685D02*
X54714Y-38927D01*
X53238Y-38986D02*
X53238Y-38685D01*
X53406Y-39154D02*
X53238Y-38986D01*
X54487Y-39154D02*
X53406Y-39154D01*
X54714Y-38927D02*
X54487Y-39154D01*
X54714Y-38685D02*
X55522Y-38685D01*
X55522Y-38685D02*
X55585Y-38622D01*
X55181Y-41535D02*
X54941Y-41535D01*
X54941Y-41535D02*
X54822Y-41654D01*
X55078Y-42087D02*
X56692Y-42087D01*
X54822Y-41654D02*
X54822Y-41732D01*
X54822Y-41732D02*
X54822Y-41831D01*
X54822Y-41831D02*
X55078Y-42087D01*
X56157Y-41339D02*
X56692Y-41339D01*
X56692Y-45020D02*
X56692Y-45040D01*
X55464Y-45638D02*
X55728Y-45374D01*
X55728Y-45374D02*
X56358Y-45374D01*
X55464Y-45638D02*
X55464Y-46042D01*
X56692Y-45040D02*
X56358Y-45374D01*
X56692Y-45020D02*
X56692Y-42087D01*
X56692Y-42087D02*
X56692Y-41339D01*
X56692Y-41339D02*
X56692Y-40576D01*
X56692Y-40576D02*
X56732Y-40536D01*
X56062Y-40202D02*
X56107Y-40202D01*
X56107Y-40202D02*
X56441Y-40536D01*
X56441Y-40536D02*
X56732Y-40536D01*
X59610Y-34094D02*
X59610Y-33824D01*
X63009Y-40887D02*
X63009Y-41573D01*
X62106Y-37087D02*
X61870Y-37087D01*
X62814Y-37795D02*
X62106Y-37087D01*
X62814Y-38070D02*
X62814Y-37795D01*
X62854Y-38110D02*
X62814Y-38070D01*
X63009Y-41573D02*
X63090Y-41654D01*
X59479Y-42531D02*
X59479Y-43400D01*
X58720Y-41772D02*
X59479Y-42531D01*
X57873Y-41772D02*
X58720Y-41772D01*
X57480Y-42165D02*
X57873Y-41772D01*
X57480Y-44961D02*
X57480Y-42165D01*
X57421Y-45020D02*
X57480Y-44961D01*
X60157Y-35728D02*
X60157Y-35719D01*
X60157Y-35719D02*
X59246Y-34808D01*
X61752Y-38053D02*
X61752Y-37205D01*
X61752Y-37205D02*
X61870Y-37087D01*
X58927Y-34808D02*
X59246Y-34808D01*
X59610Y-34444D02*
X59610Y-34094D01*
X59246Y-34808D02*
X59610Y-34444D01*
X54901Y-46117D02*
X54251Y-46117D01*
X54901Y-46117D02*
X55389Y-46117D01*
X55389Y-46117D02*
X55464Y-46042D01*
X63009Y-40887D02*
X62636Y-40887D01*
X62558Y-40965D02*
X60688Y-40965D01*
X62636Y-40887D02*
X62558Y-40965D01*
X54173Y-34469D02*
X54173Y-34015D01*
X54173Y-34015D02*
X54782Y-33406D01*
X54782Y-33406D02*
X59192Y-33406D01*
X59192Y-33406D02*
X59610Y-33824D01*
X59610Y-33824D02*
X59610Y-34094D01*
X61082Y-38661D02*
X61496Y-38661D01*
X61752Y-38405D02*
X61752Y-38053D01*
X61496Y-38661D02*
X61752Y-38405D01*
X60570Y-38053D02*
X60570Y-38957D01*
X61082Y-38661D02*
X61122Y-38701D01*
X60570Y-38957D02*
X60452Y-39075D01*
X59479Y-43400D02*
X59768Y-43400D01*
X59768Y-43400D02*
X59999Y-43169D01*
X60236Y-37347D02*
X60300Y-37347D01*
X60570Y-37617D02*
X60570Y-38053D01*
X60300Y-37347D02*
X60570Y-37617D01*
X59389Y-28504D02*
X59369Y-28504D01*
X59369Y-28504D02*
X58939Y-28074D01*
X59940Y-29843D02*
X60530Y-29253D01*
X60530Y-29253D02*
X60530Y-28858D01*
X59819Y-28074D02*
X59839Y-28074D01*
X59389Y-28504D02*
X59819Y-28074D01*
X55789Y-28799D02*
X55789Y-28822D01*
X55789Y-28799D02*
X55789Y-28074D01*
X56789Y-28266D02*
X56789Y-28074D01*
X57066Y-28543D02*
X56789Y-28266D01*
X55789Y-28074D02*
X55039Y-28074D01*
X55039Y-28074D02*
X54139Y-27174D01*
X59479Y-43400D02*
X59568Y-43400D01*
X59568Y-43400D02*
X60079Y-43911D01*
X60079Y-43911D02*
X60079Y-43916D01*
G54D31*
X60767Y-38053D02*
X60767Y-40295D01*
X59782Y-45295D02*
X60079Y-45295D01*
X59625Y-45138D02*
X59782Y-45295D01*
X59625Y-44803D02*
X59625Y-45138D01*
X60767Y-40295D02*
X59822Y-41240D01*
X60766Y-41553D02*
X60766Y-42009D01*
X60767Y-42815D02*
X60767Y-43623D01*
X60551Y-42599D02*
X60767Y-42815D01*
X60551Y-42224D02*
X60551Y-42599D01*
X60766Y-42009D02*
X60551Y-42224D01*
X60372Y-41553D02*
X60372Y-41911D01*
X60373Y-42933D02*
X60373Y-43623D01*
X60196Y-42756D02*
X60373Y-42933D01*
X60196Y-42087D02*
X60196Y-42756D01*
X60372Y-41911D02*
X60196Y-42087D01*
X62146Y-43623D02*
X62146Y-43424D01*
X62145Y-42480D02*
X62145Y-41553D01*
X62342Y-42677D02*
X62145Y-42480D01*
X62342Y-43228D02*
X62342Y-42677D01*
X62146Y-43424D02*
X62342Y-43228D01*
X61949Y-43623D02*
X61949Y-43366D01*
X61948Y-42539D02*
X61948Y-41553D01*
X62165Y-42756D02*
X61948Y-42539D01*
X62165Y-43150D02*
X62165Y-42756D01*
X61949Y-43366D02*
X62165Y-43150D01*
X61752Y-43623D02*
X61752Y-43307D01*
X61751Y-42598D02*
X61751Y-41553D01*
X61988Y-42835D02*
X61751Y-42598D01*
X61988Y-43071D02*
X61988Y-42835D01*
X61752Y-43307D02*
X61988Y-43071D01*
X61160Y-41553D02*
X61160Y-42285D01*
X61555Y-43071D02*
X61555Y-43623D01*
X61673Y-42953D02*
X61555Y-43071D01*
X61160Y-42285D02*
X61043Y-42402D01*
X61357Y-41553D02*
X61357Y-42521D01*
X61161Y-42717D02*
X61161Y-43623D01*
X61357Y-42521D02*
X61161Y-42717D01*
X61554Y-41553D02*
X61554Y-42639D01*
X61358Y-42835D02*
X61358Y-43623D01*
X61554Y-42639D02*
X61358Y-42835D01*
X60963Y-41553D02*
X60963Y-42048D01*
X60964Y-42756D02*
X60964Y-43623D01*
X60728Y-42520D02*
X60964Y-42756D01*
X60728Y-42283D02*
X60728Y-42520D01*
X60963Y-42048D02*
X60728Y-42283D01*
X56819Y-36058D02*
X56560Y-36058D01*
X55984Y-34075D02*
X55236Y-34075D01*
X56200Y-34291D02*
X55984Y-34075D01*
X56279Y-36339D02*
X56161Y-36339D01*
X56560Y-36058D02*
X56279Y-36339D01*
X56819Y-35558D02*
X56154Y-35558D01*
X55728Y-35984D02*
X55590Y-35984D01*
X56154Y-35558D02*
X55728Y-35984D01*
X56819Y-35308D02*
X56089Y-35308D01*
X55767Y-35630D02*
X55196Y-35630D01*
X56089Y-35308D02*
X55767Y-35630D01*
X56819Y-34558D02*
X56426Y-34558D01*
X54862Y-35276D02*
X55590Y-35276D01*
X56426Y-34558D02*
X56181Y-34803D01*
X56819Y-35058D02*
X56438Y-35058D01*
X55669Y-34921D02*
X55196Y-34921D01*
X55866Y-35118D02*
X55669Y-34921D01*
X56378Y-35118D02*
X55866Y-35118D01*
X56438Y-35058D02*
X56378Y-35118D01*
G54D30*
X55181Y-41339D02*
X54664Y-41339D01*
X54094Y-42697D02*
X53085Y-43706D01*
X54252Y-42697D02*
X54094Y-42697D01*
X54153Y-42598D02*
X54252Y-42697D01*
X54664Y-41339D02*
X54586Y-41417D01*
X60551Y-31654D02*
X60551Y-31497D01*
X58582Y-31143D02*
X56593Y-29154D01*
X60551Y-33661D02*
X60551Y-33720D01*
X60551Y-33661D02*
X60551Y-31654D01*
X58797Y-31358D02*
X58582Y-31143D01*
X60412Y-31358D02*
X58797Y-31358D01*
X60551Y-31497D02*
X60412Y-31358D01*
X53085Y-42283D02*
X53085Y-43706D01*
X53085Y-43706D02*
X53085Y-44227D01*
X53085Y-44227D02*
X53425Y-44567D01*
X53346Y-41299D02*
X53346Y-42022D01*
X53346Y-42022D02*
X53085Y-42283D01*
X52756Y-41299D02*
X53346Y-41299D01*
X56185Y-38622D02*
X56240Y-38622D01*
X56240Y-38622D02*
X56909Y-37953D01*
X53730Y-38685D02*
X53730Y-37746D01*
X53730Y-37746D02*
X53464Y-37480D01*
X56909Y-37953D02*
X54748Y-37953D01*
X56157Y-41732D02*
X55826Y-41732D01*
X55589Y-41495D02*
X55589Y-41339D01*
X55826Y-41732D02*
X55589Y-41495D01*
X55181Y-41339D02*
X55589Y-41339D01*
X55785Y-41143D02*
X56157Y-41143D01*
X55589Y-41339D02*
X55785Y-41143D01*
X60452Y-33740D02*
X60472Y-33720D01*
X60472Y-33720D02*
X60551Y-33720D01*
X58927Y-36308D02*
X60266Y-36308D01*
X60551Y-34213D02*
X60551Y-33720D01*
X60551Y-36023D02*
X60551Y-34213D01*
X60266Y-36308D02*
X60551Y-36023D01*
X63484Y-40788D02*
X63484Y-36890D01*
X63484Y-36890D02*
X61929Y-35335D01*
X58592Y-44458D02*
X58632Y-44458D01*
X58632Y-44458D02*
X58661Y-44429D01*
X57544Y-46417D02*
X58582Y-46417D01*
X56043Y-47106D02*
X54546Y-47106D01*
X54251Y-46811D02*
X54251Y-46717D01*
X54546Y-47106D02*
X54251Y-46811D01*
X56464Y-46417D02*
X56181Y-46417D01*
X57544Y-46747D02*
X57544Y-46417D01*
X57185Y-47106D02*
X57544Y-46747D01*
X56043Y-47106D02*
X57185Y-47106D01*
X56043Y-46555D02*
X56043Y-47106D01*
X56181Y-46417D02*
X56043Y-46555D01*
X58622Y-33740D02*
X58622Y-34094D01*
X58602Y-33720D02*
X58622Y-33740D01*
X59010Y-34094D02*
X58622Y-34094D01*
X58622Y-34094D02*
X58212Y-34094D01*
X58212Y-34094D02*
X58193Y-34075D01*
X60373Y-38053D02*
X60373Y-38524D01*
X60373Y-38524D02*
X60177Y-38720D01*
X59646Y-47972D02*
X59646Y-48228D01*
X59646Y-47795D02*
X59646Y-47972D01*
X59646Y-48228D02*
X59645Y-48229D01*
X63009Y-40690D02*
X63386Y-40690D01*
X63484Y-43245D02*
X63129Y-43600D01*
X63484Y-40788D02*
X63484Y-43245D01*
X63386Y-40690D02*
X63484Y-40788D01*
X59479Y-44000D02*
X59050Y-44000D01*
X59050Y-44000D02*
X58592Y-44458D01*
X58592Y-44458D02*
X58582Y-44468D01*
X58582Y-44468D02*
X58582Y-46417D01*
X59311Y-47244D02*
X59646Y-47244D01*
X58582Y-46417D02*
X58582Y-46515D01*
X58582Y-46515D02*
X59311Y-47244D01*
X56139Y-26174D02*
X55139Y-26174D01*
X57139Y-26174D02*
X56139Y-26174D01*
X58139Y-26174D02*
X57139Y-26174D01*
X59139Y-26174D02*
X58139Y-26174D01*
X60139Y-26174D02*
X59139Y-26174D01*
X61139Y-26174D02*
X60139Y-26174D01*
X62139Y-26174D02*
X61139Y-26174D01*
X63139Y-26174D02*
X62139Y-26174D01*
X61299Y-47795D02*
X59646Y-47795D01*
X61579Y-47515D02*
X61299Y-47795D01*
X61579Y-47500D02*
X61579Y-47515D01*
X59646Y-47795D02*
X59646Y-47244D01*
X59646Y-47244D02*
X59646Y-47243D01*
X59989Y-46900D02*
X60279Y-46900D01*
X59646Y-47243D02*
X59989Y-46900D01*
X62229Y-47500D02*
X62420Y-47500D01*
X63079Y-46841D02*
X63079Y-46350D01*
X62420Y-47500D02*
X63079Y-46841D01*
X62439Y-45296D02*
X62086Y-45296D01*
X62439Y-44114D02*
X62657Y-44114D01*
X63129Y-43642D02*
X63129Y-43600D01*
X62657Y-44114D02*
X63129Y-43642D01*
X60079Y-44113D02*
X59592Y-44113D01*
X59592Y-44113D02*
X59479Y-44000D01*
X62086Y-44114D02*
X62067Y-44114D01*
X60414Y-44113D02*
X60079Y-44113D01*
X60551Y-43976D02*
X60414Y-44113D01*
X61929Y-43976D02*
X60551Y-43976D01*
X62067Y-44114D02*
X61929Y-43976D01*
X60766Y-45983D02*
X60766Y-45631D01*
X60767Y-45630D02*
X61751Y-45630D01*
X60766Y-45631D02*
X60767Y-45630D01*
X62086Y-44705D02*
X62086Y-44114D01*
X62086Y-44114D02*
X62439Y-44114D01*
X62086Y-45492D02*
X62086Y-45296D01*
X62086Y-45296D02*
X62086Y-44705D01*
X62086Y-44705D02*
X62439Y-44705D01*
X61751Y-45983D02*
X61751Y-45630D01*
X62438Y-45492D02*
X62439Y-45493D01*
X62086Y-45492D02*
X62438Y-45492D01*
X61948Y-45630D02*
X62086Y-45492D01*
X61751Y-45630D02*
X61948Y-45630D01*
X61579Y-47500D02*
X62229Y-47500D01*
X58936Y-36747D02*
X58936Y-36317D01*
X58936Y-36317D02*
X58927Y-36308D01*
X53464Y-34075D02*
X53464Y-33799D01*
X53464Y-37480D02*
X53464Y-37185D01*
X56698Y-36924D02*
X56850Y-36772D01*
X56698Y-36924D02*
X56220Y-36924D01*
X56220Y-36924D02*
X55821Y-36924D01*
X55821Y-36924D02*
X55590Y-36693D01*
X52401Y-37185D02*
X53110Y-37185D01*
X53110Y-37185D02*
X53464Y-37185D01*
X53464Y-37185D02*
X53818Y-37185D01*
X52401Y-34075D02*
X53110Y-34075D01*
X53110Y-34075D02*
X53464Y-34075D01*
X53464Y-34075D02*
X53818Y-34075D01*
X53818Y-34075D02*
X53858Y-34115D01*
X53858Y-34115D02*
X53858Y-34921D01*
X62657Y-38720D02*
X63009Y-38720D01*
X62460Y-38917D02*
X62657Y-38720D01*
X58976Y-46339D02*
X59115Y-46200D01*
X59479Y-46200D02*
X59115Y-46200D01*
X60079Y-45689D02*
X59990Y-45689D01*
X59990Y-45689D02*
X59479Y-46200D01*
X60079Y-44901D02*
X60314Y-44901D01*
X60295Y-45689D02*
X60079Y-45689D01*
X60393Y-45591D02*
X60295Y-45689D01*
X60393Y-44980D02*
X60393Y-45591D01*
X60314Y-44901D02*
X60393Y-44980D01*
G54D31*
X60964Y-31142D02*
X60964Y-30944D01*
X58995Y-30650D02*
X57499Y-29154D01*
X57836Y-28074D02*
X57389Y-28074D01*
X57853Y-28091D02*
X57836Y-28074D01*
X59172Y-30827D02*
X58995Y-30650D01*
X60847Y-30827D02*
X59172Y-30827D01*
X60964Y-30944D02*
X60847Y-30827D01*
X60964Y-36496D02*
X60964Y-34331D01*
X60964Y-36634D02*
X60964Y-36496D01*
X60964Y-38053D02*
X60964Y-36634D01*
X60964Y-33681D02*
X60964Y-31142D01*
X60964Y-31142D02*
X60964Y-31122D01*
X60964Y-34331D02*
X60964Y-33681D01*
X57389Y-28074D02*
X57389Y-27424D01*
X57389Y-27424D02*
X57139Y-27174D01*
X59509Y-40295D02*
X58641Y-40295D01*
X58660Y-35808D02*
X58927Y-35808D01*
X58366Y-36102D02*
X58660Y-35808D01*
X58366Y-40020D02*
X58366Y-36102D01*
X58641Y-40295D02*
X58366Y-40020D01*
X59509Y-40492D02*
X58582Y-40492D01*
X58654Y-35558D02*
X58927Y-35558D01*
X58188Y-36024D02*
X58654Y-35558D01*
X58188Y-40098D02*
X58188Y-36024D01*
X58582Y-40492D02*
X58188Y-40098D01*
G54D30*
X58548Y-42657D02*
X58548Y-42426D01*
X58420Y-42298D02*
X58228Y-42106D01*
X58548Y-42426D02*
X58420Y-42298D01*
X63009Y-39902D02*
X61417Y-39902D01*
X61023Y-40296D02*
X61023Y-40453D01*
X61417Y-39902D02*
X61023Y-40296D01*
G54D31*
X59586Y-36747D02*
X60236Y-36747D01*
X61574Y-40295D02*
X62065Y-40296D01*
X63009Y-40296D02*
X62065Y-40296D01*
X61358Y-33642D02*
X61358Y-30590D01*
X59389Y-30138D02*
X58090Y-28839D01*
X58090Y-28839D02*
X56811Y-28839D01*
X56811Y-28839D02*
X56389Y-28417D01*
X56389Y-28074D02*
X56389Y-28417D01*
X61358Y-34213D02*
X61358Y-33642D01*
X61358Y-34213D02*
X61358Y-36594D01*
X59605Y-30354D02*
X59389Y-30138D01*
X61122Y-30354D02*
X59605Y-30354D01*
X61358Y-30590D02*
X61122Y-30354D01*
X61358Y-36732D02*
X61358Y-38053D01*
X61358Y-36732D02*
X61358Y-36594D01*
X61358Y-36594D02*
X61358Y-36580D01*
X56389Y-28074D02*
X56389Y-27424D01*
X56389Y-27424D02*
X56139Y-27174D01*
X59509Y-39310D02*
X58702Y-39310D01*
X59015Y-38484D02*
X59055Y-38444D01*
X59055Y-38444D02*
X59055Y-37878D01*
X59055Y-37878D02*
X59586Y-37347D01*
X58702Y-39310D02*
X58681Y-39331D01*
G54D30*
X57125Y-40768D02*
X57381Y-40512D01*
X57125Y-40768D02*
X57125Y-44055D01*
X57125Y-44055D02*
X57125Y-44390D01*
X57125Y-44390D02*
X57125Y-45381D01*
X57125Y-45381D02*
X56464Y-46042D01*
X56464Y-46792D02*
X56692Y-46792D01*
X56944Y-46540D02*
X56944Y-46417D01*
X56692Y-46792D02*
X56944Y-46540D01*
X56464Y-46042D02*
X56691Y-46042D01*
X56691Y-46042D02*
X56944Y-46295D01*
X56944Y-46295D02*
X56944Y-46417D01*
X54901Y-46717D02*
X55389Y-46717D01*
X55389Y-46717D02*
X55464Y-46792D01*
G54D31*
X57948Y-43346D02*
X57948Y-42657D01*
X58548Y-43863D02*
X58548Y-43346D01*
X58622Y-43937D02*
X58548Y-43863D01*
X63009Y-40508D02*
X63009Y-40493D01*
X62484Y-40508D02*
X63009Y-40508D01*
X62362Y-40630D02*
X62484Y-40508D01*
X53936Y-40906D02*
X53936Y-40571D01*
X55294Y-40276D02*
X55373Y-40276D01*
X55294Y-40276D02*
X55275Y-40295D01*
X53936Y-40571D02*
X53818Y-40453D01*
X54714Y-39661D02*
X55074Y-39661D01*
X55074Y-39661D02*
X55373Y-39960D01*
X56062Y-39602D02*
X55713Y-39602D01*
X55373Y-40754D02*
X55181Y-40946D01*
X55373Y-39942D02*
X55373Y-39960D01*
X55373Y-39960D02*
X55373Y-40276D01*
X55373Y-40276D02*
X55373Y-40754D01*
X55713Y-39602D02*
X55373Y-39942D01*
X57342Y-39528D02*
X56136Y-39528D01*
X60039Y-39507D02*
X60137Y-39409D01*
X59509Y-39507D02*
X60039Y-39507D01*
X56136Y-39528D02*
X56062Y-39602D01*
X59547Y-38346D02*
X59509Y-38388D01*
X59509Y-38719D02*
X59509Y-38388D01*
X59864Y-38053D02*
X60176Y-38053D01*
X59803Y-37992D02*
X59864Y-38053D01*
X60175Y-41553D02*
X58875Y-41553D01*
X58690Y-34558D02*
X58927Y-34558D01*
X57657Y-35591D02*
X58690Y-34558D01*
X57657Y-40335D02*
X57657Y-35591D01*
X58875Y-41553D02*
X57657Y-40335D01*
X60767Y-31260D02*
X60590Y-31083D01*
X60767Y-36890D02*
X60610Y-37047D01*
X58798Y-30906D02*
X57046Y-29154D01*
X60767Y-35000D02*
X60767Y-33661D01*
X60767Y-33661D02*
X60767Y-31260D01*
X58936Y-37225D02*
X58936Y-37347D01*
X59114Y-37047D02*
X60610Y-37047D01*
X58936Y-37225D02*
X59114Y-37047D01*
X60767Y-35000D02*
X60767Y-36890D01*
X58975Y-31083D02*
X58798Y-30906D01*
X60590Y-31083D02*
X58975Y-31083D01*
X59509Y-38916D02*
X58974Y-38916D01*
X58705Y-37578D02*
X58936Y-37347D01*
X58705Y-38647D02*
X58705Y-37578D01*
X58974Y-38916D02*
X58705Y-38647D01*
X61555Y-33661D02*
X61555Y-30512D01*
X59537Y-29931D02*
X58339Y-28733D01*
X58339Y-28733D02*
X58339Y-28074D01*
X59783Y-30177D02*
X59537Y-29931D01*
X61220Y-30177D02*
X59783Y-30177D01*
X61555Y-30512D02*
X61220Y-30177D01*
X61555Y-36613D02*
X61555Y-33937D01*
X61555Y-33937D02*
X61555Y-33661D01*
X61555Y-33661D02*
X61555Y-33642D01*
X61555Y-36654D02*
X61555Y-38053D01*
X61555Y-36654D02*
X61555Y-36613D01*
X58339Y-28074D02*
X58339Y-27374D01*
X58339Y-27374D02*
X58139Y-27174D01*
X59509Y-40886D02*
X58464Y-40886D01*
X58642Y-35058D02*
X58927Y-35058D01*
X57834Y-35866D02*
X58642Y-35058D01*
X57834Y-40256D02*
X57834Y-35866D01*
X58464Y-40886D02*
X57834Y-40256D01*
X54222Y-38685D02*
X54222Y-38027D01*
X54222Y-38027D02*
X54148Y-37953D01*
X60439Y-28074D02*
X60439Y-27474D01*
X60439Y-27474D02*
X60139Y-27174D01*
X61161Y-30768D02*
X61161Y-30729D01*
X59192Y-30394D02*
X57952Y-29154D01*
X59920Y-28839D02*
X60439Y-28320D01*
X60439Y-28074D02*
X60439Y-28320D01*
X61161Y-33661D02*
X61161Y-30768D01*
X61161Y-36654D02*
X61161Y-38053D01*
X61161Y-36654D02*
X61161Y-36535D01*
X61161Y-34252D02*
X61161Y-33661D01*
X61161Y-36535D02*
X61161Y-34252D01*
X59349Y-30551D02*
X59192Y-30394D01*
X60983Y-30551D02*
X59349Y-30551D01*
X61161Y-30729D02*
X60983Y-30551D01*
X59509Y-39113D02*
X58896Y-39113D01*
X58666Y-36058D02*
X58927Y-36058D01*
X58543Y-36181D02*
X58666Y-36058D01*
X58543Y-38760D02*
X58543Y-36181D01*
X58896Y-39113D02*
X58543Y-38760D01*
X59509Y-40689D02*
X58523Y-40689D01*
X58648Y-35308D02*
X58927Y-35308D01*
X58011Y-35945D02*
X58648Y-35308D01*
X58011Y-40177D02*
X58011Y-35945D01*
X58523Y-40689D02*
X58011Y-40177D01*
X52756Y-40906D02*
X52756Y-40629D01*
X53228Y-40157D02*
X54222Y-40157D01*
X52756Y-40629D02*
X53228Y-40157D01*
X55181Y-41143D02*
X54764Y-41143D01*
X54222Y-40601D02*
X54222Y-40157D01*
X54222Y-40157D02*
X54222Y-39661D01*
X54764Y-41143D02*
X54222Y-40601D01*
X56732Y-39936D02*
X55753Y-39936D01*
X55451Y-41143D02*
X55181Y-41143D01*
X55610Y-40984D02*
X55451Y-41143D01*
X55610Y-40079D02*
X55610Y-40984D01*
X55753Y-39936D02*
X55610Y-40079D01*
X57342Y-40000D02*
X56796Y-40000D01*
X59035Y-39704D02*
X58759Y-39980D01*
X59509Y-39704D02*
X59035Y-39704D01*
X56796Y-40000D02*
X56732Y-39936D01*
X62439Y-45099D02*
X62736Y-45099D01*
X62736Y-45099D02*
X62913Y-45276D01*
X63169Y-44902D02*
X63267Y-45000D01*
X63169Y-44902D02*
X62439Y-44902D01*
X60569Y-46397D02*
X60629Y-46457D01*
X60569Y-45983D02*
X60569Y-46397D01*
X60963Y-45983D02*
X60963Y-46866D01*
X60963Y-46866D02*
X60929Y-46900D01*
X60279Y-47500D02*
X60929Y-47500D01*
X61554Y-45983D02*
X61554Y-46875D01*
X61554Y-46875D02*
X61579Y-46900D01*
X62439Y-44508D02*
X63327Y-44508D01*
X63305Y-45750D02*
X63079Y-45750D01*
X63582Y-45473D02*
X63305Y-45750D01*
X63582Y-44763D02*
X63582Y-45473D01*
X63327Y-44508D02*
X63582Y-44763D01*
X62439Y-44508D02*
X62439Y-44311D01*
X62439Y-44311D02*
X63018Y-44311D01*
X63018Y-44311D02*
X63129Y-44200D01*
X62439Y-45690D02*
X63019Y-45690D01*
X63019Y-45690D02*
X63079Y-45750D01*
X61948Y-45983D02*
X61948Y-46619D01*
X61948Y-46619D02*
X62229Y-46900D01*
X60372Y-45983D02*
X60372Y-46242D01*
X60372Y-46242D02*
X60157Y-46457D01*
G54D30*
X62598Y-39311D02*
X63009Y-39311D01*
X62460Y-39449D02*
X62598Y-39311D01*
X59282Y-45600D02*
X59479Y-45600D01*
X58976Y-45906D02*
X59282Y-45600D01*
X59479Y-45600D02*
X59479Y-45543D01*
X59469Y-44310D02*
X60079Y-44310D01*
X59271Y-44508D02*
X59469Y-44310D01*
X59271Y-45335D02*
X59271Y-44508D01*
X59479Y-45543D02*
X59271Y-45335D01*
X60079Y-45492D02*
X59587Y-45492D01*
X59587Y-45492D02*
X59479Y-45600D01*
G54D31*
X62342Y-41553D02*
X62342Y-42422D01*
X62439Y-43388D02*
X62439Y-43917D01*
X62519Y-43308D02*
X62439Y-43388D01*
X62519Y-42599D02*
X62519Y-43308D01*
X62342Y-42422D02*
X62519Y-42599D01*
X60569Y-41553D02*
X60569Y-41969D01*
X60570Y-42874D02*
X60570Y-43623D01*
X60373Y-42677D02*
X60570Y-42874D01*
X60373Y-42165D02*
X60373Y-42677D01*
X60569Y-41969D02*
X60373Y-42165D01*
X56819Y-35808D02*
X56337Y-35808D01*
X53858Y-35689D02*
X53858Y-35630D01*
X54153Y-35984D02*
X53858Y-35689D01*
X56337Y-35808D02*
X56279Y-35866D01*
G54D10*
G36*
X53517Y-40577D02*
X53458Y-40577D01*
X53396Y-40639D01*
X53396Y-41199D01*
X53396Y-41249D01*
X53396Y-41349D01*
X53296Y-41349D01*
X53246Y-41349D01*
X53162Y-41349D01*
X53112Y-41349D01*
X53101Y-41338D01*
X52806Y-41338D01*
X52806Y-41349D01*
X52706Y-41349D01*
X52706Y-41338D01*
X52706Y-41260D01*
X52706Y-41249D01*
X52806Y-41249D01*
X52806Y-41260D01*
X53101Y-41260D01*
X53112Y-41249D01*
X53162Y-41249D01*
X53296Y-41249D01*
X53296Y-40639D01*
X53234Y-40577D01*
X53075Y-40577D01*
X53306Y-40347D01*
X53510Y-40347D01*
X53493Y-40388D01*
X53493Y-40517D01*
X53517Y-40577D01*
X53517Y-40577D01*
G37*
G54D32*
X53517Y-40577D02*
X53458Y-40577D01*
X53396Y-40639D01*
X53396Y-41199D01*
X53396Y-41249D01*
X53396Y-41349D01*
X53296Y-41349D01*
X53246Y-41349D01*
X53162Y-41349D01*
X53112Y-41349D01*
X53101Y-41338D01*
X52806Y-41338D01*
X52806Y-41349D01*
X52706Y-41349D01*
X52706Y-41338D01*
X52706Y-41260D01*
X52706Y-41249D01*
X52806Y-41249D01*
X52806Y-41260D01*
X53101Y-41260D01*
X53112Y-41249D01*
X53162Y-41249D01*
X53296Y-41249D01*
X53296Y-40639D01*
X53234Y-40577D01*
X53075Y-40577D01*
X53306Y-40347D01*
X53510Y-40347D01*
X53493Y-40388D01*
X53493Y-40517D01*
X53517Y-40577D01*
G54D10*
G36*
X54525Y-37499D02*
X54482Y-37517D01*
X54412Y-37587D01*
X54391Y-37635D01*
X54357Y-37601D01*
X54302Y-37579D01*
X54243Y-37579D01*
X54186Y-37579D01*
X54186Y-37297D01*
X54124Y-37235D01*
X53868Y-37235D01*
X53868Y-37491D01*
X53929Y-37552D01*
X53986Y-37552D01*
X54077Y-37514D01*
X54147Y-37444D01*
X54185Y-37352D01*
X54186Y-37297D01*
X54186Y-37579D01*
X53993Y-37579D01*
X53938Y-37602D01*
X53896Y-37644D01*
X53874Y-37699D01*
X53874Y-37758D01*
X53874Y-38141D01*
X53840Y-38141D01*
X53779Y-38202D01*
X53779Y-38635D01*
X53780Y-38635D01*
X53780Y-38735D01*
X53779Y-38735D01*
X53768Y-38735D01*
X53768Y-37491D01*
X53768Y-37235D01*
X53512Y-37235D01*
X53464Y-37283D01*
X53416Y-37235D01*
X53160Y-37235D01*
X53160Y-37491D01*
X53221Y-37552D01*
X53278Y-37552D01*
X53369Y-37514D01*
X53439Y-37444D01*
X53464Y-37383D01*
X53489Y-37444D01*
X53559Y-37514D01*
X53650Y-37552D01*
X53707Y-37552D01*
X53768Y-37491D01*
X53768Y-38735D01*
X53681Y-38735D01*
X53680Y-38735D01*
X53680Y-38635D01*
X53681Y-38635D01*
X53681Y-38202D01*
X53620Y-38141D01*
X53582Y-38141D01*
X53491Y-38179D01*
X53421Y-38249D01*
X53415Y-38261D01*
X53365Y-38241D01*
X53306Y-38241D01*
X53110Y-38241D01*
X53060Y-38261D01*
X53060Y-37491D01*
X53060Y-37235D01*
X52804Y-37235D01*
X52755Y-37283D01*
X52707Y-37235D01*
X52451Y-37235D01*
X52451Y-37491D01*
X52512Y-37552D01*
X52569Y-37552D01*
X52660Y-37514D01*
X52730Y-37444D01*
X52755Y-37382D01*
X52781Y-37444D01*
X52851Y-37514D01*
X52942Y-37552D01*
X52999Y-37552D01*
X53060Y-37491D01*
X53060Y-38261D01*
X53055Y-38264D01*
X53013Y-38306D01*
X52991Y-38361D01*
X52991Y-38420D01*
X52991Y-39010D01*
X53014Y-39065D01*
X53056Y-39107D01*
X53077Y-39115D01*
X53090Y-39134D01*
X53118Y-39163D01*
X53090Y-39192D01*
X53058Y-39238D01*
X53057Y-39238D01*
X53055Y-39240D01*
X53013Y-39282D01*
X52991Y-39337D01*
X52991Y-39396D01*
X52991Y-39625D01*
X52215Y-40401D01*
X52215Y-37544D01*
X52233Y-37552D01*
X52290Y-37552D01*
X52351Y-37491D01*
X52351Y-37285D01*
X52351Y-37235D01*
X52351Y-37135D01*
X52451Y-37135D01*
X52501Y-37135D01*
X52707Y-37135D01*
X52755Y-37086D01*
X52804Y-37135D01*
X53010Y-37135D01*
X53060Y-37135D01*
X53160Y-37135D01*
X53210Y-37135D01*
X53416Y-37135D01*
X53464Y-37087D01*
X53512Y-37135D01*
X53768Y-37135D01*
X53768Y-36879D01*
X53730Y-36841D01*
X53731Y-36840D01*
X53731Y-36818D01*
X53707Y-36818D01*
X53706Y-36817D01*
X53731Y-36817D01*
X53731Y-36781D01*
X53731Y-36606D01*
X53770Y-36606D01*
X53921Y-36606D01*
X53906Y-36644D01*
X53906Y-36703D01*
X53906Y-36817D01*
X53930Y-36817D01*
X53929Y-36818D01*
X53906Y-36818D01*
X53906Y-36841D01*
X53868Y-36879D01*
X53868Y-37135D01*
X54124Y-37135D01*
X54186Y-37073D01*
X54185Y-37058D01*
X54260Y-37058D01*
X54260Y-37097D01*
X54260Y-37333D01*
X54283Y-37388D01*
X54325Y-37430D01*
X54380Y-37452D01*
X54439Y-37452D01*
X54478Y-37452D01*
X54525Y-37499D01*
X54525Y-37499D01*
G37*
G54D32*
X54525Y-37499D02*
X54482Y-37517D01*
X54412Y-37587D01*
X54391Y-37635D01*
X54357Y-37601D01*
X54302Y-37579D01*
X54243Y-37579D01*
X54186Y-37579D01*
X54186Y-37297D01*
X54124Y-37235D01*
X53868Y-37235D01*
X53868Y-37491D01*
X53929Y-37552D01*
X53986Y-37552D01*
X54077Y-37514D01*
X54147Y-37444D01*
X54185Y-37352D01*
X54186Y-37297D01*
X54186Y-37579D01*
X53993Y-37579D01*
X53938Y-37602D01*
X53896Y-37644D01*
X53874Y-37699D01*
X53874Y-37758D01*
X53874Y-38141D01*
X53840Y-38141D01*
X53779Y-38202D01*
X53779Y-38635D01*
X53780Y-38635D01*
X53780Y-38735D01*
X53779Y-38735D01*
X53768Y-38735D01*
X53768Y-37491D01*
X53768Y-37235D01*
X53512Y-37235D01*
X53464Y-37283D01*
X53416Y-37235D01*
X53160Y-37235D01*
X53160Y-37491D01*
X53221Y-37552D01*
X53278Y-37552D01*
X53369Y-37514D01*
X53439Y-37444D01*
X53464Y-37383D01*
X53489Y-37444D01*
X53559Y-37514D01*
X53650Y-37552D01*
X53707Y-37552D01*
X53768Y-37491D01*
X53768Y-38735D01*
X53681Y-38735D01*
X53680Y-38735D01*
X53680Y-38635D01*
X53681Y-38635D01*
X53681Y-38202D01*
X53620Y-38141D01*
X53582Y-38141D01*
X53491Y-38179D01*
X53421Y-38249D01*
X53415Y-38261D01*
X53365Y-38241D01*
X53306Y-38241D01*
X53110Y-38241D01*
X53060Y-38261D01*
X53060Y-37491D01*
X53060Y-37235D01*
X52804Y-37235D01*
X52755Y-37283D01*
X52707Y-37235D01*
X52451Y-37235D01*
X52451Y-37491D01*
X52512Y-37552D01*
X52569Y-37552D01*
X52660Y-37514D01*
X52730Y-37444D01*
X52755Y-37382D01*
X52781Y-37444D01*
X52851Y-37514D01*
X52942Y-37552D01*
X52999Y-37552D01*
X53060Y-37491D01*
X53060Y-38261D01*
X53055Y-38264D01*
X53013Y-38306D01*
X52991Y-38361D01*
X52991Y-38420D01*
X52991Y-39010D01*
X53014Y-39065D01*
X53056Y-39107D01*
X53077Y-39115D01*
X53090Y-39134D01*
X53118Y-39163D01*
X53090Y-39192D01*
X53058Y-39238D01*
X53057Y-39238D01*
X53055Y-39240D01*
X53013Y-39282D01*
X52991Y-39337D01*
X52991Y-39396D01*
X52991Y-39625D01*
X52215Y-40401D01*
X52215Y-37544D01*
X52233Y-37552D01*
X52290Y-37552D01*
X52351Y-37491D01*
X52351Y-37285D01*
X52351Y-37235D01*
X52351Y-37135D01*
X52451Y-37135D01*
X52501Y-37135D01*
X52707Y-37135D01*
X52755Y-37086D01*
X52804Y-37135D01*
X53010Y-37135D01*
X53060Y-37135D01*
X53160Y-37135D01*
X53210Y-37135D01*
X53416Y-37135D01*
X53464Y-37087D01*
X53512Y-37135D01*
X53768Y-37135D01*
X53768Y-36879D01*
X53730Y-36841D01*
X53731Y-36840D01*
X53731Y-36818D01*
X53707Y-36818D01*
X53706Y-36817D01*
X53731Y-36817D01*
X53731Y-36781D01*
X53731Y-36606D01*
X53770Y-36606D01*
X53921Y-36606D01*
X53906Y-36644D01*
X53906Y-36703D01*
X53906Y-36817D01*
X53930Y-36817D01*
X53929Y-36818D01*
X53906Y-36818D01*
X53906Y-36841D01*
X53868Y-36879D01*
X53868Y-37135D01*
X54124Y-37135D01*
X54186Y-37073D01*
X54185Y-37058D01*
X54260Y-37058D01*
X54260Y-37097D01*
X54260Y-37333D01*
X54283Y-37388D01*
X54325Y-37430D01*
X54380Y-37452D01*
X54439Y-37452D01*
X54478Y-37452D01*
X54525Y-37499D01*
G54D10*
G36*
X54573Y-33318D02*
X54111Y-33780D01*
X54077Y-33746D01*
X53986Y-33708D01*
X53929Y-33708D01*
X53868Y-33769D01*
X53868Y-33975D01*
X53868Y-34025D01*
X53868Y-34125D01*
X53868Y-34175D01*
X53868Y-34381D01*
X53906Y-34419D01*
X53906Y-34442D01*
X53906Y-34617D01*
X53908Y-34621D01*
X53908Y-34821D01*
X53908Y-34871D01*
X53908Y-34971D01*
X53808Y-34971D01*
X53758Y-34971D01*
X53552Y-34971D01*
X53514Y-35009D01*
X53316Y-35009D01*
X53261Y-35032D01*
X53219Y-35074D01*
X53199Y-35124D01*
X53199Y-34719D01*
X53220Y-34770D01*
X53262Y-34812D01*
X53317Y-34834D01*
X53376Y-34834D01*
X53515Y-34834D01*
X53552Y-34871D01*
X53808Y-34871D01*
X53808Y-34615D01*
X53747Y-34554D01*
X53731Y-34554D01*
X53731Y-34442D01*
X53731Y-34419D01*
X53730Y-34418D01*
X53768Y-34381D01*
X53768Y-34125D01*
X53768Y-34025D01*
X53768Y-33769D01*
X53707Y-33708D01*
X53650Y-33708D01*
X53559Y-33746D01*
X53489Y-33816D01*
X53464Y-33876D01*
X53439Y-33816D01*
X53369Y-33746D01*
X53278Y-33708D01*
X53221Y-33708D01*
X53160Y-33769D01*
X53160Y-34025D01*
X53416Y-34025D01*
X53464Y-33977D01*
X53512Y-34025D01*
X53768Y-34025D01*
X53768Y-34125D01*
X53512Y-34125D01*
X53464Y-34173D01*
X53416Y-34125D01*
X53210Y-34125D01*
X53160Y-34125D01*
X53060Y-34125D01*
X53060Y-34025D01*
X53060Y-33769D01*
X52999Y-33708D01*
X52942Y-33708D01*
X52851Y-33746D01*
X52781Y-33816D01*
X52755Y-33877D01*
X52730Y-33816D01*
X52660Y-33746D01*
X52569Y-33708D01*
X52512Y-33708D01*
X52451Y-33769D01*
X52451Y-34025D01*
X52707Y-34025D01*
X52755Y-33976D01*
X52804Y-34025D01*
X53060Y-34025D01*
X53060Y-34125D01*
X53010Y-34125D01*
X52804Y-34125D01*
X52755Y-34173D01*
X52707Y-34125D01*
X52501Y-34125D01*
X52451Y-34125D01*
X52351Y-34125D01*
X52351Y-34025D01*
X52351Y-33975D01*
X52351Y-33769D01*
X52290Y-33708D01*
X52233Y-33708D01*
X52215Y-33715D01*
X52215Y-33486D01*
X52383Y-33318D01*
X54573Y-33318D01*
X54573Y-33318D01*
G37*
G54D32*
X54573Y-33318D02*
X54111Y-33780D01*
X54077Y-33746D01*
X53986Y-33708D01*
X53929Y-33708D01*
X53868Y-33769D01*
X53868Y-33975D01*
X53868Y-34025D01*
X53868Y-34125D01*
X53868Y-34175D01*
X53868Y-34381D01*
X53906Y-34419D01*
X53906Y-34442D01*
X53906Y-34617D01*
X53908Y-34621D01*
X53908Y-34821D01*
X53908Y-34871D01*
X53908Y-34971D01*
X53808Y-34971D01*
X53758Y-34971D01*
X53552Y-34971D01*
X53514Y-35009D01*
X53316Y-35009D01*
X53261Y-35032D01*
X53219Y-35074D01*
X53199Y-35124D01*
X53199Y-34719D01*
X53220Y-34770D01*
X53262Y-34812D01*
X53317Y-34834D01*
X53376Y-34834D01*
X53515Y-34834D01*
X53552Y-34871D01*
X53808Y-34871D01*
X53808Y-34615D01*
X53747Y-34554D01*
X53731Y-34554D01*
X53731Y-34442D01*
X53731Y-34419D01*
X53730Y-34418D01*
X53768Y-34381D01*
X53768Y-34125D01*
X53768Y-34025D01*
X53768Y-33769D01*
X53707Y-33708D01*
X53650Y-33708D01*
X53559Y-33746D01*
X53489Y-33816D01*
X53464Y-33876D01*
X53439Y-33816D01*
X53369Y-33746D01*
X53278Y-33708D01*
X53221Y-33708D01*
X53160Y-33769D01*
X53160Y-34025D01*
X53416Y-34025D01*
X53464Y-33977D01*
X53512Y-34025D01*
X53768Y-34025D01*
X53768Y-34125D01*
X53512Y-34125D01*
X53464Y-34173D01*
X53416Y-34125D01*
X53210Y-34125D01*
X53160Y-34125D01*
X53060Y-34125D01*
X53060Y-34025D01*
X53060Y-33769D01*
X52999Y-33708D01*
X52942Y-33708D01*
X52851Y-33746D01*
X52781Y-33816D01*
X52755Y-33877D01*
X52730Y-33816D01*
X52660Y-33746D01*
X52569Y-33708D01*
X52512Y-33708D01*
X52451Y-33769D01*
X52451Y-34025D01*
X52707Y-34025D01*
X52755Y-33976D01*
X52804Y-34025D01*
X53060Y-34025D01*
X53060Y-34125D01*
X53010Y-34125D01*
X52804Y-34125D01*
X52755Y-34173D01*
X52707Y-34125D01*
X52501Y-34125D01*
X52451Y-34125D01*
X52351Y-34125D01*
X52351Y-34025D01*
X52351Y-33975D01*
X52351Y-33769D01*
X52290Y-33708D01*
X52233Y-33708D01*
X52215Y-33715D01*
X52215Y-33486D01*
X52383Y-33318D01*
X54573Y-33318D01*
G54D10*
G36*
X54901Y-41333D02*
X54873Y-41338D01*
X54860Y-41341D01*
X54792Y-41387D01*
X54770Y-41409D01*
X54770Y-41421D01*
X54769Y-41422D01*
X54769Y-41409D01*
X54674Y-41506D01*
X54628Y-41573D01*
X54625Y-41586D01*
X54618Y-41621D01*
X54537Y-41621D01*
X54536Y-41615D01*
X54319Y-41201D01*
X54293Y-41169D01*
X54281Y-41151D01*
X54275Y-41147D01*
X54268Y-41138D01*
X54238Y-41122D01*
X54213Y-41105D01*
X54202Y-41102D01*
X54195Y-41099D01*
X54189Y-41098D01*
X54220Y-41068D01*
X54242Y-41013D01*
X54242Y-40954D01*
X54242Y-40889D01*
X54629Y-41277D01*
X54630Y-41277D01*
X54691Y-41319D01*
X54764Y-41333D01*
X54901Y-41333D01*
X54901Y-41333D01*
G37*
G54D32*
X54901Y-41333D02*
X54873Y-41338D01*
X54860Y-41341D01*
X54792Y-41387D01*
X54770Y-41409D01*
X54770Y-41421D01*
X54769Y-41422D01*
X54769Y-41409D01*
X54674Y-41506D01*
X54628Y-41573D01*
X54625Y-41586D01*
X54618Y-41621D01*
X54537Y-41621D01*
X54536Y-41615D01*
X54319Y-41201D01*
X54293Y-41169D01*
X54281Y-41151D01*
X54275Y-41147D01*
X54268Y-41138D01*
X54238Y-41122D01*
X54213Y-41105D01*
X54202Y-41102D01*
X54195Y-41099D01*
X54189Y-41098D01*
X54220Y-41068D01*
X54242Y-41013D01*
X54242Y-40954D01*
X54242Y-40889D01*
X54629Y-41277D01*
X54630Y-41277D01*
X54691Y-41319D01*
X54764Y-41333D01*
X54901Y-41333D01*
G54D10*
G36*
X56004Y-36051D02*
X55977Y-36063D01*
X55886Y-36154D01*
X55836Y-36274D01*
X55836Y-36358D01*
X55758Y-36326D01*
X55701Y-36326D01*
X55640Y-36387D01*
X55640Y-36593D01*
X55640Y-36643D01*
X55640Y-36743D01*
X55640Y-36793D01*
X55640Y-36999D01*
X55701Y-37060D01*
X55745Y-37060D01*
X55746Y-37098D01*
X55784Y-37190D01*
X55854Y-37260D01*
X55902Y-37280D01*
X55869Y-37314D01*
X55503Y-37314D01*
X55503Y-37273D01*
X55503Y-37060D01*
X55503Y-37037D01*
X55502Y-37036D01*
X55540Y-36999D01*
X55540Y-36743D01*
X55284Y-36743D01*
X55222Y-36805D01*
X55223Y-36860D01*
X55246Y-36918D01*
X55148Y-36918D01*
X55148Y-36879D01*
X55148Y-36643D01*
X55132Y-36606D01*
X55247Y-36606D01*
X55284Y-36643D01*
X55540Y-36643D01*
X55540Y-36387D01*
X55479Y-36326D01*
X55463Y-36326D01*
X55463Y-36251D01*
X55502Y-36251D01*
X55738Y-36251D01*
X55793Y-36228D01*
X55835Y-36186D01*
X55857Y-36131D01*
X55857Y-36121D01*
X55862Y-36118D01*
X55981Y-35998D01*
X56003Y-36050D01*
X56004Y-36051D01*
X56004Y-36051D01*
G37*
G54D32*
X56004Y-36051D02*
X55977Y-36063D01*
X55886Y-36154D01*
X55836Y-36274D01*
X55836Y-36358D01*
X55758Y-36326D01*
X55701Y-36326D01*
X55640Y-36387D01*
X55640Y-36593D01*
X55640Y-36643D01*
X55640Y-36743D01*
X55640Y-36793D01*
X55640Y-36999D01*
X55701Y-37060D01*
X55745Y-37060D01*
X55746Y-37098D01*
X55784Y-37190D01*
X55854Y-37260D01*
X55902Y-37280D01*
X55869Y-37314D01*
X55503Y-37314D01*
X55503Y-37273D01*
X55503Y-37060D01*
X55503Y-37037D01*
X55502Y-37036D01*
X55540Y-36999D01*
X55540Y-36743D01*
X55284Y-36743D01*
X55222Y-36805D01*
X55223Y-36860D01*
X55246Y-36918D01*
X55148Y-36918D01*
X55148Y-36879D01*
X55148Y-36643D01*
X55132Y-36606D01*
X55247Y-36606D01*
X55284Y-36643D01*
X55540Y-36643D01*
X55540Y-36387D01*
X55479Y-36326D01*
X55463Y-36326D01*
X55463Y-36251D01*
X55502Y-36251D01*
X55738Y-36251D01*
X55793Y-36228D01*
X55835Y-36186D01*
X55857Y-36131D01*
X55857Y-36121D01*
X55862Y-36118D01*
X55981Y-35998D01*
X56003Y-36050D01*
X56004Y-36051D01*
G54D10*
G36*
X56207Y-41782D02*
X56107Y-41782D01*
X56107Y-41761D01*
X55807Y-41761D01*
X55746Y-41822D01*
X55746Y-41841D01*
X55761Y-41877D01*
X55468Y-41877D01*
X55470Y-41875D01*
X55492Y-41820D01*
X55492Y-41761D01*
X55492Y-41643D01*
X55487Y-41633D01*
X55492Y-41623D01*
X55492Y-41601D01*
X55554Y-41539D01*
X55592Y-41448D01*
X55592Y-41429D01*
X55531Y-41368D01*
X55446Y-41368D01*
X55427Y-41349D01*
X55401Y-41338D01*
X55416Y-41333D01*
X55451Y-41333D01*
X55524Y-41319D01*
X55585Y-41277D01*
X55592Y-41270D01*
X55592Y-41269D01*
X55744Y-41119D01*
X55744Y-41118D01*
X55745Y-41116D01*
X55745Y-41115D01*
X55746Y-41115D01*
X55760Y-41093D01*
X55771Y-41078D01*
X55807Y-41114D01*
X55893Y-41114D01*
X55911Y-41132D01*
X55937Y-41142D01*
X55910Y-41154D01*
X55892Y-41172D01*
X55807Y-41172D01*
X55746Y-41233D01*
X55746Y-41252D01*
X55784Y-41343D01*
X55846Y-41405D01*
X55846Y-41428D01*
X55849Y-41437D01*
X55846Y-41447D01*
X55846Y-41470D01*
X55784Y-41532D01*
X55746Y-41623D01*
X55746Y-41642D01*
X55807Y-41703D01*
X55893Y-41703D01*
X55911Y-41721D01*
X55966Y-41743D01*
X56025Y-41743D01*
X56207Y-41743D01*
X56207Y-41761D01*
X56207Y-41782D01*
X56207Y-41782D01*
G37*
G54D32*
X56207Y-41782D02*
X56107Y-41782D01*
X56107Y-41761D01*
X55807Y-41761D01*
X55746Y-41822D01*
X55746Y-41841D01*
X55761Y-41877D01*
X55468Y-41877D01*
X55470Y-41875D01*
X55492Y-41820D01*
X55492Y-41761D01*
X55492Y-41643D01*
X55487Y-41633D01*
X55492Y-41623D01*
X55492Y-41601D01*
X55554Y-41539D01*
X55592Y-41448D01*
X55592Y-41429D01*
X55531Y-41368D01*
X55446Y-41368D01*
X55427Y-41349D01*
X55401Y-41338D01*
X55416Y-41333D01*
X55451Y-41333D01*
X55524Y-41319D01*
X55585Y-41277D01*
X55592Y-41270D01*
X55592Y-41269D01*
X55744Y-41119D01*
X55744Y-41118D01*
X55745Y-41116D01*
X55745Y-41115D01*
X55746Y-41115D01*
X55760Y-41093D01*
X55771Y-41078D01*
X55807Y-41114D01*
X55893Y-41114D01*
X55911Y-41132D01*
X55937Y-41142D01*
X55910Y-41154D01*
X55892Y-41172D01*
X55807Y-41172D01*
X55746Y-41233D01*
X55746Y-41252D01*
X55784Y-41343D01*
X55846Y-41405D01*
X55846Y-41428D01*
X55849Y-41437D01*
X55846Y-41447D01*
X55846Y-41470D01*
X55784Y-41532D01*
X55746Y-41623D01*
X55746Y-41642D01*
X55807Y-41703D01*
X55893Y-41703D01*
X55911Y-41721D01*
X55966Y-41743D01*
X56025Y-41743D01*
X56207Y-41743D01*
X56207Y-41761D01*
X56207Y-41782D01*
G54D10*
G36*
X56482Y-44770D02*
X56417Y-44835D01*
X56367Y-44955D01*
X56367Y-45068D01*
X56271Y-45164D01*
X55728Y-45164D01*
X55648Y-45180D01*
X55625Y-45195D01*
X55579Y-45226D01*
X55316Y-45490D01*
X55270Y-45557D01*
X55267Y-45570D01*
X55254Y-45638D01*
X55254Y-45805D01*
X55229Y-45816D01*
X55188Y-45856D01*
X55155Y-45843D01*
X55096Y-45843D01*
X54646Y-45843D01*
X54591Y-45866D01*
X54576Y-45881D01*
X54560Y-45865D01*
X54505Y-45843D01*
X54446Y-45843D01*
X54273Y-45843D01*
X53035Y-44604D01*
X53035Y-42696D01*
X53035Y-42333D01*
X52772Y-42333D01*
X52710Y-42395D01*
X52711Y-42459D01*
X52711Y-42558D01*
X52749Y-42649D01*
X52819Y-42719D01*
X52911Y-42757D01*
X52973Y-42758D01*
X53035Y-42696D01*
X53035Y-44604D01*
X52572Y-44141D01*
X52572Y-41919D01*
X52629Y-41919D01*
X52748Y-41919D01*
X52711Y-42008D01*
X52711Y-42107D01*
X52710Y-42171D01*
X52772Y-42233D01*
X52985Y-42233D01*
X53035Y-42233D01*
X53135Y-42233D01*
X53135Y-42333D01*
X53135Y-42383D01*
X53135Y-42696D01*
X53197Y-42758D01*
X53259Y-42757D01*
X53351Y-42719D01*
X53421Y-42649D01*
X53441Y-42600D01*
X53476Y-42635D01*
X53531Y-42657D01*
X53590Y-42657D01*
X53840Y-42657D01*
X53895Y-42634D01*
X53937Y-42592D01*
X53959Y-42537D01*
X53959Y-42493D01*
X53977Y-42493D01*
X53982Y-42492D01*
X54057Y-42477D01*
X54058Y-42475D01*
X54063Y-42475D01*
X54120Y-42433D01*
X54125Y-42431D01*
X54125Y-42430D01*
X54129Y-42428D01*
X54325Y-42221D01*
X54325Y-42293D01*
X54375Y-42413D01*
X54467Y-42505D01*
X54587Y-42555D01*
X54717Y-42555D01*
X54837Y-42505D01*
X54929Y-42413D01*
X54979Y-42293D01*
X54979Y-42268D01*
X54997Y-42281D01*
X54998Y-42281D01*
X55010Y-42283D01*
X55078Y-42297D01*
X56482Y-42297D01*
X56482Y-44770D01*
X56482Y-44770D01*
G37*
G54D32*
X56482Y-44770D02*
X56417Y-44835D01*
X56367Y-44955D01*
X56367Y-45068D01*
X56271Y-45164D01*
X55728Y-45164D01*
X55648Y-45180D01*
X55625Y-45195D01*
X55579Y-45226D01*
X55316Y-45490D01*
X55270Y-45557D01*
X55267Y-45570D01*
X55254Y-45638D01*
X55254Y-45805D01*
X55229Y-45816D01*
X55188Y-45856D01*
X55155Y-45843D01*
X55096Y-45843D01*
X54646Y-45843D01*
X54591Y-45866D01*
X54576Y-45881D01*
X54560Y-45865D01*
X54505Y-45843D01*
X54446Y-45843D01*
X54273Y-45843D01*
X53035Y-44604D01*
X53035Y-42696D01*
X53035Y-42333D01*
X52772Y-42333D01*
X52710Y-42395D01*
X52711Y-42459D01*
X52711Y-42558D01*
X52749Y-42649D01*
X52819Y-42719D01*
X52911Y-42757D01*
X52973Y-42758D01*
X53035Y-42696D01*
X53035Y-44604D01*
X52572Y-44141D01*
X52572Y-41919D01*
X52629Y-41919D01*
X52748Y-41919D01*
X52711Y-42008D01*
X52711Y-42107D01*
X52710Y-42171D01*
X52772Y-42233D01*
X52985Y-42233D01*
X53035Y-42233D01*
X53135Y-42233D01*
X53135Y-42333D01*
X53135Y-42383D01*
X53135Y-42696D01*
X53197Y-42758D01*
X53259Y-42757D01*
X53351Y-42719D01*
X53421Y-42649D01*
X53441Y-42600D01*
X53476Y-42635D01*
X53531Y-42657D01*
X53590Y-42657D01*
X53840Y-42657D01*
X53895Y-42634D01*
X53937Y-42592D01*
X53959Y-42537D01*
X53959Y-42493D01*
X53977Y-42493D01*
X53982Y-42492D01*
X54057Y-42477D01*
X54058Y-42475D01*
X54063Y-42475D01*
X54120Y-42433D01*
X54125Y-42431D01*
X54125Y-42430D01*
X54129Y-42428D01*
X54325Y-42221D01*
X54325Y-42293D01*
X54375Y-42413D01*
X54467Y-42505D01*
X54587Y-42555D01*
X54717Y-42555D01*
X54837Y-42505D01*
X54929Y-42413D01*
X54979Y-42293D01*
X54979Y-42268D01*
X54997Y-42281D01*
X54998Y-42281D01*
X55010Y-42283D01*
X55078Y-42297D01*
X56482Y-42297D01*
X56482Y-44770D01*
G54D10*
G36*
X57053Y-36842D02*
X56581Y-37314D01*
X56571Y-37314D01*
X56537Y-37280D01*
X56586Y-37260D01*
X56656Y-37190D01*
X56694Y-37098D01*
X56695Y-37036D01*
X56633Y-36974D01*
X56320Y-36974D01*
X56270Y-36974D01*
X56170Y-36974D01*
X56170Y-36874D01*
X56270Y-36874D01*
X56320Y-36874D01*
X56633Y-36874D01*
X56695Y-36812D01*
X56694Y-36750D01*
X56656Y-36658D01*
X56586Y-36588D01*
X56495Y-36550D01*
X56410Y-36550D01*
X56436Y-36524D01*
X56464Y-36455D01*
X56467Y-36462D01*
X56509Y-36504D01*
X56564Y-36526D01*
X56623Y-36526D01*
X57036Y-36526D01*
X57053Y-36542D01*
X57053Y-36842D01*
X57053Y-36842D01*
G37*
G54D32*
X57053Y-36842D02*
X56581Y-37314D01*
X56571Y-37314D01*
X56537Y-37280D01*
X56586Y-37260D01*
X56656Y-37190D01*
X56694Y-37098D01*
X56695Y-37036D01*
X56633Y-36974D01*
X56320Y-36974D01*
X56270Y-36974D01*
X56170Y-36974D01*
X56170Y-36874D01*
X56270Y-36874D01*
X56320Y-36874D01*
X56633Y-36874D01*
X56695Y-36812D01*
X56694Y-36750D01*
X56656Y-36658D01*
X56586Y-36588D01*
X56495Y-36550D01*
X56410Y-36550D01*
X56436Y-36524D01*
X56464Y-36455D01*
X56467Y-36462D01*
X56509Y-36504D01*
X56564Y-36526D01*
X56623Y-36526D01*
X57036Y-36526D01*
X57053Y-36542D01*
X57053Y-36842D01*
G54D10*
G36*
X57467Y-39228D02*
X57407Y-39203D01*
X57278Y-39203D01*
X57158Y-39252D01*
X57072Y-39338D01*
X56560Y-39338D01*
X56560Y-38734D01*
X56560Y-38510D01*
X56559Y-38446D01*
X56559Y-38347D01*
X56521Y-38256D01*
X56451Y-38186D01*
X56359Y-38148D01*
X56297Y-38147D01*
X56235Y-38209D01*
X56235Y-38572D01*
X56498Y-38572D01*
X56560Y-38510D01*
X56560Y-38734D01*
X56498Y-38672D01*
X56235Y-38672D01*
X56235Y-39035D01*
X56297Y-39097D01*
X56359Y-39096D01*
X56451Y-39058D01*
X56521Y-38988D01*
X56559Y-38897D01*
X56559Y-38798D01*
X56560Y-38734D01*
X56560Y-39338D01*
X56341Y-39338D01*
X56316Y-39328D01*
X56257Y-39328D01*
X55807Y-39328D01*
X55752Y-39351D01*
X55710Y-39393D01*
X55701Y-39414D01*
X55640Y-39426D01*
X55603Y-39451D01*
X55578Y-39468D01*
X55364Y-39682D01*
X55208Y-39527D01*
X55147Y-39485D01*
X55074Y-39471D01*
X54961Y-39471D01*
X54961Y-39336D01*
X54938Y-39281D01*
X54896Y-39239D01*
X54841Y-39217D01*
X54782Y-39217D01*
X54720Y-39217D01*
X54808Y-39129D01*
X54842Y-39129D01*
X54897Y-39106D01*
X54939Y-39064D01*
X54961Y-39009D01*
X54961Y-38950D01*
X54961Y-38895D01*
X55318Y-38895D01*
X55334Y-38932D01*
X55376Y-38974D01*
X55431Y-38996D01*
X55490Y-38996D01*
X55740Y-38996D01*
X55795Y-38973D01*
X55828Y-38939D01*
X55849Y-38988D01*
X55919Y-39058D01*
X56011Y-39096D01*
X56073Y-39097D01*
X56135Y-39035D01*
X56135Y-38722D01*
X56135Y-38672D01*
X56135Y-38572D01*
X56135Y-38522D01*
X56135Y-38209D01*
X56073Y-38147D01*
X56011Y-38148D01*
X55919Y-38186D01*
X55849Y-38256D01*
X55828Y-38304D01*
X55794Y-38270D01*
X55739Y-38248D01*
X55680Y-38248D01*
X55430Y-38248D01*
X55375Y-38271D01*
X55333Y-38313D01*
X55311Y-38368D01*
X55311Y-38427D01*
X55311Y-38475D01*
X54961Y-38475D01*
X54961Y-38410D01*
X55014Y-38389D01*
X55084Y-38319D01*
X55122Y-38228D01*
X55122Y-38129D01*
X55123Y-38065D01*
X55061Y-38003D01*
X54848Y-38003D01*
X54798Y-38003D01*
X54698Y-38003D01*
X54698Y-37903D01*
X54798Y-37903D01*
X54848Y-37903D01*
X55061Y-37903D01*
X55123Y-37841D01*
X55122Y-37777D01*
X55122Y-37734D01*
X55869Y-37734D01*
X55911Y-37776D01*
X55966Y-37798D01*
X56025Y-37798D01*
X56475Y-37798D01*
X56530Y-37775D01*
X56571Y-37734D01*
X56668Y-37734D01*
X56668Y-37733D01*
X56735Y-37720D01*
X56748Y-37718D01*
X56749Y-37718D01*
X56816Y-37672D01*
X57411Y-37078D01*
X57411Y-37077D01*
X57441Y-37032D01*
X57456Y-37010D01*
X57457Y-37009D01*
X57467Y-36959D01*
X57467Y-39228D01*
X57467Y-39228D01*
G37*
G54D32*
X57467Y-39228D02*
X57407Y-39203D01*
X57278Y-39203D01*
X57158Y-39252D01*
X57072Y-39338D01*
X56560Y-39338D01*
X56560Y-38734D01*
X56560Y-38510D01*
X56559Y-38446D01*
X56559Y-38347D01*
X56521Y-38256D01*
X56451Y-38186D01*
X56359Y-38148D01*
X56297Y-38147D01*
X56235Y-38209D01*
X56235Y-38572D01*
X56498Y-38572D01*
X56560Y-38510D01*
X56560Y-38734D01*
X56498Y-38672D01*
X56235Y-38672D01*
X56235Y-39035D01*
X56297Y-39097D01*
X56359Y-39096D01*
X56451Y-39058D01*
X56521Y-38988D01*
X56559Y-38897D01*
X56559Y-38798D01*
X56560Y-38734D01*
X56560Y-39338D01*
X56341Y-39338D01*
X56316Y-39328D01*
X56257Y-39328D01*
X55807Y-39328D01*
X55752Y-39351D01*
X55710Y-39393D01*
X55701Y-39414D01*
X55640Y-39426D01*
X55603Y-39451D01*
X55578Y-39468D01*
X55364Y-39682D01*
X55208Y-39527D01*
X55147Y-39485D01*
X55074Y-39471D01*
X54961Y-39471D01*
X54961Y-39336D01*
X54938Y-39281D01*
X54896Y-39239D01*
X54841Y-39217D01*
X54782Y-39217D01*
X54720Y-39217D01*
X54808Y-39129D01*
X54842Y-39129D01*
X54897Y-39106D01*
X54939Y-39064D01*
X54961Y-39009D01*
X54961Y-38950D01*
X54961Y-38895D01*
X55318Y-38895D01*
X55334Y-38932D01*
X55376Y-38974D01*
X55431Y-38996D01*
X55490Y-38996D01*
X55740Y-38996D01*
X55795Y-38973D01*
X55828Y-38939D01*
X55849Y-38988D01*
X55919Y-39058D01*
X56011Y-39096D01*
X56073Y-39097D01*
X56135Y-39035D01*
X56135Y-38722D01*
X56135Y-38672D01*
X56135Y-38572D01*
X56135Y-38522D01*
X56135Y-38209D01*
X56073Y-38147D01*
X56011Y-38148D01*
X55919Y-38186D01*
X55849Y-38256D01*
X55828Y-38304D01*
X55794Y-38270D01*
X55739Y-38248D01*
X55680Y-38248D01*
X55430Y-38248D01*
X55375Y-38271D01*
X55333Y-38313D01*
X55311Y-38368D01*
X55311Y-38427D01*
X55311Y-38475D01*
X54961Y-38475D01*
X54961Y-38410D01*
X55014Y-38389D01*
X55084Y-38319D01*
X55122Y-38228D01*
X55122Y-38129D01*
X55123Y-38065D01*
X55061Y-38003D01*
X54848Y-38003D01*
X54798Y-38003D01*
X54698Y-38003D01*
X54698Y-37903D01*
X54798Y-37903D01*
X54848Y-37903D01*
X55061Y-37903D01*
X55123Y-37841D01*
X55122Y-37777D01*
X55122Y-37734D01*
X55869Y-37734D01*
X55911Y-37776D01*
X55966Y-37798D01*
X56025Y-37798D01*
X56475Y-37798D01*
X56530Y-37775D01*
X56571Y-37734D01*
X56668Y-37734D01*
X56668Y-37733D01*
X56735Y-37720D01*
X56748Y-37718D01*
X56749Y-37718D01*
X56816Y-37672D01*
X57411Y-37078D01*
X57411Y-37077D01*
X57441Y-37032D01*
X57456Y-37010D01*
X57457Y-37009D01*
X57467Y-36959D01*
X57467Y-39228D01*
G54D10*
G36*
X59115Y-33625D02*
X59060Y-33681D01*
X59060Y-33994D01*
X59060Y-34044D01*
X59060Y-34144D01*
X58960Y-34144D01*
X58960Y-34044D01*
X58960Y-33681D01*
X58898Y-33619D01*
X58836Y-33620D01*
X58744Y-33658D01*
X58674Y-33728D01*
X58636Y-33819D01*
X58636Y-33918D01*
X58635Y-33982D01*
X58697Y-34044D01*
X58960Y-34044D01*
X58960Y-34144D01*
X58910Y-34144D01*
X58697Y-34144D01*
X58635Y-34206D01*
X58636Y-34270D01*
X58636Y-34354D01*
X58616Y-34363D01*
X58574Y-34405D01*
X58570Y-34413D01*
X58570Y-34414D01*
X58568Y-34415D01*
X58568Y-34187D01*
X58506Y-34125D01*
X58243Y-34125D01*
X58243Y-34488D01*
X58305Y-34550D01*
X58367Y-34549D01*
X58459Y-34511D01*
X58529Y-34441D01*
X58567Y-34350D01*
X58567Y-34251D01*
X58568Y-34187D01*
X58568Y-34415D01*
X58555Y-34424D01*
X57523Y-35457D01*
X57493Y-35500D01*
X57493Y-35084D01*
X57506Y-35079D01*
X57597Y-34988D01*
X57647Y-34868D01*
X57647Y-34739D01*
X57598Y-34619D01*
X57532Y-34553D01*
X57532Y-34449D01*
X57748Y-34449D01*
X57803Y-34426D01*
X57836Y-34392D01*
X57857Y-34441D01*
X57927Y-34511D01*
X58019Y-34549D01*
X58081Y-34550D01*
X58143Y-34488D01*
X58143Y-34175D01*
X58143Y-34125D01*
X58143Y-34025D01*
X58243Y-34025D01*
X58293Y-34025D01*
X58506Y-34025D01*
X58568Y-33963D01*
X58567Y-33899D01*
X58567Y-33800D01*
X58529Y-33709D01*
X58459Y-33639D01*
X58403Y-33616D01*
X59105Y-33616D01*
X59115Y-33625D01*
X59115Y-33625D01*
G37*
G54D32*
X59115Y-33625D02*
X59060Y-33681D01*
X59060Y-33994D01*
X59060Y-34044D01*
X59060Y-34144D01*
X58960Y-34144D01*
X58960Y-34044D01*
X58960Y-33681D01*
X58898Y-33619D01*
X58836Y-33620D01*
X58744Y-33658D01*
X58674Y-33728D01*
X58636Y-33819D01*
X58636Y-33918D01*
X58635Y-33982D01*
X58697Y-34044D01*
X58960Y-34044D01*
X58960Y-34144D01*
X58910Y-34144D01*
X58697Y-34144D01*
X58635Y-34206D01*
X58636Y-34270D01*
X58636Y-34354D01*
X58616Y-34363D01*
X58574Y-34405D01*
X58570Y-34413D01*
X58570Y-34414D01*
X58568Y-34415D01*
X58568Y-34187D01*
X58506Y-34125D01*
X58243Y-34125D01*
X58243Y-34488D01*
X58305Y-34550D01*
X58367Y-34549D01*
X58459Y-34511D01*
X58529Y-34441D01*
X58567Y-34350D01*
X58567Y-34251D01*
X58568Y-34187D01*
X58568Y-34415D01*
X58555Y-34424D01*
X57523Y-35457D01*
X57493Y-35500D01*
X57493Y-35084D01*
X57506Y-35079D01*
X57597Y-34988D01*
X57647Y-34868D01*
X57647Y-34739D01*
X57598Y-34619D01*
X57532Y-34553D01*
X57532Y-34449D01*
X57748Y-34449D01*
X57803Y-34426D01*
X57836Y-34392D01*
X57857Y-34441D01*
X57927Y-34511D01*
X58019Y-34549D01*
X58081Y-34550D01*
X58143Y-34488D01*
X58143Y-34175D01*
X58143Y-34125D01*
X58143Y-34025D01*
X58243Y-34025D01*
X58293Y-34025D01*
X58506Y-34025D01*
X58568Y-33963D01*
X58567Y-33899D01*
X58567Y-33800D01*
X58529Y-33709D01*
X58459Y-33639D01*
X58403Y-33616D01*
X59105Y-33616D01*
X59115Y-33625D01*
G54D10*
G36*
X60360Y-38761D02*
X60268Y-38799D01*
X60177Y-38890D01*
X60127Y-39010D01*
X60127Y-39084D01*
X60073Y-39084D01*
X59953Y-39133D01*
X59933Y-39153D01*
X59933Y-39135D01*
X59933Y-39031D01*
X59926Y-39014D01*
X59933Y-38997D01*
X59933Y-38938D01*
X59933Y-38834D01*
X59926Y-38817D01*
X59933Y-38800D01*
X59933Y-38741D01*
X59933Y-38637D01*
X59910Y-38582D01*
X59868Y-38540D01*
X59825Y-38522D01*
X59872Y-38411D01*
X59872Y-38314D01*
X59975Y-38272D01*
X59975Y-38358D01*
X59998Y-38413D01*
X60040Y-38455D01*
X60095Y-38477D01*
X60118Y-38477D01*
X60180Y-38539D01*
X60272Y-38577D01*
X60273Y-38577D01*
X60273Y-38578D01*
X60285Y-38578D01*
X60360Y-38578D01*
X60360Y-38761D01*
X60360Y-38761D01*
G37*
G54D32*
X60360Y-38761D02*
X60268Y-38799D01*
X60177Y-38890D01*
X60127Y-39010D01*
X60127Y-39084D01*
X60073Y-39084D01*
X59953Y-39133D01*
X59933Y-39153D01*
X59933Y-39135D01*
X59933Y-39031D01*
X59926Y-39014D01*
X59933Y-38997D01*
X59933Y-38938D01*
X59933Y-38834D01*
X59926Y-38817D01*
X59933Y-38800D01*
X59933Y-38741D01*
X59933Y-38637D01*
X59910Y-38582D01*
X59868Y-38540D01*
X59825Y-38522D01*
X59872Y-38411D01*
X59872Y-38314D01*
X59975Y-38272D01*
X59975Y-38358D01*
X59998Y-38413D01*
X60040Y-38455D01*
X60095Y-38477D01*
X60118Y-38477D01*
X60180Y-38539D01*
X60272Y-38577D01*
X60273Y-38577D01*
X60273Y-38578D01*
X60285Y-38578D01*
X60360Y-38578D01*
X60360Y-38761D01*
G54D10*
G36*
X60577Y-36527D02*
X60545Y-36495D01*
X60490Y-36473D01*
X60431Y-36473D01*
X59981Y-36473D01*
X59926Y-36496D01*
X59911Y-36511D01*
X59895Y-36495D01*
X59840Y-36473D01*
X59781Y-36473D01*
X59382Y-36473D01*
X59402Y-36426D01*
X59403Y-36404D01*
X59341Y-36342D01*
X58977Y-36342D01*
X58977Y-36565D01*
X58986Y-36574D01*
X58986Y-36647D01*
X58986Y-36697D01*
X58986Y-36797D01*
X58886Y-36797D01*
X58886Y-36697D01*
X58886Y-36647D01*
X58886Y-36434D01*
X58877Y-36425D01*
X58877Y-36408D01*
X58877Y-36342D01*
X58877Y-36276D01*
X59183Y-36276D01*
X59187Y-36274D01*
X59341Y-36274D01*
X59403Y-36212D01*
X59402Y-36190D01*
X59364Y-36098D01*
X59302Y-36036D01*
X59302Y-35959D01*
X59291Y-35933D01*
X59302Y-35906D01*
X59302Y-35847D01*
X59302Y-35709D01*
X59291Y-35683D01*
X59302Y-35656D01*
X59302Y-35597D01*
X59302Y-35459D01*
X59291Y-35433D01*
X59302Y-35406D01*
X59302Y-35347D01*
X59302Y-35209D01*
X59291Y-35183D01*
X59300Y-35159D01*
X59832Y-35690D01*
X59832Y-35792D01*
X59881Y-35912D01*
X59972Y-36003D01*
X60092Y-36053D01*
X60221Y-36053D01*
X60341Y-36004D01*
X60432Y-35913D01*
X60482Y-35793D01*
X60482Y-35664D01*
X60433Y-35544D01*
X60342Y-35453D01*
X60222Y-35403D01*
X60137Y-35403D01*
X59542Y-34808D01*
X59758Y-34593D01*
X59758Y-34592D01*
X59788Y-34547D01*
X59803Y-34525D01*
X59804Y-34524D01*
X59819Y-34445D01*
X59820Y-34445D01*
X59820Y-34444D01*
X59862Y-34403D01*
X59884Y-34348D01*
X59884Y-34289D01*
X59884Y-33846D01*
X60133Y-33597D01*
X60314Y-33597D01*
X60394Y-33581D01*
X60462Y-33535D01*
X60508Y-33467D01*
X60524Y-33387D01*
X60524Y-32953D01*
X60524Y-31929D01*
X60524Y-31810D01*
X60508Y-31730D01*
X60507Y-31729D01*
X60492Y-31707D01*
X60462Y-31662D01*
X60462Y-31661D01*
X60306Y-31506D01*
X60239Y-31460D01*
X60225Y-31457D01*
X60158Y-31444D01*
X58707Y-31444D01*
X58494Y-31231D01*
X58493Y-31230D01*
X58493Y-31229D01*
X56114Y-28850D01*
X56114Y-28758D01*
X56065Y-28638D01*
X55999Y-28572D01*
X55999Y-28425D01*
X56041Y-28383D01*
X56063Y-28328D01*
X56063Y-28269D01*
X56063Y-27819D01*
X56040Y-27764D01*
X55998Y-27722D01*
X55943Y-27700D01*
X55884Y-27700D01*
X55634Y-27700D01*
X55579Y-27723D01*
X55537Y-27765D01*
X55515Y-27820D01*
X55515Y-27864D01*
X55125Y-27864D01*
X54899Y-27638D01*
X55035Y-27694D01*
X55242Y-27694D01*
X55433Y-27615D01*
X55580Y-27469D01*
X55639Y-27325D01*
X55698Y-27468D01*
X55844Y-27615D01*
X56035Y-27694D01*
X56199Y-27694D01*
X56199Y-27714D01*
X56179Y-27723D01*
X56137Y-27765D01*
X56115Y-27820D01*
X56115Y-27879D01*
X56115Y-28329D01*
X56138Y-28384D01*
X56180Y-28426D01*
X56202Y-28434D01*
X56213Y-28490D01*
X56255Y-28551D01*
X56676Y-28973D01*
X56677Y-28973D01*
X56738Y-29015D01*
X56750Y-29017D01*
X56721Y-29089D01*
X56721Y-29218D01*
X56770Y-29338D01*
X56861Y-29429D01*
X56981Y-29479D01*
X57102Y-29479D01*
X58663Y-31040D01*
X58664Y-31040D01*
X58666Y-31042D01*
X58840Y-31217D01*
X58841Y-31217D01*
X58902Y-31259D01*
X58975Y-31273D01*
X60511Y-31273D01*
X60577Y-31338D01*
X60577Y-33661D01*
X60577Y-35000D01*
X60577Y-36527D01*
X60577Y-36527D01*
G37*
G54D32*
X60577Y-36527D02*
X60545Y-36495D01*
X60490Y-36473D01*
X60431Y-36473D01*
X59981Y-36473D01*
X59926Y-36496D01*
X59911Y-36511D01*
X59895Y-36495D01*
X59840Y-36473D01*
X59781Y-36473D01*
X59382Y-36473D01*
X59402Y-36426D01*
X59403Y-36404D01*
X59341Y-36342D01*
X58977Y-36342D01*
X58977Y-36565D01*
X58986Y-36574D01*
X58986Y-36647D01*
X58986Y-36697D01*
X58986Y-36797D01*
X58886Y-36797D01*
X58886Y-36697D01*
X58886Y-36647D01*
X58886Y-36434D01*
X58877Y-36425D01*
X58877Y-36408D01*
X58877Y-36342D01*
X58877Y-36276D01*
X59183Y-36276D01*
X59187Y-36274D01*
X59341Y-36274D01*
X59403Y-36212D01*
X59402Y-36190D01*
X59364Y-36098D01*
X59302Y-36036D01*
X59302Y-35959D01*
X59291Y-35933D01*
X59302Y-35906D01*
X59302Y-35847D01*
X59302Y-35709D01*
X59291Y-35683D01*
X59302Y-35656D01*
X59302Y-35597D01*
X59302Y-35459D01*
X59291Y-35433D01*
X59302Y-35406D01*
X59302Y-35347D01*
X59302Y-35209D01*
X59291Y-35183D01*
X59300Y-35159D01*
X59832Y-35690D01*
X59832Y-35792D01*
X59881Y-35912D01*
X59972Y-36003D01*
X60092Y-36053D01*
X60221Y-36053D01*
X60341Y-36004D01*
X60432Y-35913D01*
X60482Y-35793D01*
X60482Y-35664D01*
X60433Y-35544D01*
X60342Y-35453D01*
X60222Y-35403D01*
X60137Y-35403D01*
X59542Y-34808D01*
X59758Y-34593D01*
X59758Y-34592D01*
X59788Y-34547D01*
X59803Y-34525D01*
X59804Y-34524D01*
X59819Y-34445D01*
X59820Y-34445D01*
X59820Y-34444D01*
X59862Y-34403D01*
X59884Y-34348D01*
X59884Y-34289D01*
X59884Y-33846D01*
X60133Y-33597D01*
X60314Y-33597D01*
X60394Y-33581D01*
X60462Y-33535D01*
X60508Y-33467D01*
X60524Y-33387D01*
X60524Y-32953D01*
X60524Y-31929D01*
X60524Y-31810D01*
X60508Y-31730D01*
X60507Y-31729D01*
X60492Y-31707D01*
X60462Y-31662D01*
X60462Y-31661D01*
X60306Y-31506D01*
X60239Y-31460D01*
X60225Y-31457D01*
X60158Y-31444D01*
X58707Y-31444D01*
X58494Y-31231D01*
X58493Y-31230D01*
X58493Y-31229D01*
X56114Y-28850D01*
X56114Y-28758D01*
X56065Y-28638D01*
X55999Y-28572D01*
X55999Y-28425D01*
X56041Y-28383D01*
X56063Y-28328D01*
X56063Y-28269D01*
X56063Y-27819D01*
X56040Y-27764D01*
X55998Y-27722D01*
X55943Y-27700D01*
X55884Y-27700D01*
X55634Y-27700D01*
X55579Y-27723D01*
X55537Y-27765D01*
X55515Y-27820D01*
X55515Y-27864D01*
X55125Y-27864D01*
X54899Y-27638D01*
X55035Y-27694D01*
X55242Y-27694D01*
X55433Y-27615D01*
X55580Y-27469D01*
X55639Y-27325D01*
X55698Y-27468D01*
X55844Y-27615D01*
X56035Y-27694D01*
X56199Y-27694D01*
X56199Y-27714D01*
X56179Y-27723D01*
X56137Y-27765D01*
X56115Y-27820D01*
X56115Y-27879D01*
X56115Y-28329D01*
X56138Y-28384D01*
X56180Y-28426D01*
X56202Y-28434D01*
X56213Y-28490D01*
X56255Y-28551D01*
X56676Y-28973D01*
X56677Y-28973D01*
X56738Y-29015D01*
X56750Y-29017D01*
X56721Y-29089D01*
X56721Y-29218D01*
X56770Y-29338D01*
X56861Y-29429D01*
X56981Y-29479D01*
X57102Y-29479D01*
X58663Y-31040D01*
X58664Y-31040D01*
X58666Y-31042D01*
X58840Y-31217D01*
X58841Y-31217D01*
X58902Y-31259D01*
X58975Y-31273D01*
X60511Y-31273D01*
X60577Y-31338D01*
X60577Y-33661D01*
X60577Y-35000D01*
X60577Y-36527D01*
G54D10*
G36*
X62237Y-44704D02*
X62199Y-44721D01*
X62188Y-44732D01*
X62096Y-44732D01*
X62034Y-44794D01*
X62035Y-44809D01*
X62073Y-44901D01*
X62135Y-44963D01*
X62135Y-44987D01*
X62140Y-45000D01*
X62135Y-45015D01*
X62135Y-45038D01*
X62073Y-45100D01*
X62035Y-45192D01*
X62034Y-45207D01*
X62096Y-45269D01*
X62101Y-45269D01*
X62073Y-45297D01*
X62038Y-45380D01*
X62034Y-45385D01*
X62034Y-45394D01*
X62034Y-45404D01*
X62038Y-45408D01*
X62073Y-45492D01*
X62101Y-45520D01*
X62096Y-45520D01*
X62034Y-45582D01*
X62035Y-45597D01*
X62068Y-45679D01*
X62060Y-45679D01*
X62046Y-45684D01*
X62032Y-45679D01*
X62009Y-45679D01*
X61947Y-45617D01*
X61855Y-45579D01*
X61840Y-45578D01*
X61778Y-45640D01*
X61778Y-45732D01*
X61766Y-45744D01*
X61751Y-45781D01*
X61735Y-45743D01*
X61724Y-45732D01*
X61724Y-45640D01*
X61662Y-45578D01*
X61647Y-45579D01*
X61555Y-45617D01*
X61493Y-45679D01*
X61469Y-45679D01*
X61455Y-45684D01*
X61441Y-45679D01*
X61382Y-45679D01*
X61272Y-45679D01*
X61258Y-45684D01*
X61244Y-45679D01*
X61185Y-45679D01*
X61075Y-45679D01*
X61061Y-45684D01*
X61047Y-45679D01*
X61024Y-45679D01*
X60962Y-45617D01*
X60870Y-45579D01*
X60855Y-45578D01*
X60793Y-45640D01*
X60793Y-45732D01*
X60781Y-45744D01*
X60766Y-45781D01*
X60750Y-45743D01*
X60739Y-45732D01*
X60739Y-45640D01*
X60677Y-45578D01*
X60662Y-45579D01*
X60600Y-45604D01*
X60602Y-45591D01*
X60603Y-45591D01*
X60603Y-45541D01*
X60630Y-45552D01*
X60689Y-45552D01*
X61030Y-45552D01*
X61089Y-45552D01*
X61430Y-45552D01*
X61489Y-45552D01*
X61889Y-45552D01*
X61944Y-45529D01*
X61986Y-45487D01*
X62008Y-45432D01*
X62008Y-45373D01*
X62008Y-45032D01*
X62008Y-44973D01*
X62008Y-44632D01*
X62008Y-44573D01*
X62008Y-44173D01*
X61985Y-44118D01*
X61943Y-44076D01*
X61888Y-44054D01*
X61829Y-44054D01*
X61488Y-44054D01*
X61429Y-44054D01*
X61088Y-44054D01*
X61029Y-44054D01*
X60629Y-44054D01*
X60574Y-44077D01*
X60532Y-44119D01*
X60510Y-44174D01*
X60510Y-44233D01*
X60510Y-44574D01*
X60510Y-44633D01*
X60510Y-44800D01*
X60462Y-44753D01*
X60395Y-44707D01*
X60383Y-44704D01*
X60383Y-44619D01*
X60377Y-44605D01*
X60383Y-44591D01*
X60383Y-44532D01*
X60383Y-44422D01*
X60377Y-44408D01*
X60383Y-44394D01*
X60383Y-44371D01*
X60445Y-44309D01*
X60483Y-44217D01*
X60484Y-44202D01*
X60422Y-44140D01*
X60330Y-44140D01*
X60318Y-44128D01*
X60280Y-44113D01*
X60319Y-44097D01*
X60330Y-44086D01*
X60422Y-44086D01*
X60484Y-44024D01*
X60483Y-44009D01*
X60449Y-43927D01*
X60458Y-43927D01*
X60471Y-43921D01*
X60486Y-43927D01*
X60545Y-43927D01*
X60655Y-43927D01*
X60668Y-43921D01*
X60683Y-43927D01*
X60742Y-43927D01*
X60852Y-43927D01*
X60865Y-43921D01*
X60880Y-43927D01*
X60939Y-43927D01*
X61049Y-43927D01*
X61062Y-43921D01*
X61077Y-43927D01*
X61136Y-43927D01*
X61246Y-43927D01*
X61259Y-43921D01*
X61274Y-43927D01*
X61333Y-43927D01*
X61443Y-43927D01*
X61456Y-43921D01*
X61471Y-43927D01*
X61530Y-43927D01*
X61640Y-43927D01*
X61653Y-43921D01*
X61668Y-43927D01*
X61727Y-43927D01*
X61837Y-43927D01*
X61850Y-43921D01*
X61865Y-43927D01*
X61924Y-43927D01*
X62034Y-43927D01*
X62047Y-43921D01*
X62062Y-43927D01*
X62069Y-43927D01*
X62035Y-44010D01*
X62034Y-44025D01*
X62096Y-44087D01*
X62188Y-44087D01*
X62200Y-44099D01*
X62237Y-44113D01*
X62199Y-44130D01*
X62188Y-44141D01*
X62096Y-44141D01*
X62034Y-44203D01*
X62035Y-44218D01*
X62073Y-44310D01*
X62135Y-44372D01*
X62135Y-44396D01*
X62140Y-44409D01*
X62135Y-44424D01*
X62135Y-44447D01*
X62073Y-44509D01*
X62035Y-44601D01*
X62034Y-44616D01*
X62096Y-44678D01*
X62188Y-44678D01*
X62200Y-44690D01*
X62237Y-44704D01*
X62237Y-44704D01*
G37*
G54D32*
X62237Y-44704D02*
X62199Y-44721D01*
X62188Y-44732D01*
X62096Y-44732D01*
X62034Y-44794D01*
X62035Y-44809D01*
X62073Y-44901D01*
X62135Y-44963D01*
X62135Y-44987D01*
X62140Y-45000D01*
X62135Y-45015D01*
X62135Y-45038D01*
X62073Y-45100D01*
X62035Y-45192D01*
X62034Y-45207D01*
X62096Y-45269D01*
X62101Y-45269D01*
X62073Y-45297D01*
X62038Y-45380D01*
X62034Y-45385D01*
X62034Y-45394D01*
X62034Y-45404D01*
X62038Y-45408D01*
X62073Y-45492D01*
X62101Y-45520D01*
X62096Y-45520D01*
X62034Y-45582D01*
X62035Y-45597D01*
X62068Y-45679D01*
X62060Y-45679D01*
X62046Y-45684D01*
X62032Y-45679D01*
X62009Y-45679D01*
X61947Y-45617D01*
X61855Y-45579D01*
X61840Y-45578D01*
X61778Y-45640D01*
X61778Y-45732D01*
X61766Y-45744D01*
X61751Y-45781D01*
X61735Y-45743D01*
X61724Y-45732D01*
X61724Y-45640D01*
X61662Y-45578D01*
X61647Y-45579D01*
X61555Y-45617D01*
X61493Y-45679D01*
X61469Y-45679D01*
X61455Y-45684D01*
X61441Y-45679D01*
X61382Y-45679D01*
X61272Y-45679D01*
X61258Y-45684D01*
X61244Y-45679D01*
X61185Y-45679D01*
X61075Y-45679D01*
X61061Y-45684D01*
X61047Y-45679D01*
X61024Y-45679D01*
X60962Y-45617D01*
X60870Y-45579D01*
X60855Y-45578D01*
X60793Y-45640D01*
X60793Y-45732D01*
X60781Y-45744D01*
X60766Y-45781D01*
X60750Y-45743D01*
X60739Y-45732D01*
X60739Y-45640D01*
X60677Y-45578D01*
X60662Y-45579D01*
X60600Y-45604D01*
X60602Y-45591D01*
X60603Y-45591D01*
X60603Y-45541D01*
X60630Y-45552D01*
X60689Y-45552D01*
X61030Y-45552D01*
X61089Y-45552D01*
X61430Y-45552D01*
X61489Y-45552D01*
X61889Y-45552D01*
X61944Y-45529D01*
X61986Y-45487D01*
X62008Y-45432D01*
X62008Y-45373D01*
X62008Y-45032D01*
X62008Y-44973D01*
X62008Y-44632D01*
X62008Y-44573D01*
X62008Y-44173D01*
X61985Y-44118D01*
X61943Y-44076D01*
X61888Y-44054D01*
X61829Y-44054D01*
X61488Y-44054D01*
X61429Y-44054D01*
X61088Y-44054D01*
X61029Y-44054D01*
X60629Y-44054D01*
X60574Y-44077D01*
X60532Y-44119D01*
X60510Y-44174D01*
X60510Y-44233D01*
X60510Y-44574D01*
X60510Y-44633D01*
X60510Y-44800D01*
X60462Y-44753D01*
X60395Y-44707D01*
X60383Y-44704D01*
X60383Y-44619D01*
X60377Y-44605D01*
X60383Y-44591D01*
X60383Y-44532D01*
X60383Y-44422D01*
X60377Y-44408D01*
X60383Y-44394D01*
X60383Y-44371D01*
X60445Y-44309D01*
X60483Y-44217D01*
X60484Y-44202D01*
X60422Y-44140D01*
X60330Y-44140D01*
X60318Y-44128D01*
X60280Y-44113D01*
X60319Y-44097D01*
X60330Y-44086D01*
X60422Y-44086D01*
X60484Y-44024D01*
X60483Y-44009D01*
X60449Y-43927D01*
X60458Y-43927D01*
X60471Y-43921D01*
X60486Y-43927D01*
X60545Y-43927D01*
X60655Y-43927D01*
X60668Y-43921D01*
X60683Y-43927D01*
X60742Y-43927D01*
X60852Y-43927D01*
X60865Y-43921D01*
X60880Y-43927D01*
X60939Y-43927D01*
X61049Y-43927D01*
X61062Y-43921D01*
X61077Y-43927D01*
X61136Y-43927D01*
X61246Y-43927D01*
X61259Y-43921D01*
X61274Y-43927D01*
X61333Y-43927D01*
X61443Y-43927D01*
X61456Y-43921D01*
X61471Y-43927D01*
X61530Y-43927D01*
X61640Y-43927D01*
X61653Y-43921D01*
X61668Y-43927D01*
X61727Y-43927D01*
X61837Y-43927D01*
X61850Y-43921D01*
X61865Y-43927D01*
X61924Y-43927D01*
X62034Y-43927D01*
X62047Y-43921D01*
X62062Y-43927D01*
X62069Y-43927D01*
X62035Y-44010D01*
X62034Y-44025D01*
X62096Y-44087D01*
X62188Y-44087D01*
X62200Y-44099D01*
X62237Y-44113D01*
X62199Y-44130D01*
X62188Y-44141D01*
X62096Y-44141D01*
X62034Y-44203D01*
X62035Y-44218D01*
X62073Y-44310D01*
X62135Y-44372D01*
X62135Y-44396D01*
X62140Y-44409D01*
X62135Y-44424D01*
X62135Y-44447D01*
X62073Y-44509D01*
X62035Y-44601D01*
X62034Y-44616D01*
X62096Y-44678D01*
X62188Y-44678D01*
X62200Y-44690D01*
X62237Y-44704D01*
G54D10*
G36*
X63926Y-31475D02*
X63758Y-31643D01*
X63751Y-31643D01*
X63751Y-26269D01*
X63741Y-26028D01*
X63668Y-25852D01*
X63567Y-25817D01*
X63496Y-25888D01*
X63496Y-25746D01*
X63461Y-25645D01*
X63234Y-25562D01*
X62993Y-25572D01*
X62817Y-25645D01*
X62782Y-25746D01*
X63139Y-26103D01*
X63496Y-25746D01*
X63496Y-25888D01*
X63210Y-26174D01*
X63567Y-26531D01*
X63668Y-26496D01*
X63751Y-26269D01*
X63751Y-31643D01*
X61745Y-31643D01*
X61745Y-30512D01*
X61744Y-30511D01*
X61731Y-30439D01*
X61689Y-30378D01*
X61689Y-30377D01*
X61354Y-30043D01*
X61293Y-30001D01*
X61220Y-29987D01*
X60232Y-29987D01*
X60265Y-29908D01*
X60265Y-29814D01*
X60678Y-29402D01*
X60678Y-29401D01*
X60708Y-29356D01*
X60723Y-29334D01*
X60724Y-29333D01*
X60739Y-29253D01*
X60740Y-29253D01*
X60740Y-29108D01*
X60805Y-29043D01*
X60855Y-28923D01*
X60855Y-28794D01*
X60806Y-28674D01*
X60715Y-28583D01*
X60595Y-28533D01*
X60494Y-28533D01*
X60573Y-28455D01*
X60573Y-28454D01*
X60577Y-28448D01*
X60594Y-28448D01*
X60649Y-28425D01*
X60691Y-28383D01*
X60713Y-28328D01*
X60713Y-28269D01*
X60713Y-27819D01*
X60690Y-27764D01*
X60648Y-27722D01*
X60629Y-27714D01*
X60629Y-27474D01*
X60615Y-27401D01*
X60610Y-27394D01*
X60639Y-27325D01*
X60698Y-27468D01*
X60844Y-27615D01*
X61035Y-27694D01*
X61242Y-27694D01*
X61433Y-27615D01*
X61580Y-27469D01*
X61639Y-27325D01*
X61698Y-27468D01*
X61844Y-27615D01*
X62035Y-27694D01*
X62242Y-27694D01*
X62433Y-27615D01*
X62580Y-27469D01*
X62639Y-27325D01*
X62698Y-27468D01*
X62844Y-27615D01*
X63035Y-27694D01*
X63242Y-27694D01*
X63433Y-27615D01*
X63580Y-27469D01*
X63659Y-27278D01*
X63659Y-27071D01*
X63580Y-26880D01*
X63434Y-26733D01*
X63411Y-26723D01*
X63461Y-26703D01*
X63496Y-26602D01*
X63139Y-26245D01*
X63068Y-26316D01*
X63068Y-26174D01*
X62711Y-25817D01*
X62639Y-25841D01*
X62567Y-25817D01*
X62496Y-25888D01*
X62496Y-25746D01*
X62461Y-25645D01*
X62234Y-25562D01*
X61993Y-25572D01*
X61817Y-25645D01*
X61782Y-25746D01*
X62139Y-26103D01*
X62496Y-25746D01*
X62496Y-25888D01*
X62210Y-26174D01*
X62567Y-26531D01*
X62639Y-26506D01*
X62711Y-26531D01*
X63068Y-26174D01*
X63068Y-26316D01*
X62782Y-26602D01*
X62817Y-26703D01*
X62870Y-26722D01*
X62845Y-26733D01*
X62698Y-26879D01*
X62638Y-27022D01*
X62580Y-26880D01*
X62434Y-26733D01*
X62411Y-26723D01*
X62461Y-26703D01*
X62496Y-26602D01*
X62139Y-26245D01*
X62068Y-26316D01*
X62068Y-26174D01*
X61711Y-25817D01*
X61639Y-25841D01*
X61567Y-25817D01*
X61496Y-25888D01*
X61496Y-25746D01*
X61461Y-25645D01*
X61234Y-25562D01*
X60993Y-25572D01*
X60817Y-25645D01*
X60782Y-25746D01*
X61139Y-26103D01*
X61496Y-25746D01*
X61496Y-25888D01*
X61210Y-26174D01*
X61567Y-26531D01*
X61639Y-26506D01*
X61711Y-26531D01*
X62068Y-26174D01*
X62068Y-26316D01*
X61782Y-26602D01*
X61817Y-26703D01*
X61870Y-26722D01*
X61845Y-26733D01*
X61698Y-26879D01*
X61638Y-27022D01*
X61580Y-26880D01*
X61434Y-26733D01*
X61411Y-26723D01*
X61461Y-26703D01*
X61496Y-26602D01*
X61139Y-26245D01*
X61068Y-26316D01*
X61068Y-26174D01*
X60711Y-25817D01*
X60639Y-25841D01*
X60567Y-25817D01*
X60496Y-25888D01*
X60496Y-25746D01*
X60461Y-25645D01*
X60234Y-25562D01*
X59993Y-25572D01*
X59817Y-25645D01*
X59782Y-25746D01*
X60139Y-26103D01*
X60496Y-25746D01*
X60496Y-25888D01*
X60210Y-26174D01*
X60567Y-26531D01*
X60639Y-26506D01*
X60711Y-26531D01*
X61068Y-26174D01*
X61068Y-26316D01*
X60782Y-26602D01*
X60817Y-26703D01*
X60870Y-26722D01*
X60845Y-26733D01*
X60698Y-26879D01*
X60638Y-27022D01*
X60580Y-26880D01*
X60434Y-26733D01*
X60411Y-26723D01*
X60461Y-26703D01*
X60496Y-26602D01*
X60139Y-26245D01*
X60068Y-26316D01*
X60068Y-26174D01*
X59711Y-25817D01*
X59639Y-25841D01*
X59567Y-25817D01*
X59496Y-25888D01*
X59496Y-25746D01*
X59461Y-25645D01*
X59234Y-25562D01*
X58993Y-25572D01*
X58817Y-25645D01*
X58782Y-25746D01*
X59139Y-26103D01*
X59496Y-25746D01*
X59496Y-25888D01*
X59210Y-26174D01*
X59567Y-26531D01*
X59639Y-26506D01*
X59711Y-26531D01*
X60068Y-26174D01*
X60068Y-26316D01*
X59782Y-26602D01*
X59817Y-26703D01*
X59870Y-26722D01*
X59845Y-26733D01*
X59698Y-26879D01*
X59638Y-27022D01*
X59580Y-26880D01*
X59434Y-26733D01*
X59411Y-26723D01*
X59461Y-26703D01*
X59496Y-26602D01*
X59139Y-26245D01*
X59068Y-26316D01*
X59068Y-26174D01*
X58711Y-25817D01*
X58639Y-25841D01*
X58567Y-25817D01*
X58496Y-25888D01*
X58496Y-25746D01*
X58461Y-25645D01*
X58234Y-25562D01*
X57993Y-25572D01*
X57817Y-25645D01*
X57782Y-25746D01*
X58139Y-26103D01*
X58496Y-25746D01*
X58496Y-25888D01*
X58210Y-26174D01*
X58567Y-26531D01*
X58639Y-26506D01*
X58711Y-26531D01*
X59068Y-26174D01*
X59068Y-26316D01*
X58782Y-26602D01*
X58817Y-26703D01*
X58870Y-26722D01*
X58845Y-26733D01*
X58698Y-26879D01*
X58638Y-27022D01*
X58580Y-26880D01*
X58434Y-26733D01*
X58411Y-26723D01*
X58461Y-26703D01*
X58496Y-26602D01*
X58139Y-26245D01*
X58068Y-26316D01*
X58068Y-26174D01*
X57711Y-25817D01*
X57639Y-25841D01*
X57567Y-25817D01*
X57496Y-25888D01*
X57496Y-25746D01*
X57461Y-25645D01*
X57234Y-25562D01*
X56993Y-25572D01*
X56817Y-25645D01*
X56782Y-25746D01*
X57139Y-26103D01*
X57496Y-25746D01*
X57496Y-25888D01*
X57210Y-26174D01*
X57567Y-26531D01*
X57639Y-26506D01*
X57711Y-26531D01*
X58068Y-26174D01*
X58068Y-26316D01*
X57782Y-26602D01*
X57817Y-26703D01*
X57870Y-26722D01*
X57845Y-26733D01*
X57698Y-26879D01*
X57638Y-27022D01*
X57580Y-26880D01*
X57434Y-26733D01*
X57411Y-26723D01*
X57461Y-26703D01*
X57496Y-26602D01*
X57139Y-26245D01*
X57068Y-26316D01*
X57068Y-26174D01*
X56711Y-25817D01*
X56639Y-25841D01*
X56567Y-25817D01*
X56496Y-25888D01*
X56496Y-25746D01*
X56461Y-25645D01*
X56234Y-25562D01*
X55993Y-25572D01*
X55817Y-25645D01*
X55782Y-25746D01*
X56139Y-26103D01*
X56496Y-25746D01*
X56496Y-25888D01*
X56210Y-26174D01*
X56567Y-26531D01*
X56639Y-26506D01*
X56711Y-26531D01*
X57068Y-26174D01*
X57068Y-26316D01*
X56782Y-26602D01*
X56817Y-26703D01*
X56870Y-26722D01*
X56845Y-26733D01*
X56698Y-26879D01*
X56638Y-27022D01*
X56580Y-26880D01*
X56434Y-26733D01*
X56411Y-26723D01*
X56461Y-26703D01*
X56496Y-26602D01*
X56139Y-26245D01*
X56068Y-26316D01*
X56068Y-26174D01*
X55711Y-25817D01*
X55639Y-25841D01*
X55567Y-25817D01*
X55496Y-25888D01*
X55496Y-25746D01*
X55461Y-25645D01*
X55234Y-25562D01*
X54993Y-25572D01*
X54817Y-25645D01*
X54782Y-25746D01*
X55139Y-26103D01*
X55496Y-25746D01*
X55496Y-25888D01*
X55210Y-26174D01*
X55567Y-26531D01*
X55639Y-26506D01*
X55711Y-26531D01*
X56068Y-26174D01*
X56068Y-26316D01*
X55782Y-26602D01*
X55817Y-26703D01*
X55870Y-26722D01*
X55845Y-26733D01*
X55698Y-26879D01*
X55638Y-27022D01*
X55580Y-26880D01*
X55434Y-26733D01*
X55411Y-26723D01*
X55461Y-26703D01*
X55496Y-26602D01*
X55139Y-26245D01*
X54782Y-26602D01*
X54817Y-26703D01*
X54870Y-26722D01*
X54845Y-26733D01*
X54698Y-26879D01*
X54638Y-27022D01*
X54580Y-26880D01*
X54434Y-26733D01*
X54290Y-26673D01*
X54433Y-26615D01*
X54580Y-26469D01*
X54589Y-26446D01*
X54610Y-26496D01*
X54711Y-26531D01*
X55068Y-26174D01*
X54711Y-25817D01*
X54610Y-25852D01*
X54590Y-25905D01*
X54580Y-25880D01*
X54434Y-25733D01*
X54243Y-25654D01*
X54036Y-25654D01*
X53845Y-25733D01*
X53698Y-25879D01*
X53619Y-26070D01*
X53619Y-26277D01*
X53698Y-26468D01*
X53844Y-26615D01*
X53987Y-26674D01*
X53845Y-26733D01*
X53698Y-26879D01*
X53619Y-27070D01*
X53619Y-27277D01*
X53698Y-27468D01*
X53844Y-27615D01*
X54035Y-27694D01*
X54242Y-27694D01*
X54327Y-27658D01*
X54890Y-28222D01*
X54891Y-28222D01*
X54936Y-28252D01*
X54958Y-28267D01*
X54959Y-28268D01*
X55038Y-28283D01*
X55039Y-28284D01*
X55515Y-28284D01*
X55515Y-28329D01*
X55538Y-28384D01*
X55579Y-28425D01*
X55579Y-28572D01*
X55514Y-28637D01*
X55464Y-28757D01*
X55464Y-28886D01*
X55513Y-29006D01*
X55604Y-29097D01*
X55724Y-29147D01*
X55817Y-29147D01*
X58196Y-31526D01*
X58197Y-31526D01*
X58198Y-31527D01*
X58313Y-31643D01*
X52383Y-31643D01*
X52215Y-31475D01*
X52215Y-25612D01*
X52383Y-25444D01*
X63758Y-25444D01*
X63926Y-25612D01*
X63926Y-31475D01*
X63926Y-31475D01*
G37*
G54D32*
X63926Y-31475D02*
X63758Y-31643D01*
X63751Y-31643D01*
X63751Y-26269D01*
X63741Y-26028D01*
X63668Y-25852D01*
X63567Y-25817D01*
X63496Y-25888D01*
X63496Y-25746D01*
X63461Y-25645D01*
X63234Y-25562D01*
X62993Y-25572D01*
X62817Y-25645D01*
X62782Y-25746D01*
X63139Y-26103D01*
X63496Y-25746D01*
X63496Y-25888D01*
X63210Y-26174D01*
X63567Y-26531D01*
X63668Y-26496D01*
X63751Y-26269D01*
X63751Y-31643D01*
X61745Y-31643D01*
X61745Y-30512D01*
X61744Y-30511D01*
X61731Y-30439D01*
X61689Y-30378D01*
X61689Y-30377D01*
X61354Y-30043D01*
X61293Y-30001D01*
X61220Y-29987D01*
X60232Y-29987D01*
X60265Y-29908D01*
X60265Y-29814D01*
X60678Y-29402D01*
X60678Y-29401D01*
X60708Y-29356D01*
X60723Y-29334D01*
X60724Y-29333D01*
X60739Y-29253D01*
X60740Y-29253D01*
X60740Y-29108D01*
X60805Y-29043D01*
X60855Y-28923D01*
X60855Y-28794D01*
X60806Y-28674D01*
X60715Y-28583D01*
X60595Y-28533D01*
X60494Y-28533D01*
X60573Y-28455D01*
X60573Y-28454D01*
X60577Y-28448D01*
X60594Y-28448D01*
X60649Y-28425D01*
X60691Y-28383D01*
X60713Y-28328D01*
X60713Y-28269D01*
X60713Y-27819D01*
X60690Y-27764D01*
X60648Y-27722D01*
X60629Y-27714D01*
X60629Y-27474D01*
X60615Y-27401D01*
X60610Y-27394D01*
X60639Y-27325D01*
X60698Y-27468D01*
X60844Y-27615D01*
X61035Y-27694D01*
X61242Y-27694D01*
X61433Y-27615D01*
X61580Y-27469D01*
X61639Y-27325D01*
X61698Y-27468D01*
X61844Y-27615D01*
X62035Y-27694D01*
X62242Y-27694D01*
X62433Y-27615D01*
X62580Y-27469D01*
X62639Y-27325D01*
X62698Y-27468D01*
X62844Y-27615D01*
X63035Y-27694D01*
X63242Y-27694D01*
X63433Y-27615D01*
X63580Y-27469D01*
X63659Y-27278D01*
X63659Y-27071D01*
X63580Y-26880D01*
X63434Y-26733D01*
X63411Y-26723D01*
X63461Y-26703D01*
X63496Y-26602D01*
X63139Y-26245D01*
X63068Y-26316D01*
X63068Y-26174D01*
X62711Y-25817D01*
X62639Y-25841D01*
X62567Y-25817D01*
X62496Y-25888D01*
X62496Y-25746D01*
X62461Y-25645D01*
X62234Y-25562D01*
X61993Y-25572D01*
X61817Y-25645D01*
X61782Y-25746D01*
X62139Y-26103D01*
X62496Y-25746D01*
X62496Y-25888D01*
X62210Y-26174D01*
X62567Y-26531D01*
X62639Y-26506D01*
X62711Y-26531D01*
X63068Y-26174D01*
X63068Y-26316D01*
X62782Y-26602D01*
X62817Y-26703D01*
X62870Y-26722D01*
X62845Y-26733D01*
X62698Y-26879D01*
X62638Y-27022D01*
X62580Y-26880D01*
X62434Y-26733D01*
X62411Y-26723D01*
X62461Y-26703D01*
X62496Y-26602D01*
X62139Y-26245D01*
X62068Y-26316D01*
X62068Y-26174D01*
X61711Y-25817D01*
X61639Y-25841D01*
X61567Y-25817D01*
X61496Y-25888D01*
X61496Y-25746D01*
X61461Y-25645D01*
X61234Y-25562D01*
X60993Y-25572D01*
X60817Y-25645D01*
X60782Y-25746D01*
X61139Y-26103D01*
X61496Y-25746D01*
X61496Y-25888D01*
X61210Y-26174D01*
X61567Y-26531D01*
X61639Y-26506D01*
X61711Y-26531D01*
X62068Y-26174D01*
X62068Y-26316D01*
X61782Y-26602D01*
X61817Y-26703D01*
X61870Y-26722D01*
X61845Y-26733D01*
X61698Y-26879D01*
X61638Y-27022D01*
X61580Y-26880D01*
X61434Y-26733D01*
X61411Y-26723D01*
X61461Y-26703D01*
X61496Y-26602D01*
X61139Y-26245D01*
X61068Y-26316D01*
X61068Y-26174D01*
X60711Y-25817D01*
X60639Y-25841D01*
X60567Y-25817D01*
X60496Y-25888D01*
X60496Y-25746D01*
X60461Y-25645D01*
X60234Y-25562D01*
X59993Y-25572D01*
X59817Y-25645D01*
X59782Y-25746D01*
X60139Y-26103D01*
X60496Y-25746D01*
X60496Y-25888D01*
X60210Y-26174D01*
X60567Y-26531D01*
X60639Y-26506D01*
X60711Y-26531D01*
X61068Y-26174D01*
X61068Y-26316D01*
X60782Y-26602D01*
X60817Y-26703D01*
X60870Y-26722D01*
X60845Y-26733D01*
X60698Y-26879D01*
X60638Y-27022D01*
X60580Y-26880D01*
X60434Y-26733D01*
X60411Y-26723D01*
X60461Y-26703D01*
X60496Y-26602D01*
X60139Y-26245D01*
X60068Y-26316D01*
X60068Y-26174D01*
X59711Y-25817D01*
X59639Y-25841D01*
X59567Y-25817D01*
X59496Y-25888D01*
X59496Y-25746D01*
X59461Y-25645D01*
X59234Y-25562D01*
X58993Y-25572D01*
X58817Y-25645D01*
X58782Y-25746D01*
X59139Y-26103D01*
X59496Y-25746D01*
X59496Y-25888D01*
X59210Y-26174D01*
X59567Y-26531D01*
X59639Y-26506D01*
X59711Y-26531D01*
X60068Y-26174D01*
X60068Y-26316D01*
X59782Y-26602D01*
X59817Y-26703D01*
X59870Y-26722D01*
X59845Y-26733D01*
X59698Y-26879D01*
X59638Y-27022D01*
X59580Y-26880D01*
X59434Y-26733D01*
X59411Y-26723D01*
X59461Y-26703D01*
X59496Y-26602D01*
X59139Y-26245D01*
X59068Y-26316D01*
X59068Y-26174D01*
X58711Y-25817D01*
X58639Y-25841D01*
X58567Y-25817D01*
X58496Y-25888D01*
X58496Y-25746D01*
X58461Y-25645D01*
X58234Y-25562D01*
X57993Y-25572D01*
X57817Y-25645D01*
X57782Y-25746D01*
X58139Y-26103D01*
X58496Y-25746D01*
X58496Y-25888D01*
X58210Y-26174D01*
X58567Y-26531D01*
X58639Y-26506D01*
X58711Y-26531D01*
X59068Y-26174D01*
X59068Y-26316D01*
X58782Y-26602D01*
X58817Y-26703D01*
X58870Y-26722D01*
X58845Y-26733D01*
X58698Y-26879D01*
X58638Y-27022D01*
X58580Y-26880D01*
X58434Y-26733D01*
X58411Y-26723D01*
X58461Y-26703D01*
X58496Y-26602D01*
X58139Y-26245D01*
X58068Y-26316D01*
X58068Y-26174D01*
X57711Y-25817D01*
X57639Y-25841D01*
X57567Y-25817D01*
X57496Y-25888D01*
X57496Y-25746D01*
X57461Y-25645D01*
X57234Y-25562D01*
X56993Y-25572D01*
X56817Y-25645D01*
X56782Y-25746D01*
X57139Y-26103D01*
X57496Y-25746D01*
X57496Y-25888D01*
X57210Y-26174D01*
X57567Y-26531D01*
X57639Y-26506D01*
X57711Y-26531D01*
X58068Y-26174D01*
X58068Y-26316D01*
X57782Y-26602D01*
X57817Y-26703D01*
X57870Y-26722D01*
X57845Y-26733D01*
X57698Y-26879D01*
X57638Y-27022D01*
X57580Y-26880D01*
X57434Y-26733D01*
X57411Y-26723D01*
X57461Y-26703D01*
X57496Y-26602D01*
X57139Y-26245D01*
X57068Y-26316D01*
X57068Y-26174D01*
X56711Y-25817D01*
X56639Y-25841D01*
X56567Y-25817D01*
X56496Y-25888D01*
X56496Y-25746D01*
X56461Y-25645D01*
X56234Y-25562D01*
X55993Y-25572D01*
X55817Y-25645D01*
X55782Y-25746D01*
X56139Y-26103D01*
X56496Y-25746D01*
X56496Y-25888D01*
X56210Y-26174D01*
X56567Y-26531D01*
X56639Y-26506D01*
X56711Y-26531D01*
X57068Y-26174D01*
X57068Y-26316D01*
X56782Y-26602D01*
X56817Y-26703D01*
X56870Y-26722D01*
X56845Y-26733D01*
X56698Y-26879D01*
X56638Y-27022D01*
X56580Y-26880D01*
X56434Y-26733D01*
X56411Y-26723D01*
X56461Y-26703D01*
X56496Y-26602D01*
X56139Y-26245D01*
X56068Y-26316D01*
X56068Y-26174D01*
X55711Y-25817D01*
X55639Y-25841D01*
X55567Y-25817D01*
X55496Y-25888D01*
X55496Y-25746D01*
X55461Y-25645D01*
X55234Y-25562D01*
X54993Y-25572D01*
X54817Y-25645D01*
X54782Y-25746D01*
X55139Y-26103D01*
X55496Y-25746D01*
X55496Y-25888D01*
X55210Y-26174D01*
X55567Y-26531D01*
X55639Y-26506D01*
X55711Y-26531D01*
X56068Y-26174D01*
X56068Y-26316D01*
X55782Y-26602D01*
X55817Y-26703D01*
X55870Y-26722D01*
X55845Y-26733D01*
X55698Y-26879D01*
X55638Y-27022D01*
X55580Y-26880D01*
X55434Y-26733D01*
X55411Y-26723D01*
X55461Y-26703D01*
X55496Y-26602D01*
X55139Y-26245D01*
X54782Y-26602D01*
X54817Y-26703D01*
X54870Y-26722D01*
X54845Y-26733D01*
X54698Y-26879D01*
X54638Y-27022D01*
X54580Y-26880D01*
X54434Y-26733D01*
X54290Y-26673D01*
X54433Y-26615D01*
X54580Y-26469D01*
X54589Y-26446D01*
X54610Y-26496D01*
X54711Y-26531D01*
X55068Y-26174D01*
X54711Y-25817D01*
X54610Y-25852D01*
X54590Y-25905D01*
X54580Y-25880D01*
X54434Y-25733D01*
X54243Y-25654D01*
X54036Y-25654D01*
X53845Y-25733D01*
X53698Y-25879D01*
X53619Y-26070D01*
X53619Y-26277D01*
X53698Y-26468D01*
X53844Y-26615D01*
X53987Y-26674D01*
X53845Y-26733D01*
X53698Y-26879D01*
X53619Y-27070D01*
X53619Y-27277D01*
X53698Y-27468D01*
X53844Y-27615D01*
X54035Y-27694D01*
X54242Y-27694D01*
X54327Y-27658D01*
X54890Y-28222D01*
X54891Y-28222D01*
X54936Y-28252D01*
X54958Y-28267D01*
X54959Y-28268D01*
X55038Y-28283D01*
X55039Y-28284D01*
X55515Y-28284D01*
X55515Y-28329D01*
X55538Y-28384D01*
X55579Y-28425D01*
X55579Y-28572D01*
X55514Y-28637D01*
X55464Y-28757D01*
X55464Y-28886D01*
X55513Y-29006D01*
X55604Y-29097D01*
X55724Y-29147D01*
X55817Y-29147D01*
X58196Y-31526D01*
X58197Y-31526D01*
X58198Y-31527D01*
X58313Y-31643D01*
X52383Y-31643D01*
X52215Y-31475D01*
X52215Y-25612D01*
X52383Y-25444D01*
X63758Y-25444D01*
X63926Y-25612D01*
X63926Y-31475D01*
G54D10*
G36*
X63926Y-48413D02*
X63748Y-48769D01*
X63554Y-48769D01*
X63554Y-46462D01*
X63492Y-46400D01*
X63129Y-46400D01*
X63129Y-46663D01*
X63191Y-46725D01*
X63255Y-46724D01*
X63354Y-46724D01*
X63445Y-46686D01*
X63515Y-46616D01*
X63553Y-46524D01*
X63554Y-46462D01*
X63554Y-48769D01*
X63180Y-48769D01*
X63180Y-48305D01*
X63180Y-48151D01*
X63121Y-48009D01*
X63029Y-47917D01*
X63029Y-46663D01*
X63029Y-46400D01*
X62666Y-46400D01*
X62604Y-46462D01*
X62605Y-46524D01*
X62643Y-46616D01*
X62713Y-46686D01*
X62804Y-46724D01*
X62903Y-46724D01*
X62967Y-46725D01*
X63029Y-46663D01*
X63029Y-47917D01*
X63012Y-47901D01*
X62871Y-47842D01*
X62717Y-47842D01*
X62704Y-47847D01*
X62704Y-47612D01*
X62642Y-47550D01*
X62279Y-47550D01*
X62279Y-47813D01*
X62341Y-47875D01*
X62405Y-47874D01*
X62504Y-47874D01*
X62595Y-47836D01*
X62665Y-47766D01*
X62703Y-47674D01*
X62704Y-47612D01*
X62704Y-47847D01*
X62575Y-47901D01*
X62467Y-48010D01*
X62408Y-48151D01*
X62408Y-48305D01*
X62467Y-48447D01*
X62576Y-48555D01*
X62717Y-48614D01*
X62871Y-48614D01*
X63013Y-48555D01*
X63121Y-48446D01*
X63180Y-48305D01*
X63180Y-48769D01*
X62393Y-48769D01*
X62393Y-48306D01*
X62393Y-48152D01*
X62334Y-48010D01*
X62225Y-47902D01*
X62129Y-47862D01*
X62179Y-47813D01*
X62179Y-47550D01*
X61992Y-47550D01*
X61816Y-47550D01*
X61629Y-47550D01*
X61629Y-47813D01*
X61691Y-47875D01*
X61755Y-47874D01*
X61854Y-47874D01*
X61788Y-47902D01*
X61680Y-48011D01*
X61621Y-48152D01*
X61621Y-48306D01*
X61680Y-48448D01*
X61789Y-48556D01*
X61930Y-48615D01*
X62084Y-48615D01*
X62226Y-48556D01*
X62334Y-48447D01*
X62393Y-48306D01*
X62393Y-48769D01*
X60819Y-48769D01*
X60819Y-48306D01*
X60819Y-48152D01*
X60760Y-48010D01*
X60651Y-47902D01*
X60510Y-47843D01*
X60356Y-47843D01*
X60214Y-47902D01*
X60106Y-48011D01*
X60091Y-48046D01*
X60066Y-47985D01*
X59979Y-47966D01*
X59908Y-48037D01*
X59908Y-47895D01*
X59889Y-47808D01*
X59709Y-47747D01*
X59521Y-47759D01*
X59401Y-47808D01*
X59382Y-47895D01*
X59645Y-48158D01*
X59908Y-47895D01*
X59908Y-48037D01*
X59716Y-48229D01*
X59979Y-48492D01*
X60066Y-48473D01*
X60088Y-48406D01*
X60106Y-48448D01*
X60215Y-48556D01*
X60356Y-48615D01*
X60510Y-48615D01*
X60652Y-48556D01*
X60760Y-48447D01*
X60819Y-48306D01*
X60819Y-48769D01*
X59908Y-48769D01*
X59908Y-48563D01*
X59645Y-48300D01*
X59574Y-48371D01*
X59574Y-48229D01*
X59311Y-47966D01*
X59224Y-47985D01*
X59163Y-48165D01*
X59175Y-48353D01*
X59224Y-48473D01*
X59311Y-48492D01*
X59574Y-48229D01*
X59574Y-48371D01*
X59382Y-48563D01*
X59401Y-48650D01*
X59581Y-48711D01*
X59769Y-48699D01*
X59889Y-48650D01*
X59908Y-48563D01*
X59908Y-48769D01*
X57919Y-48769D01*
X57919Y-46529D01*
X57919Y-46305D01*
X57918Y-46241D01*
X57918Y-46142D01*
X57880Y-46051D01*
X57810Y-45981D01*
X57718Y-45943D01*
X57656Y-45942D01*
X57594Y-46004D01*
X57594Y-46367D01*
X57857Y-46367D01*
X57919Y-46305D01*
X57919Y-46529D01*
X57857Y-46467D01*
X57594Y-46467D01*
X57594Y-46830D01*
X57656Y-46892D01*
X57718Y-46891D01*
X57810Y-46853D01*
X57880Y-46783D01*
X57918Y-46692D01*
X57918Y-46593D01*
X57919Y-46529D01*
X57919Y-48769D01*
X54201Y-48769D01*
X54201Y-47030D01*
X54201Y-46767D01*
X53838Y-46767D01*
X53776Y-46829D01*
X53777Y-46891D01*
X53815Y-46983D01*
X53885Y-47053D01*
X53976Y-47091D01*
X54075Y-47091D01*
X54139Y-47092D01*
X54201Y-47030D01*
X54201Y-48769D01*
X52393Y-48769D01*
X52215Y-48413D01*
X52215Y-44377D01*
X53877Y-46039D01*
X53877Y-46272D01*
X53900Y-46327D01*
X53933Y-46360D01*
X53885Y-46381D01*
X53815Y-46451D01*
X53777Y-46543D01*
X53776Y-46605D01*
X53838Y-46667D01*
X54151Y-46667D01*
X54201Y-46667D01*
X54301Y-46667D01*
X54301Y-46767D01*
X54301Y-46817D01*
X54301Y-47030D01*
X54363Y-47092D01*
X54427Y-47091D01*
X54526Y-47091D01*
X54617Y-47053D01*
X54679Y-46991D01*
X54706Y-46991D01*
X55156Y-46991D01*
X55188Y-46977D01*
X55230Y-47019D01*
X55285Y-47041D01*
X55344Y-47041D01*
X55644Y-47041D01*
X55699Y-47018D01*
X55741Y-46976D01*
X55763Y-46921D01*
X55763Y-46862D01*
X55763Y-46662D01*
X55740Y-46607D01*
X55698Y-46565D01*
X55643Y-46543D01*
X55584Y-46543D01*
X55499Y-46543D01*
X55470Y-46523D01*
X55456Y-46520D01*
X55389Y-46507D01*
X55252Y-46507D01*
X55210Y-46465D01*
X55155Y-46443D01*
X55096Y-46443D01*
X54679Y-46443D01*
X54617Y-46381D01*
X54568Y-46360D01*
X54576Y-46353D01*
X54592Y-46369D01*
X54647Y-46391D01*
X54706Y-46391D01*
X55156Y-46391D01*
X55211Y-46368D01*
X55252Y-46327D01*
X55389Y-46327D01*
X55389Y-46326D01*
X55456Y-46313D01*
X55469Y-46311D01*
X55470Y-46311D01*
X55498Y-46291D01*
X55499Y-46291D01*
X55644Y-46291D01*
X55699Y-46268D01*
X55741Y-46226D01*
X55763Y-46171D01*
X55763Y-46112D01*
X55763Y-45912D01*
X55740Y-45857D01*
X55698Y-45815D01*
X55674Y-45805D01*
X55674Y-45724D01*
X55814Y-45584D01*
X56358Y-45584D01*
X56358Y-45583D01*
X56425Y-45570D01*
X56438Y-45568D01*
X56439Y-45568D01*
X56506Y-45522D01*
X56683Y-45345D01*
X56756Y-45345D01*
X56876Y-45296D01*
X56915Y-45257D01*
X56915Y-45294D01*
X56416Y-45793D01*
X56284Y-45793D01*
X56229Y-45816D01*
X56187Y-45858D01*
X56165Y-45913D01*
X56165Y-45972D01*
X56165Y-46114D01*
X56103Y-46176D01*
X56065Y-46268D01*
X56064Y-46305D01*
X56126Y-46367D01*
X56364Y-46367D01*
X56414Y-46367D01*
X56514Y-46367D01*
X56514Y-46467D01*
X56414Y-46467D01*
X56364Y-46467D01*
X56126Y-46467D01*
X56064Y-46529D01*
X56065Y-46566D01*
X56103Y-46658D01*
X56165Y-46720D01*
X56165Y-46722D01*
X56165Y-46922D01*
X56188Y-46977D01*
X56230Y-47019D01*
X56285Y-47041D01*
X56344Y-47041D01*
X56644Y-47041D01*
X56699Y-47018D01*
X56720Y-46996D01*
X56759Y-46988D01*
X56772Y-46986D01*
X56773Y-46986D01*
X56840Y-46940D01*
X56989Y-46791D01*
X57099Y-46791D01*
X57154Y-46768D01*
X57187Y-46734D01*
X57208Y-46783D01*
X57278Y-46853D01*
X57370Y-46891D01*
X57432Y-46892D01*
X57494Y-46830D01*
X57494Y-46517D01*
X57494Y-46467D01*
X57494Y-46367D01*
X57494Y-46317D01*
X57494Y-46004D01*
X57432Y-45942D01*
X57370Y-45943D01*
X57278Y-45981D01*
X57208Y-46051D01*
X57187Y-46099D01*
X57153Y-46065D01*
X57098Y-46043D01*
X57039Y-46043D01*
X56988Y-46043D01*
X56873Y-45928D01*
X57273Y-45530D01*
X57273Y-45529D01*
X57303Y-45484D01*
X57318Y-45462D01*
X57319Y-45461D01*
X57334Y-45382D01*
X57335Y-45381D01*
X57335Y-45336D01*
X57356Y-45345D01*
X57485Y-45345D01*
X57605Y-45296D01*
X57696Y-45205D01*
X57746Y-45085D01*
X57746Y-44956D01*
X57697Y-44836D01*
X57690Y-44829D01*
X57690Y-43639D01*
X57697Y-43656D01*
X57739Y-43698D01*
X57794Y-43720D01*
X57853Y-43720D01*
X58103Y-43720D01*
X58158Y-43697D01*
X58200Y-43655D01*
X58222Y-43600D01*
X58222Y-43541D01*
X58222Y-43091D01*
X58199Y-43036D01*
X58164Y-43001D01*
X58200Y-42966D01*
X58222Y-42911D01*
X58222Y-42852D01*
X58222Y-42431D01*
X58256Y-42431D01*
X58271Y-42446D01*
X58272Y-42446D01*
X58273Y-42447D01*
X58274Y-42448D01*
X58274Y-42462D01*
X58274Y-42912D01*
X58297Y-42967D01*
X58331Y-43001D01*
X58296Y-43037D01*
X58274Y-43092D01*
X58274Y-43151D01*
X58274Y-43601D01*
X58297Y-43656D01*
X58339Y-43698D01*
X58358Y-43705D01*
X58358Y-43741D01*
X58347Y-43752D01*
X58297Y-43872D01*
X58297Y-44001D01*
X58346Y-44121D01*
X58437Y-44212D01*
X58557Y-44262D01*
X58686Y-44262D01*
X58806Y-44213D01*
X58897Y-44122D01*
X58947Y-44002D01*
X58947Y-43873D01*
X58898Y-43753D01*
X58807Y-43662D01*
X58797Y-43657D01*
X58800Y-43655D01*
X58822Y-43600D01*
X58822Y-43541D01*
X58822Y-43091D01*
X58799Y-43036D01*
X58764Y-43001D01*
X58800Y-42966D01*
X58822Y-42911D01*
X58822Y-42852D01*
X58822Y-42402D01*
X58799Y-42347D01*
X58757Y-42305D01*
X58702Y-42283D01*
X58700Y-42283D01*
X58696Y-42278D01*
X58696Y-42277D01*
X58569Y-42151D01*
X58568Y-42150D01*
X58568Y-42149D01*
X58553Y-42134D01*
X58553Y-42042D01*
X58528Y-41982D01*
X58633Y-41982D01*
X59269Y-42617D01*
X59269Y-43126D01*
X59224Y-43126D01*
X59169Y-43149D01*
X59127Y-43191D01*
X59105Y-43246D01*
X59105Y-43305D01*
X59105Y-43555D01*
X59128Y-43610D01*
X59161Y-43643D01*
X59113Y-43664D01*
X59043Y-43734D01*
X59005Y-43826D01*
X59004Y-43888D01*
X59066Y-43950D01*
X59379Y-43950D01*
X59429Y-43950D01*
X59529Y-43950D01*
X59529Y-44050D01*
X59429Y-44050D01*
X59379Y-44050D01*
X59066Y-44050D01*
X59004Y-44112D01*
X59005Y-44174D01*
X59043Y-44266D01*
X59113Y-44336D01*
X59136Y-44345D01*
X59123Y-44360D01*
X59077Y-44427D01*
X59074Y-44440D01*
X59061Y-44508D01*
X59061Y-45335D01*
X59074Y-45402D01*
X59077Y-45416D01*
X59105Y-45456D01*
X59105Y-45480D01*
X59004Y-45581D01*
X58912Y-45581D01*
X58792Y-45630D01*
X58701Y-45721D01*
X58651Y-45841D01*
X58651Y-45970D01*
X58700Y-46090D01*
X58732Y-46122D01*
X58701Y-46154D01*
X58651Y-46274D01*
X58651Y-46403D01*
X58700Y-46523D01*
X58791Y-46614D01*
X58911Y-46664D01*
X59040Y-46664D01*
X59160Y-46615D01*
X59251Y-46524D01*
X59271Y-46474D01*
X59284Y-46474D01*
X59734Y-46474D01*
X59789Y-46451D01*
X59831Y-46409D01*
X59832Y-46406D01*
X59832Y-46521D01*
X59867Y-46609D01*
X59843Y-46634D01*
X59805Y-46726D01*
X59804Y-46788D01*
X59866Y-46850D01*
X60179Y-46850D01*
X60229Y-46850D01*
X60329Y-46850D01*
X60329Y-46950D01*
X60229Y-46950D01*
X60179Y-46950D01*
X59866Y-46950D01*
X59804Y-47012D01*
X59805Y-47074D01*
X59843Y-47166D01*
X59913Y-47236D01*
X59961Y-47256D01*
X59927Y-47291D01*
X59905Y-47346D01*
X59905Y-47405D01*
X59905Y-47655D01*
X59928Y-47710D01*
X59970Y-47752D01*
X60025Y-47774D01*
X60084Y-47774D01*
X60534Y-47774D01*
X60589Y-47751D01*
X60604Y-47736D01*
X60620Y-47752D01*
X60675Y-47774D01*
X60734Y-47774D01*
X61151Y-47774D01*
X61213Y-47836D01*
X61229Y-47843D01*
X61142Y-47843D01*
X61000Y-47902D01*
X60892Y-48011D01*
X60833Y-48152D01*
X60833Y-48306D01*
X60892Y-48448D01*
X61001Y-48556D01*
X61142Y-48615D01*
X61296Y-48615D01*
X61438Y-48556D01*
X61546Y-48447D01*
X61605Y-48306D01*
X61605Y-48152D01*
X61546Y-48010D01*
X61437Y-47902D01*
X61370Y-47874D01*
X61403Y-47874D01*
X61467Y-47875D01*
X61529Y-47813D01*
X61529Y-47600D01*
X61529Y-47550D01*
X61529Y-47450D01*
X61629Y-47450D01*
X61679Y-47450D01*
X61816Y-47450D01*
X61992Y-47450D01*
X62129Y-47450D01*
X62179Y-47450D01*
X62279Y-47450D01*
X62329Y-47450D01*
X62642Y-47450D01*
X62704Y-47388D01*
X62703Y-47326D01*
X62665Y-47234D01*
X62595Y-47164D01*
X62546Y-47143D01*
X62581Y-47109D01*
X62603Y-47054D01*
X62603Y-46995D01*
X62603Y-46745D01*
X62580Y-46690D01*
X62538Y-46648D01*
X62483Y-46626D01*
X62424Y-46626D01*
X62223Y-46626D01*
X62138Y-46540D01*
X62138Y-46287D01*
X62230Y-46287D01*
X62285Y-46264D01*
X62327Y-46222D01*
X62349Y-46167D01*
X62349Y-46108D01*
X62349Y-45894D01*
X62624Y-45894D01*
X62657Y-45880D01*
X62705Y-45880D01*
X62705Y-45905D01*
X62728Y-45960D01*
X62761Y-45993D01*
X62713Y-46014D01*
X62643Y-46084D01*
X62605Y-46176D01*
X62604Y-46238D01*
X62666Y-46300D01*
X62979Y-46300D01*
X63029Y-46300D01*
X63129Y-46300D01*
X63179Y-46300D01*
X63492Y-46300D01*
X63554Y-46238D01*
X63553Y-46176D01*
X63515Y-46084D01*
X63445Y-46014D01*
X63396Y-45993D01*
X63431Y-45959D01*
X63453Y-45904D01*
X63453Y-45870D01*
X63716Y-45608D01*
X63716Y-45607D01*
X63758Y-45546D01*
X63771Y-45474D01*
X63772Y-45473D01*
X63772Y-44763D01*
X63758Y-44690D01*
X63716Y-44629D01*
X63716Y-44628D01*
X63485Y-44398D01*
X63503Y-44354D01*
X63503Y-44295D01*
X63503Y-44045D01*
X63480Y-43990D01*
X63446Y-43956D01*
X63495Y-43936D01*
X63565Y-43866D01*
X63603Y-43774D01*
X63604Y-43712D01*
X63604Y-43488D01*
X63603Y-43426D01*
X63565Y-43334D01*
X63495Y-43264D01*
X63404Y-43226D01*
X63305Y-43226D01*
X63241Y-43225D01*
X63179Y-43287D01*
X63179Y-43550D01*
X63542Y-43550D01*
X63604Y-43488D01*
X63604Y-43712D01*
X63542Y-43650D01*
X63229Y-43650D01*
X63179Y-43650D01*
X63079Y-43650D01*
X63029Y-43650D01*
X62716Y-43650D01*
X62654Y-43712D01*
X62654Y-43725D01*
X62629Y-43715D01*
X62629Y-43466D01*
X62653Y-43442D01*
X62654Y-43439D01*
X62654Y-43488D01*
X62716Y-43550D01*
X63079Y-43550D01*
X63079Y-43287D01*
X63017Y-43225D01*
X62953Y-43226D01*
X62854Y-43226D01*
X62763Y-43264D01*
X62706Y-43320D01*
X62708Y-43308D01*
X62709Y-43308D01*
X62709Y-42599D01*
X62695Y-42526D01*
X62653Y-42465D01*
X62653Y-42464D01*
X62532Y-42343D01*
X62532Y-41884D01*
X62543Y-41857D01*
X62543Y-41798D01*
X62543Y-41248D01*
X62520Y-41193D01*
X62502Y-41175D01*
X62558Y-41175D01*
X62558Y-41174D01*
X62625Y-41161D01*
X62638Y-41159D01*
X62639Y-41159D01*
X62706Y-41113D01*
X62722Y-41097D01*
X62799Y-41097D01*
X62799Y-41507D01*
X62765Y-41589D01*
X62765Y-41718D01*
X62814Y-41838D01*
X62905Y-41929D01*
X63025Y-41979D01*
X63154Y-41979D01*
X63274Y-41930D01*
X63365Y-41839D01*
X63415Y-41719D01*
X63415Y-41590D01*
X63366Y-41470D01*
X63275Y-41379D01*
X63219Y-41355D01*
X63219Y-41088D01*
X63314Y-41088D01*
X63369Y-41065D01*
X63411Y-41023D01*
X63433Y-40968D01*
X63433Y-40945D01*
X63495Y-40883D01*
X63533Y-40791D01*
X63534Y-40778D01*
X63472Y-40716D01*
X63376Y-40716D01*
X63368Y-40708D01*
X63323Y-40690D01*
X63369Y-40671D01*
X63376Y-40664D01*
X63472Y-40664D01*
X63534Y-40602D01*
X63533Y-40589D01*
X63495Y-40497D01*
X63433Y-40435D01*
X63433Y-40411D01*
X63426Y-40394D01*
X63433Y-40377D01*
X63433Y-40318D01*
X63433Y-40214D01*
X63426Y-40197D01*
X63433Y-40180D01*
X63433Y-40121D01*
X63433Y-40017D01*
X63426Y-40000D01*
X63433Y-39983D01*
X63433Y-39924D01*
X63433Y-39820D01*
X63426Y-39803D01*
X63433Y-39786D01*
X63433Y-39727D01*
X63433Y-39623D01*
X63426Y-39606D01*
X63433Y-39589D01*
X63433Y-39530D01*
X63433Y-39426D01*
X63426Y-39409D01*
X63433Y-39392D01*
X63433Y-39333D01*
X63433Y-39229D01*
X63426Y-39212D01*
X63433Y-39195D01*
X63433Y-39136D01*
X63433Y-39032D01*
X63426Y-39015D01*
X63433Y-38998D01*
X63433Y-38939D01*
X63433Y-38835D01*
X63426Y-38818D01*
X63433Y-38801D01*
X63433Y-38742D01*
X63433Y-38638D01*
X63410Y-38583D01*
X63368Y-38541D01*
X63313Y-38519D01*
X63254Y-38519D01*
X63054Y-38519D01*
X63009Y-38510D01*
X62657Y-38510D01*
X62577Y-38526D01*
X62554Y-38541D01*
X62508Y-38572D01*
X62488Y-38592D01*
X62396Y-38592D01*
X62276Y-38641D01*
X62185Y-38732D01*
X62135Y-38852D01*
X62135Y-38981D01*
X62184Y-39101D01*
X62266Y-39183D01*
X62185Y-39264D01*
X62135Y-39384D01*
X62135Y-39513D01*
X62184Y-39633D01*
X62243Y-39692D01*
X61417Y-39692D01*
X61349Y-39705D01*
X61336Y-39708D01*
X61268Y-39754D01*
X60957Y-40065D01*
X60957Y-38961D01*
X61017Y-38986D01*
X61146Y-38986D01*
X61266Y-38937D01*
X61332Y-38871D01*
X61496Y-38871D01*
X61496Y-38870D01*
X61563Y-38857D01*
X61576Y-38855D01*
X61577Y-38855D01*
X61644Y-38809D01*
X61900Y-38554D01*
X61900Y-38553D01*
X61946Y-38486D01*
X61946Y-38485D01*
X61947Y-38477D01*
X62031Y-38477D01*
X62047Y-38470D01*
X62065Y-38477D01*
X62124Y-38477D01*
X62228Y-38477D01*
X62244Y-38470D01*
X62262Y-38477D01*
X62321Y-38477D01*
X62425Y-38477D01*
X62480Y-38454D01*
X62522Y-38412D01*
X62544Y-38357D01*
X62544Y-38298D01*
X62544Y-38210D01*
X62578Y-38294D01*
X62669Y-38385D01*
X62789Y-38435D01*
X62918Y-38435D01*
X63038Y-38386D01*
X63129Y-38295D01*
X63179Y-38175D01*
X63179Y-38046D01*
X63130Y-37926D01*
X63039Y-37835D01*
X63024Y-37828D01*
X63024Y-37795D01*
X63010Y-37727D01*
X63008Y-37715D01*
X63008Y-37714D01*
X62962Y-37647D01*
X62962Y-37646D01*
X62254Y-36939D01*
X62187Y-36893D01*
X62173Y-36890D01*
X62123Y-36880D01*
X62055Y-36812D01*
X61935Y-36762D01*
X61806Y-36762D01*
X61745Y-36786D01*
X61745Y-36654D01*
X61745Y-36613D01*
X61745Y-33937D01*
X61745Y-33661D01*
X61745Y-33642D01*
X61745Y-33318D01*
X63758Y-33318D01*
X63926Y-33486D01*
X63926Y-48413D01*
X63926Y-48413D01*
G37*
G54D32*
X63926Y-48413D02*
X63748Y-48769D01*
X63554Y-48769D01*
X63554Y-46462D01*
X63492Y-46400D01*
X63129Y-46400D01*
X63129Y-46663D01*
X63191Y-46725D01*
X63255Y-46724D01*
X63354Y-46724D01*
X63445Y-46686D01*
X63515Y-46616D01*
X63553Y-46524D01*
X63554Y-46462D01*
X63554Y-48769D01*
X63180Y-48769D01*
X63180Y-48305D01*
X63180Y-48151D01*
X63121Y-48009D01*
X63029Y-47917D01*
X63029Y-46663D01*
X63029Y-46400D01*
X62666Y-46400D01*
X62604Y-46462D01*
X62605Y-46524D01*
X62643Y-46616D01*
X62713Y-46686D01*
X62804Y-46724D01*
X62903Y-46724D01*
X62967Y-46725D01*
X63029Y-46663D01*
X63029Y-47917D01*
X63012Y-47901D01*
X62871Y-47842D01*
X62717Y-47842D01*
X62704Y-47847D01*
X62704Y-47612D01*
X62642Y-47550D01*
X62279Y-47550D01*
X62279Y-47813D01*
X62341Y-47875D01*
X62405Y-47874D01*
X62504Y-47874D01*
X62595Y-47836D01*
X62665Y-47766D01*
X62703Y-47674D01*
X62704Y-47612D01*
X62704Y-47847D01*
X62575Y-47901D01*
X62467Y-48010D01*
X62408Y-48151D01*
X62408Y-48305D01*
X62467Y-48447D01*
X62576Y-48555D01*
X62717Y-48614D01*
X62871Y-48614D01*
X63013Y-48555D01*
X63121Y-48446D01*
X63180Y-48305D01*
X63180Y-48769D01*
X62393Y-48769D01*
X62393Y-48306D01*
X62393Y-48152D01*
X62334Y-48010D01*
X62225Y-47902D01*
X62129Y-47862D01*
X62179Y-47813D01*
X62179Y-47550D01*
X61992Y-47550D01*
X61816Y-47550D01*
X61629Y-47550D01*
X61629Y-47813D01*
X61691Y-47875D01*
X61755Y-47874D01*
X61854Y-47874D01*
X61788Y-47902D01*
X61680Y-48011D01*
X61621Y-48152D01*
X61621Y-48306D01*
X61680Y-48448D01*
X61789Y-48556D01*
X61930Y-48615D01*
X62084Y-48615D01*
X62226Y-48556D01*
X62334Y-48447D01*
X62393Y-48306D01*
X62393Y-48769D01*
X60819Y-48769D01*
X60819Y-48306D01*
X60819Y-48152D01*
X60760Y-48010D01*
X60651Y-47902D01*
X60510Y-47843D01*
X60356Y-47843D01*
X60214Y-47902D01*
X60106Y-48011D01*
X60091Y-48046D01*
X60066Y-47985D01*
X59979Y-47966D01*
X59908Y-48037D01*
X59908Y-47895D01*
X59889Y-47808D01*
X59709Y-47747D01*
X59521Y-47759D01*
X59401Y-47808D01*
X59382Y-47895D01*
X59645Y-48158D01*
X59908Y-47895D01*
X59908Y-48037D01*
X59716Y-48229D01*
X59979Y-48492D01*
X60066Y-48473D01*
X60088Y-48406D01*
X60106Y-48448D01*
X60215Y-48556D01*
X60356Y-48615D01*
X60510Y-48615D01*
X60652Y-48556D01*
X60760Y-48447D01*
X60819Y-48306D01*
X60819Y-48769D01*
X59908Y-48769D01*
X59908Y-48563D01*
X59645Y-48300D01*
X59574Y-48371D01*
X59574Y-48229D01*
X59311Y-47966D01*
X59224Y-47985D01*
X59163Y-48165D01*
X59175Y-48353D01*
X59224Y-48473D01*
X59311Y-48492D01*
X59574Y-48229D01*
X59574Y-48371D01*
X59382Y-48563D01*
X59401Y-48650D01*
X59581Y-48711D01*
X59769Y-48699D01*
X59889Y-48650D01*
X59908Y-48563D01*
X59908Y-48769D01*
X57919Y-48769D01*
X57919Y-46529D01*
X57919Y-46305D01*
X57918Y-46241D01*
X57918Y-46142D01*
X57880Y-46051D01*
X57810Y-45981D01*
X57718Y-45943D01*
X57656Y-45942D01*
X57594Y-46004D01*
X57594Y-46367D01*
X57857Y-46367D01*
X57919Y-46305D01*
X57919Y-46529D01*
X57857Y-46467D01*
X57594Y-46467D01*
X57594Y-46830D01*
X57656Y-46892D01*
X57718Y-46891D01*
X57810Y-46853D01*
X57880Y-46783D01*
X57918Y-46692D01*
X57918Y-46593D01*
X57919Y-46529D01*
X57919Y-48769D01*
X54201Y-48769D01*
X54201Y-47030D01*
X54201Y-46767D01*
X53838Y-46767D01*
X53776Y-46829D01*
X53777Y-46891D01*
X53815Y-46983D01*
X53885Y-47053D01*
X53976Y-47091D01*
X54075Y-47091D01*
X54139Y-47092D01*
X54201Y-47030D01*
X54201Y-48769D01*
X52393Y-48769D01*
X52215Y-48413D01*
X52215Y-44377D01*
X53877Y-46039D01*
X53877Y-46272D01*
X53900Y-46327D01*
X53933Y-46360D01*
X53885Y-46381D01*
X53815Y-46451D01*
X53777Y-46543D01*
X53776Y-46605D01*
X53838Y-46667D01*
X54151Y-46667D01*
X54201Y-46667D01*
X54301Y-46667D01*
X54301Y-46767D01*
X54301Y-46817D01*
X54301Y-47030D01*
X54363Y-47092D01*
X54427Y-47091D01*
X54526Y-47091D01*
X54617Y-47053D01*
X54679Y-46991D01*
X54706Y-46991D01*
X55156Y-46991D01*
X55188Y-46977D01*
X55230Y-47019D01*
X55285Y-47041D01*
X55344Y-47041D01*
X55644Y-47041D01*
X55699Y-47018D01*
X55741Y-46976D01*
X55763Y-46921D01*
X55763Y-46862D01*
X55763Y-46662D01*
X55740Y-46607D01*
X55698Y-46565D01*
X55643Y-46543D01*
X55584Y-46543D01*
X55499Y-46543D01*
X55470Y-46523D01*
X55456Y-46520D01*
X55389Y-46507D01*
X55252Y-46507D01*
X55210Y-46465D01*
X55155Y-46443D01*
X55096Y-46443D01*
X54679Y-46443D01*
X54617Y-46381D01*
X54568Y-46360D01*
X54576Y-46353D01*
X54592Y-46369D01*
X54647Y-46391D01*
X54706Y-46391D01*
X55156Y-46391D01*
X55211Y-46368D01*
X55252Y-46327D01*
X55389Y-46327D01*
X55389Y-46326D01*
X55456Y-46313D01*
X55469Y-46311D01*
X55470Y-46311D01*
X55498Y-46291D01*
X55499Y-46291D01*
X55644Y-46291D01*
X55699Y-46268D01*
X55741Y-46226D01*
X55763Y-46171D01*
X55763Y-46112D01*
X55763Y-45912D01*
X55740Y-45857D01*
X55698Y-45815D01*
X55674Y-45805D01*
X55674Y-45724D01*
X55814Y-45584D01*
X56358Y-45584D01*
X56358Y-45583D01*
X56425Y-45570D01*
X56438Y-45568D01*
X56439Y-45568D01*
X56506Y-45522D01*
X56683Y-45345D01*
X56756Y-45345D01*
X56876Y-45296D01*
X56915Y-45257D01*
X56915Y-45294D01*
X56416Y-45793D01*
X56284Y-45793D01*
X56229Y-45816D01*
X56187Y-45858D01*
X56165Y-45913D01*
X56165Y-45972D01*
X56165Y-46114D01*
X56103Y-46176D01*
X56065Y-46268D01*
X56064Y-46305D01*
X56126Y-46367D01*
X56364Y-46367D01*
X56414Y-46367D01*
X56514Y-46367D01*
X56514Y-46467D01*
X56414Y-46467D01*
X56364Y-46467D01*
X56126Y-46467D01*
X56064Y-46529D01*
X56065Y-46566D01*
X56103Y-46658D01*
X56165Y-46720D01*
X56165Y-46722D01*
X56165Y-46922D01*
X56188Y-46977D01*
X56230Y-47019D01*
X56285Y-47041D01*
X56344Y-47041D01*
X56644Y-47041D01*
X56699Y-47018D01*
X56720Y-46996D01*
X56759Y-46988D01*
X56772Y-46986D01*
X56773Y-46986D01*
X56840Y-46940D01*
X56989Y-46791D01*
X57099Y-46791D01*
X57154Y-46768D01*
X57187Y-46734D01*
X57208Y-46783D01*
X57278Y-46853D01*
X57370Y-46891D01*
X57432Y-46892D01*
X57494Y-46830D01*
X57494Y-46517D01*
X57494Y-46467D01*
X57494Y-46367D01*
X57494Y-46317D01*
X57494Y-46004D01*
X57432Y-45942D01*
X57370Y-45943D01*
X57278Y-45981D01*
X57208Y-46051D01*
X57187Y-46099D01*
X57153Y-46065D01*
X57098Y-46043D01*
X57039Y-46043D01*
X56988Y-46043D01*
X56873Y-45928D01*
X57273Y-45530D01*
X57273Y-45529D01*
X57303Y-45484D01*
X57318Y-45462D01*
X57319Y-45461D01*
X57334Y-45382D01*
X57335Y-45381D01*
X57335Y-45336D01*
X57356Y-45345D01*
X57485Y-45345D01*
X57605Y-45296D01*
X57696Y-45205D01*
X57746Y-45085D01*
X57746Y-44956D01*
X57697Y-44836D01*
X57690Y-44829D01*
X57690Y-43639D01*
X57697Y-43656D01*
X57739Y-43698D01*
X57794Y-43720D01*
X57853Y-43720D01*
X58103Y-43720D01*
X58158Y-43697D01*
X58200Y-43655D01*
X58222Y-43600D01*
X58222Y-43541D01*
X58222Y-43091D01*
X58199Y-43036D01*
X58164Y-43001D01*
X58200Y-42966D01*
X58222Y-42911D01*
X58222Y-42852D01*
X58222Y-42431D01*
X58256Y-42431D01*
X58271Y-42446D01*
X58272Y-42446D01*
X58273Y-42447D01*
X58274Y-42448D01*
X58274Y-42462D01*
X58274Y-42912D01*
X58297Y-42967D01*
X58331Y-43001D01*
X58296Y-43037D01*
X58274Y-43092D01*
X58274Y-43151D01*
X58274Y-43601D01*
X58297Y-43656D01*
X58339Y-43698D01*
X58358Y-43705D01*
X58358Y-43741D01*
X58347Y-43752D01*
X58297Y-43872D01*
X58297Y-44001D01*
X58346Y-44121D01*
X58437Y-44212D01*
X58557Y-44262D01*
X58686Y-44262D01*
X58806Y-44213D01*
X58897Y-44122D01*
X58947Y-44002D01*
X58947Y-43873D01*
X58898Y-43753D01*
X58807Y-43662D01*
X58797Y-43657D01*
X58800Y-43655D01*
X58822Y-43600D01*
X58822Y-43541D01*
X58822Y-43091D01*
X58799Y-43036D01*
X58764Y-43001D01*
X58800Y-42966D01*
X58822Y-42911D01*
X58822Y-42852D01*
X58822Y-42402D01*
X58799Y-42347D01*
X58757Y-42305D01*
X58702Y-42283D01*
X58700Y-42283D01*
X58696Y-42278D01*
X58696Y-42277D01*
X58569Y-42151D01*
X58568Y-42150D01*
X58568Y-42149D01*
X58553Y-42134D01*
X58553Y-42042D01*
X58528Y-41982D01*
X58633Y-41982D01*
X59269Y-42617D01*
X59269Y-43126D01*
X59224Y-43126D01*
X59169Y-43149D01*
X59127Y-43191D01*
X59105Y-43246D01*
X59105Y-43305D01*
X59105Y-43555D01*
X59128Y-43610D01*
X59161Y-43643D01*
X59113Y-43664D01*
X59043Y-43734D01*
X59005Y-43826D01*
X59004Y-43888D01*
X59066Y-43950D01*
X59379Y-43950D01*
X59429Y-43950D01*
X59529Y-43950D01*
X59529Y-44050D01*
X59429Y-44050D01*
X59379Y-44050D01*
X59066Y-44050D01*
X59004Y-44112D01*
X59005Y-44174D01*
X59043Y-44266D01*
X59113Y-44336D01*
X59136Y-44345D01*
X59123Y-44360D01*
X59077Y-44427D01*
X59074Y-44440D01*
X59061Y-44508D01*
X59061Y-45335D01*
X59074Y-45402D01*
X59077Y-45416D01*
X59105Y-45456D01*
X59105Y-45480D01*
X59004Y-45581D01*
X58912Y-45581D01*
X58792Y-45630D01*
X58701Y-45721D01*
X58651Y-45841D01*
X58651Y-45970D01*
X58700Y-46090D01*
X58732Y-46122D01*
X58701Y-46154D01*
X58651Y-46274D01*
X58651Y-46403D01*
X58700Y-46523D01*
X58791Y-46614D01*
X58911Y-46664D01*
X59040Y-46664D01*
X59160Y-46615D01*
X59251Y-46524D01*
X59271Y-46474D01*
X59284Y-46474D01*
X59734Y-46474D01*
X59789Y-46451D01*
X59831Y-46409D01*
X59832Y-46406D01*
X59832Y-46521D01*
X59867Y-46609D01*
X59843Y-46634D01*
X59805Y-46726D01*
X59804Y-46788D01*
X59866Y-46850D01*
X60179Y-46850D01*
X60229Y-46850D01*
X60329Y-46850D01*
X60329Y-46950D01*
X60229Y-46950D01*
X60179Y-46950D01*
X59866Y-46950D01*
X59804Y-47012D01*
X59805Y-47074D01*
X59843Y-47166D01*
X59913Y-47236D01*
X59961Y-47256D01*
X59927Y-47291D01*
X59905Y-47346D01*
X59905Y-47405D01*
X59905Y-47655D01*
X59928Y-47710D01*
X59970Y-47752D01*
X60025Y-47774D01*
X60084Y-47774D01*
X60534Y-47774D01*
X60589Y-47751D01*
X60604Y-47736D01*
X60620Y-47752D01*
X60675Y-47774D01*
X60734Y-47774D01*
X61151Y-47774D01*
X61213Y-47836D01*
X61229Y-47843D01*
X61142Y-47843D01*
X61000Y-47902D01*
X60892Y-48011D01*
X60833Y-48152D01*
X60833Y-48306D01*
X60892Y-48448D01*
X61001Y-48556D01*
X61142Y-48615D01*
X61296Y-48615D01*
X61438Y-48556D01*
X61546Y-48447D01*
X61605Y-48306D01*
X61605Y-48152D01*
X61546Y-48010D01*
X61437Y-47902D01*
X61370Y-47874D01*
X61403Y-47874D01*
X61467Y-47875D01*
X61529Y-47813D01*
X61529Y-47600D01*
X61529Y-47550D01*
X61529Y-47450D01*
X61629Y-47450D01*
X61679Y-47450D01*
X61816Y-47450D01*
X61992Y-47450D01*
X62129Y-47450D01*
X62179Y-47450D01*
X62279Y-47450D01*
X62329Y-47450D01*
X62642Y-47450D01*
X62704Y-47388D01*
X62703Y-47326D01*
X62665Y-47234D01*
X62595Y-47164D01*
X62546Y-47143D01*
X62581Y-47109D01*
X62603Y-47054D01*
X62603Y-46995D01*
X62603Y-46745D01*
X62580Y-46690D01*
X62538Y-46648D01*
X62483Y-46626D01*
X62424Y-46626D01*
X62223Y-46626D01*
X62138Y-46540D01*
X62138Y-46287D01*
X62230Y-46287D01*
X62285Y-46264D01*
X62327Y-46222D01*
X62349Y-46167D01*
X62349Y-46108D01*
X62349Y-45894D01*
X62624Y-45894D01*
X62657Y-45880D01*
X62705Y-45880D01*
X62705Y-45905D01*
X62728Y-45960D01*
X62761Y-45993D01*
X62713Y-46014D01*
X62643Y-46084D01*
X62605Y-46176D01*
X62604Y-46238D01*
X62666Y-46300D01*
X62979Y-46300D01*
X63029Y-46300D01*
X63129Y-46300D01*
X63179Y-46300D01*
X63492Y-46300D01*
X63554Y-46238D01*
X63553Y-46176D01*
X63515Y-46084D01*
X63445Y-46014D01*
X63396Y-45993D01*
X63431Y-45959D01*
X63453Y-45904D01*
X63453Y-45870D01*
X63716Y-45608D01*
X63716Y-45607D01*
X63758Y-45546D01*
X63771Y-45474D01*
X63772Y-45473D01*
X63772Y-44763D01*
X63758Y-44690D01*
X63716Y-44629D01*
X63716Y-44628D01*
X63485Y-44398D01*
X63503Y-44354D01*
X63503Y-44295D01*
X63503Y-44045D01*
X63480Y-43990D01*
X63446Y-43956D01*
X63495Y-43936D01*
X63565Y-43866D01*
X63603Y-43774D01*
X63604Y-43712D01*
X63604Y-43488D01*
X63603Y-43426D01*
X63565Y-43334D01*
X63495Y-43264D01*
X63404Y-43226D01*
X63305Y-43226D01*
X63241Y-43225D01*
X63179Y-43287D01*
X63179Y-43550D01*
X63542Y-43550D01*
X63604Y-43488D01*
X63604Y-43712D01*
X63542Y-43650D01*
X63229Y-43650D01*
X63179Y-43650D01*
X63079Y-43650D01*
X63029Y-43650D01*
X62716Y-43650D01*
X62654Y-43712D01*
X62654Y-43725D01*
X62629Y-43715D01*
X62629Y-43466D01*
X62653Y-43442D01*
X62654Y-43439D01*
X62654Y-43488D01*
X62716Y-43550D01*
X63079Y-43550D01*
X63079Y-43287D01*
X63017Y-43225D01*
X62953Y-43226D01*
X62854Y-43226D01*
X62763Y-43264D01*
X62706Y-43320D01*
X62708Y-43308D01*
X62709Y-43308D01*
X62709Y-42599D01*
X62695Y-42526D01*
X62653Y-42465D01*
X62653Y-42464D01*
X62532Y-42343D01*
X62532Y-41884D01*
X62543Y-41857D01*
X62543Y-41798D01*
X62543Y-41248D01*
X62520Y-41193D01*
X62502Y-41175D01*
X62558Y-41175D01*
X62558Y-41174D01*
X62625Y-41161D01*
X62638Y-41159D01*
X62639Y-41159D01*
X62706Y-41113D01*
X62722Y-41097D01*
X62799Y-41097D01*
X62799Y-41507D01*
X62765Y-41589D01*
X62765Y-41718D01*
X62814Y-41838D01*
X62905Y-41929D01*
X63025Y-41979D01*
X63154Y-41979D01*
X63274Y-41930D01*
X63365Y-41839D01*
X63415Y-41719D01*
X63415Y-41590D01*
X63366Y-41470D01*
X63275Y-41379D01*
X63219Y-41355D01*
X63219Y-41088D01*
X63314Y-41088D01*
X63369Y-41065D01*
X63411Y-41023D01*
X63433Y-40968D01*
X63433Y-40945D01*
X63495Y-40883D01*
X63533Y-40791D01*
X63534Y-40778D01*
X63472Y-40716D01*
X63376Y-40716D01*
X63368Y-40708D01*
X63323Y-40690D01*
X63369Y-40671D01*
X63376Y-40664D01*
X63472Y-40664D01*
X63534Y-40602D01*
X63533Y-40589D01*
X63495Y-40497D01*
X63433Y-40435D01*
X63433Y-40411D01*
X63426Y-40394D01*
X63433Y-40377D01*
X63433Y-40318D01*
X63433Y-40214D01*
X63426Y-40197D01*
X63433Y-40180D01*
X63433Y-40121D01*
X63433Y-40017D01*
X63426Y-40000D01*
X63433Y-39983D01*
X63433Y-39924D01*
X63433Y-39820D01*
X63426Y-39803D01*
X63433Y-39786D01*
X63433Y-39727D01*
X63433Y-39623D01*
X63426Y-39606D01*
X63433Y-39589D01*
X63433Y-39530D01*
X63433Y-39426D01*
X63426Y-39409D01*
X63433Y-39392D01*
X63433Y-39333D01*
X63433Y-39229D01*
X63426Y-39212D01*
X63433Y-39195D01*
X63433Y-39136D01*
X63433Y-39032D01*
X63426Y-39015D01*
X63433Y-38998D01*
X63433Y-38939D01*
X63433Y-38835D01*
X63426Y-38818D01*
X63433Y-38801D01*
X63433Y-38742D01*
X63433Y-38638D01*
X63410Y-38583D01*
X63368Y-38541D01*
X63313Y-38519D01*
X63254Y-38519D01*
X63054Y-38519D01*
X63009Y-38510D01*
X62657Y-38510D01*
X62577Y-38526D01*
X62554Y-38541D01*
X62508Y-38572D01*
X62488Y-38592D01*
X62396Y-38592D01*
X62276Y-38641D01*
X62185Y-38732D01*
X62135Y-38852D01*
X62135Y-38981D01*
X62184Y-39101D01*
X62266Y-39183D01*
X62185Y-39264D01*
X62135Y-39384D01*
X62135Y-39513D01*
X62184Y-39633D01*
X62243Y-39692D01*
X61417Y-39692D01*
X61349Y-39705D01*
X61336Y-39708D01*
X61268Y-39754D01*
X60957Y-40065D01*
X60957Y-38961D01*
X61017Y-38986D01*
X61146Y-38986D01*
X61266Y-38937D01*
X61332Y-38871D01*
X61496Y-38871D01*
X61496Y-38870D01*
X61563Y-38857D01*
X61576Y-38855D01*
X61577Y-38855D01*
X61644Y-38809D01*
X61900Y-38554D01*
X61900Y-38553D01*
X61946Y-38486D01*
X61946Y-38485D01*
X61947Y-38477D01*
X62031Y-38477D01*
X62047Y-38470D01*
X62065Y-38477D01*
X62124Y-38477D01*
X62228Y-38477D01*
X62244Y-38470D01*
X62262Y-38477D01*
X62321Y-38477D01*
X62425Y-38477D01*
X62480Y-38454D01*
X62522Y-38412D01*
X62544Y-38357D01*
X62544Y-38298D01*
X62544Y-38210D01*
X62578Y-38294D01*
X62669Y-38385D01*
X62789Y-38435D01*
X62918Y-38435D01*
X63038Y-38386D01*
X63129Y-38295D01*
X63179Y-38175D01*
X63179Y-38046D01*
X63130Y-37926D01*
X63039Y-37835D01*
X63024Y-37828D01*
X63024Y-37795D01*
X63010Y-37727D01*
X63008Y-37715D01*
X63008Y-37714D01*
X62962Y-37647D01*
X62962Y-37646D01*
X62254Y-36939D01*
X62187Y-36893D01*
X62173Y-36890D01*
X62123Y-36880D01*
X62055Y-36812D01*
X61935Y-36762D01*
X61806Y-36762D01*
X61745Y-36786D01*
X61745Y-36654D01*
X61745Y-36613D01*
X61745Y-33937D01*
X61745Y-33661D01*
X61745Y-33642D01*
X61745Y-33318D01*
X63758Y-33318D01*
X63926Y-33486D01*
X63926Y-48413D01*
M02*
